<?xml version="1.0" encoding="utf-8"?>
<!-- Generator: Adobe Illustrator 15.0.0, SVG Export Plug-In . SVG Version: 6.00 Build 0)  -->
<!DOCTYPE svg PUBLIC "-//W3C//DTD SVG 1.1//EN" "http://www.w3.org/Graphics/SVG/1.1/DTD/svg11.dtd" [
	<!ENTITY ns_extend "http://ns.adobe.com/Extensibility/1.0/">
	<!ENTITY ns_ai "http://ns.adobe.com/AdobeIllustrator/10.0/">
	<!ENTITY ns_graphs "http://ns.adobe.com/Graphs/1.0/">
	<!ENTITY ns_vars "http://ns.adobe.com/Variables/1.0/">
	<!ENTITY ns_imrep "http://ns.adobe.com/ImageReplacement/1.0/">
	<!ENTITY ns_sfw "http://ns.adobe.com/SaveForWeb/1.0/">
	<!ENTITY ns_custom "http://ns.adobe.com/GenericCustomNamespace/1.0/">
	<!ENTITY ns_adobe_xpath "http://ns.adobe.com/XPath/1.0/">
]>
<svg version="1.1" id="Layer_1" xmlns:x="&ns_extend;" xmlns:i="&ns_ai;" xmlns:graph="&ns_graphs;"
	 xmlns="http://www.w3.org/2000/svg" xmlns:xlink="http://www.w3.org/1999/xlink" x="0px" y="0px" width="1920.001px"
	 height="1080px" viewBox="0 0 1920.001 1080" enable-background="new 0 0 1920.001 1080" xml:space="preserve">
		<radialGradient id="bg_1_" cx="960" cy="540.9893" r="778.5026" gradientUnits="userSpaceOnUse">
			<stop  offset="0.3515" style="stop-color:#FFFFFF"/>
			<stop  offset="0.6142" style="stop-color:#F9F9F9"/>
			<stop  offset="0.9654" style="stop-color:#E8E9EA"/>
			<stop  offset="1" style="stop-color:#E6E7E8"/>
		</radialGradient>
		<rect id="bg_3_" x="0" y="1.979" fill="url(#bg_1_)" width="1920" height="1078.021"/>
		<g id="scelta_pacchi">
			<g id="midi">
				<g>
					
						<image overflow="visible" opacity="0.4" width="1548" height="1548" xlink:href="C76AA9B8.png"  transform="matrix(0.24 0 0 0.24 274.5225 488.8008)">
					</image>
					<g>
						<circle fill="#70E00E" cx="454.201" cy="668.479" r="155.679"/>
					</g>
				</g>
				<text transform="matrix(1 0 0 1 383.6816 712.9736)" fill="#FFFFFF" font-family="'Klavika-Regular'" font-size="152.6398">37</text>
				<g>
					<path fill="#231F20" d="M324.305,894.557h-12.939v12.047h14.476v3.619h-18.839v-33.414h18.095v3.619h-13.732v10.56h12.939
						V894.557z"/>
					<path fill="#231F20" d="M330.9,904.968c1.933,1.239,4.709,2.182,7.684,2.182c4.412,0,6.99-2.33,6.99-5.702
						c0-3.073-1.785-4.907-6.296-6.593c-5.453-1.983-8.824-4.858-8.824-9.519c0-5.206,4.313-9.072,10.808-9.072
						c3.371,0,5.899,0.793,7.337,1.636l-1.19,3.52c-1.041-0.645-3.272-1.586-6.296-1.586c-4.561,0-6.296,2.727-6.296,5.007
						c0,3.123,2.033,4.66,6.644,6.445c5.651,2.181,8.478,4.907,8.478,9.815c0,5.156-3.768,9.667-11.65,9.667
						c-3.223,0-6.743-0.991-8.527-2.181L330.9,904.968z"/>
					<path fill="#231F20" d="M361.291,899.713l-3.47,10.51h-4.462l11.402-33.414h5.156l11.402,33.414h-4.61l-3.57-10.51H361.291z
						 M372.297,896.342l-3.321-9.618c-0.744-2.182-1.24-4.164-1.735-6.098h-0.099c-0.496,1.934-0.992,4.016-1.686,6.048
						l-3.272,9.668H372.297z"/>
					<path fill="#231F20" d="M386.229,877.205c2.083-0.347,4.809-0.645,8.279-0.645c4.264,0,7.387,0.991,9.37,2.776
						c1.785,1.587,2.925,4.016,2.925,6.99c0,3.024-0.893,5.403-2.578,7.139c-2.33,2.43-5.999,3.669-10.212,3.669
						c-1.289,0-2.479-0.05-3.47-0.298v13.386h-4.313V877.205z M390.543,893.317c0.942,0.248,2.131,0.347,3.569,0.347
						c5.206,0,8.378-2.578,8.378-7.089c0-4.462-3.173-6.594-7.883-6.594c-1.884,0-3.321,0.148-4.065,0.347V893.317z"/>
					<path fill="#231F20" d="M413.845,899.713l-3.47,10.51h-4.462l11.402-33.414h5.156l11.402,33.414h-4.61l-3.57-10.51H413.845z
						 M424.851,896.342l-3.321-9.618c-0.744-2.182-1.24-4.164-1.735-6.098h-0.099c-0.496,1.934-0.992,4.016-1.686,6.048
						l-3.272,9.668H424.851z"/>
					<path fill="#231F20" d="M461.34,909.182c-1.537,0.793-4.759,1.586-8.825,1.586c-9.419,0-16.459-5.948-16.459-16.954
						c0-10.511,7.089-17.55,17.451-17.55c4.115,0,6.792,0.892,7.932,1.487l-1.091,3.52c-1.586-0.793-3.917-1.389-6.692-1.389
						c-7.833,0-13.039,5.008-13.039,13.782c0,8.229,4.709,13.436,12.791,13.436c2.677,0,5.354-0.546,7.089-1.389L461.34,909.182z"/>
					<path fill="#231F20" d="M466.794,876.809h4.313v16.112h0.148c0.893-1.289,1.785-2.479,2.627-3.569l10.213-12.543h5.354
						l-12.096,14.179l13.038,19.235h-5.106l-10.957-16.409l-3.222,3.668v12.741h-4.313V876.809z"/>
					<path fill="#231F20" d="M531.938,897.432c-0.149-4.016-0.297-8.874-0.297-13.732h-0.099c-1.091,4.264-2.479,9.023-3.768,12.939
						l-4.065,13.039h-5.9l-3.569-12.89c-1.09-3.967-2.181-8.726-3.024-13.089h-0.099c-0.149,4.512-0.347,9.668-0.545,13.832
						l-0.645,12.691h-6.99l2.132-33.414h10.064l3.272,11.154c1.091,3.867,2.082,8.031,2.826,11.948h0.198
						c0.893-3.867,2.033-8.279,3.173-11.998l3.52-11.104h9.915l1.785,33.414h-7.337L531.938,897.432z"/>
					<path fill="#231F20" d="M553.208,876.809v33.414h-7.535v-33.414H553.208z"/>
					<path fill="#231F20" d="M559.753,877.305c2.776-0.446,6.396-0.744,10.163-0.744c6.395,0,10.56,1.19,13.732,3.569
						c3.47,2.578,5.652,6.693,5.652,12.593c0,6.395-2.33,10.808-5.503,13.534c-3.52,2.925-8.924,4.313-15.468,4.313
						c-3.917,0-6.742-0.247-8.577-0.495V877.305z M567.289,904.521c0.645,0.148,1.735,0.148,2.627,0.148
						c6.891,0.05,11.402-3.718,11.402-11.699c0-6.941-4.065-10.609-10.609-10.609c-1.636,0-2.776,0.148-3.42,0.297V904.521z"/>
					<path fill="#231F20" d="M601.845,876.809v33.414h-7.535v-33.414H601.845z"/>
				</g>
			</g>
			<g id="maxi">
				<g>
					
						<image overflow="visible" opacity="0.4" width="1548" height="1548" xlink:href="C76AA9BE.png"  transform="matrix(0.24 0 0 0.24 768.748 488.8008)">
					</image>
					<g>
						<circle fill="#6FD813" cx="948.427" cy="668.479" r="155.679"/>
					</g>
				</g>
				<text transform="matrix(1 0 0 1 869.8184 712.9727)" fill="#FFFFFF" font-family="'Klavika-Regular'" font-size="152.6398">28</text>
				<g>
					<path fill="#231F20" d="M812.061,894.557h-12.939v12.047h14.476v3.619h-18.839v-33.414h18.095v3.619h-13.732v10.56h12.939
						V894.557z"/>
					<path fill="#231F20" d="M818.656,904.968c1.933,1.239,4.709,2.182,7.684,2.182c4.412,0,6.99-2.33,6.99-5.702
						c0-3.073-1.785-4.907-6.296-6.593c-5.453-1.983-8.824-4.858-8.824-9.519c0-5.206,4.313-9.072,10.808-9.072
						c3.371,0,5.899,0.793,7.337,1.636l-1.19,3.52c-1.041-0.645-3.272-1.586-6.296-1.586c-4.561,0-6.296,2.727-6.296,5.007
						c0,3.123,2.033,4.66,6.644,6.445c5.651,2.181,8.478,4.907,8.478,9.815c0,5.156-3.768,9.667-11.65,9.667
						c-3.223,0-6.743-0.991-8.527-2.181L818.656,904.968z"/>
					<path fill="#231F20" d="M849.047,899.713l-3.47,10.51h-4.462l11.402-33.414h5.156l11.402,33.414h-4.61l-3.57-10.51H849.047z
						 M860.053,896.342l-3.321-9.618c-0.744-2.182-1.24-4.164-1.735-6.098h-0.099c-0.496,1.934-0.992,4.016-1.686,6.048
						l-3.272,9.668H860.053z"/>
					<path fill="#231F20" d="M873.985,877.205c2.083-0.347,4.809-0.645,8.279-0.645c4.264,0,7.387,0.991,9.37,2.776
						c1.785,1.587,2.925,4.016,2.925,6.99c0,3.024-0.893,5.403-2.578,7.139c-2.33,2.43-5.999,3.669-10.212,3.669
						c-1.289,0-2.479-0.05-3.47-0.298v13.386h-4.313V877.205z M878.299,893.317c0.942,0.248,2.131,0.347,3.569,0.347
						c5.206,0,8.378-2.578,8.378-7.089c0-4.462-3.173-6.594-7.883-6.594c-1.884,0-3.321,0.148-4.065,0.347V893.317z"/>
					<path fill="#231F20" d="M901.601,899.713l-3.47,10.51h-4.462l11.402-33.414h5.156l11.402,33.414h-4.61l-3.57-10.51H901.601z
						 M912.606,896.342l-3.321-9.618c-0.744-2.182-1.24-4.164-1.735-6.098h-0.099c-0.496,1.934-0.992,4.016-1.686,6.048
						l-3.272,9.668H912.606z"/>
					<path fill="#231F20" d="M949.096,909.182c-1.537,0.793-4.759,1.586-8.825,1.586c-9.419,0-16.459-5.948-16.459-16.954
						c0-10.511,7.089-17.55,17.451-17.55c4.115,0,6.792,0.892,7.932,1.487l-1.091,3.52c-1.586-0.793-3.917-1.389-6.692-1.389
						c-7.833,0-13.039,5.008-13.039,13.782c0,8.229,4.709,13.436,12.791,13.436c2.677,0,5.354-0.546,7.089-1.389L949.096,909.182z"
						/>
					<path fill="#231F20" d="M954.55,876.809h4.313v16.112h0.148c0.893-1.289,1.785-2.479,2.627-3.569l10.213-12.543h5.354
						l-12.096,14.179l13.038,19.235h-5.106l-10.956-16.409l-3.222,3.668v12.741h-4.313V876.809z"/>
					<path fill="#231F20" d="M1019.694,897.432c-0.148-4.016-0.297-8.874-0.297-13.732h-0.1c-1.091,4.264-2.479,9.023-3.768,12.939
						l-4.065,13.039h-5.899l-3.57-12.89c-1.09-3.967-2.181-8.726-3.023-13.089h-0.1c-0.148,4.512-0.347,9.668-0.545,13.832
						l-0.645,12.691h-6.99l2.132-33.414h10.063l3.272,11.154c1.091,3.867,2.082,8.031,2.825,11.948h0.199
						c0.893-3.867,2.032-8.279,3.172-11.998l3.521-11.104h9.915l1.785,33.414h-7.338L1019.694,897.432z"/>
					<path fill="#231F20" d="M1041.015,901.646l-2.379,8.576h-7.783l10.162-33.414h9.916l10.41,33.414h-8.18l-2.578-8.576H1041.015z
						 M1049.492,895.994l-2.082-7.089c-0.595-1.983-1.19-4.462-1.686-6.445h-0.099c-0.496,1.983-0.992,4.512-1.537,6.445
						l-1.983,7.089H1049.492z"/>
					<path fill="#231F20" d="M1082.165,910.223l-3.024-6.048c-1.239-2.33-2.032-4.065-2.975-5.999h-0.099
						c-0.694,1.934-1.537,3.669-2.628,5.999l-2.727,6.048h-8.626l9.667-16.905l-9.32-16.509h8.676l2.925,6.098
						c0.992,2.033,1.735,3.669,2.529,5.553h0.099c0.793-2.132,1.438-3.619,2.28-5.553l2.826-6.098h8.626l-9.419,16.311l9.914,17.104
						H1082.165z"/>
					<path fill="#231F20" d="M1102.542,876.809v33.414h-7.535v-33.414H1102.542z"/>
				</g>
			</g>
			<g id="junior">
				<g id="cerchio">
					
						<image overflow="visible" opacity="0.4" width="1548" height="1548" xlink:href="C76AA9BA.png"  transform="matrix(0.24 0 0 0.24 1262.9736 487.1045)">
					</image>
					<g>
						<circle fill="#6FD813" cx="1442.653" cy="666.783" r="155.679"/>
					</g>
				</g>
				<text transform="matrix(1 0 0 1 1368.3945 711.2773)" fill="#FFFFFF" font-family="'Klavika-Regular'" font-size="152.6398">32</text>
				<g>
					<path fill="#231F20" d="M1281.374,894.557h-12.939v12.047h14.477v3.619h-18.839v-33.414h18.095v3.619h-13.732v10.56h12.939
						V894.557z"/>
					<path fill="#231F20" d="M1287.969,904.968c1.933,1.239,4.71,2.182,7.685,2.182c4.412,0,6.99-2.33,6.99-5.702
						c0-3.073-1.785-4.907-6.297-6.593c-5.453-1.983-8.824-4.858-8.824-9.519c0-5.206,4.313-9.072,10.808-9.072
						c3.371,0,5.899,0.793,7.337,1.636l-1.189,3.52c-1.041-0.645-3.272-1.586-6.297-1.586c-4.561,0-6.296,2.727-6.296,5.007
						c0,3.123,2.032,4.66,6.644,6.445c5.651,2.181,8.478,4.907,8.478,9.815c0,5.156-3.769,9.667-11.65,9.667
						c-3.223,0-6.743-0.991-8.527-2.181L1287.969,904.968z"/>
					<path fill="#231F20" d="M1318.36,899.713l-3.471,10.51h-4.462l11.402-33.414h5.156l11.402,33.414h-4.61l-3.57-10.51H1318.36z
						 M1329.366,896.342l-3.322-9.618c-0.743-2.182-1.239-4.164-1.734-6.098h-0.1c-0.496,1.934-0.992,4.016-1.686,6.048
						l-3.271,9.668H1329.366z"/>
					<path fill="#231F20" d="M1343.298,877.205c2.083-0.347,4.81-0.645,8.279-0.645c4.264,0,7.387,0.991,9.37,2.776
						c1.785,1.587,2.925,4.016,2.925,6.99c0,3.024-0.893,5.403-2.578,7.139c-2.33,2.43-5.998,3.669-10.212,3.669
						c-1.289,0-2.479-0.05-3.47-0.298v13.386h-4.314V877.205z M1347.612,893.317c0.941,0.248,2.131,0.347,3.568,0.347
						c5.206,0,8.379-2.578,8.379-7.089c0-4.462-3.173-6.594-7.883-6.594c-1.884,0-3.321,0.148-4.064,0.347V893.317z"/>
					<path fill="#231F20" d="M1370.913,899.713l-3.47,10.51h-4.462l11.402-33.414h5.156l11.402,33.414h-4.61l-3.569-10.51H1370.913z
						 M1381.919,896.342l-3.32-9.618c-0.744-2.182-1.24-4.164-1.736-6.098h-0.099c-0.495,1.934-0.991,4.016-1.686,6.048
						l-3.272,9.668H1381.919z"/>
					<path fill="#231F20" d="M1418.409,909.182c-1.537,0.793-4.76,1.586-8.825,1.586c-9.419,0-16.459-5.948-16.459-16.954
						c0-10.511,7.089-17.55,17.45-17.55c4.115,0,6.793,0.892,7.933,1.487l-1.091,3.52c-1.586-0.793-3.916-1.389-6.692-1.389
						c-7.833,0-13.038,5.008-13.038,13.782c0,8.229,4.709,13.436,12.79,13.436c2.677,0,5.354-0.546,7.089-1.389L1418.409,909.182z"
						/>
					<path fill="#231F20" d="M1423.863,876.809h4.313v16.112h0.148c0.893-1.289,1.785-2.479,2.627-3.569l10.213-12.543h5.354
						l-12.097,14.179l13.039,19.235h-5.106l-10.956-16.409l-3.223,3.668v12.741h-4.313V876.809z"/>
					<path fill="#231F20" d="M1467.293,876.809h7.536v21.119c0,9.519-4.562,12.84-11.85,12.84c-1.784,0-4.064-0.297-5.553-0.793
						l0.844-6.098c1.041,0.347,2.379,0.595,3.867,0.595c3.172,0,5.155-1.438,5.155-6.594V876.809z"/>
					<path fill="#231F20" d="M1488.661,876.809v19.186c0,5.801,2.231,8.726,6.049,8.726c3.966,0,6.147-2.776,6.147-8.726v-19.186
						h7.535v18.739c0,10.313-5.206,15.22-13.931,15.22c-8.428,0-13.336-4.709-13.336-15.318v-18.641H1488.661z"/>
					<path fill="#231F20" d="M1514.938,910.223v-33.414h8.824l6.941,12.245c1.982,3.52,3.916,7.685,5.453,11.452h0.099
						c-0.446-4.412-0.595-8.924-0.595-13.98v-9.717h6.94v33.414h-7.932l-7.14-12.89c-1.982-3.569-4.213-7.883-5.8-11.799h-0.198
						c0.248,4.462,0.347,9.171,0.347,14.625v10.063H1514.938z"/>
					<path fill="#231F20" d="M1556.731,876.809v33.414h-7.535v-33.414H1556.731z"/>
					<path fill="#231F20" d="M1593.864,893.169c0,11.006-6.594,17.599-16.409,17.599c-9.866,0-15.716-7.485-15.716-17.054
						c0-10.015,6.445-17.5,16.262-17.5C1588.263,876.214,1593.864,883.897,1593.864,893.169z M1569.722,893.565
						c0,6.594,3.073,11.204,8.13,11.204c5.106,0,8.031-4.858,8.031-11.354c0-6.048-2.825-11.204-8.031-11.204
						C1572.696,882.212,1569.722,887.07,1569.722,893.565z"/>
					<path fill="#231F20" d="M1598.824,877.255c2.429-0.396,5.999-0.694,10.063-0.694c4.958,0,8.428,0.744,10.809,2.628
						c2.032,1.586,3.123,3.966,3.123,7.039c0,4.215-3.024,7.14-5.9,8.181v0.148c2.33,0.942,3.619,3.123,4.463,6.197
						c1.041,3.817,2.032,8.18,2.676,9.469h-7.732c-0.496-0.991-1.34-3.669-2.281-7.783c-0.941-4.214-2.379-5.305-5.503-5.354h-2.231
						v13.138h-7.485V877.255z M1606.31,891.632h2.975c3.769,0,5.999-1.884,5.999-4.809c0-3.024-2.082-4.611-5.552-4.611
						c-1.835,0-2.876,0.1-3.422,0.248V891.632z"/>
				</g>
			</g>
		</g>
		<g>
			<g>
				<!--
					<radialGradient id="SVGID_1_" cx="961.1924" cy="-40.668" r="120.871" gradientTransform="matrix(1.0974 0 0 2.8086 -93.5227 488.8477)" gradientUnits="userSpaceOnUse">
					<stop  offset="0" style="stop-color:#808285"/>
					<stop  offset="0.2543" style="stop-color:#A8A9AB;stop-opacity:0.7126"/>
					<stop  offset="0.6819" style="stop-color:#E7E7E7;stop-opacity:0.2294"/>
					<stop  offset="0.8848" style="stop-color:#FFFFFF;stop-opacity:0"/>
				</radialGradient>
				<path fill="url(#SVGID_1_)" d="M628.954,464.264c0,6.794,17.953,12.299,40.097,12.299h584.478
					c22.145,0,40.098-5.505,40.098-12.299V284.985c0-6.792-17.953-12.297-40.098-12.297H669.051
					c-22.144,0-40.097,5.505-40.097,12.297V464.264z"/>
-->
				<path d="M1099.172,363.701c0,9.186-7.448,16.635-16.636,16.635H840.043c-9.188,0-16.636-7.449-16.636-16.635V121.207
					c0-9.188,7.448-16.636,16.636-16.636h242.493c9.188,0,16.636,7.448,16.636,16.636V363.701z"/>
				<g>
					<linearGradient id="SVGID_2_" gradientUnits="userSpaceOnUse" x1="844.0562" y1="121.293" x2="1088.1505" y2="373.3575">
						<stop  offset="0" style="stop-color:#8185BD"/>
						<stop  offset="0.0554" style="stop-color:#9A9DC8"/>
						<stop  offset="0.1595" style="stop-color:#C3C5D9"/>
						<stop  offset="0.2416" style="stop-color:#DDDEE4"/>
						<stop  offset="0.2909" style="stop-color:#E6E7E8"/>
						<stop  offset="0.4001" style="stop-color:#E1E2E7"/>
						<stop  offset="0.5365" style="stop-color:#D1D3E3"/>
						<stop  offset="0.6545" style="stop-color:#BEC1DE"/>
						<stop  offset="0.8038" style="stop-color:#DCDDED;stop-opacity:0.8963"/>
						<stop  offset="1" style="stop-color:#FFFFFF;stop-opacity:0.76"/>
					</linearGradient>
					<path fill="url(#SVGID_2_)" d="M1089.283,352.824c0,9.123-7.346,18.184-16.406,18.184H850.764l-1.593-1.249
						c-9.062,0-16.407-7.812-16.407-16.935V131.129c0-9.124,7.346-16.52,16.407-16.52h223.706c9.061,0,16.406,7.396,16.406,16.52
						V352.824z"/>
					<path fill="none" stroke="#020202" stroke-width="4" stroke-miterlimit="10" d="M1013.828,243.238h38.44v-79.075
						c0-7.302-5.922-13.224-13.223-13.224H883.002c-7.304,0-13.226,5.922-13.226,13.224v156.046c0,7.305,5.922,13.226,13.226,13.226
						h123.865l53.297-56.766V157.416c0-7.937-6.437-14.367-14.371-14.367H876.252c-7.935,0-14.368,6.431-14.368,14.367v169.542
						c0,7.936,6.434,14.368,14.368,14.368h134.579l56.59-62.132V151.209c0-8.517-6.904-15.419-15.42-15.419H870.045
						c-8.516,0-15.42,6.902-15.42,15.419v181.955c0,8.518,6.904,15.421,15.42,15.421h144.434l60.299-66.831V144.919
						c0-9.106-7.381-16.486-16.487-16.486H863.755c-9.104,0-16.486,7.38-16.486,16.486v194.537c0,9.104,7.382,16.486,16.486,16.486
						h154.419l64.17-71.557V138.449c0-9.711-7.873-17.584-17.581-17.584H857.284c-9.71,0-17.582,7.873-17.582,17.584v207.477
						c0,9.71,7.872,17.582,17.582,17.582h164.69l67.309-76.708V132.516c0-10.269-8.323-18.59-18.588-18.59H851.353
						c-10.267,0-18.589,8.321-18.589,18.59V351.86c0,10.265,8.322,18.587,18.589,18.587h174.109"/>
					<path d="M1015.115,286.021c0,5.15-4.175,9.326-9.326,9.326h-89.531c-5.151,0-9.327-4.176-9.327-9.326v-87.668
						c0-5.151,4.176-9.326,9.327-9.326h89.531c5.151,0,9.326,4.175,9.326,9.326V286.021z"/>
					<g>
						<path fill="#F0EFEF" d="M935.251,246.643h-3.112v7.316h-5.303v-23.543h9.793c5.727,0,7.848,2.262,7.848,6.681v2.899
							c0,2.935-1.06,4.914-3.43,5.902l5.693,8.061h-6.294L935.251,246.643z M939.175,237.592c0-1.768-0.672-2.475-2.828-2.475
							h-4.208v6.929h4.208c2.263,0,2.828-0.813,2.828-2.582V237.592z"/>
						<path fill="#F0EFEF" d="M949.567,253.959v-23.543h14.955v4.701h-9.65v5.02h8.908v4.702h-8.908v9.12H949.567z"/>
						<path fill="#F0EFEF" d="M968.059,253.959v-23.543h5.304v23.543H968.059z"/>
						<path fill="#F0EFEF" d="M987.255,253.959h-9.121v-23.543h9.121c5.799,0,7.956,2.934,7.956,6.113v11.313
							C995.211,250.988,993.054,253.959,987.255,253.959z M989.908,237.98c0-1.839-0.64-2.863-3.288-2.863h-3.183v14.14h3.183
							c2.648,0,3.288-1.024,3.288-2.864V237.98z"/>
					</g>
					<g>
						<path fill="none" stroke="#F0EFEF" stroke-width="3" stroke-miterlimit="10" d="M942.84,212.502
							c4.845-3.489,11.212-5.607,18.185-5.607s13.339,2.117,18.183,5.607"/>
						<path fill="none" stroke="#F0EFEF" stroke-width="3" stroke-miterlimit="10" d="M944.762,216.029
							c4.161-3.392,9.912-5.49,16.263-5.49c6.311,0,12.026,2.072,16.182,5.427"/>
						<path fill="none" stroke="#F0EFEF" stroke-width="3" stroke-miterlimit="10" d="M947.193,220.04
							c3.279-3.257,8.257-5.334,13.831-5.334c5.575,0,10.552,2.078,13.833,5.336"/>
					</g>
					<g>
						<path fill="none" stroke="#F0EFEF" stroke-width="3" stroke-miterlimit="10" d="M942.84,273.935
							c4.845,3.49,11.212,5.608,18.185,5.608s13.339-2.118,18.183-5.607"/>
						<path fill="none" stroke="#F0EFEF" stroke-width="3" stroke-miterlimit="10" d="M944.762,270.407
							c4.161,3.393,9.912,5.489,16.263,5.489c6.311,0,12.026-2.07,16.182-5.425"/>
						<path fill="none" stroke="#F0EFEF" stroke-width="3" stroke-miterlimit="10" d="M947.193,266.397
							c3.279,3.257,8.257,5.335,13.831,5.335c5.575,0,10.552-2.078,13.833-5.336"/>
					</g>
				</g>
			</g>
				<image overflow="visible" width="1417" height="281" xlink:href="rfidRiflesso.png"  transform="matrix(0.4158 0 0 0.4158 666.6689 379.2021)"/>
		</g>
</svg>
