<?xml version="1.0" encoding="utf-8"?>
<!-- Generator: Adobe Illustrator 15.0.0, SVG Export Plug-In . SVG Version: 6.00 Build 0)  -->
<svg version="1.1" id="Layer_1" 
	 xmlns="http://www.w3.org/2000/svg" xmlns:xlink="http://www.w3.org/1999/xlink" x="0px" y="0px" width="1920px" height="1080px"
	 viewBox="0 0 1920 1080" enable-background="new 0 0 1920 1080" xml:space="preserve">
		<g opacity="0.5">
			<radialGradient id="bg_2_" cx="960" cy="540.9893" r="778.5026" gradientUnits="userSpaceOnUse">
				<stop  offset="0.3515" style="stop-color:#FFFFFF"/>
				<stop  offset="0.6142" style="stop-color:#F9F9F9"/>
				<stop  offset="0.9654" style="stop-color:#E8E9EA"/>
				<stop  offset="1" style="stop-color:#E6E7E8"/>
			</radialGradient>
			<rect id="bg_1_" x="0" y="1.979" fill="url(#bg_2_)" width="1920" height="1078.021"/>
		</g>
		<g>
			<g>
				<!--
					<radialGradient id="SVGID_1_" cx="961.0977" cy="834.4551" r="290.6295" gradientTransform="matrix(1.0974 0 0 2.8086 -93.5135 -1596.4681)" gradientUnits="userSpaceOnUse">
					<stop  offset="0" style="stop-color:#808285"/>
					<stop  offset="0.2543" style="stop-color:#A8A9AB;stop-opacity:0.7126"/>
					<stop  offset="0.6819" style="stop-color:#E7E7E7;stop-opacity:0.2294"/>
					<stop  offset="0.8848" style="stop-color:#FFFFFF;stop-opacity:0"/>
				</radialGradient>
				<path fill="url(#SVGID_1_)" d="M162.106,962.716c0,16.333,43.166,29.57,96.412,29.57h1405.356
					c53.246,0,96.41-13.237,96.41-29.57V531.645c0-16.333-43.164-29.571-96.41-29.571H258.518
					c-53.246,0-96.412,13.238-96.412,29.571V962.716z"/>
-->
				<path d="M1292.729,720.911c0,22.091-17.91,40-40,40H669.663c-22.091,0-40-17.909-40-40V137.845c0-22.091,17.909-40,40-40
					h583.067c22.09,0,40,17.909,40,40V720.911z"/>
				<g>
					<linearGradient id="SVGID_2_" gradientUnits="userSpaceOnUse" x1="679.3096" y1="138.0488" x2="1266.2271" y2="744.1302">
						<stop  offset="0" style="stop-color:#8185BD"/>
						<stop  offset="0.0554" style="stop-color:#9A9DC8"/>
						<stop  offset="0.1595" style="stop-color:#C3C5D9"/>
						<stop  offset="0.2416" style="stop-color:#DDDEE4"/>
						<stop  offset="0.2909" style="stop-color:#E6E7E8"/>
						<stop  offset="0.4001" style="stop-color:#E1E2E7"/>
						<stop  offset="0.5365" style="stop-color:#D1D3E3"/>
						<stop  offset="0.6545" style="stop-color:#BEC1DE"/>
						<stop  offset="0.8038" style="stop-color:#DCDDED;stop-opacity:0.8963"/>
						<stop  offset="1" style="stop-color:#FFFFFF;stop-opacity:0.76"/>
					</linearGradient>
					<path fill="url(#SVGID_2_)" d="M1268.952,694.759c0,21.938-17.662,43.722-39.449,43.722H695.44l-3.832-3
						c-21.788,0-39.45-18.784-39.45-40.722V161.701c0-21.937,17.662-39.721,39.45-39.721h537.895
						c21.787,0,39.449,17.784,39.449,39.721V694.759z"/>
					<path fill="none" stroke="#020202" stroke-width="4" stroke-miterlimit="10" d="M1087.522,431.266h92.43V241.133
						c0-17.56-14.238-31.795-31.795-31.795H772.955c-17.56,0-31.798,14.235-31.798,31.795v375.206
						c0,17.563,14.238,31.799,31.798,31.799h297.83l128.148-136.488v-286.74c0-19.083-15.473-34.546-34.551-34.546H756.726
						c-19.079,0-34.547,15.463-34.547,34.546v407.658c0,19.08,15.468,34.545,34.547,34.545h323.589l136.068-149.392V209.985
						c0-20.478-16.6-37.076-37.076-37.076H741.801c-20.477,0-37.077,16.599-37.077,37.076v437.506
						c0,20.476,16.601,37.075,37.077,37.075h347.284l144.988-160.691V194.858c0-21.893-17.748-39.64-39.641-39.64H726.678
						c-21.894,0-39.642,17.748-39.642,39.64v467.759c0,21.892,17.748,39.64,39.642,39.64h371.293l154.293-172.054V179.301
						c0-23.35-18.932-42.277-42.273-42.277H711.12c-23.349,0-42.276,18.927-42.276,42.277v498.874
						c0,23.349,18.928,42.275,42.276,42.275h395.993l161.84-184.445v-370.97c0-24.688-20.014-44.696-44.693-44.696H696.855
						c-24.686,0-44.696,20.009-44.696,44.696v527.407c0,24.684,20.011,44.693,44.696,44.693h418.638"/>
					<path d="M1090.616,534.135c0,12.385-10.037,22.424-22.424,22.424H852.917c-12.387,0-22.427-10.039-22.427-22.424V323.34
						c0-12.383,10.04-22.423,22.427-22.423h215.275c12.387,0,22.424,10.041,22.424,22.423V534.135z"/>
					<g>
						<path fill="#F0EFEF" d="M898.586,439.448h-7.482v17.596h-12.751v-56.612h23.548c13.77,0,18.87,5.439,18.87,16.064v6.971
							c0,7.058-2.549,11.817-8.247,14.196l13.688,19.381h-15.131L898.586,439.448z M908.021,417.687c0-4.25-1.615-5.949-6.801-5.949
							h-10.116v16.661h10.116c5.44,0,6.801-1.956,6.801-6.208V417.687z"/>
						<path fill="#F0EFEF" d="M933.011,457.044v-56.612h35.959v11.306h-23.205v12.07h21.42v11.305h-21.42v21.932H933.011z"/>
						<path fill="#F0EFEF" d="M977.474,457.044v-56.612h12.748v56.612H977.474z"/>
						<path fill="#F0EFEF" d="M1023.63,457.044h-21.934v-56.612h21.934c13.939,0,19.127,7.056,19.127,14.704v27.201
							C1042.757,449.901,1037.569,457.044,1023.63,457.044z M1030.009,418.623c0-4.421-1.537-6.885-7.91-6.885h-7.65v34h7.65
							c6.373,0,7.91-2.466,7.91-6.886V418.623z"/>
					</g>
					<g>
						<path fill="none" stroke="#F0EFEF" stroke-width="3" stroke-miterlimit="10" d="M916.834,357.362
							c11.649-8.391,26.956-13.483,43.723-13.483c16.766,0,32.072,5.091,43.721,13.482"/>
						<path fill="none" stroke="#F0EFEF" stroke-width="3" stroke-miterlimit="10" d="M921.456,365.844
							c10.006-8.157,23.832-13.201,39.102-13.201c15.172,0,28.918,4.98,38.908,13.047"/>
						<path fill="none" stroke="#F0EFEF" stroke-width="3" stroke-miterlimit="10" d="M927.3,375.486
							c7.887-7.833,19.855-12.827,33.258-12.827s25.371,4.997,33.26,12.831"/>
					</g>
					<g>
						<path fill="none" stroke="#F0EFEF" stroke-width="3" stroke-miterlimit="10" d="M916.834,505.075
							c11.649,8.391,26.956,13.483,43.723,13.483c16.766,0,32.072-5.092,43.721-13.482"/>
						<path fill="none" stroke="#F0EFEF" stroke-width="3" stroke-miterlimit="10" d="M921.456,496.593
							c10.006,8.155,23.832,13.2,39.102,13.2c15.172,0,28.918-4.98,38.908-13.046"/>
						<path fill="none" stroke="#F0EFEF" stroke-width="3" stroke-miterlimit="10" d="M927.3,486.951
							c7.887,7.831,19.855,12.826,33.258,12.826s25.371-4.996,33.26-12.829"/>
					</g>
				</g>
			</g>
			
				<image overflow="visible" width="1417" height="281" xlink:href="rfidRiflesso.png"  transform="matrix(0.9999 0 0 0.9999 252.7837 758.1797)">
			</image>
		</g>

</svg>
