<?xml version="1.0" encoding="utf-8"?>
<!-- Generator: Adobe Illustrator 15.0.0, SVG Export Plug-In . SVG Version: 6.00 Build 0)  -->
<!DOCTYPE svg PUBLIC "-//W3C//DTD SVG 1.1//EN" "http://www.w3.org/Graphics/SVG/1.1/DTD/svg11.dtd">
<svg version="1.1" id="Layer_1" xmlns="http://www.w3.org/2000/svg" xmlns:xlink="http://www.w3.org/1999/xlink" x="0px" y="0px"
	 width="1024px" height="768px" viewBox="0 0 1024 768" enable-background="new 0 0 1024 768" xml:space="preserve">
<g id="sfondo">
	<rect id="bg" y="21.979" fill="#F0EFEF" width="1024.001" height="724.043"/>
	<rect id="sfondo_titolo" x="-0.001" fill="#BBBBBB" width="1024" height="88.96"/>
	
		<linearGradient id="bordo_verde_titolo_1_" gradientUnits="userSpaceOnUse" x1="541.7988" y1="-81.6699" x2="1565.7988" y2="-81.6699" gradientTransform="matrix(1 0 0 1 -541.8008 173.8008)">
		<stop  offset="0" style="stop-color:#29B574"/>
		<stop  offset="1" style="stop-color:#1C905B"/>
	</linearGradient>
	<rect id="bordo_verde_titolo" x="-0.001" y="88.781" fill="url(#bordo_verde_titolo_1_)" width="1024" height="6.699"/>
	<rect id="sfondo_footer" x="-0.001" y="743.461" fill="#BBBBBB" width="1024" height="25.045"/>
	
		<linearGradient id="bordo_verde_footer_1_" gradientUnits="userSpaceOnUse" x1="812.6992" y1="-161.4419" x2="1836.6992" y2="-161.4419" gradientTransform="matrix(1 0 0 -1 -812.7012 578.4805)">
		<stop  offset="0" style="stop-color:#29B574"/>
		<stop  offset="1" style="stop-color:#1C905B"/>
	</linearGradient>
	<rect id="bordo_verde_footer" x="-0.001" y="736.572" fill="url(#bordo_verde_footer_1_)" width="1024" height="6.7"/>
</g>
<g id="titolo">
	<g enable-background="new    ">
		<path fill="#231F20" d="M49.397,63.741V27.563h22.761v7.225H57.545v6.627h13.472v7.225H57.545v7.877h14.612v7.225H49.397z"/>
		<path fill="#231F20" d="M89,64.284c-4.183,0-8.583-0.923-11.679-2.336l1.358-6.301c3.313,1.032,6.681,1.738,10.43,1.738
			c4.183,0,4.997-0.814,4.997-3.857c0-3.259-0.163-3.639-6.084-4.942c-8.746-1.901-10.049-3.64-10.049-11.462
			c0-7.225,2.553-10.104,12.494-10.104c3.15,0,6.953,0.325,10.973,1.194l-0.815,6.845c-4.128-0.706-6.79-1.032-10.049-1.032
			c-3.639,0-4.454,0.652-4.454,3.313c0,3.477,0.163,3.531,5.867,4.889c9.778,2.336,10.267,4.237,10.267,11.354
			C102.254,60.753,99.918,64.284,89,64.284z"/>
		<path fill="#231F20" d="M137.673,63.741h-8.474l-1.956-7.062H115.13l-1.955,7.062H104.7l11.027-36.178h10.864L137.673,63.741z
			 M116.977,49.889h8.311l-4.128-15.156L116.977,49.889z"/>
		<path fill="#231F20" d="M156.091,52.768h-6.192v10.973h-8.148V27.563h14.775c8.8,0,12.06,3.477,12.06,10.267v4.726
			C168.585,49.345,164.891,52.768,156.091,52.768z M160.437,38.59c0-2.607-0.923-3.803-4.346-3.803h-6.192v10.918h6.192
			c3.585,0,4.346-1.357,4.346-3.965V38.59z"/>
		<path fill="#231F20" d="M201.017,63.741h-8.474l-1.956-7.062h-12.113l-1.956,7.062h-8.474l11.027-36.178h10.864L201.017,63.741z
			 M180.32,49.889h8.311l-4.128-15.156L180.32,49.889z"/>
		<path fill="#231F20" d="M211.884,51.899c0,3.15,1.032,4.997,5.052,4.997c2.607,0,6.192-0.325,9.344-0.869l1.141,7.116
			c-3.585,0.761-6.845,1.141-10.484,1.141c-9.126,0-13.2-4.509-13.2-11.081V38.101c0-6.573,4.074-11.081,13.2-11.081
			c3.64,0,6.899,0.38,10.484,1.141l-1.141,7.115c-3.151-0.543-6.736-0.869-9.344-0.869c-4.02,0-5.052,1.848-5.052,4.998V51.899z"/>
		<path fill="#231F20" d="M232.854,27.563h8.147v36.178h-8.147V27.563z M242.034,45.272l9.778-17.709h9.18l-10.157,17.709
			l10.918,18.469h-9.18L242.034,45.272z"/>
	</g>
	<g>
		<path fill="#231F20" d="M282.406,27.47v36.126c0,4.266-0.594,4.752-6.805,10.53l-2.916-3.294c4.969-4.752,5.076-4.914,5.076-7.398
			V27.47H282.406z"/>
		<path fill="#231F20" d="M316.805,27.47v25.866c0,5.886-3.402,10.638-12.744,10.638c-9.344,0-12.744-4.752-12.744-10.638V27.47
			h4.643v25.596c0,4.428,2.432,6.75,8.102,6.75s8.1-2.322,8.1-6.75V27.47H316.805z"/>
		<path fill="#231F20" d="M330.143,32.816v30.619h-4.43V27.47h6.373l15.66,30.78V27.47h4.428v35.964h-6.371L330.143,32.816z"/>
		<path fill="#231F20" d="M366.266,63.435h-4.643V27.47h4.643V63.435z"/>
		<path fill="#231F20" d="M400.934,53.066c0,5.994-3.727,10.908-13.014,10.908c-9.289,0-13.014-4.914-13.014-10.908V37.838
			c0-5.994,3.725-10.908,13.014-10.908c9.287,0,13.014,4.914,13.014,10.908V53.066z M379.549,52.958
			c0,4.428,2.701,6.912,8.371,6.912s8.369-2.484,8.369-6.912V37.946c0-4.428-2.699-6.912-8.369-6.912s-8.371,2.484-8.371,6.912
			V52.958z"/>
		<path fill="#231F20" d="M422.75,50.42h-8.803v13.014h-4.645V27.47h13.717c7.723,0,10.422,3.348,10.422,8.856v5.184
			c0,4.266-1.566,7.182-5.725,8.37l9.344,13.554h-5.348L422.75,50.42z M422.857,31.628h-8.91v14.688h8.91
			c4.428,0,5.939-1.242,5.939-4.752V36.38C428.797,32.816,427.285,31.628,422.857,31.628z"/>
	</g>
</g>
<g>
	<g id="XMLID_1_">
		<g>
			<polygon fill="#C2B2A0" points="998.239,641.504 998.239,647.691 851.574,714.281 823.501,727.026 823.501,720.832 
				851.574,708.087 872.391,698.638 900.458,685.893 921.261,676.45 921.274,676.45 921.274,676.443 949.349,663.698 
				970.165,654.249 			"/>
			<polygon fill="#A2927C" points="998.239,617.049 998.239,641.504 970.165,654.249 970.165,654.242 970.165,629.794 			"/>
			<polygon fill="#ADA08B" points="998.239,617.042 998.239,617.049 970.165,629.794 949.349,639.243 921.274,651.988 
				900.458,661.438 872.391,674.183 851.574,683.632 823.501,696.377 823.501,690.189 851.574,677.451 900.465,655.25 
				928.84,642.36 949.349,633.056 949.349,633.049 969.59,623.859 969.59,623.6 970.165,623.6 998.239,610.854 			"/>
			<polygon fill="#ADA08B" points="998.239,604.66 998.239,610.854 970.165,623.6 970.165,617.405 			"/>
			<polygon fill="#C2B2A0" points="998.239,604.66 970.165,617.405 630.296,617.405 658.369,604.66 			"/>
			<polygon fill="#C2B2A0" points="970.165,654.242 970.165,654.249 949.349,663.698 949.349,654.242 			"/>
			<polygon fill="#796955" points="970.165,629.794 970.165,654.242 949.349,654.242 949.349,639.25 949.349,639.243 			"/>
			<polygon fill="#CFC5B2" points="970.165,617.405 970.165,623.6 969.59,623.6 924.94,623.6 850.916,623.6 836.479,623.6 
				822.843,623.6 777.618,623.6 703.505,623.6 689.156,623.6 675.521,623.6 630.296,623.6 630.296,617.405 			"/>
			<polygon fill="#C2B2A0" points="969.59,623.6 969.59,623.859 949.349,633.049 949.349,626.861 917.767,626.861 924.94,623.6 			
				"/>
			<polygon fill="#A2927C" points="949.349,654.242 949.349,663.698 921.274,676.443 921.274,651.988 949.349,639.243 
				949.349,639.25 			"/>
			<polygon fill="#ADA08B" points="949.349,626.861 949.349,633.049 949.349,633.056 928.84,642.36 921.274,645.794 
				921.274,639.606 			"/>
			<polygon fill="#C2B2A0" points="949.349,626.861 921.274,639.606 581.405,639.606 609.479,626.861 623.121,626.861 
				668.346,626.861 681.981,626.861 703.505,626.861 770.444,626.861 815.669,626.861 829.305,626.861 850.916,626.861 
				917.767,626.861 			"/>
			<polygon fill="#C2B2A0" points="928.84,642.36 900.465,655.25 900.458,655.243 900.458,649.056 868.876,649.056 876.057,645.794 
				921.274,645.794 			"/>
			<polygon fill="#796955" points="921.274,676.443 921.274,676.45 921.261,676.45 			"/>
			<polygon fill="#796955" points="921.274,651.988 921.274,676.443 921.261,676.45 900.465,676.45 900.458,676.45 900.458,661.438 
							"/>
			<polygon fill="#CFC5B2" points="822.843,645.794 802.025,645.794 787.595,645.794 773.952,645.794 728.728,645.794 
				694.042,645.794 675.432,645.794 654.614,645.794 640.272,645.794 626.637,645.794 581.405,645.794 581.405,639.606 
				921.274,639.606 921.274,645.794 876.057,645.794 841.453,645.794 			"/>
			<polygon fill="#C2B2A0" points="921.261,676.45 900.458,685.893 900.458,676.45 900.465,676.45 			"/>
			<polygon fill="#C2B2A0" points="900.465,655.25 851.574,677.451 851.574,671.25 819.985,671.25 827.167,667.988 872.391,667.988 
				900.458,655.243 			"/>
			<polygon fill="#A2927C" points="900.458,676.45 900.458,685.893 872.391,698.638 872.391,674.183 900.458,661.438 			"/>
			<polygon fill="#ADA08B" points="900.458,649.056 900.458,655.243 872.391,667.988 872.391,661.801 			"/>
			<polygon fill="#C2B2A0" points="900.458,649.056 872.391,661.801 532.521,661.801 560.595,649.056 574.23,649.056 
				619.455,649.056 633.092,649.056 654.614,649.056 675.432,649.056 686.867,649.056 721.554,649.056 766.778,649.056 
				780.414,649.056 802.025,649.056 822.843,649.056 834.279,649.056 868.876,649.056 			"/>
			<polygon fill="#C2B2A0" points="876.057,645.794 868.876,649.056 834.279,649.056 841.453,645.794 			"/>
			<polygon fill="#796955" points="872.391,674.183 872.391,698.638 851.574,698.638 851.574,683.632 			"/>
			<polygon fill="#CFC5B2" points="773.952,667.988 753.135,667.988 738.704,667.988 725.068,667.988 679.844,667.988 
				645.158,667.988 626.541,667.988 605.73,667.988 591.382,667.988 577.746,667.988 532.521,667.988 532.521,661.801 
				872.391,661.801 872.391,667.988 827.167,667.988 792.569,667.988 			"/>
			<polygon fill="#C2B2A0" points="872.391,698.638 851.574,708.087 851.574,698.638 			"/>
			<polygon fill="#A2927C" points="851.574,698.638 851.574,708.087 823.501,720.832 823.501,696.377 851.574,683.632 			"/>
			<polygon fill="#ADA08B" points="851.574,671.25 851.574,677.451 823.501,690.189 823.501,683.995 			"/>
			<polygon fill="#C2B2A0" points="851.574,671.25 823.501,683.995 483.631,683.995 511.705,671.25 525.341,671.25 570.565,671.25 
				584.208,671.25 605.73,671.25 626.541,671.25 637.977,671.25 672.663,671.25 717.888,671.25 731.523,671.25 753.135,671.25 
				773.952,671.25 785.389,671.25 819.985,671.25 			"/>
			<polygon fill="#796955" points="850.916,623.6 850.916,626.861 829.305,626.861 836.479,623.6 			"/>
			<polygon fill="#796955" points="841.453,645.794 834.279,649.056 822.843,649.056 822.843,645.794 			"/>
			<polygon fill="#A2927C" points="836.479,623.6 829.305,626.861 815.669,626.861 822.843,623.6 			"/>
			<polygon fill="#C2B2A0" points="827.167,667.988 819.985,671.25 785.389,671.25 792.569,667.988 			"/>
			<polygon fill="#CFC5B2" points="823.501,720.832 823.501,727.026 483.631,727.026 483.631,720.832 528.855,720.832 
				630.953,720.832 676.178,720.832 778.276,720.832 			"/>
			<polygon fill="#B8A694" points="823.501,696.377 823.501,720.832 778.276,720.832 778.276,708.087 778.276,704.832 
				778.276,698.638 778.276,696.377 			"/>
			<rect x="778.276" y="690.189" fill="#CFC5B2" width="45.225" height="6.188"/>
			<polygon fill="#CFC5B2" points="725.068,690.189 704.252,690.189 689.814,690.189 676.178,690.189 630.953,690.189 
				596.268,690.189 577.657,690.189 556.929,690.189 542.491,690.189 528.855,690.189 483.631,690.189 483.631,683.995 
				823.501,683.995 823.501,690.189 778.276,690.189 743.679,690.189 			"/>
			<rect x="802.025" y="645.794" fill="#ADA08B" width="20.817" height="3.262"/>
			<polygon fill="#C2B2A0" points="822.843,623.6 815.669,626.861 770.444,626.861 777.618,623.6 			"/>
			<polygon fill="#796955" points="802.025,645.794 802.025,649.056 780.414,649.056 787.595,645.794 			"/>
			<polygon fill="#796955" points="792.569,667.988 785.389,671.25 773.952,671.25 773.952,667.988 			"/>
			<polygon fill="#A2927C" points="787.595,645.794 780.414,649.056 766.778,649.056 773.952,645.794 			"/>
			<polygon fill="#C2B2A0" points="778.276,708.087 778.276,720.832 676.178,720.832 704.252,708.087 			"/>
			<polygon fill="#CFC5B2" points="778.276,698.638 778.276,704.832 704.252,704.832 704.252,698.638 725.068,698.638 			"/>
			<polygon fill="#C2B2A0" points="778.276,696.377 778.276,698.638 725.068,698.638 743.679,690.189 778.276,690.189 			"/>
			<rect x="753.135" y="667.988" fill="#ADA08B" width="20.817" height="3.262"/>
			<polygon fill="#C2B2A0" points="773.952,645.794 766.778,649.056 721.554,649.056 728.728,645.794 			"/>
			<polygon fill="#796955" points="753.135,667.988 753.135,671.25 731.523,671.25 738.704,667.988 			"/>
			<polygon fill="#796955" points="743.679,690.189 725.068,698.638 725.068,690.189 			"/>
			<polygon fill="#A2927C" points="738.704,667.988 731.523,671.25 717.888,671.25 725.068,667.988 			"/>
			<polygon fill="#C2B2A0" points="728.728,645.794 721.554,649.056 686.867,649.056 694.042,645.794 			"/>
			<rect x="704.252" y="690.189" fill="#ADA08B" width="20.816" height="8.448"/>
			<polygon fill="#C2B2A0" points="725.068,667.988 717.888,671.25 672.663,671.25 679.844,667.988 			"/>
			<polygon fill="#796955" points="704.252,704.832 704.252,708.087 676.178,720.832 676.178,696.377 689.814,690.189 
				704.252,690.189 704.252,698.638 			"/>
			<polygon fill="#796955" points="703.505,623.6 703.505,626.861 681.981,626.861 689.156,623.6 			"/>
			<polygon fill="#796955" points="694.042,645.794 686.867,649.056 675.432,649.056 675.432,645.794 			"/>
			<polygon fill="#A2927C" points="689.814,690.189 676.178,696.377 676.178,690.189 			"/>
			<polygon fill="#A2927C" points="689.156,623.6 681.981,626.861 668.346,626.861 675.521,623.6 			"/>
			<polygon fill="#C2B2A0" points="679.844,667.988 672.663,671.25 637.977,671.25 645.158,667.988 			"/>
			<polygon fill="#B8A694" points="676.178,696.377 676.178,720.832 630.953,720.832 630.953,708.087 630.953,704.832 
				630.953,698.638 630.953,696.377 			"/>
			<rect x="630.953" y="690.189" fill="#CFC5B2" width="45.225" height="6.188"/>
			<polygon fill="#C2B2A0" points="675.521,623.6 668.346,626.861 623.121,626.861 630.104,623.688 630.296,623.6 			"/>
			<rect x="654.614" y="645.794" fill="#ADA08B" width="20.817" height="3.262"/>
			<polygon fill="#796955" points="654.614,645.794 654.614,649.056 633.092,649.056 640.272,645.794 			"/>
			<polygon fill="#796955" points="645.158,667.988 637.977,671.25 626.541,671.25 626.541,667.988 			"/>
			<polygon fill="#A2927C" points="640.272,645.794 633.092,649.056 619.455,649.056 626.637,645.794 			"/>
			<polygon fill="#C2B2A0" points="630.953,708.087 630.953,720.832 528.855,720.832 556.929,708.087 			"/>
			<polygon fill="#CFC5B2" points="630.953,698.638 630.953,704.832 556.929,704.832 556.929,698.638 577.657,698.638 			"/>
			<polygon fill="#C2B2A0" points="630.953,696.377 630.953,698.638 577.657,698.638 596.268,690.189 630.953,690.189 			"/>
			<polygon fill="#C2B2A0" points="626.637,645.794 619.455,649.056 574.23,649.056 581.213,645.883 581.405,645.794 			"/>
			<rect x="605.73" y="667.988" fill="#ADA08B" width="20.811" height="3.262"/>
			<polygon fill="#796955" points="605.73,667.988 605.73,671.25 584.208,671.25 591.382,667.988 			"/>
			<polygon fill="#796955" points="596.268,690.189 577.657,698.638 577.657,690.189 			"/>
			<polygon fill="#A2927C" points="591.382,667.988 584.208,671.25 570.565,671.25 577.746,667.988 			"/>
			<polygon fill="#C2B2A0" points="577.746,667.988 570.565,671.25 525.341,671.25 532.323,668.084 532.521,667.988 			"/>
			<rect x="556.929" y="690.189" fill="#ADA08B" width="20.729" height="8.448"/>
			<polygon fill="#796955" points="556.929,698.638 556.929,704.832 556.929,708.087 528.855,720.832 528.855,696.377 
				542.491,690.189 556.929,690.189 			"/>
			<polygon fill="#A2927C" points="542.491,690.189 528.855,696.377 528.855,690.189 			"/>
			<rect x="483.631" y="696.377" fill="#B8A694" width="45.225" height="24.455"/>
			<rect x="483.631" y="690.189" fill="#CFC5B2" width="45.225" height="6.188"/>
		</g>
		<g>
			<line fill="none" stroke="#A38978" stroke-width="0.5" x1="823.501" y1="683.995" x2="483.631" y2="683.995"/>
			<line fill="none" stroke="#A38978" stroke-width="0.5" x1="483.631" y1="727.026" x2="823.501" y2="727.026"/>
			<line fill="none" stroke="#A38978" stroke-width="0.5" x1="483.631" y1="720.832" x2="483.631" y2="727.026"/>
			<line fill="none" stroke="#A38978" stroke-width="0.5" x1="483.631" y1="696.377" x2="483.631" y2="720.832"/>
			<line fill="none" stroke="#A38978" stroke-width="0.5" x1="483.631" y1="690.189" x2="483.631" y2="696.377"/>
			<line fill="none" stroke="#A38978" stroke-width="0.5" x1="483.631" y1="683.995" x2="483.631" y2="690.189"/>
			<polyline fill="none" stroke="#A38978" stroke-width="0.5" points="778.276,690.189 778.276,696.377 778.276,698.638 
				778.276,704.832 778.276,708.087 778.276,720.832 			"/>
			<polyline fill="none" stroke="#A38978" stroke-width="0.5" points="483.631,690.189 528.855,690.189 542.491,690.189 
				556.929,690.189 577.657,690.189 596.268,690.189 630.953,690.189 676.178,690.189 689.814,690.189 704.252,690.189 
				725.068,690.189 743.679,690.189 778.276,690.189 823.501,690.189 			"/>
			<polyline fill="none" stroke="#A38978" stroke-width="0.5" points="483.631,720.832 528.855,720.832 630.953,720.832 
				676.178,720.832 778.276,720.832 823.501,720.832 			"/>
			<line fill="none" stroke="#A38978" stroke-width="0.5" x1="556.929" y1="704.832" x2="630.953" y2="704.832"/>
			<line fill="none" stroke="#A38978" stroke-width="0.5" x1="704.252" y1="704.832" x2="778.276" y2="704.832"/>
			<line fill="none" stroke="#A38978" stroke-width="0.5" x1="483.631" y1="696.377" x2="528.855" y2="696.377"/>
			<polyline fill="none" stroke="#A38978" stroke-width="0.5" points="676.178,690.189 676.178,696.377 676.178,720.832 			"/>
			<polyline fill="none" stroke="#A38978" stroke-width="0.5" points="630.953,690.189 630.953,696.377 630.953,698.638 
				630.953,704.832 630.953,708.087 630.953,720.832 			"/>
			<line fill="none" stroke="#A38978" stroke-width="0.5" x1="630.953" y1="696.377" x2="676.178" y2="696.377"/>
			<polyline fill="none" stroke="#A38978" stroke-width="0.5" points="528.855,690.189 528.855,696.377 528.855,720.832 			"/>
			<line fill="none" stroke="#A38978" stroke-width="0.5" x1="778.276" y1="696.377" x2="823.501" y2="696.377"/>
			<line fill="none" stroke="#A38978" stroke-width="0.5" x1="949.349" y1="633.049" x2="969.59" y2="623.859"/>
			<polyline fill="none" stroke="#A38978" stroke-width="0.5" points="851.574,677.451 900.465,655.25 928.84,642.36 			"/>
			<line fill="none" stroke="#A38978" stroke-width="0.5" x1="823.501" y1="690.189" x2="851.574" y2="677.451"/>
			<polyline fill="none" stroke="#A38978" stroke-width="0.5" points="483.631,683.995 511.705,671.25 525.341,671.25 
				570.565,671.25 584.208,671.25 605.73,671.25 626.541,671.25 637.977,671.25 672.663,671.25 717.888,671.25 731.523,671.25 
				753.135,671.25 773.952,671.25 785.389,671.25 819.985,671.25 851.574,671.25 823.501,683.995 			"/>
			<line fill="none" stroke="#A38978" stroke-width="0.5" x1="851.574" y1="714.281" x2="823.501" y2="727.026"/>
			<line fill="none" stroke="#A38978" stroke-width="0.5" x1="823.501" y1="720.832" x2="851.574" y2="708.087"/>
			<line fill="none" stroke="#A38978" stroke-width="0.5" x1="851.574" y1="671.25" x2="851.574" y2="677.451"/>
			<line fill="none" stroke="#A38978" stroke-width="0.5" x1="823.501" y1="720.832" x2="823.501" y2="727.026"/>
			<line fill="none" stroke="#A38978" stroke-width="0.5" x1="823.501" y1="696.377" x2="823.501" y2="720.832"/>
			<line fill="none" stroke="#A38978" stroke-width="0.5" x1="823.501" y1="690.189" x2="823.501" y2="696.377"/>
			<line fill="none" stroke="#A38978" stroke-width="0.5" x1="823.501" y1="683.995" x2="823.501" y2="690.189"/>
			<polyline fill="none" stroke="#A38978" stroke-width="0.5" points="851.574,683.632 851.574,698.638 851.574,708.087 			"/>
			<line fill="none" stroke="#A38978" stroke-width="0.5" x1="676.178" y1="720.832" x2="704.252" y2="708.087"/>
			<polyline fill="none" stroke="#A38978" stroke-width="0.5" points="704.252,690.189 704.252,698.638 704.252,704.832 
				704.252,708.087 			"/>
			<line fill="none" stroke="#A38978" stroke-width="0.5" x1="704.252" y1="708.087" x2="778.276" y2="708.087"/>
			<line fill="none" stroke="#A38978" stroke-width="0.5" x1="556.929" y1="708.087" x2="630.953" y2="708.087"/>
			<line fill="none" stroke="#A38978" stroke-width="0.5" x1="528.855" y1="720.832" x2="556.929" y2="708.087"/>
			<polyline fill="none" stroke="#A38978" stroke-width="0.5" points="556.929,690.189 556.929,698.638 556.929,704.832 
				556.929,708.087 			"/>
			<line fill="none" stroke="#A38978" stroke-width="0.5" x1="676.178" y1="696.377" x2="689.814" y2="690.189"/>
			<line fill="none" stroke="#A38978" stroke-width="0.5" x1="872.391" y1="661.801" x2="532.521" y2="661.801"/>
			<line fill="none" stroke="#A38978" stroke-width="0.5" x1="532.521" y1="661.801" x2="532.521" y2="667.988"/>
			<polyline fill="none" stroke="#A38978" stroke-width="0.5" points="532.521,667.988 577.746,667.988 591.382,667.988 
				605.73,667.988 626.541,667.988 645.158,667.988 679.844,667.988 725.068,667.988 738.704,667.988 753.135,667.988 
				773.952,667.988 792.569,667.988 827.167,667.988 872.391,667.988 			"/>
			<line fill="none" stroke="#A38978" stroke-width="0.5" x1="872.391" y1="667.988" x2="900.458" y2="655.243"/>
			<polyline fill="none" stroke="#A38978" stroke-width="0.5" points="532.521,661.801 560.595,649.056 574.23,649.056 
				619.455,649.056 633.092,649.056 654.614,649.056 675.432,649.056 686.867,649.056 721.554,649.056 766.778,649.056 
				780.414,649.056 802.025,649.056 822.843,649.056 834.279,649.056 868.876,649.056 900.458,649.056 872.391,661.801 			"/>
			<line fill="none" stroke="#A38978" stroke-width="0.5" x1="900.458" y1="649.056" x2="900.458" y2="655.243"/>
			<line fill="none" stroke="#A38978" stroke-width="0.5" x1="872.391" y1="661.801" x2="872.391" y2="667.988"/>
			<line fill="none" stroke="#A38978" stroke-width="0.5" x1="819.985" y1="671.25" x2="827.167" y2="667.988"/>
			<line fill="none" stroke="#A38978" stroke-width="0.5" x1="738.704" y1="667.988" x2="731.523" y2="671.25"/>
			<line fill="none" stroke="#A38978" stroke-width="0.5" x1="717.888" y1="671.25" x2="725.068" y2="667.988"/>
			<line fill="none" stroke="#A38978" stroke-width="0.5" x1="672.663" y1="671.25" x2="679.844" y2="667.988"/>
			<line fill="none" stroke="#A38978" stroke-width="0.5" x1="584.208" y1="671.25" x2="591.382" y2="667.988"/>
			<line fill="none" stroke="#A38978" stroke-width="0.5" x1="570.565" y1="671.25" x2="577.746" y2="667.988"/>
			<line fill="none" stroke="#A38978" stroke-width="0.5" x1="525.341" y1="671.25" x2="532.323" y2="668.084"/>
			<line fill="none" stroke="#A38978" stroke-width="0.5" x1="970.165" y1="617.405" x2="630.296" y2="617.405"/>
			<line fill="none" stroke="#A38978" stroke-width="0.5" x1="630.296" y1="617.405" x2="630.296" y2="623.6"/>
			<polyline fill="none" stroke="#A38978" stroke-width="0.5" points="630.296,623.6 675.521,623.6 689.156,623.6 703.505,623.6 
				777.618,623.6 822.843,623.6 836.479,623.6 850.916,623.6 924.94,623.6 969.59,623.6 970.165,623.6 			"/>
			<line fill="none" stroke="#A38978" stroke-width="0.5" x1="970.165" y1="623.6" x2="998.239" y2="610.854"/>
			<polyline fill="none" stroke="#A38978" stroke-width="0.5" points="630.296,617.405 658.369,604.66 998.239,604.66 
				970.165,617.405 			"/>
			<line fill="none" stroke="#A38978" stroke-width="0.5" x1="998.239" y1="604.66" x2="998.239" y2="610.854"/>
			<line fill="none" stroke="#A38978" stroke-width="0.5" x1="970.165" y1="617.405" x2="970.165" y2="623.6"/>
			<line fill="none" stroke="#A38978" stroke-width="0.5" x1="917.767" y1="626.861" x2="924.94" y2="623.6"/>
			<line fill="none" stroke="#A38978" stroke-width="0.5" x1="829.305" y1="626.861" x2="836.479" y2="623.6"/>
			<line fill="none" stroke="#A38978" stroke-width="0.5" x1="815.669" y1="626.861" x2="822.843" y2="623.6"/>
			<line fill="none" stroke="#A38978" stroke-width="0.5" x1="770.444" y1="626.861" x2="777.618" y2="623.6"/>
			<line fill="none" stroke="#A38978" stroke-width="0.5" x1="681.981" y1="626.861" x2="689.156" y2="623.6"/>
			<line fill="none" stroke="#A38978" stroke-width="0.5" x1="668.346" y1="626.861" x2="675.521" y2="623.6"/>
			<line fill="none" stroke="#A38978" stroke-width="0.5" x1="623.121" y1="626.861" x2="630.104" y2="623.688"/>
			<line fill="none" stroke="#A38978" stroke-width="0.5" x1="921.274" y1="639.606" x2="581.405" y2="639.606"/>
			<line fill="none" stroke="#A38978" stroke-width="0.5" x1="581.405" y1="639.606" x2="581.405" y2="645.794"/>
			<polyline fill="none" stroke="#A38978" stroke-width="0.5" points="581.405,645.794 626.637,645.794 640.272,645.794 
				654.614,645.794 675.432,645.794 694.042,645.794 728.728,645.794 773.952,645.794 787.595,645.794 802.025,645.794 
				822.843,645.794 841.453,645.794 876.057,645.794 921.274,645.794 			"/>
			<polyline fill="none" stroke="#A38978" stroke-width="0.5" points="921.274,645.794 928.84,642.36 949.349,633.056 			"/>
			<polyline fill="none" stroke="#A38978" stroke-width="0.5" points="581.405,639.606 609.479,626.861 623.121,626.861 
				668.346,626.861 681.981,626.861 703.505,626.861 770.444,626.861 815.669,626.861 829.305,626.861 850.916,626.861 
				917.767,626.861 949.349,626.861 921.274,639.606 			"/>
			<polyline fill="none" stroke="#A38978" stroke-width="0.5" points="949.349,626.861 949.349,633.049 949.349,633.056 			"/>
			<line fill="none" stroke="#A38978" stroke-width="0.5" x1="921.274" y1="639.606" x2="921.274" y2="645.794"/>
			<line fill="none" stroke="#A38978" stroke-width="0.5" x1="868.876" y1="649.056" x2="876.057" y2="645.794"/>
			<line fill="none" stroke="#A38978" stroke-width="0.5" x1="780.414" y1="649.056" x2="787.595" y2="645.794"/>
			<line fill="none" stroke="#A38978" stroke-width="0.5" x1="766.778" y1="649.056" x2="773.952" y2="645.794"/>
			<line fill="none" stroke="#A38978" stroke-width="0.5" x1="721.554" y1="649.056" x2="728.728" y2="645.794"/>
			<line fill="none" stroke="#A38978" stroke-width="0.5" x1="633.092" y1="649.056" x2="640.272" y2="645.794"/>
			<line fill="none" stroke="#A38978" stroke-width="0.5" x1="619.455" y1="649.056" x2="626.637" y2="645.794"/>
			<line fill="none" stroke="#A38978" stroke-width="0.5" x1="574.23" y1="649.056" x2="581.213" y2="645.883"/>
			<line fill="none" stroke="#A38978" stroke-width="0.5" x1="528.855" y1="696.377" x2="542.491" y2="690.189"/>
			<polyline fill="none" stroke="#A38978" stroke-width="0.5" points="872.391,674.183 872.391,698.638 851.574,698.638 			"/>
			<polyline fill="none" stroke="#A38978" stroke-width="0.5" points="900.458,661.438 900.458,676.45 900.458,685.893 			"/>
			<polyline fill="none" stroke="#A38978" stroke-width="0.5" points="921.274,651.988 921.274,676.443 921.274,676.45 
				921.261,676.45 900.465,676.45 			"/>
			<polyline fill="none" stroke="#A38978" stroke-width="0.5" points="949.349,639.25 949.349,654.242 949.349,663.698 			"/>
			<polyline fill="none" stroke="#A38978" stroke-width="0.5" points="970.165,629.794 970.165,654.242 949.349,654.242 			"/>
			<line fill="none" stroke="#A38978" stroke-width="0.5" x1="998.239" y1="617.049" x2="998.239" y2="641.504"/>
			<polyline fill="none" stroke="#A38978" stroke-width="0.5" points="823.501,696.377 851.574,683.632 872.391,674.183 
				900.458,661.438 921.274,651.988 949.349,639.243 970.165,629.794 998.239,617.049 			"/>
			<polyline fill="none" stroke="#A38978" stroke-width="0.5" points="851.574,708.087 872.391,698.638 900.458,685.893 
				921.261,676.45 921.274,676.443 949.349,663.698 970.165,654.249 998.239,641.504 			"/>
			<line fill="none" stroke="#A38978" stroke-width="0.5" x1="851.574" y1="714.281" x2="998.239" y2="647.691"/>
			<line fill="none" stroke="#A38978" stroke-width="0.5" x1="998.239" y1="610.854" x2="998.239" y2="617.042"/>
			<line fill="none" stroke="#A38978" stroke-width="0.5" x1="998.239" y1="641.504" x2="998.239" y2="647.691"/>
			<polyline fill="none" stroke="#A38978" stroke-width="0.5" points="725.068,689.97 725.068,690.189 725.068,698.638 
				704.252,698.638 			"/>
			<line fill="none" stroke="#A38978" stroke-width="0.5" x1="753.135" y1="667.988" x2="753.135" y2="671.25"/>
			<polyline fill="none" stroke="#A38978" stroke-width="0.5" points="743.679,690.189 725.068,698.638 778.276,698.638 			"/>
			<polyline fill="none" stroke="#A38978" stroke-width="0.5" points="577.657,689.97 577.657,690.189 577.657,698.638 
				556.929,698.638 556.84,698.638 			"/>
			<line fill="none" stroke="#A38978" stroke-width="0.5" x1="605.73" y1="667.988" x2="605.73" y2="671.25"/>
			<polyline fill="none" stroke="#A38978" stroke-width="0.5" points="596.268,690.189 577.657,698.638 630.953,698.638 			"/>
			<polyline fill="none" stroke="#A38978" stroke-width="0.5" points="626.541,667.775 626.541,667.988 626.541,671.25 			"/>
			<line fill="none" stroke="#A38978" stroke-width="0.5" x1="654.614" y1="645.794" x2="654.614" y2="649.056"/>
			<line fill="none" stroke="#A38978" stroke-width="0.5" x1="637.977" y1="671.25" x2="645.158" y2="667.988"/>
			<polyline fill="none" stroke="#A38978" stroke-width="0.5" points="773.952,667.775 773.952,667.988 773.952,671.25 			"/>
			<line fill="none" stroke="#A38978" stroke-width="0.5" x1="802.025" y1="645.794" x2="802.025" y2="649.056"/>
			<line fill="none" stroke="#A38978" stroke-width="0.5" x1="785.389" y1="671.25" x2="792.569" y2="667.988"/>
			<polyline fill="none" stroke="#A38978" stroke-width="0.5" points="675.432,645.574 675.432,645.794 675.432,649.056 			"/>
			<line fill="none" stroke="#A38978" stroke-width="0.5" x1="703.505" y1="623.6" x2="703.505" y2="626.861"/>
			<line fill="none" stroke="#A38978" stroke-width="0.5" x1="686.867" y1="649.056" x2="694.042" y2="645.794"/>
			<polyline fill="none" stroke="#A38978" stroke-width="0.5" points="822.843,645.574 822.843,645.794 822.843,649.056 			"/>
			<line fill="none" stroke="#A38978" stroke-width="0.5" x1="850.916" y1="623.6" x2="850.916" y2="626.861"/>
			<line fill="none" stroke="#A38978" stroke-width="0.5" x1="834.279" y1="649.056" x2="841.453" y2="645.794"/>
		</g>
	</g>
</g>
<g id="cerchio_1_">
	<g id="cerchio">
		
			<image overflow="visible" opacity="0.63" enable-background="new    " width="572" height="598" xlink:href="../EE12B3EA.png"  transform="matrix(0.4251 0 0 0.4252 52.3804 173.4741)">
		</image>
		<g>
			<ellipse fill="#019547" cx="173.853" cy="300.474" rx="107.481" ry="112.807"/>
		</g>
	</g>
</g>
<g>
	<g id="_x32_8" display="none">
		<g display="inline" enable-background="new    ">
			<path fill="#F5F6F6" d="M102.979,339.157c11.48-13.332,14.428-16.824,26.685-31.584c15.825-19.205,16.911-23.332,16.911-30.791
				v-4.603c0-9.999-2.637-13.015-18.307-13.015c-7.292,0-17.066,1.746-22.961,3.492l-1.862-11.427
				c6.671-2.063,16.911-3.968,25.909-3.968c23.892,0,30.253,8.571,30.253,24.76c0,0.635,0,2.856,0,3.492
				c0,12.538-2.172,17.935-17.687,36.822c-11.17,13.649-12.722,15.713-22.806,27.299h41.424v11.745h-57.559V339.157z"/>
			<path fill="#F5F6F6" d="M226.163,299.001c14.118,6.666,18.772,13.333,18.772,24.125v4.603c0,17.776-9.309,25.236-32.115,25.236
				c-22.961,0-32.115-7.46-32.115-25.236v-4.603c0-10.792,4.5-17.459,18.307-24.125c-12.412-6.189-15.669-12.697-15.669-22.696
				v-4.126c0-14.443,6.981-24.919,29.478-24.919c22.341,0,29.478,10.476,29.478,24.919v4.126
				C242.298,286.304,238.885,292.812,226.163,299.001z M212.82,305.033c-15.669,6.507-19.393,9.523-19.393,18.57v3.651
				c0,10.792,4.964,14.284,19.393,14.284c14.273,0,19.393-3.492,19.393-14.284v-3.651
				C232.213,314.556,228.335,311.54,212.82,305.033z M212.82,293.605c13.342-5.555,16.755-8.888,16.755-16.982v-5.079
				c0-8.254-3.878-13.015-16.755-13.015c-13.032,0-16.756,4.761-16.756,13.015v5.079C196.064,284.717,199.478,288.05,212.82,293.605
				z"/>
		</g>
	</g>
	<g id="_x32_7" display="none">
		<g display="inline" enable-background="new    ">
			<path fill="#F5F6F6" d="M106.858,339.157c11.481-13.332,14.428-16.824,26.685-31.584c15.825-19.205,16.911-23.332,16.911-30.791
				v-4.603c0-9.999-2.637-13.015-18.307-13.015c-7.292,0-17.066,1.746-22.961,3.492l-1.862-11.427
				c6.671-2.063,16.911-3.968,25.91-3.968c23.892,0,30.252,8.571,30.252,24.76c0,0.635,0,2.856,0,3.492
				c0,12.538-2.172,17.935-17.686,36.822c-11.171,13.649-12.722,15.713-22.806,27.299h41.423v11.745h-57.559V339.157z"/>
			<path fill="#F5F6F6" d="M179.463,248.847h61.593v11.269l-41.269,91.262H186.6l41.113-90.786h-48.25V248.847z"/>
		</g>
	</g>
	<g id="_x32_6" display="none">
		<g display="inline" enable-background="new    ">
			<path fill="#F5F6F6" d="M104.686,339.157c11.48-13.332,14.428-16.824,26.685-31.584c15.825-19.205,16.911-23.332,16.911-30.791
				v-4.603c0-9.999-2.638-13.015-18.307-13.015c-7.292,0-17.066,1.746-22.961,3.492l-1.862-11.427
				c6.671-2.063,16.911-3.968,25.909-3.968c23.892,0,30.253,8.571,30.253,24.76c0,0.635,0,2.856,0,3.492
				c0,12.538-2.172,17.935-17.687,36.822c-11.17,13.649-12.722,15.713-22.806,27.299h41.424v11.745h-57.559V339.157z"/>
			<path fill="#F5F6F6" d="M196.064,296.303c5.12-1.904,13.808-3.65,20.634-3.65c19.704,0,26.53,8.412,26.53,25.236v5.079
				c0,18.57-4.964,29.998-29.788,29.998c-22.341,0-30.253-9.523-30.253-24.443V283.13c0-26.347,11.481-35.87,40.648-35.87
				c4.81,0,12.102,0.635,17.066,1.905l-1.396,11.11c-3.724-0.794-9.93-1.429-13.653-1.429c-24.047,0-29.788,5.238-29.788,24.442
				V296.303z M196.064,308.524v18.094c0,11.269,5.585,14.602,17.376,14.602c13.342,0,16.911-4.126,16.911-14.602v-8.729
				c0-9.682-3.568-13.65-14.894-13.65C208.631,304.239,201.185,306.303,196.064,308.524z"/>
		</g>
	</g>
	<g id="_x32_5" display="none">
		<g display="inline" enable-background="new    ">
			<path fill="#F5F6F6" d="M106.703,339.157c11.481-13.332,14.429-16.824,26.685-31.584c15.825-19.205,16.911-23.332,16.911-30.791
				v-4.603c0-9.999-2.637-13.015-18.307-13.015c-7.292,0-17.066,1.746-22.961,3.492l-1.862-11.427
				c6.671-2.063,16.911-3.968,25.909-3.968c23.893,0,30.253,8.571,30.253,24.76c0,0.635,0,2.856,0,3.492
				c0,12.538-2.172,17.935-17.687,36.822c-11.17,13.649-12.722,15.713-22.806,27.299h41.423v11.745h-57.559V339.157z"/>
			<path fill="#F5F6F6" d="M187.221,248.847h52.75v11.745h-39.717v32.537c6.516,0.159,9.619,0.159,16.601,0.476
				c18.462,0.794,24.358,9.999,24.358,23.808v9.206c0,16.824-7.137,26.347-31.805,26.347c-7.757,0-18.152-0.952-26.064-3.651
				l1.396-10.792c7.757,1.905,17.066,2.698,24.513,2.698c15.515,0,18.928-4.126,18.928-15.396v-6.984
				c0-9.523-3.103-13.491-15.98-13.808c-10.395-0.317-17.221-0.317-24.979-0.476V248.847z"/>
		</g>
	</g>
	<g id="_x32_4" display="none">
		<g display="inline" enable-background="new    ">
			<path fill="#F5F6F6" d="M103.366,339.157c11.481-13.332,14.429-16.824,26.685-31.584c15.825-19.205,16.911-23.332,16.911-30.791
				v-4.603c0-9.999-2.638-13.015-18.307-13.015c-7.292,0-17.066,1.746-22.961,3.492l-1.862-11.427
				c6.671-2.063,16.911-3.968,25.909-3.968c23.893,0,30.253,8.571,30.253,24.76c0,0.635,0,2.856,0,3.492
				c0,12.538-2.172,17.935-17.687,36.822c-11.17,13.649-12.722,15.713-22.806,27.299h41.423v11.745h-57.559V339.157z"/>
			<path fill="#F5F6F6" d="M230.12,326.142v25.236h-13.032v-25.236h-47.785v-13.173l43.285-64.122h17.531v65.867h14.429v11.428
				H230.12z M217.088,314.714v-52.376l-34.908,52.376H217.088z"/>
		</g>
	</g>
	<g id="_x32_3" display="none">
		<g display="inline" enable-background="new    ">
			<path fill="#F5F6F6" d="M107.401,339.157c11.481-13.332,14.429-16.824,26.685-31.584c15.825-19.205,16.911-23.332,16.911-30.791
				v-4.603c0-9.999-2.638-13.015-18.307-13.015c-7.292,0-17.066,1.746-22.961,3.492l-1.862-11.427
				c6.671-2.063,16.911-3.968,25.909-3.968c23.893,0,30.254,8.571,30.254,24.76c0,0.635,0,2.856,0,3.492
				c0,12.538-2.172,17.935-17.687,36.822c-11.17,13.649-12.722,15.713-22.807,27.299h41.424v11.745h-57.559V339.157z"/>
			<path fill="#F5F6F6" d="M184.971,338.681c7.447,1.746,15.05,2.54,22.651,2.54c14.583,0,19.858-3.492,19.858-13.649v-7.936
				c0-10.317-5.585-13.808-15.669-13.808h-21.255v-11.746h19.548c12.101,0,15.514-4.761,15.514-13.173v-9.205
				c0-9.523-4.344-12.698-16.755-12.698c-6.981,0-14.738,0.953-21.875,2.381l-1.397-11.269c6.516-1.587,15.515-2.857,23.582-2.857
				c21.876,0,29.478,7.777,29.478,22.538v9.364c0,9.682-2.172,15.713-11.791,20.474c8.533,2.54,13.653,7.46,13.653,18.887v10.317
				c0,16.506-9.619,24.125-32.891,24.125c-7.447,0-17.531-0.952-24.047-3.175L184.971,338.681z"/>
		</g>
	</g>
	<g id="_x32_2" display="none">
		<g display="inline" enable-background="new    ">
			<path fill="#F5F6F6" d="M107.479,339.157c11.48-13.332,14.428-16.824,26.685-31.584c15.825-19.205,16.911-23.332,16.911-30.791
				v-4.603c0-9.999-2.638-13.015-18.307-13.015c-7.292,0-17.066,1.746-22.961,3.492l-1.862-11.427
				c6.671-2.063,16.911-3.968,25.909-3.968c23.892,0,30.253,8.571,30.253,24.76c0,0.635,0,2.856,0,3.492
				c0,12.538-2.172,17.935-17.687,36.822c-11.17,13.649-12.722,15.713-22.807,27.299h41.424v11.745h-57.559V339.157z"/>
			<path fill="#F5F6F6" d="M182.877,339.157c11.48-13.332,14.428-16.824,26.685-31.584c15.825-19.205,16.911-23.332,16.911-30.791
				v-4.603c0-9.999-2.638-13.015-18.307-13.015c-7.292,0-17.066,1.746-22.961,3.492l-1.862-11.427
				c6.671-2.063,16.911-3.968,25.909-3.968c23.892,0,30.253,8.571,30.253,24.76c0,0.635,0,2.856,0,3.492
				c0,12.538-2.172,17.935-17.687,36.822c-11.17,13.649-12.722,15.713-22.807,27.299h41.424v11.745h-57.559V339.157z"/>
		</g>
	</g>
	<g id="_x32_1" display="none">
		<g display="inline" enable-background="new    ">
			<path fill="#F5F6F6" d="M119.967,339.157c11.481-13.332,14.428-16.824,26.685-31.584c15.825-19.205,16.91-23.332,16.91-30.791
				v-4.603c0-9.999-2.637-13.015-18.307-13.015c-7.292,0-17.066,1.746-22.961,3.492l-1.862-11.427
				c6.671-2.063,16.911-3.968,25.909-3.968c23.893,0,30.253,8.571,30.253,24.76c0,0.635,0,2.856,0,3.492
				c0,12.538-2.172,17.935-17.687,36.822c-11.17,13.649-12.722,15.713-22.806,27.299h41.423v11.745h-57.559V339.157z"/>
			<path fill="#F5F6F6" d="M194.9,275.512l-5.74-10.634l27.15-16.03h11.636v102.531h-13.032v-87.294L194.9,275.512z"/>
		</g>
	</g>
	<g id="_x32_0" display="none">
		<g display="inline" enable-background="new    ">
			<path fill="#F5F6F6" d="M102.747,339.157c11.48-13.332,14.429-16.824,26.685-31.584c15.825-19.205,16.911-23.332,16.911-30.791
				v-4.603c0-9.999-2.638-13.015-18.307-13.015c-7.292,0-17.066,1.746-22.961,3.492l-1.862-11.427
				c6.671-2.063,16.911-3.968,25.909-3.968c23.892,0,30.253,8.571,30.253,24.76c0,0.635,0,2.856,0,3.492
				c0,12.538-2.172,17.935-17.687,36.822c-11.17,13.649-12.722,15.713-22.807,27.299h41.424v11.745h-57.559V339.157z"/>
			<path fill="#F5F6F6" d="M245.168,325.507c0,15.872-7.912,27.458-31.96,27.458c-24.047,0-31.96-11.586-31.96-27.458v-50.79
				c0-15.872,7.913-27.458,31.96-27.458c24.048,0,31.96,11.586,31.96,27.458V325.507z M213.208,259.005
				c-14.273,0-18.928,5.555-18.928,17.142v47.932c0,11.586,4.654,17.142,18.928,17.142s18.928-5.555,18.928-17.142v-47.932
				C232.136,264.56,227.481,259.005,213.208,259.005z"/>
		</g>
	</g>
	<g id="_x31_9" display="none">
		<g display="inline" enable-background="new    ">
			<path fill="#F5F6F6" d="M119.037,275.512l-5.741-10.634l27.15-16.03h11.636v102.531H139.05v-87.294L119.037,275.512z"/>
			<path fill="#F5F6F6" d="M221.741,303.922c-5.12,1.905-13.808,3.65-20.635,3.65c-19.703,0-26.529-8.412-26.529-25.236v-5.079
				c0-18.57,5.43-29.998,29.788-29.998c22.341,0,30.253,10,30.253,24.919v44.917c0,26.347-11.481,35.87-40.648,35.87
				c-4.809,0-12.102-0.635-17.066-1.905l1.241-11.11c3.723,0.794,10.084,1.429,13.808,1.429c24.047,0,29.788-5.238,29.788-24.442
				V303.922z M221.741,291.701v-18.094c0-11.269-5.585-14.602-17.376-14.602c-13.343,0-16.911,4.126-16.911,14.602v8.729
				c0,9.682,3.568,13.649,14.894,13.649C209.174,295.986,216.621,293.922,221.741,291.701z"/>
		</g>
	</g>
	<g id="_x31_8" display="none">
		<g display="inline" enable-background="new    ">
			<path fill="#F5F6F6" d="M116.167,275.512l-5.74-10.634l27.15-16.03h11.636v102.531H136.18v-87.294L116.167,275.512z"/>
			<path fill="#F5F6F6" d="M218.716,299.001c14.118,6.666,18.772,13.333,18.772,24.125v4.603c0,17.776-9.309,25.236-32.115,25.236
				c-22.961,0-32.115-7.46-32.115-25.236v-4.603c0-10.792,4.5-17.459,18.307-24.125c-12.412-6.189-15.669-12.697-15.669-22.696
				v-4.126c0-14.443,6.981-24.919,29.478-24.919c22.341,0,29.477,10.476,29.477,24.919v4.126
				C234.851,286.304,231.438,292.812,218.716,299.001z M205.374,305.033c-15.67,6.507-19.393,9.523-19.393,18.57v3.651
				c0,10.792,4.964,14.284,19.393,14.284c14.273,0,19.393-3.492,19.393-14.284v-3.651
				C224.767,314.556,220.888,311.54,205.374,305.033z M205.374,293.605c13.342-5.555,16.755-8.888,16.755-16.982v-5.079
				c0-8.254-3.878-13.015-16.755-13.015c-13.032,0-16.756,4.761-16.756,13.015v5.079
				C188.618,284.717,192.031,288.05,205.374,293.605z"/>
		</g>
	</g>
	<g id="_x31_7" display="none">
		<g display="inline" enable-background="new    ">
			<path fill="#F5F6F6" d="M119.424,275.512l-5.74-10.634l27.15-16.03h11.636v102.531h-13.032v-87.294L119.424,275.512z"/>
			<path fill="#F5F6F6" d="M172.637,248.847h61.593v11.269l-41.269,91.262h-13.188l41.113-90.786h-48.25V248.847z"/>
		</g>
	</g>
	<g id="_x31_6" display="none">
		<g display="inline" enable-background="new    ">
			<path fill="#F5F6F6" d="M117.873,275.512l-5.74-10.634l27.15-16.03h11.636v102.531h-13.032v-87.294L117.873,275.512z"/>
			<path fill="#F5F6F6" d="M188.618,296.303c5.12-1.904,13.808-3.65,20.634-3.65c19.703,0,26.53,8.412,26.53,25.236v5.079
				c0,18.57-4.965,29.998-29.788,29.998c-22.341,0-30.253-9.523-30.253-24.443V283.13c0-26.347,11.48-35.87,40.648-35.87
				c4.81,0,12.101,0.635,17.066,1.905l-1.396,11.11c-3.723-0.794-9.929-1.429-13.653-1.429c-24.047,0-29.788,5.238-29.788,24.442
				V296.303z M188.618,308.524v18.094c0,11.269,5.585,14.602,17.376,14.602c13.342,0,16.911-4.126,16.911-14.602v-8.729
				c0-9.682-3.568-13.65-14.894-13.65C201.185,304.239,193.737,306.303,188.618,308.524z"/>
		</g>
	</g>
	<g id="_x31_5" display="none">
		<g display="inline" enable-background="new    ">
			<path fill="#F5F6F6" d="M119.89,275.512l-5.74-10.634l27.15-16.03h11.636v102.531h-13.032v-87.294L119.89,275.512z"/>
			<path fill="#F5F6F6" d="M179.774,248.847h52.749v11.745h-39.717v32.537c6.516,0.159,9.619,0.159,16.601,0.476
				c18.462,0.794,24.357,9.999,24.357,23.808v9.206c0,16.824-7.137,26.347-31.805,26.347c-7.757,0-18.152-0.952-26.064-3.651
				l1.396-10.792c7.757,1.905,17.066,2.698,24.513,2.698c15.514,0,18.927-4.126,18.927-15.396v-6.984
				c0-9.523-3.103-13.491-15.979-13.808c-10.395-0.317-17.221-0.317-24.979-0.476V248.847z"/>
		</g>
	</g>
	<g id="_x31_4" display="none">
		<g display="inline" enable-background="new    ">
			<path fill="#F5F6F6" d="M113.995,275.512l-5.74-10.634l27.15-16.03h11.636v102.531h-13.032v-87.294L113.995,275.512z"/>
			<path fill="#F5F6F6" d="M225.232,326.142v25.236H212.2v-25.236h-47.785v-13.173l43.286-64.122h17.531v65.867h14.428v11.428
				H225.232z M212.2,314.714v-52.376l-34.908,52.376H212.2z"/>
		</g>
	</g>
	<g id="_x31_3" display="none">
		<g display="inline" enable-background="new    ">
			<path fill="#F5F6F6" d="M120.976,275.512l-5.74-10.634l27.15-16.03h11.636v102.531H140.99v-87.294L120.976,275.512z"/>
			<path fill="#F5F6F6" d="M177.137,338.681c7.447,1.746,15.049,2.54,22.651,2.54c14.583,0,19.858-3.492,19.858-13.649v-7.936
				c0-10.317-5.585-13.808-15.669-13.808h-21.255v-11.746h19.548c12.101,0,15.515-4.761,15.515-13.173v-9.205
				c0-9.523-4.344-12.698-16.756-12.698c-6.981,0-14.739,0.953-21.875,2.381l-1.396-11.269c6.516-1.587,15.514-2.857,23.582-2.857
				c21.875,0,29.478,7.777,29.478,22.538v9.364c0,9.682-2.172,15.713-11.791,20.474c8.533,2.54,13.653,7.46,13.653,18.887v10.317
				c0,16.506-9.619,24.125-32.891,24.125c-7.447,0-17.531-0.952-24.047-3.175L177.137,338.681z"/>
		</g>
	</g>
	<g id="_x31_2" display="none">
		<g display="inline" enable-background="new    ">
			<path fill="#F5F6F6" d="M120.666,275.512l-5.74-10.634l27.15-16.03h11.636v102.531h-13.032v-87.294L120.666,275.512z"/>
			<path fill="#F5F6F6" d="M175.43,339.157c11.481-13.332,14.429-16.824,26.685-31.584c15.825-19.205,16.911-23.332,16.911-30.791
				v-4.603c0-9.999-2.637-13.015-18.307-13.015c-7.292,0-17.065,1.746-22.961,3.492l-1.862-11.427
				c6.671-2.063,16.911-3.968,25.909-3.968c23.892,0,30.253,8.571,30.253,24.76c0,0.635,0,2.856,0,3.492
				c0,12.538-2.172,17.935-17.687,36.822c-11.17,13.649-12.722,15.713-22.806,27.299h41.424v11.745H175.43V339.157z"/>
		</g>
	</g>
	<g id="_x31_1" display="none">
		<g display="inline" enable-background="new    ">
			<path fill="#F5F6F6" d="M127.284,275.512l-5.74-10.634l27.15-16.03h11.636v102.531h-13.032v-87.294L127.284,275.512z"/>
			<path fill="#F5F6F6" d="M181.583,275.512l-5.74-10.634l27.15-16.03h11.636v102.531h-13.032v-87.294L181.583,275.512z"/>
		</g>
	</g>
	<g id="_x31_0" display="none">
		<g display="inline" enable-background="new    ">
			<path fill="#F5F6F6" d="M115.934,275.512l-5.741-10.634l27.15-16.03h11.636v102.531h-13.032v-87.294L115.934,275.512z"/>
			<path fill="#F5F6F6" d="M237.721,325.507c0,15.872-7.912,27.458-31.959,27.458s-31.96-11.586-31.96-27.458v-50.79
				c0-15.872,7.913-27.458,31.96-27.458s31.959,11.586,31.959,27.458V325.507z M205.761,259.005
				c-14.273,0-18.928,5.555-18.928,17.142v47.932c0,11.586,4.654,17.142,18.928,17.142c14.273,0,18.927-5.555,18.927-17.142v-47.932
				C224.688,264.56,220.034,259.005,205.761,259.005z"/>
		</g>
	</g>
	<g id="_x39_" display="none">
		<g display="inline" enable-background="new    ">
			<path fill="#F5F6F6" d="M191.101,303.922c-5.12,1.905-13.808,3.65-20.634,3.65c-19.703,0-26.53-8.412-26.53-25.236v-5.079
				c0-18.57,5.43-29.998,29.788-29.998c22.341,0,30.253,10,30.253,24.919v44.917c0,26.347-11.48,35.87-40.647,35.87
				c-4.81,0-12.102-0.635-17.066-1.905l1.241-11.11c3.724,0.794,10.084,1.429,13.808,1.429c24.047,0,29.788-5.238,29.788-24.442
				V303.922z M191.101,291.701v-18.094c0-11.269-5.585-14.602-17.376-14.602c-13.343,0-16.911,4.126-16.911,14.602v8.729
				c0,9.682,3.568,13.649,14.894,13.649C178.534,295.986,185.981,293.922,191.101,291.701z"/>
		</g>
	</g>
	<g id="_x38_" display="none">
		<g display="inline" enable-background="new    ">
			<path fill="#F5F6F6" d="M187.3,299.001c14.118,6.666,18.772,13.333,18.772,24.125v4.603c0,17.776-9.309,25.236-32.115,25.236
				c-22.961,0-32.115-7.46-32.115-25.236v-4.603c0-10.792,4.5-17.459,18.307-24.125c-12.412-6.189-15.669-12.697-15.669-22.696
				v-4.126c0-14.443,6.981-24.919,29.478-24.919c22.341,0,29.478,10.476,29.478,24.919v4.126
				C203.435,286.304,200.021,292.812,187.3,299.001z M173.958,305.033c-15.67,6.507-19.394,9.523-19.394,18.57v3.651
				c0,10.792,4.965,14.284,19.394,14.284c14.273,0,19.393-3.492,19.393-14.284v-3.651
				C193.35,314.556,189.472,311.54,173.958,305.033z M173.958,293.605c13.342-5.555,16.755-8.888,16.755-16.982v-5.079
				c0-8.254-3.879-13.015-16.755-13.015c-13.032,0-16.756,4.761-16.756,13.015v5.079
				C157.202,284.717,160.615,288.05,173.958,293.605z"/>
		</g>
	</g>
	<g id="_x37_" display="none">
		<g display="inline" enable-background="new    ">
			<path fill="#F5F6F6" d="M143.161,248.847h61.592v11.269l-41.269,91.262h-13.187l41.113-90.786h-48.25V248.847z"/>
		</g>
	</g>
	<g id="_x36_" display="none">
		<g display="inline" enable-background="new    ">
			<path fill="#F5F6F6" d="M156.814,296.303c5.12-1.904,13.808-3.65,20.634-3.65c19.703,0,26.529,8.412,26.529,25.236v5.079
				c0,18.57-4.964,29.998-29.788,29.998c-22.341,0-30.253-9.523-30.253-24.443V283.13c0-26.347,11.481-35.87,40.648-35.87
				c4.81,0,12.102,0.635,17.066,1.905l-1.396,11.11c-3.724-0.794-9.929-1.429-13.653-1.429c-24.047,0-29.788,5.238-29.788,24.442
				V296.303z M156.814,308.524v18.094c0,11.269,5.585,14.602,17.376,14.602c13.342,0,16.911-4.126,16.911-14.602v-8.729
				c0-9.682-3.568-13.65-14.894-13.65C169.38,304.239,161.934,306.303,156.814,308.524z"/>
		</g>
	</g>
	<g id="_x35_" display="none">
		<g display="inline" enable-background="new    ">
			<path fill="#F5F6F6" d="M148.901,248.847h52.749v11.745h-39.717v32.537c6.516,0.159,9.619,0.159,16.601,0.476
				c18.462,0.794,24.357,9.999,24.357,23.808v9.206c0,16.824-7.137,26.347-31.805,26.347c-7.757,0-18.152-0.952-26.064-3.651
				l1.396-10.792c7.757,1.905,17.066,2.698,24.513,2.698c15.514,0,18.927-4.126,18.927-15.396v-6.984
				c0-9.523-3.103-13.491-15.979-13.808c-10.395-0.317-17.221-0.317-24.979-0.476V248.847z"/>
		</g>
	</g>
	<g id="_x34_" display="none">
		<g display="inline" enable-background="new    ">
			<path fill="#F5F6F6" d="M197.151,326.142v25.236h-13.032v-25.236h-47.785v-13.173l43.286-64.122h17.531v65.867h14.429v11.428
				H197.151z M184.119,314.714v-52.376l-34.907,52.376H184.119z"/>
		</g>
	</g>
	<g id="_x33_" display="none">
		<g display="inline" enable-background="new    ">
			<path fill="#F5F6F6" d="M146.884,338.681c7.447,1.746,15.049,2.54,22.651,2.54c14.583,0,19.858-3.492,19.858-13.649v-7.936
				c0-10.317-5.585-13.808-15.669-13.808H152.47v-11.746h19.548c12.101,0,15.514-4.761,15.514-13.173v-9.205
				c0-9.523-4.344-12.698-16.755-12.698c-6.981,0-14.739,0.953-21.875,2.381l-1.396-11.269c6.516-1.587,15.515-2.857,23.582-2.857
				c21.875,0,29.478,7.777,29.478,22.538v9.364c0,9.682-2.172,15.713-11.791,20.474c8.533,2.54,13.653,7.46,13.653,18.887v10.317
				c0,16.506-9.619,24.125-32.891,24.125c-7.447,0-17.531-0.952-24.047-3.175L146.884,338.681z"/>
		</g>
	</g>
	<g id="_x32_" display="none">
		<g display="inline" enable-background="new    ">
			<path fill="#F5F6F6" d="M145.178,339.157c11.481-13.332,14.429-16.824,26.685-31.584c15.825-19.205,16.911-23.332,16.911-30.791
				v-4.603c0-9.999-2.637-13.015-18.307-13.015c-7.292,0-17.066,1.746-22.961,3.492l-1.861-11.427
				c6.671-2.063,16.911-3.968,25.909-3.968c23.892,0,30.253,8.571,30.253,24.76c0,0.635,0,2.856,0,3.492
				c0,12.538-2.172,17.935-17.687,36.822c-11.17,13.649-12.722,15.713-22.806,27.299h41.424v11.745h-57.559V339.157z"/>
		</g>
	</g>
	<g id="_x31_">
		<g enable-background="new    ">
			<path fill="#F5F6F6" d="M148.564,275.512l-5.741-10.634l27.15-16.03h11.636v102.531h-13.032v-87.294L148.564,275.512z"/>
		</g>
	</g>
</g>
<g id="ombra_x5F_scala">
	<g id="ombra_indicatore">
		
			<image overflow="visible" opacity="0.5" enable-background="new    " width="217" height="1024" xlink:href="../EE12B3EE.png"  transform="matrix(0.5679 0 0 0.6474 386.5459 55.6079)">
		</image>
		<g>
			<g>
				<path fill="#E9E7D6" d="M469.592,131.352v54.926h-43.18v-54.926v-3.654c0-17.291,9.666-24.318,21.591-24.318
					c11.923,0,21.589,8.954,21.589,24.318V131.352L469.592,131.352z"/>
				<rect x="426.412" y="186.282" fill="#E9E7D6" width="43.18" height="80.314"/>
				<rect x="426.412" y="266.595" fill="#E9E7D6" width="43.18" height="80.314"/>
				<rect x="426.412" y="346.911" fill="#E9E7D6" width="43.18" height="80.315"/>
				<rect x="426.412" y="427.226" fill="#E9E7D6" width="43.18" height="80.316"/>
				<rect x="426.412" y="507.541" fill="#E9E7D6" width="43.18" height="80.315"/>
				<path fill="#E9E7D6" d="M426.412,642.785v-54.93h43.18v54.93v1.654c0,13.43-9.665,24.317-21.589,24.317
					c-11.925,0-21.591-10.888-21.591-24.317V642.785z"/>
			</g>
		</g>
	</g>
</g>
<g id="tacca_x5F_1_1_">
	<g id="rosso">
		<g>
			<g>
				<g>
					<defs>
						<path id="SVGID_1_" d="M426.569,651.043v-48.768h43.18v48.768v1.469c0,11.924-9.665,21.59-21.589,21.59
							c-11.925,0-21.591-9.666-21.591-21.59V651.043z"/>
					</defs>
					<clipPath id="SVGID_2_">
						<use xlink:href="#SVGID_1_"  overflow="visible"/>
					</clipPath>
					<rect x="426.569" y="598.276" clip-path="url(#SVGID_2_)" fill="#EC2227" width="43.18" height="78.406"/>
				</g>
			</g>
		</g>
	</g>
</g>
<g id="tacca_x5F_2_1_">
	<rect id="arancione" x="426.412" y="531.215" fill="#F15B2B" width="43.18" height="71.306"/>
</g>
<g id="tacca_x5F_3_1_">
	<rect id="senape" x="426.412" y="459.909" fill="#FBB041" width="43.18" height="71.307"/>
</g>
<g id="tacca_x5F_4">
	<rect id="giallo" x="426.412" y="388.604" fill="#FFDE11" width="43.18" height="71.305"/>
</g>
<g id="tacca_x5F_5">
	<rect id="verde_x5F_giallo" x="426.412" y="317.299" fill="#BDD631" width="43.18" height="71.305"/>
</g>
<g id="tacca_x5F_6">
	<rect id="verde_x5F_chiaro" x="426.412" y="245.995" fill="#8EC641" width="43.18" height="71.305"/>
</g>
<g id="tacca_x5F_7">
	<rect id="verde_x5F_chiaro_3_" x="426.412" y="174.995" fill="#28B34B" width="43.18" height="71.305"/>
</g>
<g id="tacca_x5F_8">
	<g id="verde">
		<g>
			<g>
				<g>
					<defs>
						<path id="SVGID_3_" d="M469.592,126.228v48.765h-43.18v-48.765v-1.469c0-11.925,9.666-21.59,21.591-21.59
							c11.923,0,21.589,9.665,21.589,21.59V126.228L469.592,126.228z"/>
					</defs>
					<clipPath id="SVGID_4_">
						<use xlink:href="#SVGID_3_"  overflow="visible"/>
					</clipPath>
					<rect x="426.412" y="98.415" clip-path="url(#SVGID_4_)" fill="#15703B" width="43.18" height="76.578"/>
				</g>
			</g>
		</g>
	</g>
</g>
<g id="griglia_x5F_scala">
	<g>
		<path fill="none" stroke="#010101" stroke-width="0.5" stroke-miterlimit="10" d="M469.592,197.228v48.765h-43.18v-48.765v-72.469
			c0-11.925,9.666-21.59,21.591-21.59c11.923,0,21.589,9.665,21.589,21.59V197.228L469.592,197.228z"/>
		
			<rect x="426.412" y="245.995" fill="none" stroke="#010101" stroke-width="0.5" stroke-miterlimit="10" width="43.18" height="71.305"/>
		<polyline fill="none" stroke="#010101" stroke-width="0.5" stroke-miterlimit="10" points="426.412,246.3 426.412,174.995 
			469.592,174.995 469.592,246.3 		"/>
		
			<rect x="426.412" y="317.299" fill="none" stroke="#010101" stroke-width="0.5" stroke-miterlimit="10" width="43.18" height="71.305"/>
		
			<rect x="426.412" y="388.604" fill="none" stroke="#010101" stroke-width="0.5" stroke-miterlimit="10" width="43.18" height="71.305"/>
		
			<rect x="426.412" y="459.909" fill="none" stroke="#010101" stroke-width="0.5" stroke-miterlimit="10" width="43.18" height="71.307"/>
		
			<rect x="426.412" y="531.215" fill="none" stroke="#010101" stroke-width="0.5" stroke-miterlimit="10" width="43.18" height="71.306"/>
		<path fill="none" stroke="#010101" stroke-width="0.5" stroke-miterlimit="10" d="M426.412,651.287V602.52h43.18v48.768v1.469
			c0,11.924-9.665,21.59-21.589,21.59c-11.925,0-21.591-9.666-21.591-21.59V651.287z"/>
	</g>
	<g>
		
			<line opacity="0.8" fill="none" stroke="#030303" stroke-width="0.75" stroke-miterlimit="10" enable-background="new    " x1="458.795" y1="210.083" x2="468.934" y2="210.083"/>
		
			<line opacity="0.8" fill="none" stroke="#030303" stroke-width="0.75" stroke-miterlimit="10" enable-background="new    " x1="458.795" y1="229.037" x2="468.934" y2="229.037"/>
		
			<line opacity="0.8" fill="none" stroke="#030303" stroke-width="0.75" stroke-miterlimit="10" enable-background="new    " x1="458.795" y1="191.125" x2="467.891" y2="191.125"/>
		
			<line opacity="0.8" fill="none" stroke="#030303" stroke-width="0.75" stroke-miterlimit="10" enable-background="new    " x1="458.795" y1="139.083" x2="468.934" y2="139.083"/>
		
			<line opacity="0.8" fill="none" stroke="#030303" stroke-width="0.75" stroke-miterlimit="10" enable-background="new    " x1="458.795" y1="158.037" x2="468.934" y2="158.037"/>
		
			<line opacity="0.8" fill="none" stroke="#030303" stroke-width="0.75" stroke-miterlimit="10" enable-background="new    " x1="458.795" y1="120.125" x2="467.891" y2="120.125"/>
		
			<line opacity="0.8" fill="none" stroke="#030303" stroke-width="0.75" stroke-miterlimit="10" enable-background="new    " x1="458.795" y1="281.646" x2="468.911" y2="281.646"/>
		
			<line opacity="0.8" fill="none" stroke="#030303" stroke-width="0.75" stroke-miterlimit="10" enable-background="new    " x1="458.795" y1="300.601" x2="468.911" y2="300.601"/>
		
			<line opacity="0.8" fill="none" stroke="#030303" stroke-width="0.75" stroke-miterlimit="10" enable-background="new    " x1="458.795" y1="262.69" x2="468.869" y2="262.69"/>
		
			<line opacity="0.8" fill="none" stroke="#030303" stroke-width="0.75" stroke-miterlimit="10" enable-background="new    " x1="458.795" y1="352.953" x2="468.891" y2="352.953"/>
		
			<line opacity="0.8" fill="none" stroke="#030303" stroke-width="0.75" stroke-miterlimit="10" enable-background="new    " x1="458.795" y1="371.907" x2="468.891" y2="371.907"/>
		
			<line opacity="0.8" fill="none" stroke="#030303" stroke-width="0.75" stroke-miterlimit="10" enable-background="new    " x1="458.795" y1="333.996" x2="468.849" y2="333.996"/>
		
			<line opacity="0.8" fill="none" stroke="#030303" stroke-width="0.75" stroke-miterlimit="10" enable-background="new    " x1="458.795" y1="424.39" x2="468.911" y2="424.39"/>
		
			<line opacity="0.8" fill="none" stroke="#030303" stroke-width="0.75" stroke-miterlimit="10" enable-background="new    " x1="458.795" y1="443.346" x2="468.911" y2="443.346"/>
		
			<line opacity="0.8" fill="none" stroke="#030303" stroke-width="0.75" stroke-miterlimit="10" enable-background="new    " x1="458.795" y1="405.433" x2="468.869" y2="405.433"/>
		
			<line opacity="0.8" fill="none" stroke="#030303" stroke-width="0.75" stroke-miterlimit="10" enable-background="new    " x1="458.795" y1="496.736" x2="468.891" y2="496.736"/>
		
			<line opacity="0.8" fill="none" stroke="#030303" stroke-width="0.75" stroke-miterlimit="10" enable-background="new    " x1="458.795" y1="515.69" x2="468.891" y2="515.69"/>
		
			<line opacity="0.8" fill="none" stroke="#030303" stroke-width="0.75" stroke-miterlimit="10" enable-background="new    " x1="458.795" y1="477.781" x2="468.849" y2="477.781"/>
		
			<line opacity="0.8" fill="none" stroke="#030303" stroke-width="0.75" stroke-miterlimit="10" enable-background="new    " x1="458.795" y1="566.827" x2="468.869" y2="566.827"/>
		
			<line opacity="0.8" fill="none" stroke="#030303" stroke-width="0.75" stroke-miterlimit="10" enable-background="new    " x1="458.795" y1="585.781" x2="468.869" y2="585.781"/>
		
			<line opacity="0.8" fill="none" stroke="#030303" stroke-width="0.75" stroke-miterlimit="10" enable-background="new    " x1="458.795" y1="547.871" x2="468.829" y2="547.871"/>
		
			<line opacity="0.8" fill="none" stroke="#030303" stroke-width="0.75" stroke-miterlimit="10" enable-background="new    " x1="458.795" y1="639.433" x2="468.849" y2="639.433"/>
		
			<line opacity="0.8" fill="none" stroke="#030303" stroke-width="0.75" stroke-miterlimit="10" enable-background="new    " x1="458.795" y1="658.388" x2="467.849" y2="658.388"/>
		
			<line opacity="0.8" fill="none" stroke="#030303" stroke-width="0.75" stroke-miterlimit="10" enable-background="new    " x1="458.795" y1="620.477" x2="468.808" y2="620.477"/>
	</g>
</g>
<g id="indicatore">
	<g display="none">
		
			<linearGradient id="SVGID_5_" gradientUnits="userSpaceOnUse" x1="989.0801" y1="-70.8057" x2="1060.0449" y2="-70.8057" gradientTransform="matrix(1 0 0 1 -541.8008 173.8008)">
			<stop  offset="0" style="stop-color:#A8AAAD"/>
			<stop  offset="0.1623" style="stop-color:#A1A2A5"/>
			<stop  offset="0.3804" style="stop-color:#919395"/>
			<stop  offset="0.6301" style="stop-color:#77777A"/>
			<stop  offset="0.9013" style="stop-color:#515153"/>
			<stop  offset="1" style="stop-color:#424143"/>
		</linearGradient>
		<path display="inline" fill="url(#SVGID_5_)" stroke="#191919" stroke-width="0.5" stroke-miterlimit="10" d="M493.024,77.776
			c-8.517,0-16.034,4.237-20.601,10.702l-25.145,14.517l25.145,14.517c4.567,6.467,12.083,10.702,20.601,10.702
			c13.928,0,25.219-11.291,25.219-25.22C518.243,89.068,506.954,77.776,493.024,77.776z"/>
		
			<linearGradient id="SVGID_6_" gradientUnits="userSpaceOnUse" x1="1024.4863" y1="-70.8032" x2="1045.1641" y2="-70.8032" gradientTransform="matrix(1 0 0 1 -541.8008 173.8008)">
			<stop  offset="0" style="stop-color:#A8AAAD"/>
			<stop  offset="0.1623" style="stop-color:#A1A2A5"/>
			<stop  offset="0.3804" style="stop-color:#919395"/>
			<stop  offset="0.6301" style="stop-color:#77777A"/>
			<stop  offset="0.9013" style="stop-color:#515153"/>
			<stop  offset="1" style="stop-color:#424143"/>
		</linearGradient>
		
			<circle display="inline" fill="url(#SVGID_6_)" stroke="#191919" stroke-width="0.5" stroke-miterlimit="10" cx="493.024" cy="102.998" r="10.339"/>
	</g>
	<g>
		
			<image overflow="visible" opacity="0.63" enable-background="new    " width="96" height="65" xlink:href="../EE12B3E9.png"  transform="matrix(0.7723 0 0 0.7723 458.043 78.5044)">
		</image>
		<g>
			
				<linearGradient id="SVGID_7_" gradientUnits="userSpaceOnUse" x1="1005.4414" y1="-70.2495" x2="1068.5625" y2="-70.2495" gradientTransform="matrix(1 0 0 1 -541.8008 173.8008)">
				<stop  offset="0" style="stop-color:#A8AAAD"/>
				<stop  offset="0.1623" style="stop-color:#A1A2A5"/>
				<stop  offset="0.3804" style="stop-color:#919395"/>
				<stop  offset="0.6301" style="stop-color:#77777A"/>
				<stop  offset="0.9013" style="stop-color:#515153"/>
				<stop  offset="1" style="stop-color:#424143"/>
			</linearGradient>
			<polygon fill="url(#SVGID_7_)" points="463.641,104.409 490.343,83.954 526.763,83.954 526.763,123.149 491.436,123.149 			"/>
			<polygon fill="none" stroke="#191919" stroke-width="0.5" stroke-miterlimit="10" points="463.641,104.409 490.343,83.954 
				526.763,83.954 526.763,123.149 491.436,123.149 			"/>
		</g>
	</g>
</g>
<g id="riflesso">
	<path opacity="0.5" fill="#FFFFFF" enable-background="new    " d="M441.095,669.157L441.095,669.157
		c-5.518-2.493-11.033-10.22-11.033-26.016V134.728c0-16.579,5.518-21.471,11.033-24.32v2.727"/>
	<path opacity="0.72" fill="#FFFFFF" enable-background="new    " d="M469.592,126.915"/>
</g>
<g id="carrello">
	<g>
		<linearGradient id="sfumatura_1_" gradientUnits="userSpaceOnUse" x1="161.9731" y1="487.4971" x2="161.9731" y2="736.5723">
			<stop  offset="0" style="stop-color:#FFFFFF;stop-opacity:0"/>
			<stop  offset="0.0118" style="stop-color:#FEFEFE;stop-opacity:0.0406"/>
			<stop  offset="0.1453" style="stop-color:#F3F3F3;stop-opacity:0.4976"/>
			<stop  offset="0.2921" style="stop-color:#F0EFEF"/>
		</linearGradient>
		<polygon id="sfumatura" fill="url(#sfumatura_1_)" points="55.001,503.107 268.44,487.497 268.944,736.572 56.371,736.572 		"/>
		<g opacity="0.53">
			
				<image overflow="visible" enable-background="new    " width="546" height="174" xlink:href="../EE12B3E8.png"  transform="matrix(0.5775 0 0 0.573 8.3398 622.71)">
			</image>
		</g>
		<g>
			
				<linearGradient id="SVGID_8_" gradientUnits="userSpaceOnUse" x1="1255.4629" y1="-95.4297" x2="1255.4629" y2="-59.0479" gradientTransform="matrix(-1 0 0 -1 1476.7793 578.4805)">
				<stop  offset="0" style="stop-color:#0F0F0F"/>
				<stop  offset="0.0531" style="stop-color:#131313"/>
				<stop  offset="0.3335" style="stop-color:#212121"/>
				<stop  offset="0.5517" style="stop-color:#272626"/>
			</linearGradient>
			<path fill="url(#SVGID_8_)" d="M203.126,655.718c0,10.051,8.142,18.192,18.191,18.192c10.046,0,18.188-8.144,18.188-18.192
				s-8.142-18.189-18.188-18.189C211.267,637.527,203.126,645.669,203.126,655.718z"/>
			
				<linearGradient id="SVGID_9_" gradientUnits="userSpaceOnUse" x1="1255.4609" y1="-95.4297" x2="1255.4609" y2="-73.4561" gradientTransform="matrix(-1 0 0 -1 1476.7793 578.4805)">
				<stop  offset="0.5813" style="stop-color:#010101"/>
				<stop  offset="1" style="stop-color:#272626"/>
			</linearGradient>
			<path fill="url(#SVGID_9_)" d="M206.495,651.937c-0.311,1.212-0.491,2.479-0.491,3.781c0,8.457,6.857,15.313,15.313,15.313
				c8.457,0,15.313-6.856,15.313-15.313c0-1.305-0.182-2.569-0.491-3.781h2.975c0.255,1.222,0.396,2.486,0.396,3.781
				c0,10.051-8.144,18.192-18.189,18.192c-10.051,0-18.191-8.144-18.191-18.192c0-1.295,0.139-2.562,0.396-3.781H206.495z"/>
			
				<linearGradient id="SVGID_10_" gradientUnits="userSpaceOnUse" x1="1255.4629" y1="-84.4561" x2="1255.4629" y2="-52.5166" gradientTransform="matrix(-1 0 0 -1 1476.7793 578.4805)">
				<stop  offset="0.4877" style="stop-color:#8B8A8A"/>
				<stop  offset="1" style="stop-color:#B3B3B3"/>
			</linearGradient>
			<path fill="url(#SVGID_10_)" d="M212.933,660.671c0,1.25,1.018,2.266,2.264,2.266h12.242c1.249,0,2.263-1.016,2.263-2.266
				v-27.412c0-1.244-1.014-2.262-2.263-2.262h-12.242c-1.246,0-2.264,1.018-2.264,2.262V660.671L212.933,660.671z"/>
			
				<linearGradient id="SVGID_11_" gradientUnits="userSpaceOnUse" x1="1255.4629" y1="-83.5254" x2="1255.4629" y2="-51.5859" gradientTransform="matrix(-1 0 0 -1 1476.7793 578.4805)">
				<stop  offset="0.2365" style="stop-color:#F1F0F0"/>
				<stop  offset="1" style="stop-color:#B3B3B3"/>
			</linearGradient>
			<path fill="url(#SVGID_11_)" d="M212.933,659.738c0,1.252,1.018,2.268,2.264,2.268h12.242c1.249,0,2.263-1.016,2.263-2.268
				v-27.407c0-1.25-1.014-2.265-2.263-2.265h-12.242c-1.246,0-2.264,1.015-2.264,2.265V659.738L212.933,659.738z"/>
			<path fill="#6F6F6F" d="M215.195,630.065h12.242c1.249,0,2.263,1.014,2.263,2.265v4.247H212.93v-4.247
				C212.933,631.079,213.949,630.065,215.195,630.065z"/>
			
				<linearGradient id="SVGID_12_" gradientUnits="userSpaceOnUse" x1="1255.4609" y1="-81.3281" x2="1255.4609" y2="-73.1504" gradientTransform="matrix(-1 0 0 -1 1476.7793 578.4805)">
				<stop  offset="0.0887" style="stop-color:#010101"/>
				<stop  offset="1" style="stop-color:#4E4E4E"/>
			</linearGradient>
			<path fill="url(#SVGID_12_)" d="M217.231,655.718c0,2.262,1.829,4.091,4.087,4.091c2.255,0,4.087-1.829,4.087-4.091
				c0-2.255-1.83-4.087-4.087-4.087C219.061,651.631,217.231,653.463,217.231,655.718z"/>
			
				<linearGradient id="SVGID_13_" gradientUnits="userSpaceOnUse" x1="1255.4629" y1="-80.6309" x2="1255.4629" y2="-73.8428" gradientTransform="matrix(-1 0 0 -1 1476.7793 578.4805)">
				<stop  offset="0.0887" style="stop-color:#B3B3B3"/>
				<stop  offset="1" style="stop-color:#FFFFFF"/>
			</linearGradient>
			<circle fill="url(#SVGID_13_)" cx="221.317" cy="655.717" r="3.394"/>
		</g>
		<g>
			
				<linearGradient id="SVGID_14_" gradientUnits="userSpaceOnUse" x1="1377.1836" y1="-95.4297" x2="1377.1836" y2="-59.0439" gradientTransform="matrix(-1 0 0 -1 1476.7793 578.4805)">
				<stop  offset="0" style="stop-color:#0F0F0F"/>
				<stop  offset="0.0531" style="stop-color:#131313"/>
				<stop  offset="0.3335" style="stop-color:#212121"/>
				<stop  offset="0.5517" style="stop-color:#272626"/>
			</linearGradient>
			<circle fill="url(#SVGID_14_)" cx="99.596" cy="655.717" r="18.193"/>
			
				<linearGradient id="SVGID_15_" gradientUnits="userSpaceOnUse" x1="1377.1826" y1="-95.4297" x2="1377.1826" y2="-73.4561" gradientTransform="matrix(-1 0 0 -1 1476.7793 578.4805)">
				<stop  offset="0.5813" style="stop-color:#010101"/>
				<stop  offset="1" style="stop-color:#272626"/>
			</linearGradient>
			<path fill="url(#SVGID_15_)" d="M84.775,651.937c-0.31,1.212-0.491,2.479-0.491,3.781c0,8.457,6.854,15.313,15.313,15.313
				s15.313-6.856,15.313-15.313c0-1.305-0.182-2.569-0.49-3.781h2.971c0.262,1.222,0.398,2.486,0.398,3.781
				c0,10.051-8.146,18.192-18.192,18.192c-10.046,0-18.192-8.144-18.192-18.192c0-1.295,0.143-2.562,0.402-3.781H84.775z"/>
			
				<linearGradient id="SVGID_16_" gradientUnits="userSpaceOnUse" x1="1377.1826" y1="-84.4561" x2="1377.1826" y2="-52.5166" gradientTransform="matrix(-1 0 0 -1 1476.7793 578.4805)">
				<stop  offset="0.4877" style="stop-color:#8B8A8A"/>
				<stop  offset="1" style="stop-color:#B3B3B3"/>
			</linearGradient>
			<path fill="url(#SVGID_16_)" d="M91.213,660.671c0,1.25,1.015,2.266,2.266,2.266h12.24c1.251,0,2.262-1.016,2.262-2.266v-27.412
				c0-1.244-1.011-2.262-2.262-2.262h-12.24c-1.251,0-2.266,1.018-2.266,2.262V660.671z"/>
			
				<linearGradient id="SVGID_17_" gradientUnits="userSpaceOnUse" x1="1377.1826" y1="-83.5254" x2="1377.1826" y2="-51.5859" gradientTransform="matrix(-1 0 0 -1 1476.7793 578.4805)">
				<stop  offset="0.2365" style="stop-color:#F1F0F0"/>
				<stop  offset="1" style="stop-color:#B3B3B3"/>
			</linearGradient>
			<path fill="url(#SVGID_17_)" d="M91.213,659.738c0,1.252,1.015,2.268,2.266,2.268h12.24c1.251,0,2.262-1.016,2.262-2.268v-27.407
				c0-1.25-1.011-2.265-2.262-2.265h-12.24c-1.251,0-2.266,1.015-2.266,2.265V659.738z"/>
			<path fill="#6F6F6F" d="M93.479,630.065h12.24c1.251,0,2.263,1.014,2.263,2.265v4.247H91.214v-4.247
				C91.213,631.079,92.227,630.065,93.479,630.065z"/>
			
				<linearGradient id="SVGID_18_" gradientUnits="userSpaceOnUse" x1="1377.1816" y1="-81.3281" x2="1377.1816" y2="-73.1504" gradientTransform="matrix(-1 0 0 -1 1476.7793 578.4805)">
				<stop  offset="0.0887" style="stop-color:#010101"/>
				<stop  offset="1" style="stop-color:#4E4E4E"/>
			</linearGradient>
			<path fill="url(#SVGID_18_)" d="M95.509,655.718c0,2.262,1.83,4.091,4.088,4.091s4.09-1.829,4.09-4.091
				c0-2.255-1.832-4.087-4.09-4.087S95.509,653.463,95.509,655.718z"/>
			
				<linearGradient id="SVGID_19_" gradientUnits="userSpaceOnUse" x1="1377.1816" y1="-80.6309" x2="1377.1816" y2="-73.8428" gradientTransform="matrix(-1 0 0 -1 1476.7793 578.4805)">
				<stop  offset="0.0887" style="stop-color:#B3B3B3"/>
				<stop  offset="1" style="stop-color:#FFFFFF"/>
			</linearGradient>
			<circle fill="url(#SVGID_19_)" cx="99.598" cy="655.717" r="3.394"/>
		</g>
		<path fill="#929497" d="M237.469,599.305l53.703-129.806l25.613-9.236c-0.865,3.077-3.064,5.754-6.237,7.09l-15.189,6.396
			L241.17,608.19L237.469,599.305z"/>
		<path fill="#818181" d="M247.538,489.806l5.169,5.175l-9.063,9.061l-9.063-9.061l4.332-4.331l-22.12,2.156l2.177,2.174
			l-9.063,9.061l-9.063-9.061l0.682-0.687l-17.3,1.691l-8.057,8.054l-6.621-6.624l-22.711,2.221l-4.401,4.403l-3.624-3.62
			l-29.357,2.863l-0.758,0.757l-0.617-0.624l-14.228,1.39l7.037,7.043l-9.06,9.058l-9.063-9.062l6.604-6.604l-26.255,2.563
			l4.038,4.042l-5.741,5.738l4.29,26.539l1.451,1.455l-1.051,1.051l2.176,13.441l6.682-6.688l9.064,9.063l-9.064,9.062l-5.77-5.772
			l2.896,17.954l9.419,4.896l24.666,1.063l2.521-2.523l2.751,2.75l27.073,1.165l3.915-3.915l4.266,4.263l24.167,1.043l5.303-5.306
			l5.777,5.78l21.265,0.913l6.692-6.693l5.935,5.936l10.779-4.837l-8.907-8.906l9.063-9.062l9.063,9.062l-8.652,8.658l7.001-3.145
			l5.558-17.221l-5.159-5.16l9.063-9.063l0.521,0.524l7.938-24.6l-8.459,8.46l-9.063-9.061l9.063-9.063l8.753,8.753l3.811-11.804
			l-4.756-4.753l9.063-9.063l0.115,0.113l4.793-14.843L247.538,489.806z M226.777,554.644l-9.063-9.061l9.063-9.063l9.062,9.063
			L226.777,554.644z M200.847,562.45l9.063-9.063l9.063,9.063l-9.063,9.061L200.847,562.45z M193.038,554.644l-9.059-9.061
			l9.059-9.063l9.063,9.063L193.038,554.644z M183.981,579.32l9.058-9.063l9.063,9.063l-9.063,9.06L183.981,579.32z M167.11,562.45
			l9.062-9.063l9.063,9.063l-9.063,9.061L167.11,562.45z M159.306,554.644l-9.062-9.061l9.062-9.063l9.063,9.063L159.306,554.644z
			 M150.245,579.32l9.062-9.063l9.057,9.063l-9.057,9.06L150.245,579.32z M133.374,562.45l9.063-9.063l9.062,9.063l-9.062,9.058
			L133.374,562.45z M125.57,554.644l-9.065-9.061l9.065-9.063l9.059,9.063L125.57,554.644z M116.505,579.32l9.065-9.063l9.059,9.063
			l-9.059,9.062L116.505,579.32z M99.64,562.453l9.06-9.063l9.063,9.063l-9.063,9.062L99.64,562.453z M91.831,570.257l9.06,9.063
			l-9.06,9.061l-9.06-9.061L91.831,570.257z M84.026,528.714l-9.065,9.062l-9.06-9.062l9.06-9.062L84.026,528.714z M91.831,536.52
			l9.06,9.063l-9.06,9.06l-9.06-9.06L91.831,536.52z M117.759,528.714l-9.062,9.062l-9.06-9.062l9.06-9.062L117.759,528.714z
			 M134.629,511.849l-9.059,9.06l-9.065-9.06l9.065-9.062L134.629,511.849z M151.497,528.714l-9.062,9.062l-9.063-9.062l9.063-9.062
			L151.497,528.714z M168.366,511.846l-9.063,9.063l-9.062-9.06l9.062-9.062L168.366,511.846z M176.172,519.653l9.063,9.062
			l-9.063,9.062l-9.062-9.062L176.172,519.653z M202.104,511.849l-9.063,9.062l-9.057-9.062l9.057-9.062L202.104,511.849z
			 M209.909,519.653l9.063,9.062l-9.063,9.062l-9.063-9.062L209.909,519.653z M235.838,511.849l-9.062,9.062l-9.063-9.062
			l9.063-9.062L235.838,511.849z"/>
		
			<linearGradient id="SVGID_20_" gradientUnits="userSpaceOnUse" x1="1211.3555" y1="40.395" x2="1415.3672" y2="40.395" gradientTransform="matrix(-1 0 0 -1 1476.7793 578.4805)">
			<stop  offset="0" style="stop-color:#9E9E9E"/>
			<stop  offset="0.4877" style="stop-color:#D9D9D8"/>
			<stop  offset="1" style="stop-color:#8C8C8C"/>
		</linearGradient>
		<path fill="url(#SVGID_20_)" d="M247.538,486.956l5.169,5.174l-9.063,9.062l-9.063-9.062l4.332-4.332l-22.12,2.161l2.177,2.17
			l-9.063,9.066l-9.063-9.066l0.682-0.684l-17.3,1.689l-8.057,8.054l-6.621-6.621l-22.711,2.219l-4.401,4.402l-3.624-3.619
			l-29.357,2.863l-0.758,0.757l-0.617-0.617l-14.228,1.39l7.037,7.037l-9.06,9.062l-9.063-9.063l6.604-6.603l-26.255,2.563
			l4.038,4.04l-5.741,5.743l4.29,26.534l1.451,1.457l-1.051,1.051l2.176,13.443l6.682-6.688l9.064,9.06l-9.064,9.062l-5.77-5.771
			l2.896,17.949l9.419,4.901l24.666,1.058l2.521-2.521l2.751,2.748l27.073,1.164l3.915-3.912l4.266,4.264l24.167,1.04l5.303-5.304
			l5.777,5.779l21.265,0.909l6.692-6.688l5.935,5.934l10.779-4.834l-8.907-8.908l9.063-9.062l9.063,9.062l-8.652,8.655l7.001-3.142
			l5.558-17.226l-5.159-5.157l9.063-9.062l0.521,0.522l7.938-24.598l-8.459,8.461l-9.063-9.06l9.063-9.063l8.753,8.754l3.811-11.805
			l-4.756-4.757l9.063-9.063l0.115,0.12l4.793-14.844L247.538,486.956z M226.777,551.796l-9.063-9.062l9.063-9.063l9.062,9.063
			L226.777,551.796z M200.847,559.602l9.063-9.062l9.063,9.062l-9.063,9.063L200.847,559.602z M193.038,551.796l-9.059-9.062
			l9.059-9.063l9.063,9.063L193.038,551.796z M183.981,576.475l9.058-9.063l9.063,9.063l-9.063,9.059L183.981,576.475z
			 M167.11,559.602l9.062-9.059l9.063,9.059l-9.063,9.063L167.11,559.602z M159.306,551.796l-9.062-9.062l9.062-9.063l9.063,9.063
			L159.306,551.796z M150.245,576.475l9.062-9.063l9.057,9.063l-9.057,9.059L150.245,576.475z M133.374,559.602l9.063-9.059
			l9.062,9.063l-9.062,9.06L133.374,559.602z M125.57,551.796l-9.065-9.062l9.065-9.063l9.059,9.063L125.57,551.796z
			 M116.505,576.475l9.065-9.063l9.059,9.063l-9.059,9.059L116.505,576.475z M99.64,559.604l9.06-9.063l9.063,9.059l-9.063,9.063
			L99.64,559.604z M91.831,567.412l9.06,9.063l-9.06,9.059l-9.06-9.059L91.831,567.412z M84.026,525.868l-9.065,9.061l-9.06-9.061
			l9.06-9.063L84.026,525.868z M91.831,533.673l9.06,9.063l-9.06,9.062l-9.06-9.062L91.831,533.673z M117.759,525.868l-9.062,9.061
			l-9.06-9.061l9.06-9.063L117.759,525.868z M134.629,508.998l-9.059,9.062l-9.065-9.062l9.065-9.063L134.629,508.998z
			 M151.497,525.868l-9.062,9.061l-9.063-9.061l9.063-9.063L151.497,525.868z M168.366,508.998l-9.063,9.063l-9.062-9.062
			l9.062-9.063L168.366,508.998z M176.172,516.807l9.063,9.063l-9.063,9.061l-9.062-9.061L176.172,516.807z M202.104,508.998
			l-9.063,9.063l-9.057-9.063l9.057-9.063L202.104,508.998z M209.909,516.807l9.063,9.063l-9.063,9.061l-9.063-9.061
			L209.909,516.807z M235.838,508.998l-9.062,9.063l-9.063-9.063l9.063-9.063L235.838,508.998z"/>
		<path fill="#E6E6E5" d="M216.374,598.169c-0.879,0.528-1.9,0.808-2.929,0.808l0,0c-0.075,0-0.153-0.001-0.231-0.003
			l-132.485-5.695l0,0c-0.828-0.03-1.642-0.249-2.379-0.634l-12.939-6.729l0,0c-1.595-0.833-2.696-2.351-2.979-4.132l-13.458-83.321
			l0,0c-0.255-1.583,0.164-3.185,1.158-4.438l0,0c0.994-1.254,2.467-2.024,4.064-2.13l217.069-14.547l0,0
			c1.949-0.131,3.828,0.749,4.974,2.33l0,0c1.146,1.585,1.4,3.645,0.672,5.456l-5.267-2.125l5.267,2.125l-40.066,99.419l0,0
			c-0.467,1.146-1.284,2.108-2.35,2.744L216.374,598.169L216.374,598.169z M227.02,578.543l35.979-89.263L61.173,502.804
			l12.006,74.355l9.29,4.83l129.53,5.565L227.02,578.543L227.02,578.543z"/>
		<polygon fill="#929497" points="268.944,495.045 268.44,487.497 53.356,501.907 53.858,509.458 		"/>
		
			<linearGradient id="SVGID_21_" gradientUnits="userSpaceOnUse" x1="1199.458" y1="37.4844" x2="1427.8789" y2="37.4844" gradientTransform="matrix(-1 0 0 -1 1476.7793 578.4805)">
			<stop  offset="0" style="stop-color:#B3B3B3"/>
			<stop  offset="0.4877" style="stop-color:#D9D9D8"/>
			<stop  offset="1" style="stop-color:#B3B3B3"/>
		</linearGradient>
		<path fill="url(#SVGID_21_)" d="M216.374,601.009c-0.879,0.529-1.9,0.809-2.929,0.809l0,0c-0.075,0-0.153-0.003-0.231-0.006
			l-132.485-5.694l0,0c-0.828-0.032-1.642-0.248-2.379-0.634l-12.939-6.726l0,0c-1.595-0.837-2.696-2.354-2.979-4.132
			l-13.458-83.322l0,0c-0.255-1.582,0.164-3.186,1.158-4.438l0,0c0.994-1.253,2.467-2.022,4.064-2.131l217.069-14.547l0,0
			c1.949-0.129,3.828,0.748,4.974,2.331l0,0c1.146,1.586,1.4,3.642,0.672,5.455l-5.267-2.122l5.267,2.122l-40.066,99.421l0,0
			c-0.467,1.146-1.284,2.106-2.35,2.742L216.374,601.009L216.374,601.009z M227.02,581.384l35.979-89.264L61.173,505.644
			l12.006,74.354l9.29,4.831l129.53,5.565L227.02,581.384L227.02,581.384z"/>
		
			<linearGradient id="SVGID_22_" gradientUnits="userSpaceOnUse" x1="1283.4219" y1="-56.7646" x2="1283.4219" y2="124.6138" gradientTransform="matrix(-1 0 0 -1 1476.7793 578.4805)">
			<stop  offset="0" style="stop-color:#838383"/>
			<stop  offset="0.0246" style="stop-color:#B3B3B3"/>
			<stop  offset="0.1232" style="stop-color:#B3B3B3"/>
			<stop  offset="0.2456" style="stop-color:#C8C8C8"/>
			<stop  offset="0.3866" style="stop-color:#DBDADA"/>
			<stop  offset="0.4877" style="stop-color:#E0E1E0"/>
			<stop  offset="1" style="stop-color:#B3B3B3"/>
		</linearGradient>
		<path fill="url(#SVGID_22_)" d="M252.717,635.241c2.021,0,3.874-1.083,4.87-2.839l0,0c0.988-1.752,0.963-3.901-0.075-5.629l0,0
			l-15.382-25.642l52.104-129.273l17.22-7.249l0,0c2.845-1.199,4.176-4.478,2.98-7.317l0,0c-1.195-2.851-4.476-4.185-7.319-2.984
			l0,0l-19.361,8.151c-1.376,0.58-2.458,1.681-3.019,3.063l0,0l-54.012,134.013c-0.653,1.628-0.511,3.46,0.396,4.967l0,0
			l11.732,19.561H77.433c-3.089,0-5.591,2.503-5.591,5.59l0,0c0,3.087,2.502,5.593,5.591,5.593l0,0h175.283L252.717,635.241
			L252.717,635.241z"/>
		
			<linearGradient id="SVGID_23_" gradientUnits="userSpaceOnUse" x1="1145.3232" y1="119.7144" x2="1183.4746" y2="119.7144" gradientTransform="matrix(-1 0 0 -1 1476.7793 578.4805)">
			<stop  offset="0.2611" style="stop-color:#25A86B"/>
			<stop  offset="0.3654" style="stop-color:#21A268"/>
			<stop  offset="0.735" style="stop-color:#1C905B"/>
			<stop  offset="1" style="stop-color:#198957"/>
		</linearGradient>
		<path fill="url(#SVGID_23_)" d="M293.305,459.73l17.186-7.233c1.408-4.3,5.443-7.407,10.216-7.407
			c5.937,0,10.75,4.812,10.75,10.749c0,5.938-4.813,10.751-10.75,10.751c-1.703,0-3.312-0.405-4.741-1.11l-16.535,6.963
			L293.305,459.73z"/>
		
			<linearGradient id="SVGID_24_" gradientUnits="userSpaceOnUse" x1="1160.8154" y1="110.2114" x2="1178.2627" y2="110.2114" gradientTransform="matrix(-1 0 0 -1 1476.7793 578.4805)">
			<stop  offset="0.2611" style="stop-color:#1B8E59"/>
			<stop  offset="0.3858" style="stop-color:#177C4C"/>
			<stop  offset="0.634" style="stop-color:#0B5F38"/>
			<stop  offset="0.8474" style="stop-color:#054C2B"/>
			<stop  offset="1" style="stop-color:#034626"/>
		</linearGradient>
		<path fill="url(#SVGID_24_)" d="M313.826,464.097c0.647,0.547,1.372,1.003,2.138,1.382l-16.535,6.963l-0.912-1.895
			L313.826,464.097z"/>
		
			<linearGradient id="SVGID_25_" gradientUnits="userSpaceOnUse" x1="1166.2861" y1="121.561" x2="1183.4736" y2="121.561" gradientTransform="matrix(-1 0 0 -1 1476.7793 578.4805)">
			<stop  offset="0.2611" style="stop-color:#29B574"/>
			<stop  offset="0.5017" style="stop-color:#1F9F66"/>
			<stop  offset="0.7776" style="stop-color:#188D5A"/>
			<stop  offset="0.9754" style="stop-color:#148756"/>
		</linearGradient>
		<path fill="url(#SVGID_25_)" d="M310.489,452.497c0-0.005,0.004-0.005,0.004-0.009c-0.229,0.688-0.387,1.405-0.469,2.148
			l-15.939,6.714l-0.779-1.618L310.489,452.497z"/>
		
			<linearGradient id="SVGID_26_" gradientUnits="userSpaceOnUse" x1="1156.0742" y1="115.4346" x2="1156.0742" y2="129.8486" gradientTransform="matrix(-1 0 0 -1 1476.7793 578.4805)">
			<stop  offset="0" style="stop-color:#29B574"/>
			<stop  offset="1" style="stop-color:#1C905B"/>
		</linearGradient>
		<circle fill="url(#SVGID_26_)" cx="320.705" cy="455.839" r="7.207"/>
		
			<linearGradient id="SVGID_27_" gradientUnits="userSpaceOnUse" x1="1150.9648" y1="122.6411" x2="1161.1846" y2="122.6411" gradientTransform="matrix(-1 0 0 -1 1476.7793 578.4805)">
			<stop  offset="0.2611" style="stop-color:#29B574"/>
			<stop  offset="0.5917" style="stop-color:#26AB6C"/>
			<stop  offset="1" style="stop-color:#25A468"/>
		</linearGradient>
		<circle fill="url(#SVGID_27_)" cx="320.704" cy="455.839" r="5.11"/>
		
			<linearGradient id="SVGID_28_" gradientUnits="userSpaceOnUse" x1="1217.3564" y1="-26.1992" x2="1217.3564" y2="116.3496" gradientTransform="matrix(-1 0 0 -1 1476.7793 578.4805)">
			<stop  offset="0" style="stop-color:#CDCCCC"/>
			<stop  offset="0.399" style="stop-color:#E0E1E0"/>
			<stop  offset="1" style="stop-color:#E6E6E5"/>
		</linearGradient>
		<path fill="url(#SVGID_28_)" d="M231.115,604.501l0.104,0.179c0.072-0.403,0.177-0.801,0.332-1.186l56.979-141.363l-0.781,0.327
			c-1.376,0.58-2.458,1.681-3.02,3.063l-54.011,134.013C230.066,601.163,230.211,602.995,231.115,604.501z"/>
		
			<linearGradient id="SVGID_29_" gradientUnits="userSpaceOnUse" x1="1232.8574" y1="-46.4756" x2="1403.4414" y2="-46.4756" gradientTransform="matrix(-1 0 0 -1 1476.7793 578.4805)">
			<stop  offset="0" style="stop-color:#B3B3B3"/>
			<stop  offset="0.4877" style="stop-color:#D9D9D8"/>
			<stop  offset="1" style="stop-color:#B3B3B3"/>
		</linearGradient>
		<path fill="url(#SVGID_29_)" d="M243.922,625.853H73.338c1.021-1.099,2.479-1.793,4.095-1.793H242.85L243.922,625.853z"/>
	</g>
</g>
<g id="pacchi_1_">
	
		<image overflow="visible" width="656" height="360" xlink:href="162 con lato n4.png"  transform="matrix(0.2781 0 0 0.2781 621.4707 541.6045)">
	</image>
	
		<image overflow="visible" width="656" height="360" xlink:href="162 con lato n4.png"  transform="matrix(0.2781 0 0 0.2781 761.1455 541.6045)">
	</image>
	
		<image overflow="visible" width="656" height="360" xlink:href="162 con lato n4.png"  transform="matrix(0.2781 0 0 0.2781 548.1455 574.9844)">
	</image>
	
		<image overflow="visible" width="656" height="360" xlink:href="162 con lato n4.png"  transform="matrix(0.2781 0 0 0.2781 687.8213 574.9844)">
	</image>
</g>
</svg>
