<?xml version="1.0" encoding="utf-8"?>
<!-- Generator: Adobe Illustrator 15.0.0, SVG Export Plug-In . SVG Version: 6.00 Build 0)  -->
<!DOCTYPE svg PUBLIC "-//W3C//DTD SVG 1.1//EN" "http://www.w3.org/Graphics/SVG/1.1/DTD/svg11.dtd">
<svg version="1.1" id="Layer_1" xmlns="http://www.w3.org/2000/svg" xmlns:xlink="http://www.w3.org/1999/xlink" x="0px" y="0px"
	 width="1920px" height="1080px" viewBox="0 0 1920 1080" enable-background="new 0 0 1920 1080" xml:space="preserve">
<image overflow="visible" opacity="0.7" width="1920" height="1080" xlink:href="../bg_03.png"  transform="matrix(0.9999 0 0 0.9999 0.2178 0.0674)">
</image>
<g>
	
		<image overflow="visible" opacity="0.4" width="1548" height="1548" xlink:href="5DF9891A.png"  transform="matrix(0.24 0 0 0.24 288.1694 488.8003)">
	</image>
	<g>
		<circle fill="#28B34B" cx="467.848" cy="668.479" r="155.679"/>
	</g>
</g>
<g>
	
		<image overflow="visible" opacity="0.4" width="1548" height="1548" xlink:href="5DF9891D.png"  transform="matrix(0.24 0 0 0.24 782.3955 488.8003)">
	</image>
	<g>
		<circle fill="#28B34B" cx="962.075" cy="668.479" r="155.679"/>
	</g>
</g>
<g>
	
		<image overflow="visible" opacity="0.4" width="1548" height="1548" xlink:href="5DF9891E.png"  transform="matrix(0.24 0 0 0.24 1276.6211 487.1045)">
	</image>
	<g>
		<circle fill="#28B34B" cx="1456.3" cy="666.783" r="155.679"/>
	</g>
</g>
<g>
	<path fill="#231F20" d="M318.25,903.661v-33.623h21.154v6.715h-13.581v6.158h12.52v6.716h-12.52v7.32h13.581v6.714H318.25z"/>
	<path fill="#231F20" d="M355.052,904.167c-3.887,0-7.977-0.859-10.854-2.172l1.262-5.856c3.08,0.96,6.209,1.616,9.693,1.616
		c3.887,0,4.645-0.758,4.645-3.584c0-3.03-0.151-3.384-5.654-4.595c-8.128-1.768-9.339-3.383-9.339-10.653
		c0-6.714,2.373-9.39,11.611-9.39c2.928,0,6.462,0.303,10.198,1.11l-0.757,6.361c-3.837-0.656-6.311-0.959-9.34-0.959
		c-3.382,0-4.139,0.605-4.139,3.079c0,3.231,0.151,3.282,5.452,4.544c9.088,2.171,9.542,3.938,9.542,10.551
		C367.37,900.884,365.2,904.167,355.052,904.167z"/>
	<path fill="#231F20" d="M400.284,903.661h-7.875l-1.818-6.563h-11.258l-1.818,6.563h-7.875l10.248-33.623h10.098L400.284,903.661z
		 M381.049,890.787h7.724l-3.837-14.085L381.049,890.787z"/>
	<path fill="#231F20" d="M417.396,893.463h-5.755v10.198h-7.573v-33.623h13.732c8.178,0,11.208,3.23,11.208,9.542v4.392
		C429.008,890.282,425.574,893.463,417.396,893.463z M421.434,880.287c0-2.423-0.858-3.534-4.039-3.534h-5.755V886.9h5.755
		c3.332,0,4.039-1.262,4.039-3.686V880.287z"/>
	<path fill="#231F20" d="M459.144,903.661h-7.875l-1.818-6.563h-11.258l-1.818,6.563H428.5l10.249-33.623h10.096L459.144,903.661z
		 M439.91,890.787h7.724l-3.837-14.085L439.91,890.787z"/>
	<path fill="#231F20" d="M469.238,892.656c0,2.928,0.959,4.644,4.695,4.644c2.423,0,5.755-0.303,8.684-0.808l1.06,6.613
		c-3.332,0.707-6.36,1.062-9.743,1.062c-8.482,0-12.268-4.19-12.268-10.3v-14.036c0-6.107,3.786-10.298,12.268-10.298
		c3.383,0,6.412,0.354,9.743,1.061l-1.06,6.613c-2.928-0.505-6.26-0.808-8.684-0.808c-3.736,0-4.695,1.716-4.695,4.645V892.656z"/>
	<path fill="#231F20" d="M488.723,870.038h7.573v33.623h-7.573V870.038z M497.254,886.496l9.087-16.458h8.532l-9.44,16.458
		l10.147,17.165h-8.532L497.254,886.496z"/>
	<path fill="#231F20" d="M559.347,873.017l-9.795,26.303h-4.594l-9.794-26.303l-0.707,30.645h-2.979l1.01-33.623h4.342l10.45,27.464
		l10.4-27.464h4.342l1.01,33.623h-2.979L559.347,873.017z"/>
	<path fill="#231F20" d="M575.094,903.661h-2.979v-33.623h2.979V903.661z"/>
	<path fill="#231F20" d="M595.539,870.038c8.178,0,10.501,4.241,10.501,9.946v13.731c0,5.704-2.323,9.945-10.501,9.945h-11.107
		v-33.623H595.539z M587.41,900.986h8.179c5.654,0,7.471-2.323,7.471-7.119v-14.036c0-4.795-1.817-7.117-7.471-7.117h-8.179V900.986
		z"/>
	<path fill="#231F20" d="M617.446,903.661h-2.979v-33.623h2.979V903.661z"/>
</g>
<g>
	<path fill="#231F20" d="M803.088,903.661v-33.623h21.154v6.715h-13.581v6.158h12.521v6.716h-12.521v7.32h13.581v6.714H803.088z"/>
	<path fill="#231F20" d="M839.889,904.167c-3.888,0-7.977-0.859-10.854-2.172l1.262-5.856c3.08,0.96,6.209,1.616,9.693,1.616
		c3.888,0,4.645-0.758,4.645-3.584c0-3.03-0.151-3.384-5.654-4.595c-8.128-1.768-9.339-3.383-9.339-10.653
		c0-6.714,2.373-9.39,11.611-9.39c2.928,0,6.462,0.303,10.198,1.11l-0.757,6.361c-3.837-0.656-6.311-0.959-9.34-0.959
		c-3.382,0-4.139,0.605-4.139,3.079c0,3.231,0.151,3.282,5.452,4.544c9.087,2.171,9.542,3.938,9.542,10.551
		C852.207,900.884,850.037,904.167,839.889,904.167z"/>
	<path fill="#231F20" d="M885.122,903.661h-7.876l-1.817-6.563H864.17l-1.817,6.563h-7.876l10.249-33.623h10.097L885.122,903.661z
		 M865.886,890.787h7.724l-3.836-14.085L865.886,890.787z"/>
	<path fill="#231F20" d="M902.232,893.463h-5.755v10.198h-7.573v-33.623h13.732c8.179,0,11.208,3.23,11.208,9.542v4.392
		C913.845,890.282,910.411,893.463,902.232,893.463z M906.271,880.287c0-2.423-0.858-3.534-4.039-3.534h-5.755V886.9h5.755
		c3.333,0,4.039-1.262,4.039-3.686V880.287z"/>
	<path fill="#231F20" d="M943.981,903.661h-7.875l-1.818-6.563H923.03l-1.818,6.563h-7.875l10.249-33.623h10.097L943.981,903.661z
		 M924.747,890.787h7.724l-3.837-14.085L924.747,890.787z"/>
	<path fill="#231F20" d="M954.076,892.656c0,2.928,0.959,4.644,4.695,4.644c2.423,0,5.755-0.303,8.684-0.808l1.06,6.613
		c-3.331,0.707-6.36,1.062-9.743,1.062c-8.482,0-12.268-4.19-12.268-10.3v-14.036c0-6.107,3.786-10.298,12.268-10.298
		c3.383,0,6.412,0.354,9.743,1.061l-1.06,6.613c-2.929-0.505-6.261-0.808-8.684-0.808c-3.736,0-4.695,1.716-4.695,4.645V892.656z"/>
	<path fill="#231F20" d="M973.56,870.038h7.572v33.623h-7.572V870.038z M982.091,886.496l9.088-16.458h8.532l-9.44,16.458
		l10.147,17.165h-8.532L982.091,886.496z"/>
	<path fill="#231F20" d="M1044.184,873.017l-9.794,26.303h-4.595l-9.794-26.303l-0.706,30.645h-2.98l1.011-33.623h4.342
		l10.451,27.464l10.399-27.464h4.341l1.011,33.623h-2.979L1044.184,873.017z"/>
	<path fill="#231F20" d="M1075.732,894.826h-15.65l-3.13,8.835h-2.929l11.713-33.623h4.392l11.713,33.623h-2.928L1075.732,894.826z
		 M1060.99,892.252h13.833l-6.916-20.498L1060.99,892.252z"/>
	<path fill="#231F20" d="M1097.033,886.598l-10.905-16.56h3.231l9.289,14.186l9.29-14.186h3.23l-10.904,16.56l11.258,17.063h-3.23
		l-9.644-14.691l-9.643,14.691h-3.231L1097.033,886.598z"/>
	<path fill="#231F20" d="M1121.061,903.661h-2.979v-33.623h2.979V903.661z"/>
</g>
<g>
	<path fill="#231F20" d="M1277.476,903.661v-33.623h21.151v6.715h-13.579v6.158h12.52v6.716h-12.52v7.32h13.579v6.714H1277.476z"/>
	<path fill="#231F20" d="M1314.275,904.167c-3.887,0-7.977-0.859-10.854-2.172l1.262-5.856c3.081,0.96,6.211,1.616,9.694,1.616
		c3.887,0,4.644-0.758,4.644-3.584c0-3.029-0.15-3.384-5.654-4.595c-8.127-1.768-9.34-3.383-9.34-10.653
		c0-6.714,2.372-9.39,11.612-9.39c2.929,0,6.461,0.303,10.197,1.11l-0.757,6.361c-3.836-0.656-6.31-0.959-9.339-0.959
		c-3.383,0-4.141,0.605-4.141,3.079c0,3.231,0.152,3.282,5.453,4.544c9.087,2.171,9.542,3.938,9.542,10.551
		C1326.595,900.884,1324.424,904.167,1314.275,904.167z"/>
	<path fill="#231F20" d="M1359.508,903.661h-7.875l-1.819-6.563h-11.257l-1.817,6.563h-7.875l10.247-33.623h10.098L1359.508,903.661
		z M1340.272,890.787h7.725l-3.838-14.085L1340.272,890.787z"/>
	<path fill="#231F20" d="M1376.618,893.463h-5.755v10.198h-7.572v-33.623h13.731c8.179,0,11.208,3.23,11.208,9.542v4.392
		C1388.23,890.282,1384.797,893.463,1376.618,893.463z M1380.658,880.287c0-2.423-0.858-3.534-4.04-3.534h-5.755V886.9h5.755
		c3.333,0,4.04-1.262,4.04-3.686V880.287z"/>
	<path fill="#231F20" d="M1418.367,903.661h-7.875l-1.818-6.563h-11.258l-1.816,6.563h-7.878l10.249-33.623h10.099L1418.367,903.661
		z M1399.132,890.787h7.725l-3.837-14.085L1399.132,890.787z"/>
	<path fill="#231F20" d="M1428.461,892.656c0,2.928,0.96,4.644,4.695,4.644c2.423,0,5.756-0.303,8.684-0.808l1.061,6.613
		c-3.333,0.707-6.362,1.062-9.744,1.062c-8.481,0-12.268-4.19-12.268-10.3v-14.035c0-6.108,3.786-10.299,12.268-10.299
		c3.382,0,6.411,0.354,9.744,1.061l-1.061,6.613c-2.928-0.505-6.261-0.808-8.684-0.808c-3.735,0-4.695,1.716-4.695,4.645V892.656z"
		/>
	<path fill="#231F20" d="M1447.946,870.038h7.572v33.623h-7.572V870.038z M1456.478,886.496l9.088-16.458h8.533l-9.442,16.458
		l10.148,17.165h-8.532L1456.478,886.496z"/>
	<path fill="#231F20" d="M1493.932,870.038v33.32c0,4.19-0.303,4.442-6.057,10.047l-1.969-2.121
		c4.947-4.846,5.048-5.048,5.048-7.623v-33.623H1493.932z"/>
	<path fill="#231F20" d="M1525.737,870.038v24.082c0,5.705-3.434,10.047-11.61,10.047c-8.181,0-11.613-4.342-11.613-10.047v-24.082
		h2.979v24.082c0,4.694,2.979,7.37,8.634,7.37c5.652,0,8.632-2.676,8.632-7.37v-24.082H1525.737z"/>
	<path fill="#231F20" d="M1537.396,872.967v30.694h-2.827v-33.623h4.343l15.953,30.746v-30.746h2.827v33.623h-4.342
		L1537.396,872.967z"/>
	<path fill="#231F20" d="M1570.006,903.661h-2.98v-33.623h2.98V903.661z"/>
	<path fill="#231F20" d="M1590.349,904.167c-8.632,0-11.763-4.242-11.763-9.996v-14.642c0-5.756,3.131-9.996,11.763-9.996
		c8.633,0,11.763,4.24,11.763,9.996v14.642C1602.111,899.925,1598.981,904.167,1590.349,904.167z M1599.134,894.068V879.63
		c0-4.796-2.322-7.421-8.785-7.421c-6.462,0-8.784,2.625-8.784,7.421v14.438c0,4.797,2.322,7.422,8.784,7.422
		C1596.812,901.49,1599.134,898.865,1599.134,894.068z"/>
	<path fill="#231F20" d="M1623.01,890.737h-0.657h-8.936v12.924h-2.978v-33.623h11.913c6.766,0,9.24,3.08,9.24,7.774v5.149
		c0,3.686-1.516,6.412-5.452,7.371l8.985,13.328h-3.382L1623.01,890.737z M1622.404,872.714h-8.987v15.348h8.987
		c4.241,0,6.209-1.414,6.209-5.1v-5.149C1628.613,874.127,1626.646,872.714,1622.404,872.714z"/>
</g>
<g>
	<path fill="none" stroke="#231F20" stroke-width="3" stroke-miterlimit="10" d="M1011.94,290.877h36.301v-74.673
		c0-6.896-5.592-12.487-12.487-12.487H888.396c-6.896,0-12.489,5.591-12.489,12.487v147.36c0,6.897,5.592,12.489,12.489,12.489
		h116.971l50.329-53.605V209.832c0-7.495-6.076-13.568-13.569-13.568H882.021c-7.493,0-13.568,6.073-13.568,13.568v160.105
		c0,7.494,6.075,13.567,13.568,13.567h127.088l53.44-58.673V203.971c0-8.042-6.52-14.562-14.562-14.562H876.16
		c-8.042,0-14.562,6.519-14.562,14.562v171.828c0,8.042,6.52,14.561,14.562,14.561h136.394l56.943-63.111V198.03
		c0-8.598-6.971-15.568-15.568-15.568H870.221c-8.599,0-15.569,6.97-15.569,15.568v183.709c0,8.598,6.971,15.568,15.569,15.568
		h145.823l60.598-67.573V191.92c0-9.17-7.436-16.604-16.603-16.604H864.11c-9.17,0-16.604,7.434-16.604,16.604v195.93
		c0,9.17,7.434,16.604,16.604,16.604h155.524l63.562-72.44V186.317c0-9.696-7.86-17.554-17.553-17.554H858.508
		c-9.695,0-17.554,7.858-17.554,17.554v207.136c0,9.694,7.859,17.553,17.554,17.553h164.418"/>
	<path fill="#231F20" d="M1013.155,331.279c0,4.864-3.942,8.807-8.807,8.807H919.8c-4.865,0-8.808-3.943-8.808-8.807V248.49
		c0-4.863,3.943-8.807,8.808-8.807h84.548c4.864,0,8.807,3.943,8.807,8.807V331.279z"/>
	<g>
		<path fill="#F0EFEF" d="M937.736,294.091h-2.938v6.911h-5.008v-22.234h9.248c5.408,0,7.411,2.136,7.411,6.309v2.738
			c0,2.772-1.001,4.641-3.239,5.576l5.376,7.612h-5.943L937.736,294.091z M941.442,285.544c0-1.669-0.634-2.336-2.671-2.336h-3.973
			v6.543h3.973c2.137,0,2.671-0.768,2.671-2.438V285.544z"/>
		<path fill="#F0EFEF" d="M951.257,301.002v-22.234h14.122v4.44h-9.114v4.74h8.413v4.44h-8.413v8.614H951.257z"/>
		<path fill="#F0EFEF" d="M968.719,301.002v-22.234h5.007v22.234H968.719z"/>
		<path fill="#F0EFEF" d="M986.847,301.002h-8.614v-22.234h8.614c5.475,0,7.512,2.771,7.512,5.775v10.683
			C994.358,298.197,992.321,301.002,986.847,301.002z M989.352,285.912c0-1.736-0.604-2.704-3.106-2.704h-3.005v13.354h3.005
			c2.503,0,3.106-0.968,3.106-2.705V285.912z"/>
	</g>
	<g>
		<path fill="none" stroke="#F0EFEF" stroke-width="1.5" stroke-miterlimit="10" d="M944.903,261.852
			c4.575-3.295,10.587-5.295,17.172-5.295s12.597,2,17.171,5.295"/>
		<path fill="none" stroke="#F0EFEF" stroke-width="1.5" stroke-miterlimit="10" d="M946.718,265.184
			c3.93-3.204,9.36-5.185,15.357-5.185c5.959,0,11.357,1.956,15.281,5.124"/>
		<path fill="none" stroke="#F0EFEF" stroke-width="1.5" stroke-miterlimit="10" d="M949.013,268.97
			c3.098-3.076,7.799-5.038,13.062-5.038c5.264,0,9.965,1.962,13.063,5.039"/>
	</g>
	<g>
		<path fill="none" stroke="#F0EFEF" stroke-width="1.5" stroke-miterlimit="10" d="M944.903,319.866
			c4.575,3.295,10.587,5.295,17.172,5.295s12.597-2,17.171-5.295"/>
		<path fill="none" stroke="#F0EFEF" stroke-width="1.5" stroke-miterlimit="10" d="M946.718,316.534
			c3.93,3.203,9.36,5.185,15.357,5.185c5.959,0,11.357-1.956,15.281-5.124"/>
		<path fill="none" stroke="#F0EFEF" stroke-width="1.5" stroke-miterlimit="10" d="M949.013,312.748
			c3.098,3.076,7.799,5.038,13.062,5.038c5.264,0,9.965-1.962,13.063-5.039"/>
	</g>
</g>
<text transform="matrix(1 0 0 1 397.3291 712.9736)" fill="#FFFFFF" font-family="'Klavika-Regular'" font-size="152.6398">37</text>
<text transform="matrix(1 0 0 1 883.4658 712.9727)" fill="#FFFFFF" font-family="'Klavika-Regular'" font-size="152.6398">28</text>
<text transform="matrix(1 0 0 1 1382.042 711.2773)" fill="#FFFFFF" font-family="'Klavika-Regular'" font-size="152.6398">32</text>
</svg>
