<?xml version="1.0" encoding="utf-8"?>
<!-- Generator: Adobe Illustrator 15.0.0, SVG Export Plug-In . SVG Version: 6.00 Build 0)  -->
<!--
<!DOCTYPE svg PUBLIC "-//W3C//DTD SVG 1.1//EN" "http://www.w3.org/Graphics/SVG/1.1/DTD/svg11.dtd" [
	<!ENTITY ns_extend "http://ns.adobe.com/Extensibility/1.0/">
	<!ENTITY ns_ai "http://ns.adobe.com/AdobeIllustrator/10.0/">
	<!ENTITY ns_graphs "http://ns.adobe.com/Graphs/1.0/">
	<!ENTITY ns_vars "http://ns.adobe.com/Variables/1.0/">
	<!ENTITY ns_imrep "http://ns.adobe.com/ImageReplacement/1.0/">
	<!ENTITY ns_sfw "http://ns.adobe.com/SaveForWeb/1.0/">
	<!ENTITY ns_custom "http://ns.adobe.com/GenericCustomNamespace/1.0/">
	<!ENTITY ns_adobe_xpath "http://ns.adobe.com/XPath/1.0/">
]> -->
<svg version="1.1" id="thePalletPage"
	 xmlns="http://www.w3.org/2000/svg" xmlns:xlink="http://www.w3.org/1999/xlink" x="0px" y="0px" width="1920px" height="1080px"
	 viewBox="0 0 1920 1080" enable-background="new 0 0 1920 1080" xml:space="preserve">

  <defs>

	<g id="link_150">
				<image overflow="visible" opacity="0.4" width="127" height="127" xlink:href="ombra_cerchio_piccolo.png"  transform="translate(174.2949 945.0195)"/>
				<g>
					<path fill="#231F20" d="M199.608,1053.41v-7.26h4.567v1.449h-2.933v1.33h2.703v1.45h-2.703v1.58h2.933v1.45H199.608z"/>
					<path fill="#231F20" d="M207.555,1053.52c-0.84,0-1.723-0.187-2.344-0.47l0.272-1.264c0.665,0.207,1.34,0.349,2.093,0.349
						c0.839,0,1.003-0.163,1.003-0.774c0-0.654-0.033-0.729-1.221-0.991c-1.756-0.381-2.018-0.73-2.018-2.3
						c0-1.45,0.513-2.027,2.508-2.027c0.632,0,1.396,0.064,2.201,0.239l-0.163,1.374c-0.828-0.143-1.362-0.207-2.017-0.207
						c-0.73,0-0.894,0.13-0.894,0.664c0,0.698,0.032,0.709,1.177,0.981c1.963,0.468,2.061,0.85,2.061,2.278

						C210.214,1052.811,209.745,1053.52,207.555,1053.52z"/>
					<path fill="#231F20" d="M217.32,1053.41h-1.701l-0.392-1.417h-2.431l-0.393,1.417h-1.7l2.212-7.26h2.181L217.32,1053.41z
						 M213.167,1050.631h1.668l-0.829-3.042L213.167,1050.631z"/>
					<path fill="#231F20" d="M221.015,1051.208h-1.242v2.202h-1.636v-7.26h2.965c1.767,0,2.42,0.698,2.42,2.06v0.949

						C223.521,1050.521,222.78,1051.208,221.015,1051.208z M221.887,1048.363c0-0.522-0.186-0.764-0.872-0.764h-1.242v2.191h1.242
						c0.72,0,0.872-0.272,0.872-0.796V1048.363z"/>
					<path fill="#231F20" d="M230.028,1053.41h-1.7l-0.393-1.417h-2.431l-0.393,1.417h-1.7l2.213-7.26h2.18L230.028,1053.41z
						 M225.876,1050.631h1.667l-0.828-3.042L225.876,1050.631z"/>
					<path fill="#231F20" d="M232.208,1051.034c0,0.632,0.207,1.002,1.014,1.002c0.523,0,1.242-0.064,1.875-0.174l0.229,1.428
						c-0.719,0.152-1.373,0.229-2.104,0.229c-1.831,0-2.648-0.905-2.648-2.224v-3.031c0-1.318,0.817-2.223,2.648-2.223
						c0.73,0,1.385,0.076,2.104,0.229l-0.229,1.428c-0.633-0.109-1.352-0.175-1.875-0.175c-0.807,0-1.014,0.371-1.014,1.003
						V1051.034z"/>
					<path fill="#231F20" d="M236.415,1046.15h1.635v7.26h-1.635V1046.15z M238.257,1049.704l1.962-3.554h1.843l-2.039,3.554
						l2.191,3.706h-1.842L238.257,1049.704z"/>
					<path fill="#231F20" d="M251.663,1046.794l-2.114,5.679h-0.992l-2.114-5.679l-0.153,6.616h-0.643l0.218-7.26h0.938l2.257,5.93
						l2.245-5.93h0.938l0.218,7.26h-0.643L251.663,1046.794z"/>
					<path fill="#231F20" d="M255.063,1053.41h-0.644v-7.26h0.644V1053.41z"/>
					<path fill="#231F20" d="M259.478,1046.15c1.766,0,2.268,0.916,2.268,2.147v2.965c0,1.231-0.502,2.147-2.268,2.147h-2.397v-7.26
						H259.478z M257.723,1052.832h1.766c1.221,0,1.613-0.501,1.613-1.536v-3.031c0-1.035-0.393-1.536-1.613-1.536h-1.766V1052.832z"

						/>
					<path fill="#231F20" d="M264.208,1053.41h-0.644v-7.26h0.644V1053.41z"/>
				</g>
	</g>

			<g id="link_138">
						<image overflow="visible" opacity="0.4" width="127" height="127" xlink:href="ombra_cerchio_piccolo.png"  transform="translate(513.7393 943.8389)"/>
				<g>
					<path fill="#231F20" d="M532.741,1052.596v-7.259h4.566v1.449h-2.932v1.33h2.703v1.449h-2.703v1.582h2.932v1.448H532.741z"/>
					<path fill="#231F20" d="M540.687,1052.705c-0.84,0-1.723-0.186-2.344-0.469l0.273-1.265c0.664,0.208,1.34,0.35,2.092,0.35
						c0.84,0,1.004-0.164,1.004-0.774c0-0.653-0.033-0.729-1.222-0.991c-1.755-0.382-2.017-0.73-2.017-2.301
						c0-1.449,0.513-2.027,2.508-2.027c0.632,0,1.395,0.066,2.201,0.24l-0.163,1.373c-0.829-0.142-1.362-0.207-2.017-0.207
						c-0.73,0-0.894,0.131-0.894,0.665c0,0.698,0.032,0.708,1.177,0.981c1.962,0.468,2.061,0.85,2.061,2.277
						C543.347,1051.997,542.878,1052.705,540.687,1052.705z"/>
					<path fill="#231F20" d="M550.452,1052.596h-1.699l-0.393-1.416h-2.432l-0.392,1.416h-1.7l2.212-7.259h2.181L550.452,1052.596z
						 M546.3,1049.817h1.668l-0.829-3.042L546.3,1049.817z"/>
					<path fill="#231F20" d="M554.147,1050.394h-1.242v2.202h-1.636v-7.259h2.966c1.766,0,2.419,0.697,2.419,2.061v0.948
						C556.654,1049.708,555.913,1050.394,554.147,1050.394z M555.019,1047.55c0-0.523-0.184-0.764-0.871-0.764h-1.242v2.191h1.242
						c0.719,0,0.871-0.271,0.871-0.796V1047.55z"/>
					<path fill="#231F20" d="M563.161,1052.596h-1.7l-0.393-1.416h-2.431l-0.393,1.416h-1.701l2.213-7.259h2.182L563.161,1052.596z
						 M559.009,1049.817h1.668l-0.829-3.042L559.009,1049.817z"/>
					<path fill="#231F20" d="M565.341,1050.22c0,0.633,0.207,1.003,1.014,1.003c0.523,0,1.242-0.065,1.875-0.175l0.229,1.429
						c-0.72,0.152-1.373,0.229-2.104,0.229c-1.832,0-2.648-0.904-2.648-2.224v-3.029c0-1.319,0.816-2.225,2.648-2.225
						c0.73,0,1.384,0.076,2.104,0.229l-0.229,1.428c-0.633-0.108-1.352-0.174-1.875-0.174c-0.807,0-1.014,0.371-1.014,1.004V1050.22
						z"/>
					<path fill="#231F20" d="M569.548,1045.337h1.635v7.259h-1.635V1045.337z M571.39,1048.891l1.963-3.554h1.842l-2.039,3.554
						l2.191,3.705h-1.842L571.39,1048.891z"/>
					<path fill="#231F20" d="M579.476,1045.337v7.194c0,0.904-0.064,0.959-1.307,2.169l-0.426-0.458
						c1.068-1.046,1.09-1.091,1.09-1.646v-7.259H579.476z"/>
					<path fill="#231F20" d="M586.344,1045.337v5.199c0,1.232-0.741,2.169-2.507,2.169s-2.508-0.937-2.508-2.169v-5.199h0.643v5.199
						c0,1.014,0.645,1.592,1.865,1.592s1.863-0.578,1.863-1.592v-5.199H586.344z"/>
					<path fill="#231F20" d="M588.86,1045.97v6.626h-0.609v-7.259h0.938l3.443,6.639v-6.639h0.611v7.259h-0.938L588.86,1045.97z"/>
					<path fill="#231F20" d="M595.901,1052.596h-0.644v-7.259h0.644V1052.596z"/>
					<path fill="#231F20" d="M600.294,1052.705c-1.863,0-2.54-0.915-2.54-2.158v-3.161c0-1.242,0.677-2.158,2.54-2.158
						s2.539,0.916,2.539,2.158v3.161C602.833,1051.79,602.157,1052.705,600.294,1052.705z M602.19,1050.525v-3.118
						c0-1.035-0.502-1.602-1.896-1.602c-1.396,0-1.896,0.566-1.896,1.602v3.118c0,1.036,0.501,1.603,1.896,1.603
						C601.688,1052.128,602.19,1051.562,602.19,1050.525z"/>
					<path fill="#231F20" d="M607.346,1049.806h-0.142h-1.93v2.79h-0.643v-7.259h2.572c1.461,0,1.994,0.665,1.994,1.679v1.111
						c0,0.796-0.326,1.385-1.177,1.592l1.94,2.877h-0.73L607.346,1049.806z M607.215,1045.915h-1.94v3.313h1.94
						c0.915,0,1.341-0.305,1.341-1.101v-1.111C608.556,1046.22,608.13,1045.915,607.215,1045.915z"/>
				</g>
 
			</g>

			<g id="link_162">
						<image overflow="visible" opacity="0.4" width="127" height="127" xlink:href="ombra_cerchio_piccolo.png"  transform="translate(344.0176 944.7451)"/>
				<g>
					<path fill="#231F20" d="M366.965,1053.685v-7.331h4.612v1.464h-2.961v1.343h2.729v1.464h-2.729v1.597h2.961v1.464H366.965z"/>
					<path fill="#231F20" d="M374.988,1053.795c-0.848,0-1.739-0.188-2.366-0.474l0.275-1.277c0.671,0.21,1.354,0.353,2.113,0.353
						c0.848,0,1.013-0.165,1.013-0.781c0-0.661-0.033-0.737-1.232-1.002c-1.772-0.386-2.037-0.737-2.037-2.322
						c0-1.464,0.518-2.048,2.532-2.048c0.639,0,1.409,0.066,2.223,0.242l-0.164,1.387c-0.837-0.143-1.376-0.208-2.037-0.208
						c-0.737,0-0.902,0.131-0.902,0.672c0,0.703,0.033,0.714,1.188,0.989c1.981,0.474,2.081,0.858,2.081,2.301
						C377.675,1053.079,377.201,1053.795,374.988,1053.795z"/>
					<path fill="#231F20" d="M384.851,1053.685h-1.717l-0.396-1.431h-2.454l-0.396,1.431h-1.717l2.233-7.331h2.202L384.851,1053.685
						z M380.657,1050.878h1.685l-0.837-3.072L380.657,1050.878z"/>
					<path fill="#231F20" d="M388.582,1051.461h-1.255v2.224h-1.651v-7.331h2.994c1.783,0,2.444,0.704,2.444,2.081v0.957
						C391.114,1050.767,390.365,1051.461,388.582,1051.461z M389.462,1048.588c0-0.528-0.187-0.771-0.88-0.771h-1.255v2.213h1.255
						c0.727,0,0.88-0.275,0.88-0.804V1048.588z"/>
					<path fill="#231F20" d="M397.685,1053.685h-1.717l-0.396-1.431h-2.455l-0.396,1.431h-1.717l2.234-7.331h2.202L397.685,1053.685
						z M393.491,1050.878h1.684l-0.837-3.072L393.491,1050.878z"/>
					<path fill="#231F20" d="M399.886,1051.285c0,0.639,0.209,1.013,1.023,1.013c0.528,0,1.255-0.066,1.894-0.177l0.231,1.442
						c-0.727,0.154-1.388,0.231-2.125,0.231c-1.85,0-2.675-0.914-2.675-2.246v-3.06c0-1.332,0.825-2.246,2.675-2.246
						c0.737,0,1.398,0.077,2.125,0.231l-0.231,1.442c-0.639-0.111-1.365-0.177-1.894-0.177c-0.814,0-1.023,0.374-1.023,1.013
						V1051.285z"/>
					<path fill="#231F20" d="M404.135,1046.354h1.65v7.331h-1.65V1046.354z M405.994,1049.942l1.982-3.589h1.859l-2.059,3.589
						l2.213,3.742h-1.86L405.994,1049.942z"/>
					<path fill="#231F20" d="M419.533,1047.003l-2.136,5.735h-1.002l-2.136-5.735l-0.154,6.682h-0.649l0.221-7.331h0.946
						l2.279,5.987l2.268-5.987h0.945l0.221,7.331h-0.648L419.533,1047.003z"/>
					<path fill="#231F20" d="M426.412,1051.758h-3.413l-0.683,1.927h-0.639l2.555-7.331h0.957l2.554,7.331h-0.638L426.412,1051.758z
						 M423.197,1051.196h3.016l-1.508-4.469L423.197,1051.196z"/>
					<path fill="#231F20" d="M431.056,1049.964l-2.378-3.61h0.705l2.025,3.093l2.025-3.093h0.705l-2.379,3.61l2.455,3.721h-0.705
						l-2.102-3.203l-2.103,3.203h-0.704L431.056,1049.964z"/>
					<path fill="#231F20" d="M436.295,1053.685h-0.649v-7.331h0.649V1053.685z"/>
				</g>
			</g>


        <!-- Titoli -->

		<g id="titolo_138">
			<path fill="#231F20" d="M198.345,126.051H179.91v17.163h20.625v5.156h-26.84v-47.604h25.779v5.156H179.91v15.044h18.435V126.051z
				"/>
			<path fill="#231F20" d="M207.74,140.884c2.753,1.766,6.71,3.108,10.948,3.108c6.285,0,9.958-3.32,9.958-8.124
				c0-4.378-2.543-6.991-8.971-9.393c-7.769-2.825-12.571-6.922-12.571-13.561c0-7.417,6.144-12.925,15.397-12.925
				c4.803,0,8.404,1.129,10.452,2.33l-1.694,5.014c-1.483-0.918-4.662-2.259-8.971-2.259c-6.497,0-8.97,3.884-8.97,7.133
				c0,4.449,2.896,6.64,9.465,9.183c8.051,3.106,12.077,6.991,12.077,13.983c0,7.347-5.368,13.772-16.598,13.772
				c-4.591,0-9.606-1.412-12.148-3.106L207.74,140.884z"/>
			<path fill="#231F20" d="M251.038,133.397l-4.944,14.973h-6.356l16.244-47.604h7.346l16.245,47.604h-6.568l-5.087-14.973H251.038z
				 M266.718,128.595l-4.733-13.703c-1.059-3.108-1.765-5.933-2.471-8.687h-0.142c-0.707,2.754-1.414,5.721-2.401,8.615
				l-4.661,13.774H266.718z"/>
			<path fill="#231F20" d="M286.565,101.331c2.968-0.494,6.853-0.919,11.796-0.919c6.074,0,10.523,1.413,13.35,3.956
				c2.543,2.261,4.166,5.721,4.166,9.959c0,4.309-1.271,7.698-3.673,10.17c-3.319,3.462-8.545,5.228-14.548,5.228
				c-1.837,0-3.533-0.071-4.943-0.425v19.07h-6.147V101.331z M292.713,124.285c1.341,0.354,3.035,0.494,5.083,0.494
				c7.417,0,11.938-3.673,11.938-10.1c0-6.356-4.521-9.394-11.23-9.394c-2.684,0-4.731,0.212-5.79,0.494V124.285z"/>
			<path fill="#231F20" d="M325.908,133.397l-4.943,14.973h-6.356l16.245-47.604h7.346l16.244,47.604h-6.568l-5.085-14.973H325.908z
				 M341.588,128.595l-4.73-13.703c-1.06-3.108-1.767-5.933-2.474-8.687h-0.14c-0.706,2.754-1.413,5.721-2.401,8.615l-4.663,13.774
				H341.588z"/>
			<path fill="#231F20" d="M393.575,146.887c-2.19,1.13-6.781,2.26-12.573,2.26c-13.419,0-23.449-8.475-23.449-24.154
				c0-14.975,10.1-25.002,24.861-25.002c5.862,0,9.678,1.27,11.301,2.118l-1.554,5.015c-2.26-1.13-5.579-1.979-9.534-1.979
				c-11.159,0-18.575,7.135-18.575,19.635c0,11.725,6.709,19.142,18.222,19.142c3.813,0,7.628-0.778,10.1-1.979L393.575,146.887z"/>
			<path fill="#231F20" d="M401.345,100.766h6.146v22.955h0.212c1.271-1.836,2.543-3.531,3.742-5.085l14.55-17.87h7.629
				l-17.234,20.2l18.577,27.404h-7.275l-15.608-23.378l-4.592,5.226v18.152h-6.146V100.766z"/>
			<path fill="#231F20" d="M463.218,100.766h10.736v30.088c0,13.562-6.498,18.293-16.881,18.293c-2.542,0-5.791-0.423-7.911-1.13
				l1.202-8.687c1.482,0.493,3.389,0.847,5.509,0.847c4.52,0,7.345-2.048,7.345-9.394V100.766z"/>
			<path fill="#231F20" d="M493.66,100.766V128.1c0,8.264,3.18,12.431,8.618,12.431c5.649,0,8.758-3.956,8.758-12.431v-27.334
				h10.735v26.697c0,14.692-7.417,21.684-19.847,21.684c-12.007,0-18.999-6.709-18.999-21.824v-26.557H493.66z"/>
			<path fill="#231F20" d="M531.098,148.37v-47.604h12.571l9.889,17.445c2.824,5.015,5.579,10.948,7.77,16.316h0.141
				c-0.636-6.286-0.848-12.714-0.848-19.918v-13.844h9.888v47.604h-11.3l-10.172-18.363c-2.824-5.085-6.002-11.23-8.263-16.81
				h-0.282c0.354,6.356,0.494,13.065,0.494,20.836v14.337H531.098z"/>
			<path fill="#231F20" d="M590.639,100.766v47.604h-10.735v-47.604H590.639z"/>
			<path fill="#231F20" d="M643.54,124.074c0,15.68-9.394,25.072-23.377,25.072c-14.057,0-22.391-10.664-22.391-24.296
				c0-14.268,9.183-24.932,23.168-24.932C635.56,99.919,643.54,110.865,643.54,124.074z M609.146,124.639
				c0,9.395,4.378,15.963,11.582,15.963c7.275,0,11.442-6.922,11.442-16.176c0-8.615-4.025-15.962-11.442-15.962
				C613.383,108.464,609.146,115.386,609.146,124.639z"/>
			<path fill="#231F20" d="M650.606,101.402c3.46-0.565,8.547-0.99,14.337-0.99c7.064,0,12.007,1.061,15.399,3.744
				c2.895,2.26,4.449,5.65,4.449,10.029c0,6.004-4.309,10.171-8.406,11.654v0.211c3.319,1.343,5.156,4.449,6.358,8.829
				c1.482,5.438,2.895,11.653,3.812,13.49H675.54c-0.707-1.412-1.909-5.228-3.25-11.089c-1.342-6.003-3.39-7.557-7.84-7.628h-3.18
				v18.717h-10.664V101.402z M661.271,121.885h4.238c5.369,0,8.547-2.685,8.547-6.852c0-4.309-2.967-6.569-7.91-6.569
				c-2.614,0-4.097,0.142-4.875,0.354V121.885z"/>
		</g>

		<g id="titolo_162">
			<path fill="#231F20" d="M199.603,127.311h-19.375v18.039h21.676v5.419h-28.209v-50.034h27.095v5.42h-20.563v15.812h19.375
				V127.311z"/>
			<path fill="#231F20" d="M209.478,142.9c2.895,1.855,7.052,3.266,11.506,3.266c6.606,0,10.467-3.488,10.467-8.537
				c0-4.603-2.671-7.349-9.428-9.873c-8.166-2.969-13.213-7.274-13.213-14.252c0-7.796,6.458-13.585,16.183-13.585
				c5.047,0,8.835,1.188,10.987,2.449l-1.783,5.271c-1.559-0.965-4.9-2.375-9.427-2.375c-6.83,0-9.428,4.082-9.428,7.497
				c0,4.677,3.043,6.978,9.948,9.651c8.461,3.265,12.693,7.348,12.693,14.697c0,7.721-5.642,14.475-17.444,14.475
				c-4.826,0-10.096-1.484-12.769-3.265L209.478,142.9z"/>
			<path fill="#231F20" d="M254.984,135.031l-5.196,15.737h-6.683l17.074-50.034h7.721l17.073,50.034h-6.902l-5.346-15.737H254.984z
				 M271.464,129.983l-4.973-14.401c-1.114-3.268-1.857-6.236-2.599-9.131h-0.148c-0.743,2.895-1.485,6.013-2.523,9.056l-4.9,14.477
				H271.464z"/>
			<path fill="#231F20" d="M292.327,101.328c3.118-0.519,7.2-0.965,12.397-0.965c6.384,0,11.061,1.484,14.029,4.157
				c2.673,2.376,4.381,6.013,4.381,10.468c0,4.528-1.336,8.09-3.86,10.688c-3.489,3.639-8.981,5.494-15.292,5.494
				c-1.93,0-3.711-0.075-5.195-0.446v20.044h-6.459V101.328z M298.786,125.455c1.411,0.371,3.192,0.519,5.345,0.519
				c7.794,0,12.546-3.86,12.546-10.614c0-6.682-4.752-9.873-11.804-9.873c-2.822,0-4.975,0.222-6.087,0.519V125.455z"/>
			<path fill="#231F20" d="M333.677,135.031l-5.197,15.737h-6.68l17.074-50.034h7.721l17.074,50.034h-6.905l-5.345-15.737H333.677z
				 M350.157,129.983l-4.973-14.401c-1.113-3.268-1.855-6.236-2.598-9.131h-0.149c-0.741,2.895-1.484,6.013-2.524,9.056
				l-4.898,14.477H350.157z"/>
			<path fill="#231F20" d="M404.795,149.209c-2.3,1.188-7.125,2.375-13.214,2.375c-14.103,0-24.646-8.906-24.646-25.387
				c0-15.738,10.616-26.278,26.131-26.278c6.162,0,10.17,1.335,11.877,2.228l-1.632,5.27c-2.376-1.188-5.865-2.079-10.022-2.079
				c-11.728,0-19.523,7.498-19.523,20.637c0,12.323,7.052,20.118,19.151,20.118c4.01,0,8.018-0.817,10.616-2.079L404.795,149.209z"
				/>
			<path fill="#231F20" d="M412.962,100.734h6.46v24.127h0.222c1.336-1.931,2.671-3.711,3.934-5.345l15.292-18.782h8.016
				l-18.112,21.231l19.523,28.803h-7.646l-16.405-24.571l-4.824,5.492v19.079h-6.46V100.734z"/>
			<path fill="#231F20" d="M510.508,131.615c-0.222-6.013-0.444-13.287-0.444-20.563h-0.149c-1.633,6.385-3.711,13.512-5.641,19.375
				l-6.088,19.524h-8.833l-5.346-19.3c-1.632-5.94-3.265-13.066-4.527-19.6h-0.149c-0.222,6.756-0.519,14.477-0.816,20.712
				l-0.965,19.004h-10.467l3.192-50.034h15.069l4.9,16.703c1.633,5.79,3.118,12.025,4.23,17.891h0.298
				c1.336-5.791,3.043-12.397,4.749-17.966l5.272-16.628h14.846l2.673,50.034h-10.988L510.508,131.615z"/>
			<path fill="#231F20" d="M542.433,137.927l-3.563,12.842h-11.654l15.217-50.034h14.848l15.588,50.034H560.62l-3.86-12.842H542.433
				z M555.126,129.463l-3.118-10.615c-0.891-2.969-1.782-6.681-2.524-9.65h-0.147c-0.743,2.97-1.486,6.756-2.302,9.65l-2.97,10.615
				H555.126z"/>
			<path fill="#231F20" d="M604.05,150.769l-4.529-9.056c-1.856-3.489-3.043-6.088-4.454-8.983h-0.148
				c-1.04,2.896-2.302,5.494-3.935,8.983l-4.083,9.056h-12.917l14.475-25.313l-13.956-24.721h12.991l4.379,9.131
				c1.486,3.045,2.599,5.494,3.788,8.314h0.147c1.188-3.191,2.152-5.419,3.415-8.314l4.232-9.131h12.916l-14.104,24.424
				l14.845,25.61H604.05z"/>
			<path fill="#231F20" d="M634.562,100.734v50.034h-11.283v-50.034H634.562z"/>
		</g>

    <image id="pacco_138" overflow="visible" width="207" height="113" xlink:href="pacco138.png"/>
    <image id="pacco_162" overflow="visible" width="207" height="114" xlink:href="pacco162.png"/>

    <!-- Numeri -->

	<g id="numero_42">
		<path fill="#000000" d="M152.089,326.161v25.236h-13.032v-25.236h-47.785v-13.173l43.285-64.122h17.531v65.867h14.429v11.428
			H152.089z M139.057,314.714v-52.376l-34.908,52.376H139.057z"/>
		<path display="inline" fill="#000000" d="M183.42,339.18c11.84-13.44,14.88-16.96,27.521-31.841
			c16.32-19.36,17.44-23.521,17.44-31.041v-4.64c0-10.08-2.72-13.12-18.881-13.12c-7.52,0-17.6,1.76-23.68,3.52l-1.92-11.521
			c6.88-2.08,17.44-4,26.721-4c24.641,0,31.201,8.64,31.201,24.96c0,0.64,0,2.88,0,3.52c0,12.641-2.24,18.081-18.24,37.121
			c-11.521,13.76-13.12,15.84-23.521,27.521h42.721v11.84H183.42V339.18z"/>
	</g>
	<g id="numero_41">
		<path fill="#000000" d="M152.089,326.161v25.236h-13.032v-25.236h-47.785v-13.173l43.285-64.122h17.531v65.867h14.429v11.428
			H152.089z M139.057,314.714v-52.376l-34.908,52.376H139.057z"/>
		<path display="inline" fill="#000000" d="M181.66,275.018l-5.92-10.72l28-16.16h12V351.5h-13.44v-88.002L181.66,275.018z"/>
	</g>
	<g id="numero_40">
		<path fill="#000000" d="M152.089,326.161v25.236h-13.032v-25.236h-47.785v-13.173l43.285-64.122h17.531v65.867h14.429v11.428
			H152.089z M139.057,314.714v-52.376l-34.908,52.376H139.057z"/>
		<path display="inline" fill="#000000" d="M252.541,325.42c0,16-8.16,27.681-32.96,27.681c-24.801,0-32.961-11.68-32.961-27.681
			v-51.201c0-16,8.16-27.681,32.961-27.681c24.8,0,32.96,11.68,32.96,27.681V325.42z M219.581,258.378
			c-14.721,0-19.521,5.6-19.521,17.28v48.321c0,11.68,4.8,17.28,19.521,17.28c14.72,0,19.521-5.6,19.521-17.28v-48.321

			C239.101,263.978,234.301,258.378,219.581,258.378z"/>
	</g>
	<g id="numero_39">
		<path display="inline" fill="#000000" d="M106.94,338.7c7.68,1.76,15.52,2.56,23.36,2.56c15.041,0,20.48-3.52,20.48-13.76v-8
			c0-10.4-5.76-13.92-16.16-13.92H112.7v-11.84h20.161c12.48,0,16-4.8,16-13.28v-9.28c0-9.6-4.48-12.8-17.281-12.8
			c-7.2,0-15.2,0.96-22.56,2.4l-1.44-11.36c6.72-1.6,16-2.88,24.321-2.88c22.561,0,30.4,7.84,30.4,22.721v9.44
			c0,9.76-2.24,15.84-12.16,20.641c8.8,2.56,14.081,7.52,14.081,19.041v10.4c0,16.641-9.92,24.321-33.921,24.321
			c-7.68,0-18.081-0.96-24.801-3.2L106.94,338.7z"/>
		<path display="inline" fill="#000000" d="M232.7,303.659c-5.28,1.92-14.24,3.68-21.281,3.68c-20.32,0-27.36-8.48-27.36-25.44
			v-5.12c0-18.721,5.6-30.241,30.721-30.241c23.041,0,31.201,10.08,31.201,25.121v45.281c0,26.561-11.84,36.161-41.921,36.161

			c-4.96,0-12.48-0.64-17.601-1.92l1.28-11.201c3.84,0.8,10.4,1.44,14.24,1.44c24.8,0,30.721-5.28,30.721-24.641V303.659z
			 M232.7,291.339v-18.241c0-11.36-5.76-14.72-17.92-14.72c-13.76,0-17.44,4.16-17.44,14.72v8.8c0,9.76,3.68,13.76,15.36,13.76
		C219.74,295.659,227.42,293.579,232.7,291.339z"/>
	</g>
	<g id="numero_38" display="inline" enable-background="new    ">
		<path display="inline" fill="#000000" d="M106.94,338.7c7.68,1.76,15.52,2.56,23.36,2.56c15.041,0,20.48-3.52,20.48-13.76v-8
			c0-10.4-5.76-13.92-16.16-13.92H112.7v-11.84h20.161c12.48,0,16-4.8,16-13.28v-9.28c0-9.6-4.48-12.8-17.281-12.8
			c-7.2,0-15.2,0.96-22.56,2.4l-1.44-11.36c6.72-1.6,16-2.88,24.321-2.88c22.561,0,30.4,7.84,30.4,22.721v9.44
			c0,9.76-2.24,15.84-12.16,20.641c8.8,2.56,14.081,7.52,14.081,19.041v10.4c0,16.641-9.92,24.321-33.921,24.321
			c-7.68,0-18.081-0.96-24.801-3.2L106.94,338.7z"/>
		<path fill="#000000" d="M226.163,299.001c14.118,6.666,18.772,13.333,18.772,24.125v4.603c0,17.776-9.309,25.236-32.115,25.236
			c-22.961,0-32.115-7.46-32.115-25.236v-4.603c0-10.792,4.5-17.459,18.307-24.125c-12.412-6.189-15.669-12.697-15.669-22.696
			v-4.126c0-14.443,6.981-24.919,29.478-24.919c22.341,0,29.478,10.476,29.478,24.919v4.126
			C242.298,286.304,238.885,292.812,226.163,299.001z M212.82,305.033c-15.669,6.507-19.393,9.523-19.393,18.57v3.651
			c0,10.792,4.964,14.284,19.393,14.284c14.273,0,19.393-3.492,19.393-14.284v-3.651
			C232.213,314.556,228.335,311.54,212.82,305.033z M212.82,293.605c13.342-5.555,16.755-8.888,16.755-16.982v-5.079
			c0-8.254-3.878-13.015-16.755-13.015c-13.032,0-16.756,4.761-16.756,13.015v5.079C196.064,284.717,199.478,288.05,212.82,293.605
			z"/>
	</g>
	<g id="numero_37" display="inline" enable-background="new    ">
		<path display="inline" fill="#000000" d="M106.94,338.7c7.68,1.76,15.52,2.56,23.36,2.56c15.041,0,20.48-3.52,20.48-13.76v-8
			c0-10.4-5.76-13.92-16.16-13.92H112.7v-11.84h20.161c12.48,0,16-4.8,16-13.28v-9.28c0-9.6-4.48-12.8-17.281-12.8
			c-7.2,0-15.2,0.96-22.56,2.4l-1.44-11.36c6.72-1.6,16-2.88,24.321-2.88c22.561,0,30.4,7.84,30.4,22.721v9.44
			c0,9.76-2.24,15.84-12.16,20.641c8.8,2.56,14.081,7.52,14.081,19.041v10.4c0,16.641-9.92,24.321-33.921,24.321
			c-7.68,0-18.081-0.96-24.801-3.2L106.94,338.7z"/>
		<path fill="#000000" d="M179.463,248.847h61.593v11.269l-41.269,91.262H186.6l41.113-90.786h-48.25V248.847z"/>
	</g>
	<g id="numero_36" display="inline" enable-background="new    ">
		<path display="inline" fill="#000000" d="M106.94,338.7c7.68,1.76,15.52,2.56,23.36,2.56c15.041,0,20.48-3.52,20.48-13.76v-8
			c0-10.4-5.76-13.92-16.16-13.92H112.7v-11.84h20.161c12.48,0,16-4.8,16-13.28v-9.28c0-9.6-4.48-12.8-17.281-12.8
			c-7.2,0-15.2,0.96-22.56,2.4l-1.44-11.36c6.72-1.6,16-2.88,24.321-2.88c22.561,0,30.4,7.84,30.4,22.721v9.44
			c0,9.76-2.24,15.84-12.16,20.641c8.8,2.56,14.081,7.52,14.081,19.041v10.4c0,16.641-9.92,24.321-33.921,24.321
			c-7.68,0-18.081-0.96-24.801-3.2L106.94,338.7z"/>
		<path fill="#000000" d="M196.064,296.303c5.12-1.904,13.808-3.65,20.634-3.65c19.704,0,26.53,8.412,26.53,25.236v5.079
			c0,18.57-4.964,29.998-29.788,29.998c-22.341,0-30.253-9.523-30.253-24.443V283.13c0-26.347,11.481-35.87,40.648-35.87
			c4.81,0,12.102,0.635,17.066,1.905l-1.396,11.11c-3.724-0.794-9.93-1.429-13.653-1.429c-24.047,0-29.788,5.238-29.788,24.442
			V296.303z M196.064,308.524v18.094c0,11.269,5.585,14.602,17.376,14.602c13.342,0,16.911-4.126,16.911-14.602v-8.729
			c0-9.682-3.568-13.65-14.894-13.65C208.631,304.239,201.185,306.303,196.064,308.524z"/>
	</g>
	<g id="numero_35" display="inline" enable-background="new    ">
		<path display="inline" fill="#000000" d="M106.94,338.7c7.68,1.76,15.52,2.56,23.36,2.56c15.041,0,20.48-3.52,20.48-13.76v-8
			c0-10.4-5.76-13.92-16.16-13.92H112.7v-11.84h20.161c12.48,0,16-4.8,16-13.28v-9.28c0-9.6-4.48-12.8-17.281-12.8
			c-7.2,0-15.2,0.96-22.56,2.4l-1.44-11.36c6.72-1.6,16-2.88,24.321-2.88c22.561,0,30.4,7.84,30.4,22.721v9.44
			c0,9.76-2.24,15.84-12.16,20.641c8.8,2.56,14.081,7.52,14.081,19.041v10.4c0,16.641-9.92,24.321-33.921,24.321
			c-7.68,0-18.081-0.96-24.801-3.2L106.94,338.7z"/>
		<path fill="#000000" d="M187.221,248.847h52.75v11.745h-39.717v32.537c6.516,0.159,9.619,0.159,16.601,0.476
			c18.462,0.794,24.358,9.999,24.358,23.808v9.206c0,16.824-7.137,26.347-31.805,26.347c-7.757,0-18.152-0.952-26.064-3.651
			l1.396-10.792c7.757,1.905,17.066,2.698,24.513,2.698c15.515,0,18.928-4.126,18.928-15.396v-6.984
			c0-9.523-3.103-13.491-15.98-13.808c-10.395-0.317-17.221-0.317-24.979-0.476V248.847z"/>
	</g>
	<g id="numero_34" display="inline" enable-background="new    ">
		<path display="inline" fill="#000000" d="M106.94,338.7c7.68,1.76,15.52,2.56,23.36,2.56c15.041,0,20.48-3.52,20.48-13.76v-8
			c0-10.4-5.76-13.92-16.16-13.92H112.7v-11.84h20.161c12.48,0,16-4.8,16-13.28v-9.28c0-9.6-4.48-12.8-17.281-12.8
			c-7.2,0-15.2,0.96-22.56,2.4l-1.44-11.36c6.72-1.6,16-2.88,24.321-2.88c22.561,0,30.4,7.84,30.4,22.721v9.44
			c0,9.76-2.24,15.84-12.16,20.641c8.8,2.56,14.081,7.52,14.081,19.041v10.4c0,16.641-9.92,24.321-33.921,24.321
			c-7.68,0-18.081-0.96-24.801-3.2L106.94,338.7z"/>
		<path fill="#000000" d="M230.12,326.142v25.236h-13.032v-25.236h-47.785v-13.173l43.285-64.122h17.531v65.867h14.429v11.428
			H230.12z M217.088,314.714v-52.376l-34.908,52.376H217.088z"/>
	</g>
	<g id="numero_33" display="inline" enable-background="new    ">
		<path display="inline" fill="#000000" d="M106.94,338.7c7.68,1.76,15.52,2.56,23.36,2.56c15.041,0,20.48-3.52,20.48-13.76v-8
			c0-10.4-5.76-13.92-16.16-13.92H112.7v-11.84h20.161c12.48,0,16-4.8,16-13.28v-9.28c0-9.6-4.48-12.8-17.281-12.8
			c-7.2,0-15.2,0.96-22.56,2.4l-1.44-11.36c6.72-1.6,16-2.88,24.321-2.88c22.561,0,30.4,7.84,30.4,22.721v9.44
			c0,9.76-2.24,15.84-12.16,20.641c8.8,2.56,14.081,7.52,14.081,19.041v10.4c0,16.641-9.92,24.321-33.921,24.321
			c-7.68,0-18.081-0.96-24.801-3.2L106.94,338.7z"/>
		<path fill="#000000" d="M184.971,338.681c7.447,1.746,15.05,2.54,22.651,2.54c14.583,0,19.858-3.492,19.858-13.649v-7.936
			c0-10.317-5.585-13.808-15.669-13.808h-21.255v-11.746h19.548c12.101,0,15.514-4.761,15.514-13.173v-9.205
			c0-9.523-4.344-12.698-16.755-12.698c-6.981,0-14.738,0.953-21.875,2.381l-1.397-11.269c6.516-1.587,15.515-2.857,23.582-2.857
			c21.876,0,29.478,7.777,29.478,22.538v9.364c0,9.682-2.172,15.713-11.791,20.474c8.533,2.54,13.653,7.46,13.653,18.887v10.317
			c0,16.506-9.619,24.125-32.891,24.125c-7.447,0-17.531-0.952-24.047-3.175L184.971,338.681z"/>
	</g>
	<g id="numero_32">
		<path display="inline" fill="#000000" d="M106.94,338.7c7.68,1.76,15.52,2.56,23.36,2.56c15.041,0,20.48-3.52,20.48-13.76v-8
			c0-10.4-5.76-13.92-16.16-13.92H112.7v-11.84h20.161c12.48,0,16-4.8,16-13.28v-9.28c0-9.6-4.48-12.8-17.281-12.8
			c-7.2,0-15.2,0.96-22.56,2.4l-1.44-11.36c6.72-1.6,16-2.88,24.321-2.88c22.561,0,30.4,7.84,30.4,22.721v9.44
			c0,9.76-2.24,15.84-12.16,20.641c8.8,2.56,14.081,7.52,14.081,19.041v10.4c0,16.641-9.92,24.321-33.921,24.321
			c-7.68,0-18.081-0.96-24.801-3.2L106.94,338.7z"/>
		<path display="inline" fill="#000000" d="M183.42,339.18c11.84-13.44,14.88-16.96,27.521-31.841
			c16.32-19.36,17.44-23.521,17.44-31.041v-4.64c0-10.08-2.72-13.12-18.881-13.12c-7.52,0-17.6,1.76-23.68,3.52l-1.92-11.521
			c6.88-2.08,17.44-4,26.721-4c24.641,0,31.201,8.64,31.201,24.96c0,0.64,0,2.88,0,3.52c0,12.641-2.24,18.081-18.24,37.121
			c-11.521,13.76-13.12,15.84-23.521,27.521h42.721v11.84H183.42V339.18z"/>
	</g>
	<g id="numero_31">
		<path display="inline" fill="#000000" d="M106.94,338.7c7.68,1.76,15.52,2.56,23.36,2.56c15.041,0,20.48-3.52,20.48-13.76v-8
			c0-10.4-5.76-13.92-16.16-13.92H112.7v-11.84h20.161c12.48,0,16-4.8,16-13.28v-9.28c0-9.6-4.48-12.8-17.281-12.8
			c-7.2,0-15.2,0.96-22.56,2.4l-1.44-11.36c6.72-1.6,16-2.88,24.321-2.88c22.561,0,30.4,7.84,30.4,22.721v9.44
			c0,9.76-2.24,15.84-12.16,20.641c8.8,2.56,14.081,7.52,14.081,19.041v10.4c0,16.641-9.92,24.321-33.921,24.321
			c-7.68,0-18.081-0.96-24.801-3.2L106.94,338.7z"/>
		<path display="inline" fill="#000000" d="M181.66,275.018l-5.92-10.72l28-16.16h12V351.5h-13.44v-88.002L181.66,275.018z"/>
	</g>
	<g id="numero_30">
		<path display="inline" fill="#000000" d="M106.94,338.7c7.68,1.76,15.52,2.56,23.36,2.56c15.041,0,20.48-3.52,20.48-13.76v-8
			c0-10.4-5.76-13.92-16.16-13.92H112.7v-11.84h20.161c12.48,0,16-4.8,16-13.28v-9.28c0-9.6-4.48-12.8-17.281-12.8
			c-7.2,0-15.2,0.96-22.56,2.4l-1.44-11.36c6.72-1.6,16-2.88,24.321-2.88c22.561,0,30.4,7.84,30.4,22.721v9.44
			c0,9.76-2.24,15.84-12.16,20.641c8.8,2.56,14.081,7.52,14.081,19.041v10.4c0,16.641-9.92,24.321-33.921,24.321
			c-7.68,0-18.081-0.96-24.801-3.2L106.94,338.7z"/>
		<path display="inline" fill="#000000" d="M252.541,325.42c0,16-8.16,27.681-32.96,27.681c-24.801,0-32.961-11.68-32.961-27.681
			v-51.201c0-16,8.16-27.681,32.961-27.681c24.8,0,32.96,11.68,32.96,27.681V325.42z M219.581,258.378
			c-14.721,0-19.521,5.6-19.521,17.28v48.321c0,11.68,4.8,17.28,19.521,17.28c14.72,0,19.521-5.6,19.521-17.28v-48.321
			C239.101,263.978,234.301,258.378,219.581,258.378z"/>
	</g>
	<g id="numero_29">
		<path display="inline" fill="#000000" d="M105.5,339.18c11.84-13.44,14.88-16.96,27.521-31.841
			c16.32-19.36,17.44-23.521,17.44-31.041v-4.64c0-10.08-2.72-13.12-18.881-13.12c-7.52,0-17.6,1.76-23.68,3.52l-1.92-11.521
			c6.88-2.08,17.44-4,26.721-4c24.641,0,31.201,8.64,31.201,24.96c0,0.64,0,2.88,0,3.52c0,12.641-2.24,18.081-18.24,37.121
			c-11.521,13.76-13.12,15.84-23.521,27.521h42.721v11.84H105.5V339.18z"/>
		<path display="inline" fill="#000000" d="M232.7,303.659c-5.28,1.92-14.24,3.68-21.281,3.68c-20.32,0-27.36-8.48-27.36-25.44
			v-5.12c0-18.721,5.6-30.241,30.721-30.241c23.041,0,31.201,10.08,31.201,25.121v45.281c0,26.561-11.84,36.161-41.921,36.161
			c-4.96,0-12.48-0.64-17.601-1.92l1.28-11.201c3.84,0.8,10.4,1.44,14.24,1.44c24.8,0,30.721-5.28,30.721-24.641V303.659z
			 M232.7,291.339v-18.241c0-11.36-5.76-14.72-17.92-14.72c-13.76,0-17.44,4.16-17.44,14.72v8.8c0,9.76,3.68,13.76,15.36,13.76
		C219.74,295.659,227.42,293.579,232.7,291.339z"/>
	</g>
	<g id="numero_28" display="inline" enable-background="new    ">
		<path fill="#000000" d="M102.979,339.157c11.48-13.332,14.428-16.824,26.685-31.584c15.825-19.205,16.911-23.332,16.911-30.791
			v-4.603c0-9.999-2.637-13.015-18.307-13.015c-7.292,0-17.066,1.746-22.961,3.492l-1.862-11.427
			c6.671-2.063,16.911-3.968,25.909-3.968c23.892,0,30.253,8.571,30.253,24.76c0,0.635,0,2.856,0,3.492
			c0,12.538-2.172,17.935-17.687,36.822c-11.17,13.649-12.722,15.713-22.806,27.299h41.424v11.745h-57.559V339.157z"/>
		<path fill="#000000" d="M226.163,299.001c14.118,6.666,18.772,13.333,18.772,24.125v4.603c0,17.776-9.309,25.236-32.115,25.236
			c-22.961,0-32.115-7.46-32.115-25.236v-4.603c0-10.792,4.5-17.459,18.307-24.125c-12.412-6.189-15.669-12.697-15.669-22.696
			v-4.126c0-14.443,6.981-24.919,29.478-24.919c22.341,0,29.478,10.476,29.478,24.919v4.126
			C242.298,286.304,238.885,292.812,226.163,299.001z M212.82,305.033c-15.669,6.507-19.393,9.523-19.393,18.57v3.651
			c0,10.792,4.964,14.284,19.393,14.284c14.273,0,19.393-3.492,19.393-14.284v-3.651
			C232.213,314.556,228.335,311.54,212.82,305.033z M212.82,293.605c13.342-5.555,16.755-8.888,16.755-16.982v-5.079
			c0-8.254-3.878-13.015-16.755-13.015c-13.032,0-16.756,4.761-16.756,13.015v5.079C196.064,284.717,199.478,288.05,212.82,293.605
			z"/>
	</g>
	<g id="numero_27" display="inline" enable-background="new    ">
		<path fill="#000000" d="M106.858,339.157c11.481-13.332,14.428-16.824,26.685-31.584c15.825-19.205,16.911-23.332,16.911-30.791
			v-4.603c0-9.999-2.637-13.015-18.307-13.015c-7.292,0-17.066,1.746-22.961,3.492l-1.862-11.427
			c6.671-2.063,16.911-3.968,25.91-3.968c23.892,0,30.252,8.571,30.252,24.76c0,0.635,0,2.856,0,3.492
			c0,12.538-2.172,17.935-17.686,36.822c-11.171,13.649-12.722,15.713-22.806,27.299h41.423v11.745h-57.559V339.157z"/>
		<path fill="#000000" d="M179.463,248.847h61.593v11.269l-41.269,91.262H186.6l41.113-90.786h-48.25V248.847z"/>
	</g>
	<g id="numero_26" display="inline" enable-background="new    ">
		<path fill="#000000" d="M104.686,339.157c11.48-13.332,14.428-16.824,26.685-31.584c15.825-19.205,16.911-23.332,16.911-30.791
			v-4.603c0-9.999-2.638-13.015-18.307-13.015c-7.292,0-17.066,1.746-22.961,3.492l-1.862-11.427
			c6.671-2.063,16.911-3.968,25.909-3.968c23.892,0,30.253,8.571,30.253,24.76c0,0.635,0,2.856,0,3.492
			c0,12.538-2.172,17.935-17.687,36.822c-11.17,13.649-12.722,15.713-22.806,27.299h41.424v11.745h-57.559V339.157z"/>
		<path fill="#000000" d="M196.064,296.303c5.12-1.904,13.808-3.65,20.634-3.65c19.704,0,26.53,8.412,26.53,25.236v5.079
			c0,18.57-4.964,29.998-29.788,29.998c-22.341,0-30.253-9.523-30.253-24.443V283.13c0-26.347,11.481-35.87,40.648-35.87
			c4.81,0,12.102,0.635,17.066,1.905l-1.396,11.11c-3.724-0.794-9.93-1.429-13.653-1.429c-24.047,0-29.788,5.238-29.788,24.442
			V296.303z M196.064,308.524v18.094c0,11.269,5.585,14.602,17.376,14.602c13.342,0,16.911-4.126,16.911-14.602v-8.729
			c0-9.682-3.568-13.65-14.894-13.65C208.631,304.239,201.185,306.303,196.064,308.524z"/>
	</g>
	<g id="numero_25" display="inline" enable-background="new    ">
		<path fill="#000000" d="M106.703,339.157c11.481-13.332,14.429-16.824,26.685-31.584c15.825-19.205,16.911-23.332,16.911-30.791
			v-4.603c0-9.999-2.637-13.015-18.307-13.015c-7.292,0-17.066,1.746-22.961,3.492l-1.862-11.427
			c6.671-2.063,16.911-3.968,25.909-3.968c23.893,0,30.253,8.571,30.253,24.76c0,0.635,0,2.856,0,3.492
			c0,12.538-2.172,17.935-17.687,36.822c-11.17,13.649-12.722,15.713-22.806,27.299h41.423v11.745h-57.559V339.157z"/>
		<path fill="#000000" d="M187.221,248.847h52.75v11.745h-39.717v32.537c6.516,0.159,9.619,0.159,16.601,0.476
			c18.462,0.794,24.358,9.999,24.358,23.808v9.206c0,16.824-7.137,26.347-31.805,26.347c-7.757,0-18.152-0.952-26.064-3.651
			l1.396-10.792c7.757,1.905,17.066,2.698,24.513,2.698c15.515,0,18.928-4.126,18.928-15.396v-6.984
			c0-9.523-3.103-13.491-15.98-13.808c-10.395-0.317-17.221-0.317-24.979-0.476V248.847z"/>
	</g>
	<g id="numero_24" display="inline" enable-background="new    ">
		<path fill="#000000" d="M103.366,339.157c11.481-13.332,14.429-16.824,26.685-31.584c15.825-19.205,16.911-23.332,16.911-30.791
			v-4.603c0-9.999-2.638-13.015-18.307-13.015c-7.292,0-17.066,1.746-22.961,3.492l-1.862-11.427
			c6.671-2.063,16.911-3.968,25.909-3.968c23.893,0,30.253,8.571,30.253,24.76c0,0.635,0,2.856,0,3.492
			c0,12.538-2.172,17.935-17.687,36.822c-11.17,13.649-12.722,15.713-22.806,27.299h41.423v11.745h-57.559V339.157z"/>
		<path fill="#000000" d="M230.12,326.142v25.236h-13.032v-25.236h-47.785v-13.173l43.285-64.122h17.531v65.867h14.429v11.428
			H230.12z M217.088,314.714v-52.376l-34.908,52.376H217.088z"/>
	</g>
	<g id="numero_23" display="inline" enable-background="new    ">
		<path fill="#000000" d="M107.401,339.157c11.481-13.332,14.429-16.824,26.685-31.584c15.825-19.205,16.911-23.332,16.911-30.791
			v-4.603c0-9.999-2.638-13.015-18.307-13.015c-7.292,0-17.066,1.746-22.961,3.492l-1.862-11.427
			c6.671-2.063,16.911-3.968,25.909-3.968c23.893,0,30.254,8.571,30.254,24.76c0,0.635,0,2.856,0,3.492
			c0,12.538-2.172,17.935-17.687,36.822c-11.17,13.649-12.722,15.713-22.807,27.299h41.424v11.745h-57.559V339.157z"/>
		<path fill="#000000" d="M184.971,338.681c7.447,1.746,15.05,2.54,22.651,2.54c14.583,0,19.858-3.492,19.858-13.649v-7.936
			c0-10.317-5.585-13.808-15.669-13.808h-21.255v-11.746h19.548c12.101,0,15.514-4.761,15.514-13.173v-9.205
			c0-9.523-4.344-12.698-16.755-12.698c-6.981,0-14.738,0.953-21.875,2.381l-1.397-11.269c6.516-1.587,15.515-2.857,23.582-2.857
			c21.876,0,29.478,7.777,29.478,22.538v9.364c0,9.682-2.172,15.713-11.791,20.474c8.533,2.54,13.653,7.46,13.653,18.887v10.317
			c0,16.506-9.619,24.125-32.891,24.125c-7.447,0-17.531-0.952-24.047-3.175L184.971,338.681z"/>
	</g>
	<g id="numero_22" display="inline" enable-background="new    ">
		<path fill="#000000" d="M107.479,339.157c11.48-13.332,14.428-16.824,26.685-31.584c15.825-19.205,16.911-23.332,16.911-30.791
			v-4.603c0-9.999-2.638-13.015-18.307-13.015c-7.292,0-17.066,1.746-22.961,3.492l-1.862-11.427
			c6.671-2.063,16.911-3.968,25.909-3.968c23.892,0,30.253,8.571,30.253,24.76c0,0.635,0,2.856,0,3.492
			c0,12.538-2.172,17.935-17.687,36.822c-11.17,13.649-12.722,15.713-22.807,27.299h41.424v11.745h-57.559V339.157z"/>
		<path fill="#000000" d="M182.877,339.157c11.48-13.332,14.428-16.824,26.685-31.584c15.825-19.205,16.911-23.332,16.911-30.791
			v-4.603c0-9.999-2.638-13.015-18.307-13.015c-7.292,0-17.066,1.746-22.961,3.492l-1.862-11.427
			c6.671-2.063,16.911-3.968,25.909-3.968c23.892,0,30.253,8.571,30.253,24.76c0,0.635,0,2.856,0,3.492
			c0,12.538-2.172,17.935-17.687,36.822c-11.17,13.649-12.722,15.713-22.807,27.299h41.424v11.745h-57.559V339.157z"/>
	</g>
	<g id="numero_21" display="inline" enable-background="new    ">
		<path fill="#000000" d="M119.967,339.157c11.481-13.332,14.428-16.824,26.685-31.584c15.825-19.205,16.91-23.332,16.91-30.791
			v-4.603c0-9.999-2.637-13.015-18.307-13.015c-7.292,0-17.066,1.746-22.961,3.492l-1.862-11.427
			c6.671-2.063,16.911-3.968,25.909-3.968c23.893,0,30.253,8.571,30.253,24.76c0,0.635,0,2.856,0,3.492
			c0,12.538-2.172,17.935-17.687,36.822c-11.17,13.649-12.722,15.713-22.806,27.299h41.423v11.745h-57.559V339.157z"/>
		<path fill="#000000" d="M194.9,275.512l-5.74-10.634l27.15-16.03h11.636v102.531h-13.032v-87.294L194.9,275.512z"/>
	</g>
	<g id="numero_20" display="inline" enable-background="new    ">
		<path fill="#000000" d="M102.747,339.157c11.48-13.332,14.429-16.824,26.685-31.584c15.825-19.205,16.911-23.332,16.911-30.791
			v-4.603c0-9.999-2.638-13.015-18.307-13.015c-7.292,0-17.066,1.746-22.961,3.492l-1.862-11.427
			c6.671-2.063,16.911-3.968,25.909-3.968c23.892,0,30.253,8.571,30.253,24.76c0,0.635,0,2.856,0,3.492
			c0,12.538-2.172,17.935-17.687,36.822c-11.17,13.649-12.722,15.713-22.807,27.299h41.424v11.745h-57.559V339.157z"/>
		<path fill="#000000" d="M245.168,325.507c0,15.872-7.912,27.458-31.96,27.458c-24.047,0-31.96-11.586-31.96-27.458v-50.79
			c0-15.872,7.913-27.458,31.96-27.458c24.048,0,31.96,11.586,31.96,27.458V325.507z M213.208,259.005
			c-14.273,0-18.928,5.555-18.928,17.142v47.932c0,11.586,4.654,17.142,18.928,17.142s18.928-5.555,18.928-17.142v-47.932
			C232.136,264.56,227.481,259.005,213.208,259.005z"/>
	</g>
	<g id="numero_19" display="inline" enable-background="new    ">
		<path fill="#000000" d="M119.037,275.512l-5.741-10.634l27.15-16.03h11.636v102.531H139.05v-87.294L119.037,275.512z"/>
		<path fill="#000000" d="M221.741,303.922c-5.12,1.905-13.808,3.65-20.635,3.65c-19.703,0-26.529-8.412-26.529-25.236v-5.079
			c0-18.57,5.43-29.998,29.788-29.998c22.341,0,30.253,10,30.253,24.919v44.917c0,26.347-11.481,35.87-40.648,35.87
			c-4.809,0-12.102-0.635-17.066-1.905l1.241-11.11c3.723,0.794,10.084,1.429,13.808,1.429c24.047,0,29.788-5.238,29.788-24.442
			V303.922z M221.741,291.701v-18.094c0-11.269-5.585-14.602-17.376-14.602c-13.343,0-16.911,4.126-16.911,14.602v8.729
			c0,9.682,3.568,13.649,14.894,13.649C209.174,295.986,216.621,293.922,221.741,291.701z"/>
	</g>
	<g id="numero_18" display="inline" enable-background="new    ">
		<path fill="#000000" d="M116.167,275.512l-5.74-10.634l27.15-16.03h11.636v102.531H136.18v-87.294L116.167,275.512z"/>
		<path fill="#000000" d="M218.716,299.001c14.118,6.666,18.772,13.333,18.772,24.125v4.603c0,17.776-9.309,25.236-32.115,25.236
			c-22.961,0-32.115-7.46-32.115-25.236v-4.603c0-10.792,4.5-17.459,18.307-24.125c-12.412-6.189-15.669-12.697-15.669-22.696
			v-4.126c0-14.443,6.981-24.919,29.478-24.919c22.341,0,29.477,10.476,29.477,24.919v4.126
			C234.851,286.304,231.438,292.812,218.716,299.001z M205.374,305.033c-15.67,6.507-19.393,9.523-19.393,18.57v3.651
			c0,10.792,4.964,14.284,19.393,14.284c14.273,0,19.393-3.492,19.393-14.284v-3.651
			C224.767,314.556,220.888,311.54,205.374,305.033z M205.374,293.605c13.342-5.555,16.755-8.888,16.755-16.982v-5.079
			c0-8.254-3.878-13.015-16.755-13.015c-13.032,0-16.756,4.761-16.756,13.015v5.079
			C188.618,284.717,192.031,288.05,205.374,293.605z"/>
	</g>
	<g id="numero_17" display="inline" enable-background="new    ">
		<path fill="#000000" d="M119.424,275.512l-5.74-10.634l27.15-16.03h11.636v102.531h-13.032v-87.294L119.424,275.512z"/>
		<path fill="#000000" d="M172.637,248.847h61.593v11.269l-41.269,91.262h-13.188l41.113-90.786h-48.25V248.847z"/>
	</g>
	<g id="numero_16" display="inline" enable-background="new    ">
		<path fill="#000000" d="M117.873,275.512l-5.74-10.634l27.15-16.03h11.636v102.531h-13.032v-87.294L117.873,275.512z"/>
		<path fill="#000000" d="M188.618,296.303c5.12-1.904,13.808-3.65,20.634-3.65c19.703,0,26.53,8.412,26.53,25.236v5.079
			c0,18.57-4.965,29.998-29.788,29.998c-22.341,0-30.253-9.523-30.253-24.443V283.13c0-26.347,11.48-35.87,40.648-35.87
			c4.81,0,12.101,0.635,17.066,1.905l-1.396,11.11c-3.723-0.794-9.929-1.429-13.653-1.429c-24.047,0-29.788,5.238-29.788,24.442
			V296.303z M188.618,308.524v18.094c0,11.269,5.585,14.602,17.376,14.602c13.342,0,16.911-4.126,16.911-14.602v-8.729
			c0-9.682-3.568-13.65-14.894-13.65C201.185,304.239,193.737,306.303,188.618,308.524z"/>
	</g>
	<g id="numero_15" display="inline" enable-background="new    ">
		<path fill="#000000" d="M119.89,275.512l-5.74-10.634l27.15-16.03h11.636v102.531h-13.032v-87.294L119.89,275.512z"/>
		<path fill="#000000" d="M179.774,248.847h52.749v11.745h-39.717v32.537c6.516,0.159,9.619,0.159,16.601,0.476
			c18.462,0.794,24.357,9.999,24.357,23.808v9.206c0,16.824-7.137,26.347-31.805,26.347c-7.757,0-18.152-0.952-26.064-3.651
			l1.396-10.792c7.757,1.905,17.066,2.698,24.513,2.698c15.514,0,18.927-4.126,18.927-15.396v-6.984
			c0-9.523-3.103-13.491-15.979-13.808c-10.395-0.317-17.221-0.317-24.979-0.476V248.847z"/>
	</g>
	<g id="numero_14" display="inline" enable-background="new    ">
		<path fill="#000000" d="M113.995,275.512l-5.74-10.634l27.15-16.03h11.636v102.531h-13.032v-87.294L113.995,275.512z"/>
		<path fill="#000000" d="M225.232,326.142v25.236H212.2v-25.236h-47.785v-13.173l43.286-64.122h17.531v65.867h14.428v11.428
			H225.232z M212.2,314.714v-52.376l-34.908,52.376H212.2z"/>
	</g>
	<g id="numero_13" display="inline" enable-background="new    ">
		<path fill="#000000" d="M120.976,275.512l-5.74-10.634l27.15-16.03h11.636v102.531H140.99v-87.294L120.976,275.512z"/>
		<path fill="#000000" d="M177.137,338.681c7.447,1.746,15.049,2.54,22.651,2.54c14.583,0,19.858-3.492,19.858-13.649v-7.936
			c0-10.317-5.585-13.808-15.669-13.808h-21.255v-11.746h19.548c12.101,0,15.515-4.761,15.515-13.173v-9.205
			c0-9.523-4.344-12.698-16.756-12.698c-6.981,0-14.739,0.953-21.875,2.381l-1.396-11.269c6.516-1.587,15.514-2.857,23.582-2.857
			c21.875,0,29.478,7.777,29.478,22.538v9.364c0,9.682-2.172,15.713-11.791,20.474c8.533,2.54,13.653,7.46,13.653,18.887v10.317
			c0,16.506-9.619,24.125-32.891,24.125c-7.447,0-17.531-0.952-24.047-3.175L177.137,338.681z"/>
	</g>
	<g id="numero_12" display="inline" enable-background="new    ">
		<path fill="#000000" d="M120.666,275.512l-5.74-10.634l27.15-16.03h11.636v102.531h-13.032v-87.294L120.666,275.512z"/>
		<path fill="#000000" d="M175.43,339.157c11.481-13.332,14.429-16.824,26.685-31.584c15.825-19.205,16.911-23.332,16.911-30.791
			v-4.603c0-9.999-2.637-13.015-18.307-13.015c-7.292,0-17.065,1.746-22.961,3.492l-1.862-11.427
			c6.671-2.063,16.911-3.968,25.909-3.968c23.892,0,30.253,8.571,30.253,24.76c0,0.635,0,2.856,0,3.492
			c0,12.538-2.172,17.935-17.687,36.822c-11.17,13.649-12.722,15.713-22.806,27.299h41.424v11.745H175.43V339.157z"/>
	</g>
	<g id="numero_11" display="inline" enable-background="new    ">
		<path fill="#000000" d="M127.284,275.512l-5.74-10.634l27.15-16.03h11.636v102.531h-13.032v-87.294L127.284,275.512z"/>
		<path fill="#000000" d="M181.583,275.512l-5.74-10.634l27.15-16.03h11.636v102.531h-13.032v-87.294L181.583,275.512z"/>
	</g>
	<g id="numero_10" display="inline" enable-background="new    ">
		<path fill="#000000" d="M115.934,275.512l-5.741-10.634l27.15-16.03h11.636v102.531h-13.032v-87.294L115.934,275.512z"/>
		<path fill="#000000" d="M237.721,325.507c0,15.872-7.912,27.458-31.959,27.458s-31.96-11.586-31.96-27.458v-50.79
		c0-15.872,7.913-27.458,31.96-27.458s31.959,11.586,31.959,27.458V325.507z M205.761,259.005
			c-14.273,0-18.928,5.555-18.928,17.142v47.932c0,11.586,4.654,17.142,18.928,17.142c14.273,0,18.927-5.555,18.927-17.142v-47.932
			C224.688,264.56,220.034,259.005,205.761,259.005z"/>
	</g>
	<g id="numero_9" display="inline" enable-background="new    ">
		<path fill="#000000" d="M191.101,303.922c-5.12,1.905-13.808,3.65-20.634,3.65c-19.703,0-26.53-8.412-26.53-25.236v-5.079
			c0-18.57,5.43-29.998,29.788-29.998c22.341,0,30.253,10,30.253,24.919v44.917c0,26.347-11.48,35.87-40.647,35.87
			c-4.81,0-12.102-0.635-17.066-1.905l1.241-11.11c3.724,0.794,10.084,1.429,13.808,1.429c24.047,0,29.788-5.238,29.788-24.442
			V303.922z M191.101,291.701v-18.094c0-11.269-5.585-14.602-17.376-14.602c-13.343,0-16.911,4.126-16.911,14.602v8.729
			c0,9.682,3.568,13.649,14.894,13.649C178.534,295.986,185.981,293.922,191.101,291.701z"/>
	</g>
	<g id="numero_8" display="inline" enable-background="new    ">
		<path fill="#000000" d="M187.3,299.001c14.118,6.666,18.772,13.333,18.772,24.125v4.603c0,17.776-9.309,25.236-32.115,25.236
			c-22.961,0-32.115-7.46-32.115-25.236v-4.603c0-10.792,4.5-17.459,18.307-24.125c-12.412-6.189-15.669-12.697-15.669-22.696
			v-4.126c0-14.443,6.981-24.919,29.478-24.919c22.341,0,29.478,10.476,29.478,24.919v4.126
			C203.435,286.304,200.021,292.812,187.3,299.001z M173.958,305.033c-15.67,6.507-19.394,9.523-19.394,18.57v3.651
			c0,10.792,4.965,14.284,19.394,14.284c14.273,0,19.393-3.492,19.393-14.284v-3.651
			C193.35,314.556,189.472,311.54,173.958,305.033z M173.958,293.605c13.342-5.555,16.755-8.888,16.755-16.982v-5.079
			c0-8.254-3.879-13.015-16.755-13.015c-13.032,0-16.756,4.761-16.756,13.015v5.079
			C157.202,284.717,160.615,288.05,173.958,293.605z"/>
	</g>
	<g id="numero_7" display="inline" enable-background="new    ">
		<path fill="#000000" d="M143.161,248.847h61.592v11.269l-41.269,91.262h-13.187l41.113-90.786h-48.25V248.847z"/>
	</g>
	<g id="numero_6" display="inline" enable-background="new    ">
		<path fill="#000000" d="M156.814,296.303c5.12-1.904,13.808-3.65,20.634-3.65c19.703,0,26.529,8.412,26.529,25.236v5.079
			c0,18.57-4.964,29.998-29.788,29.998c-22.341,0-30.253-9.523-30.253-24.443V283.13c0-26.347,11.481-35.87,40.648-35.87
			c4.81,0,12.102,0.635,17.066,1.905l-1.396,11.11c-3.724-0.794-9.929-1.429-13.653-1.429c-24.047,0-29.788,5.238-29.788,24.442
			V296.303z M156.814,308.524v18.094c0,11.269,5.585,14.602,17.376,14.602c13.342,0,16.911-4.126,16.911-14.602v-8.729
			c0-9.682-3.568-13.65-14.894-13.65C169.38,304.239,161.934,306.303,156.814,308.524z"/>
	</g>
	<g id="numero_5" display="inline" enable-background="new    ">
		<path fill="#000000" d="M148.901,248.847h52.749v11.745h-39.717v32.537c6.516,0.159,9.619,0.159,16.601,0.476
			c18.462,0.794,24.357,9.999,24.357,23.808v9.206c0,16.824-7.137,26.347-31.805,26.347c-7.757,0-18.152-0.952-26.064-3.651
			l1.396-10.792c7.757,1.905,17.066,2.698,24.513,2.698c15.514,0,18.927-4.126,18.927-15.396v-6.984
			c0-9.523-3.103-13.491-15.979-13.808c-10.395-0.317-17.221-0.317-24.979-0.476V248.847z"/>
	</g>
	<g id="numero_4" display="inline" enable-background="new    ">
		<path fill="#000000" d="M197.151,326.142v25.236h-13.032v-25.236h-47.785v-13.173l43.286-64.122h17.531v65.867h14.429v11.428
                               H197.151z M184.119,314.714v-52.376l-34.907,52.376H184.119z"/>
	</g>
	<g id="numero_3" display="inline" enable-background="new    ">
		<path fill="#000000" d="M146.884,338.681c7.447,1.746,15.049,2.54,22.651,2.54c14.583,0,19.858-3.492,19.858-13.649v-7.936
			c0-10.317-5.585-13.808-15.669-13.808H152.47v-11.746h19.548c12.101,0,15.514-4.761,15.514-13.173v-9.205
			c0-9.523-4.344-12.698-16.755-12.698c-6.981,0-14.739,0.953-21.875,2.381l-1.396-11.269c6.516-1.587,15.515-2.857,23.582-2.857
			c21.875,0,29.478,7.777,29.478,22.538v9.364c0,9.682-2.172,15.713-11.791,20.474c8.533,2.54,13.653,7.46,13.653,18.887v10.317
			c0,16.506-9.619,24.125-32.891,24.125c-7.447,0-17.531-0.952-24.047-3.175L146.884,338.681z"/>
	</g>
	<g id="numero_2" display="inline" enable-background="new    ">
		<path fill="#000000" d="M145.178,339.157c11.481-13.332,14.429-16.824,26.685-31.584c15.825-19.205,16.911-23.332,16.911-30.791
			v-4.603c0-9.999-2.637-13.015-18.307-13.015c-7.292,0-17.066,1.746-22.961,3.492l-1.861-11.427
			c6.671-2.063,16.911-3.968,25.909-3.968c23.892,0,30.253,8.571,30.253,24.76c0,0.635,0,2.856,0,3.492
			c0,12.538-2.172,17.935-17.687,36.822c-11.17,13.649-12.722,15.713-22.806,27.299h41.424v11.745h-57.559V339.157z"/>
	</g>
	<g id="numero_1" enable-background="new    ">
		<path fill="#000000" d="M148.564,275.512l-5.741-10.634l27.15-16.03h11.636v102.531h-13.032v-87.294L148.564,275.512z"/>
	</g>
	<g id="numero_0" display="inline">
		<path fill="#000000" d="M208.272,326.299c0,16-8.16,27.681-32.96,27.681c-24.801,0-32.961-11.68-32.961-27.681v-51.201
			c0-16,8.16-27.681,32.961-27.681c24.8,0,32.96,11.68,32.96,27.681V326.299z M175.311,259.257c-14.72,0-19.521,5.6-19.521,17.28
			v48.321c0,11.68,4.8,17.28,19.521,17.28s19.521-5.6,19.521-17.28v-48.321C194.832,264.857,190.031,259.257,175.311,259.257z"/>
	</g>
    <!-- Fine Numeri -->

<!-- Colori Tacche -->

				<rect id="scala_colore_138_8" x="1747.614" y="75.686" fill="#6FD813" width="58.482" height="50.814"/>
				<rect id="scala_colore_138_7" x="1747.614" y="128.189" fill="#A6EF20" width="58.482" height="50.814"/>
				<rect id="scala_colore_138_6" x="1747.614" y="180.694" fill="#D0EE31" width="58.482" height="50.814"/>
				<rect id="scala_colore_138_5" x="1747.614" y="233.198" fill="#D0EE31" width="58.482" height="50.814"/>
				<rect id="scala_colore_138_4" x="1747.614" y="285.702" fill="#F9F167" width="58.482" height="50.814"/>
				<rect id="scala_colore_138_3" x="1747.614" y="338.206" fill="#E8A531" width="58.482" height="50.814"/>
				<rect id="scala_colore_138_2" x="1747.614" y="390.71" fill="#D5421E" width="58.482" height="50.814"/>
				<rect id="scala_colore_138_1" x="1747.614" y="442.71" fill="#C80011" width="58.482" height="50.814"/>

		<g id="scala_138">
			<g id="cornice_scala_138">
				<path fill="#9B9A9A" d="M1812.469,59.623h-70.379c-1.963,0-3.555,2.761-3.555,6.166v435.992c0,3.403,1.592,6.165,3.555,6.165

					h70.379c1.965,0,3.555-2.762,3.555-6.165V65.789C1816.024,62.384,1814.434,59.623,1812.469,59.623z M1806.071,487.125

					c0,3.405-1.59,6.165-3.553,6.165h-50.475c-1.963,0-3.555-2.76-3.555-6.165V82.043c0-3.405,1.592-6.166,3.555-6.166h50.475

					c1.963,0,3.553,2.761,3.553,6.166V487.125z"/>
				<rect x="1747.903" y="126.273" fill="#9B9A9A" width="58.781" height="3.826"/>
				<rect x="1747.903" y="178.539" fill="#9B9A9A" width="58.781" height="3.825"/>
				<rect x="1747.903" y="230.804" fill="#9B9A9A" width="58.781" height="3.826"/>
				<rect x="1747.903" y="283.069" fill="#9B9A9A" width="58.781" height="3.826"/>
				<rect x="1747.903" y="387.601" fill="#9B9A9A" width="58.781" height="3.826"/>
				<rect x="1747.903" y="440.601" fill="#9B9A9A" width="58.781" height="3.826"/>
				<rect x="1747.903" y="335.335" fill="#9B9A9A" width="58.781" height="3.826"/>
			</g>
		</g>

				<rect id="scala_colore_162_7" x="1747.614" y="75.686" fill="#6FD813" width="58.481" height="50.814"/>
				<rect id="scala_colore_162_6" x="1747.614" y="128.189" fill="#A6EF20" width="58.481" height="50.814"/>
				<rect id="scala_colore_162_5" x="1747.614" y="180.694" fill="#D0EE31" width="58.481" height="50.814"/>
				<rect id="scala_colore_162_4" x="1747.614" y="233.198" fill="#F9F167" width="58.481" height="50.814"/>
				<rect id="scala_colore_162_3" x="1747.614" y="285.702" fill="#E8A531" width="58.481" height="50.814"/>
				<rect id="scala_colore_162_2" x="1747.614" y="338.206" fill="#D5421E" width="58.481" height="50.814"/>
				<rect id="scala_colore_162_1" x="1747.614" y="390.71" fill="#C80011" width="58.481" height="50.814"/>

		<g id="scala_162">
			<g id="cornice_scala_162">
				<path fill="#9B9A9A" d="M1812.47,59.623h-70.379c-1.963,0-3.555,2.761-3.555,6.166v383.992c0,3.403,1.592,6.165,3.555,6.165
					h70.379c1.964,0,3.555-2.762,3.555-6.165V65.789C1816.024,62.384,1814.434,59.623,1812.47,59.623z M1806.071,435.125
					c0,3.405-1.591,6.165-3.554,6.165h-50.474c-1.963,0-3.556-2.76-3.556-6.165V82.043c0-3.405,1.593-6.166,3.556-6.166h50.474
					c1.963,0,3.554,2.761,3.554,6.166V435.125z"/>
				<rect x="1747.903" y="126.273" fill="#9B9A9A" width="58.781" height="3.826"/>
				<rect x="1747.903" y="178.539" fill="#9B9A9A" width="58.781" height="3.825"/>
				<rect x="1747.903" y="230.804" fill="#9B9A9A" width="58.781" height="3.826"/>
				<rect x="1747.903" y="283.069" fill="#9B9A9A" width="58.781" height="3.826"/>
				<rect x="1747.903" y="387.601" fill="#9B9A9A" width="58.781" height="3.826"/>
				<rect x="1747.903" y="335.335" fill="#9B9A9A" width="58.781" height="3.826"/>
			</g>
		</g>

		<polygon id="indicatore" fill="#535354" points="1792.25,77.391 1809.829,54.161 1833,54.161 1833,98.671 
					1809.829,98.671 				"/>

</defs>
  <g id="pageContents">
    <g id="page_Pallet">
	<g id="bg">
		<rect id="bg_2_" x="0" y="1.979" fill="#F0EFEF" width="1920" height="1078.021"/>
		<rect id="sfondo_footer_1_" x="-0.001" y="937.439" fill="#BBBBBB" width="1920.001" height="142.561"/>
	</g>

	<!--use id="titolo" xlink:href="#titolo_162" /-->
	<use id="titolo" />

	<image overflow="visible" width="686" height="164" id="pallet" xlink:href="pallet.png"  transform="translate(894.2148 721.8936)"/>


	<image overflow="visible" opacity="0.63" enable-background="new    " width="346" height="362" xlink:href="ombra_cerchio_grande.png"  transform="translate(231.2842 221.8154)"/>
	<ellipse id="cerchio_grande" cx="403.94" cy="402.363" rx="152.8" ry="160.373"/>


        <use id="numero" transform="translate(230 105)"/>

        <g id="layer_scala_colori"/>
        <!--<use id="scala" xlink:href="#scala_162"/>-->
        <use id="scala"/>
        <!--g id="layer_scala"/-->
        <use id="posizione_indicatore" xlink:href="#indicatore"/>

	<g id="layer_pacchi"/>

	<g id="carrello_1_">
		<g>
			<linearGradient id="sfumatura_2_" gradientUnits="userSpaceOnUse" x1="217.5781" y1="449.3164" x2="217.5781" y2="763.1543" gradientTransform="matrix(1 0 0 1 182.2002 173.8008)">
				<stop  offset="0" style="stop-color:#FFFFFF;stop-opacity:0"/>
				<stop  offset="0.0118" style="stop-color:#FEFEFE;stop-opacity:0.0406"/>
				<stop  offset="0.1453" style="stop-color:#F3F3F3;stop-opacity:0.4976"/>
				<stop  offset="0.2921" style="stop-color:#F0EFEF"/>
			</linearGradient>
			<polygon id="sfumatura_1_" fill="url(#sfumatura_2_)" points="183.668,654.101 615.889,623.117 527.534,936.955 
					255.422,936.955 				"/>
			<g opacity="0.53">
				<image overflow="visible" enable-background="new    " width="404" height="129" xlink:href="ombra_carrello.png"  transform="translate(193.9263 807.1865)"/>
			</g>

			<g>
				<linearGradient id="SVGID_1_" gradientUnits="userSpaceOnUse" x1="2091.6255" y1="-6974.46" x2="2091.6255" y2="-6927.8906" gradientTransform="matrix(-1 0 0 -1 2558.1904 -6101.7188)">
					<stop  offset="0" style="stop-color:#0F0F0F"/>
					<stop  offset="0.0531" style="stop-color:#131313"/>
					<stop  offset="0.3335" style="stop-color:#212121"/>
					<stop  offset="0.5517" style="stop-color:#272626"/>
				</linearGradient>
				<path fill="url(#SVGID_1_)" d="M443.28,849.456c0,12.866,10.425,23.285,23.287,23.285c12.86,0,23.282-10.425,23.282-23.285

						s-10.422-23.284-23.282-23.284C453.703,826.17,443.28,836.593,443.28,849.456z"/>
					
				<linearGradient id="SVGID_2_" gradientUnits="userSpaceOnUse" x1="2091.6177" y1="-6974.46" x2="2091.6177" y2="-6946.334" gradientTransform="matrix(-1 0 0 -1 2558.1904 -6101.7188)">

					<stop  offset="0.5813" style="stop-color:#010101"/>
					<stop  offset="1" style="stop-color:#272626"/>
				</linearGradient>
				<path fill="url(#SVGID_2_)" d="M447.593,844.615c-0.397,1.552-0.629,3.175-0.629,4.841c0,10.825,8.778,19.602,19.603,19.602
						c10.826,0,19.602-8.774,19.602-19.602c0-1.673-0.232-3.289-0.626-4.841h3.808c0.327,1.564,0.508,3.184,0.508,4.841

						c0,12.866-10.427,23.285-23.284,23.285c-12.866,0-23.287-10.425-23.287-23.285c0-1.657,0.18-3.281,0.508-4.841H447.593z"/>
					
				<linearGradient id="SVGID_3_" gradientUnits="userSpaceOnUse" x1="2091.6216" y1="-6960.416" x2="2091.6216" y2="-6919.5273" gradientTransform="matrix(-1 0 0 -1 2558.1904 -6101.7188)">
					<stop  offset="0.4877" style="stop-color:#8B8A8A"/>
					<stop  offset="1" style="stop-color:#B3B3B3"/>
				</linearGradient>
				<path fill="url(#SVGID_3_)" d="M455.835,855.797c0,1.6,1.303,2.9,2.898,2.9h15.671c1.599,0,2.896-1.301,2.896-2.9v-35.09
						c0-1.593-1.298-2.898-2.896-2.898h-15.671c-1.595,0-2.898,1.306-2.898,2.898V855.797L455.835,855.797z"/>
				<linearGradient id="SVGID_4_" gradientUnits="userSpaceOnUse" x1="2091.6216" y1="-6959.2256" x2="2091.6216" y2="-6918.3359" gradientTransform="matrix(-1 0 0 -1 2558.1904 -6101.7188)">
					<stop  offset="0.2365" style="stop-color:#F1F0F0"/>
					<stop  offset="1" style="stop-color:#B3B3B3"/>
				</linearGradient>
				<path fill="url(#SVGID_4_)" d="M455.835,854.602c0,1.603,1.303,2.905,2.898,2.905h15.671c1.599,0,2.896-1.303,2.896-2.905
						v-35.085c0-1.601-1.298-2.899-2.896-2.899h-15.671c-1.595,0-2.898,1.299-2.898,2.899V854.602L455.835,854.602z"/>
				<path fill="#6F6F6F" d="M458.73,816.617h15.671c1.599,0,2.896,1.298,2.896,2.899v5.437h-21.467v-5.437
						C455.835,817.914,457.135,816.617,458.73,816.617z"/>
				<linearGradient id="SVGID_5_" gradientUnits="userSpaceOnUse" x1="2091.6216" y1="-6956.4111" x2="2091.6216" y2="-6945.9434" gradientTransform="matrix(-1 0 0 -1 2558.1904 -6101.7188)">
					<stop  offset="0.0887" style="stop-color:#010101"/>
					<stop  offset="1" style="stop-color:#4E4E4E"/>
				</linearGradient>
				<path fill="url(#SVGID_5_)" d="M461.337,849.456c0,2.896,2.341,5.236,5.231,5.236c2.886,0,5.231-2.341,5.231-5.236

						c0-2.887-2.343-5.231-5.231-5.231C463.679,844.225,461.337,846.569,461.337,849.456z"/>
					
				<linearGradient id="SVGID_6_" gradientUnits="userSpaceOnUse" x1="2091.6235" y1="-6955.5176" x2="2091.6235" y2="-6946.8281" gradientTransform="matrix(-1 0 0 -1 2558.1904 -6101.7188)">
					<stop  offset="0.0887" style="stop-color:#B3B3B3"/>
					<stop  offset="1" style="stop-color:#FFFFFF"/>
				</linearGradient>
				<circle fill="url(#SVGID_6_)" cx="466.567" cy="849.454" r="4.345"/>
			</g>
			<g>
					
						<linearGradient id="SVGID_7_" gradientUnits="userSpaceOnUse" x1="2247.436" y1="-6974.4609" x2="2247.436" y2="-6927.8848" gradientTransform="matrix(-1 0 0 -1 2558.1904 -6101.7188)">
						<stop  offset="0" style="stop-color:#0F0F0F"/>
						<stop  offset="0.0531" style="stop-color:#131313"/>
						<stop  offset="0.3335" style="stop-color:#212121"/>
						<stop  offset="0.5517" style="stop-color:#272626"/>
					</linearGradient>
					<circle fill="url(#SVGID_7_)" cx="310.754" cy="849.454" r="23.288"/>
					
						<linearGradient id="SVGID_8_" gradientUnits="userSpaceOnUse" x1="2247.4341" y1="-6974.46" x2="2247.4341" y2="-6946.334" gradientTransform="matrix(-1 0 0 -1 2558.1904 -6101.7188)">
						<stop  offset="0.5813" style="stop-color:#010101"/>
						<stop  offset="1" style="stop-color:#272626"/>
					</linearGradient>
					<path fill="url(#SVGID_8_)" d="M291.782,844.615c-0.399,1.552-0.629,3.175-0.629,4.841c0,10.825,8.774,19.602,19.603,19.602
						s19.601-8.774,19.601-19.602c0-1.673-0.232-3.289-0.627-4.841h3.805c0.335,1.564,0.508,3.184,0.508,4.841
						c0,12.866-10.427,23.285-23.285,23.285c-12.862,0-23.288-10.425-23.288-23.285c0-1.657,0.183-3.281,0.515-4.841H291.782z"/>
					
						<linearGradient id="SVGID_9_" gradientUnits="userSpaceOnUse" x1="2247.4341" y1="-6960.416" x2="2247.4341" y2="-6919.5273" gradientTransform="matrix(-1 0 0 -1 2558.1904 -6101.7188)">
						<stop  offset="0.4877" style="stop-color:#8B8A8A"/>
						<stop  offset="1" style="stop-color:#B3B3B3"/>
					</linearGradient>
					<path fill="url(#SVGID_9_)" d="M300.022,855.797c0,1.6,1.302,2.9,2.903,2.9h15.668c1.602,0,2.896-1.301,2.896-2.9v-35.09
						c0-1.593-1.294-2.898-2.896-2.898h-15.668c-1.601,0-2.903,1.306-2.903,2.898V855.797z"/>
					
						<linearGradient id="SVGID_10_" gradientUnits="userSpaceOnUse" x1="2247.4341" y1="-6959.2256" x2="2247.4341" y2="-6918.3359" gradientTransform="matrix(-1 0 0 -1 2558.1904 -6101.7188)">
						<stop  offset="0.2365" style="stop-color:#F1F0F0"/>
						<stop  offset="1" style="stop-color:#B3B3B3"/>
					</linearGradient>
					<path fill="url(#SVGID_10_)" d="M300.022,854.602c0,1.603,1.302,2.905,2.903,2.905h15.668c1.602,0,2.896-1.303,2.896-2.905

						v-35.085c0-1.601-1.294-2.899-2.896-2.899h-15.668c-1.601,0-2.903,1.299-2.903,2.899V854.602z"/>
					<path fill="#6F6F6F" d="M302.924,816.617h15.668c1.601,0,2.896,1.298,2.896,2.899v5.437h-21.465v-5.437
						C300.022,817.914,301.321,816.617,302.924,816.617z"/>
					
						<linearGradient id="SVGID_11_" gradientUnits="userSpaceOnUse" x1="2247.4331" y1="-6956.4111" x2="2247.4331" y2="-6945.9434" gradientTransform="matrix(-1 0 0 -1 2558.1904 -6101.7188)">
						<stop  offset="0.0887" style="stop-color:#010101"/>
						<stop  offset="1" style="stop-color:#4E4E4E"/>
					</linearGradient>
					<path fill="url(#SVGID_11_)" d="M305.521,849.456c0,2.896,2.342,5.236,5.235,5.236c2.89,0,5.235-2.341,5.235-5.236
						c0-2.887-2.345-5.231-5.235-5.231C307.864,844.225,305.521,846.569,305.521,849.456z"/>
					
						<linearGradient id="SVGID_12_" gradientUnits="userSpaceOnUse" x1="2247.4341" y1="-6955.5176" x2="2247.4341" y2="-6946.8281" gradientTransform="matrix(-1 0 0 -1 2558.1904 -6101.7188)">
						<stop  offset="0.0887" style="stop-color:#B3B3B3"/>
						<stop  offset="1" style="stop-color:#FFFFFF"/>
					</linearGradient>
					<circle fill="url(#SVGID_12_)" cx="310.757" cy="849.454" r="4.345"/>
				</g>
				<path fill="#929497" d="M487.243,777.242l68.742-166.164l32.787-11.821c-1.107,3.939-3.92,7.366-7.984,9.075l-19.441,8.188
					L491.98,788.615L487.243,777.242z"/>
				<path fill="#818181" d="M500.132,637.074l6.617,6.625l-11.601,11.598l-11.602-11.598l5.545-5.545l-28.315,2.761l2.789,2.782
					l-11.602,11.601l-11.601-11.601l0.873-0.879l-22.145,2.163l-10.316,10.31l-8.475-8.479l-29.072,2.845l-5.631,5.635l-4.639-4.632
					l-37.58,3.663l-0.97,0.969l-0.79-0.799l-18.212,1.781l9.008,9.016l-11.6,11.594l-11.601-11.599l8.453-8.454l-33.608,3.281
					l5.169,5.174l-7.349,7.343l5.492,33.973l1.857,1.862l-1.345,1.348l2.785,17.203l8.553-8.561l11.604,11.602l-11.604,11.602

					l-7.385-7.389l3.707,22.982l12.057,6.267l31.575,1.361l3.228-3.23l3.521,3.521l34.656,1.491l5.011-5.012l5.46,5.46l30.936,1.334
					l6.788-6.794l7.396,7.399l27.221,1.169l8.567-8.567l7.597,7.6l13.798-6.191l-11.402-11.4l11.602-11.6l11.601,11.6
					l-11.073,11.083l8.962-4.028l7.114-22.044l-6.604-6.604l11.602-11.602l0.666,0.669l10.162-31.489L495.15,698.47l-11.602-11.599

					l11.602-11.602l11.204,11.205l4.878-15.11l-6.088-6.084l11.602-11.603l0.145,0.146l6.135-19L500.132,637.074z M473.556,720.072
					l-11.602-11.601l11.602-11.601l11.6,11.601L473.556,720.072z M440.364,730.063l11.601-11.601l11.602,11.601l-11.602,11.601
					L440.364,730.063z M430.367,720.072l-11.596-11.601l11.596-11.601l11.602,11.601L430.367,720.072z M418.774,751.66
					l11.594-11.602l11.602,11.602l-11.602,11.599L418.774,751.66z M397.177,730.063l11.6-11.601l11.602,11.601l-11.602,11.601
					L397.177,730.063z M387.188,720.072l-11.602-11.601l11.602-11.601l11.601,11.601L387.188,720.072z M375.588,751.66
					l11.602-11.602l11.593,11.602l-11.593,11.599L375.588,751.66z M353.992,730.063l11.602-11.601l11.599,11.601l-11.599,11.597
					L353.992,730.063z M344.002,720.072l-11.604-11.601l11.604-11.601l11.596,11.601L344.002,720.072z M332.398,751.66
					l11.604-11.602l11.596,11.602l-11.596,11.602L332.398,751.66z M310.811,730.066l11.597-11.601l11.602,11.601l-11.602,11.603
					L310.811,730.066z M300.813,740.059l11.6,11.602l-11.6,11.601l-11.597-11.601L300.813,740.059z M290.823,686.881l-11.604,11.599
					l-11.597-11.599l11.597-11.603L290.823,686.881z M300.813,696.872l11.6,11.601l-11.6,11.6l-11.597-11.6L300.813,696.872z

					 M334.003,686.881l-11.6,11.599l-11.597-11.599l11.597-11.603L334.003,686.881z M355.599,665.291l-11.596,11.598l-11.604-11.598
					l11.604-11.602L355.599,665.291z M377.191,686.881l-11.599,11.599l-11.602-11.599l11.602-11.603L377.191,686.881z
					 M398.785,665.287l-11.601,11.602l-11.602-11.598l11.602-11.602L398.785,665.287z M408.777,675.281l11.602,11.602l-11.602,11.6
					l-11.6-11.6L408.777,675.281z M441.973,665.291l-11.602,11.6l-11.594-11.6l11.594-11.602L441.973,665.291z M451.963,675.281

					l11.602,11.602l-11.602,11.6l-11.601-11.6L451.963,675.281z M485.154,665.291l-11.599,11.6l-11.602-11.6l11.602-11.602
					L485.154,665.291z"/>
				
					<linearGradient id="SVGID_13_" gradientUnits="userSpaceOnUse" x1="2035.1636" y1="-6800.5889" x2="2296.3159" y2="-6800.5889" gradientTransform="matrix(-1 0 0 -1 2558.1904 -6101.7188)">
					<stop  offset="0" style="stop-color:#9E9E9E"/>
					<stop  offset="0.4877" style="stop-color:#D9D9D8"/>
					<stop  offset="1" style="stop-color:#8C8C8C"/>
				</linearGradient>
				<path fill="url(#SVGID_13_)" d="M500.132,633.424l6.617,6.626l-11.601,11.6l-11.602-11.6l5.545-5.546l-28.315,2.767l2.789,2.778

					l-11.602,11.603l-11.601-11.603l0.873-0.878l-22.145,2.163l-10.316,10.309l-8.475-8.475l-29.072,2.84l-5.631,5.635l-4.639-4.633
					l-37.58,3.666l-0.97,0.969l-0.79-0.79l-18.212,1.781l9.008,9.005l-11.6,11.603l-11.601-11.603l8.453-8.453l-33.608,3.281
					l5.169,5.171l-7.349,7.351l5.492,33.966l1.857,1.865l-1.345,1.345l2.785,17.209l8.553-8.562l11.604,11.6l-11.604,11.6
					l-7.385-7.387l3.707,22.976l12.057,6.272l31.575,1.356l3.228-3.229l3.521,3.519l34.656,1.489l5.011-5.008l5.46,5.459
					l30.936,1.331l6.788-6.79l7.396,7.398l27.221,1.164l8.567-8.563l7.597,7.596l13.798-6.188l-11.402-11.4l11.602-11.603

					l11.601,11.603l-11.073,11.076l8.962-4.021l7.114-22.05l-6.604-6.602l11.602-11.603l0.666,0.669l10.162-31.489l-10.828,10.83
					l-11.602-11.597l11.602-11.601l11.204,11.206l4.878-15.114l-6.088-6.089l11.602-11.601l0.145,0.152l6.135-19.002
					L500.132,633.424z M473.556,716.428l-11.602-11.603l11.602-11.601l11.6,11.601L473.556,716.428z M440.364,726.419l11.601-11.602
					l11.602,11.602l-11.602,11.601L440.364,726.419z M430.367,716.428l-11.596-11.603l11.596-11.601l11.602,11.601L430.367,716.428z

					 M418.774,748.018l11.594-11.602l11.602,11.602l-11.602,11.596L418.774,748.018z M397.177,726.419l11.6-11.596l11.602,11.596
					l-11.602,11.601L397.177,726.419z M387.188,716.428l-11.602-11.603l11.602-11.601l11.601,11.601L387.188,716.428z
					 M375.588,748.018l11.602-11.602l11.593,11.602l-11.593,11.596L375.588,748.018z M353.992,726.419l11.602-11.596l11.599,11.601
					l-11.599,11.598L353.992,726.419z M344.002,716.428l-11.604-11.603l11.604-11.601l11.596,11.601L344.002,716.428z
					 M332.398,748.018l11.604-11.602l11.596,11.602l-11.596,11.596L332.398,748.018z M310.811,726.422l11.597-11.602l11.602,11.597
					l-11.602,11.601L310.811,726.422z M300.813,736.415l11.6,11.602l-11.6,11.596l-11.597-11.596L300.813,736.415z M290.823,683.235
					l-11.604,11.601l-11.597-11.601l11.597-11.601L290.823,683.235z M300.813,693.229l11.6,11.601l-11.6,11.602l-11.597-11.602
					L300.813,693.229z M334.003,683.235l-11.6,11.601l-11.597-11.601l11.597-11.601L334.003,683.235z M355.599,661.64
					l-11.596,11.603l-11.604-11.603l11.604-11.601L355.599,661.64z M377.191,683.235l-11.599,11.601l-11.602-11.601l11.602-11.601
					L377.191,683.235z M398.785,661.64l-11.601,11.603l-11.602-11.603l11.602-11.601L398.785,661.64z M408.777,671.638
					l11.602,11.601l-11.602,11.602l-11.6-11.602L408.777,671.638z M441.973,661.64l-11.602,11.603l-11.594-11.603l11.594-11.601
					L441.973,661.64z M451.963,671.638l11.602,11.601l-11.602,11.602l-11.601-11.602L451.963,671.638z M485.154,661.64
					l-11.599,11.603l-11.602-11.603l11.602-11.601L485.154,661.64z"/>
				<path fill="#E6E6E5" d="M460.239,775.789c-1.125,0.674-2.43,1.033-3.749,1.033l0,0c-0.096,0-0.196-0.001-0.296-0.004
					l-169.59-7.29l0,0c-1.06-0.039-2.104-0.319-3.045-0.812l-16.563-8.613l0,0c-2.042-1.067-3.452-3.011-3.813-5.291

					l-17.228-106.656l0,0c-0.326-2.026,0.21-4.079,1.48-5.682l0,0c1.272-1.605,3.16-2.589,5.203-2.727l277.867-18.621l0,0
					c2.493-0.167,4.898,0.959,6.367,2.982l0,0c1.466,2.029,1.792,4.666,0.86,6.984l-6.742-2.72l6.742,2.72l-51.286,127.266l0,0
					c-0.6,1.466-1.644,2.695-3.01,3.512L460.239,775.789L460.239,775.789z M473.868,750.666l46.055-114.267l-258.354,17.313
					l15.371,95.179l11.892,6.184l165.807,7.124L473.868,750.666L473.868,750.666z"/>
				<polygon fill="#929497" points="527.534,643.781 526.889,634.117 251.563,652.563 252.205,662.229 				"/>
				
					<linearGradient id="SVGID_14_" gradientUnits="userSpaceOnUse" x1="2019.9341" y1="-6804.3213" x2="2312.3296" y2="-6804.3213" gradientTransform="matrix(-1 0 0 -1 2558.1904 -6101.7188)">
					<stop  offset="0" style="stop-color:#B3B3B3"/>
					<stop  offset="0.4877" style="stop-color:#D9D9D8"/>
					<stop  offset="1" style="stop-color:#B3B3B3"/>
				</linearGradient>
				<path fill="url(#SVGID_14_)" d="M460.239,779.424c-1.125,0.676-2.43,1.035-3.749,1.035l0,0c-0.096,0-0.196-0.004-0.296-0.008
					l-169.59-7.289l0,0c-1.06-0.039-2.104-0.317-3.045-0.811l-16.563-8.609l0,0c-2.042-1.072-3.452-3.015-3.813-5.289

					l-17.228-106.66l0,0c-0.326-2.025,0.21-4.08,1.48-5.682l0,0c1.272-1.604,3.16-2.586,5.203-2.728l277.867-18.621l0,0
					c2.493-0.165,4.898,0.957,6.367,2.983l0,0c1.466,2.03,1.792,4.662,0.86,6.983l-6.742-2.717l6.742,2.717l-51.286,127.267l0,0
					c-0.6,1.468-1.644,2.697-3.01,3.511L460.239,779.424L460.239,779.424z M473.868,754.303l46.055-114.268l-258.354,17.313
					l15.371,95.179l11.892,6.184l165.807,7.125L473.868,754.303L473.868,754.303z"/>
				
					<linearGradient id="SVGID_15_" gradientUnits="userSpaceOnUse" x1="2127.4146" y1="-6924.9697" x2="2127.4146" y2="-6692.7866" gradientTransform="matrix(-1 0 0 -1 2558.1904 -6101.7188)">
					<stop  offset="0" style="stop-color:#838383"/>
					<stop  offset="0.0246" style="stop-color:#B3B3B3"/>
					<stop  offset="0.1232" style="stop-color:#B3B3B3"/>
					<stop  offset="0.2456" style="stop-color:#C8C8C8"/>
					<stop  offset="0.3866" style="stop-color:#DBDADA"/>
					<stop  offset="0.4877" style="stop-color:#E0E1E0"/>
					<stop  offset="1" style="stop-color:#B3B3B3"/>
				</linearGradient>
				<path fill="url(#SVGID_15_)" d="M506.761,823.242c2.588,0,4.959-1.387,6.234-3.635l0,0c1.265-2.242,1.232-4.992-0.094-7.205l0,0
					l-19.692-32.823l66.698-165.481l22.042-9.279l0,0c3.642-1.535,5.345-5.731,3.815-9.367l0,0c-1.53-3.648-5.732-5.356-9.37-3.817
					l0,0l-24.784,10.434c-1.761,0.741-3.146,2.152-3.864,3.921l0,0l-69.14,171.548c-0.836,2.084-0.656,4.429,0.506,6.359l0,0
					l15.019,25.04h-211.75c-3.954,0-7.159,3.204-7.159,7.156l0,0c0,3.951,3.206,7.159,7.159,7.159l0,0h224.375L506.761,823.242

					L506.761,823.242z"/>
				
					<linearGradient id="SVGID_16_" gradientUnits="userSpaceOnUse" x1="1950.6353" y1="-6699.0615" x2="1999.4722" y2="-6699.0615" gradientTransform="matrix(-1 0 0 -1 2558.1904 -6101.7188)">
					<stop  offset="0.2611" style="stop-color:#25A86B"/>
					<stop  offset="0.3654" style="stop-color:#21A268"/>
					<stop  offset="0.735" style="stop-color:#1C905B"/>
					<stop  offset="1" style="stop-color:#198957"/>
				</linearGradient>
				<path fill="url(#SVGID_16_)" d="M558.718,598.574l21.999-9.26c1.802-5.504,6.968-9.479,13.077-9.479
					c7.602,0,13.761,6.159,13.761,13.76c0,7.599-6.161,13.762-13.761,13.762c-2.18,0-4.239-0.519-6.069-1.422l-21.164,8.914
					L558.718,598.574z"/>
				
					<linearGradient id="SVGID_17_" gradientUnits="userSpaceOnUse" x1="1970.4673" y1="-6711.2246" x2="1992.7993" y2="-6711.2246" gradientTransform="matrix(-1 0 0 -1 2558.1904 -6101.7188)">
					<stop  offset="0.2611" style="stop-color:#1B8E59"/>
					<stop  offset="0.3858" style="stop-color:#177C4C"/>
					<stop  offset="0.634" style="stop-color:#0B5F38"/>
					<stop  offset="0.8474" style="stop-color:#054C2B"/>
					<stop  offset="1" style="stop-color:#034626"/>
				</linearGradient>
				<path fill="url(#SVGID_17_)" d="M584.986,604.165c0.829,0.7,1.756,1.284,2.736,1.769l-21.164,8.913l-1.167-2.425
					L584.986,604.165z"/>
				
					<linearGradient id="SVGID_18_" gradientUnits="userSpaceOnUse" x1="1977.4712" y1="-6696.6934" x2="1999.4692" y2="-6696.6934" gradientTransform="matrix(-1 0 0 -1 2558.1904 -6101.7188)">
					<stop  offset="0.2611" style="stop-color:#29B574"/>
					<stop  offset="0.5017" style="stop-color:#1F9F66"/>
					<stop  offset="0.7776" style="stop-color:#188D5A"/>
					<stop  offset="0.9754" style="stop-color:#148756"/>
				</linearGradient>
				<path fill="url(#SVGID_18_)" d="M580.715,589.313l0.005-0.011c-0.292,0-0.495,1.799-0.6,2.75l-20.404,8.594l-0.995-2.07

					L580.715,589.313z"/>
				
					<linearGradient id="SVGID_19_" gradientUnits="userSpaceOnUse" x1="1964.3979" y1="-6704.5381" x2="1964.3979" y2="-6686.0869" gradientTransform="matrix(-1 0 0 -1 2558.1904 -6101.7188)">
					<stop  offset="0" style="stop-color:#29B574"/>
					<stop  offset="1" style="stop-color:#1C905B"/>
				</linearGradient>
				<circle fill="url(#SVGID_19_)" cx="593.792" cy="593.594" r="9.226"/>
				
					<linearGradient id="SVGID_20_" gradientUnits="userSpaceOnUse" x1="1957.8579" y1="-6695.3125" x2="1970.9399" y2="-6695.3125" gradientTransform="matrix(-1 0 0 -1 2558.1904 -6101.7188)">
					<stop  offset="0.2611" style="stop-color:#29B574"/>
					<stop  offset="0.5917" style="stop-color:#26AB6C"/>
					<stop  offset="1" style="stop-color:#25A468"/>
				</linearGradient>
				<circle fill="url(#SVGID_20_)" cx="593.791" cy="593.594" r="6.541"/>
				
					<linearGradient id="SVGID_21_" gradientUnits="userSpaceOnUse" x1="2042.8442" y1="-6885.8418" x2="2042.8442" y2="-6703.3672" gradientTransform="matrix(-1 0 0 -1 2558.1904 -6101.7188)">
					<stop  offset="0" style="stop-color:#CDCCCC"/>
					<stop  offset="0.399" style="stop-color:#E0E1E0"/>
					<stop  offset="1" style="stop-color:#E6E6E5"/>
				</linearGradient>
				<path fill="url(#SVGID_21_)" d="M479.109,783.893l0.134,0.23c0.09-0.517,0.227-1.025,0.425-1.52l72.938-180.955l-1,0.416
					c-1.761,0.742-3.146,2.154-3.865,3.922l-69.138,171.548C477.767,779.619,477.952,781.964,479.109,783.893z"/>
				
					<linearGradient id="SVGID_22_" gradientUnits="userSpaceOnUse" x1="2062.688" y1="-6911.7974" x2="2281.0493" y2="-6911.7974" gradientTransform="matrix(-1 0 0 -1 2558.1904 -6101.7188)">
					<stop  offset="0" style="stop-color:#B3B3B3"/>
					<stop  offset="0.4877" style="stop-color:#D9D9D8"/>
					<stop  offset="1" style="stop-color:#B3B3B3"/>
				</linearGradient>
				<path fill="url(#SVGID_22_)" d="M495.503,811.227H277.141c1.308-1.406,3.174-2.296,5.244-2.296h211.747L495.503,811.227z"/>
			</g>
		</g>

		<g id="menu">

			<g id="menu_link_150">
                          <use xlink:href="#link_150"/>
                          <circle id="cerchio_piccolo_150" cx="231.908" cy="1002.358" r="33.612"/>
	                  <use id="numero_piccolo_150" transform="matrix(0.25 0 0 0.25 191 928)"/>
                        </g>

			<g id="menu_link_138">
                          <use xlink:href="#link_138"/>
  			  <circle id="cerchio_piccolo_138" cx="571.352" cy="1002.358" r="33.612"/>
			  <use id="numero_piccolo_138" transform="matrix(0.25 0 0 0.25 528 928)"/>
                        </g>

			<g id="menu_link_162">
                          <use xlink:href="#link_162"/>
 			  <circle id="cerchio_piccolo_162" cx="401.63" cy="1002.358" r="33.612"/>
	                  <use id="numero_piccolo_162" transform="matrix(0.25 0 0 0.25 358 928)"/>
                        </g>

		</g>
    </g>
  </g>
<!--
  </defs>
  <g id="content"/>
-->

</svg>
