<?xml version="1.0" encoding="utf-8"?>
<!-- Generator: Adobe Illustrator 15.0.0, SVG Export Plug-In . SVG Version: 6.00 Build 0)  -->
<!DOCTYPE svg PUBLIC "-//W3C//DTD SVG 1.1//EN" "http://www.w3.org/Graphics/SVG/1.1/DTD/svg11.dtd" [
	<!ENTITY ns_extend "http://ns.adobe.com/Extensibility/1.0/">
	<!ENTITY ns_ai "http://ns.adobe.com/AdobeIllustrator/10.0/">
	<!ENTITY ns_graphs "http://ns.adobe.com/Graphs/1.0/">
	<!ENTITY ns_vars "http://ns.adobe.com/Variables/1.0/">
	<!ENTITY ns_imrep "http://ns.adobe.com/ImageReplacement/1.0/">
	<!ENTITY ns_sfw "http://ns.adobe.com/SaveForWeb/1.0/">
	<!ENTITY ns_custom "http://ns.adobe.com/GenericCustomNamespace/1.0/">
	<!ENTITY ns_adobe_xpath "http://ns.adobe.com/XPath/1.0/">
]>
<svg version="1.1" id="Layer_1" xmlns:x="&ns_extend;" xmlns:i="&ns_ai;" xmlns:graph="&ns_graphs;"
	 xmlns="http://www.w3.org/2000/svg" xmlns:xlink="http://www.w3.org/1999/xlink" x="0px" y="0px" width="1920px" height="1080px"
	 viewBox="0 0 1920 1080" enable-background="new 0 0 1920 1080" xml:space="preserve">

	<g id="bg">
		<rect id="bg_2_" x="0" y="1.979" fill="#F0EFEF" width="1920" height="1078.021"/>
		<rect id="sfondo_footer_1_" x="-0.001" y="937.439" fill="#BBBBBB" width="1920.001" height="142.561"/>
	</g>
		
	<image overflow="visible" width="686" height="164" id="pallet" xlink:href="pallet.png"  transform="translate(894.2148 721.8936)"/>

	<g id="cerchio_2_">
		<g id="cerchio_3_">
			<image overflow="visible" opacity="0.63" enable-background="new    " width="572" height="598" xlink:href="../../138 svg/EE12B3EA.png"  transform="matrix(0.6044 0 0 0.6045 231.2842 221.8154)"/>
			<g>
				<ellipse fill="#70E00E" cx="403.94" cy="402.363" rx="152.8" ry="160.373"/>
			</g>
		</g>
	</g>

	<g id="numeri">
			<g id="_x33_2_1_">
				<path fill="#FFFFFF" d="M308.812,456.707c10.918,2.503,22.064,3.642,33.209,3.642c21.383,0,29.116-5.007,29.116-19.563v-11.374
					c0-14.785-8.188-19.791-22.974-19.791h-31.162v-16.832h28.662c17.742,0,22.747-6.824,22.747-18.879v-13.193
					c0-13.647-6.37-18.196-24.569-18.196c-10.236,0-21.609,1.364-32.072,3.411l-2.048-16.149c9.553-2.275,22.746-4.095,34.576-4.095
					c32.074,0,43.218,11.146,43.218,32.301v13.422c0,13.875-3.183,22.52-17.286,29.344c12.511,3.64,20.019,10.69,20.019,27.07
					v14.783c0,23.659-14.104,34.577-48.225,34.577c-10.918,0-25.704-1.365-35.259-4.549L308.812,456.707z"/>
				<path fill="#FFFFFF" d="M417.541,457.39c16.833-19.106,21.154-24.11,39.126-45.267c23.201-27.522,24.792-33.439,24.792-44.129
					v-6.599c0-14.329-3.866-18.65-26.842-18.65c-10.69,0-25.021,2.502-33.665,5.004l-2.73-16.379
					c9.781-2.957,24.793-5.687,37.988-5.687c35.032,0,44.357,12.283,44.357,35.485c0,0.908,0,4.094,0,5.003
					c0,17.971-3.185,25.705-25.932,52.773c-16.378,19.563-18.652,22.52-33.438,39.125h60.734v16.832h-84.393V457.39z"/>
			</g>
			<g id="_x33_1_1_" display="none">
				<path display="inline" fill="#FFFFFF" d="M308.812,456.707c10.918,2.503,22.064,3.642,33.209,3.642
					c21.383,0,29.116-5.007,29.116-19.563v-11.374c0-14.785-8.188-19.791-22.974-19.791h-31.162v-16.832h28.662
					c17.742,0,22.747-6.824,22.747-18.879v-13.193c0-13.647-6.37-18.196-24.569-18.196c-10.236,0-21.609,1.364-32.072,3.411
					l-2.048-16.149c9.553-2.275,22.746-4.095,34.576-4.095c32.074,0,43.218,11.146,43.218,32.301v13.422
					c0,13.875-3.183,22.52-17.286,29.344c12.511,3.64,20.019,10.69,20.019,27.07v14.783c0,23.659-14.104,34.577-48.225,34.577
					c-10.918,0-25.704-1.365-35.259-4.549L308.812,456.707z"/>
				<path display="inline" fill="#FFFFFF" d="M415.038,366.174l-8.416-15.24l39.807-22.975h17.06v146.946h-19.108V349.797
					L415.038,366.174z"/>
			</g>
			<g id="_x33_0_1_" display="none">
				<path display="inline" fill="#FFFFFF" d="M308.812,456.707c10.918,2.503,22.064,3.642,33.209,3.642
					c21.383,0,29.116-5.007,29.116-19.563v-11.374c0-14.785-8.188-19.791-22.974-19.791h-31.162v-16.832h28.662
					c17.742,0,22.747-6.824,22.747-18.879v-13.193c0-13.647-6.37-18.196-24.569-18.196c-10.236,0-21.609,1.364-32.072,3.411
					l-2.048-16.149c9.553-2.275,22.746-4.095,34.576-4.095c32.074,0,43.218,11.146,43.218,32.301v13.422
					c0,13.875-3.183,22.52-17.286,29.344c12.511,3.64,20.019,10.69,20.019,27.07v14.783c0,23.659-14.104,34.577-48.225,34.577
					c-10.918,0-25.704-1.365-35.259-4.549L308.812,456.707z"/>
				<path display="inline" fill="#FFFFFF" d="M515.807,437.828c0,22.747-11.601,39.353-46.857,39.353
					c-35.259,0-46.86-16.604-46.86-39.353v-72.791c0-22.746,11.601-39.352,46.86-39.352c35.257,0,46.857,16.604,46.857,39.352
					V437.828L515.807,437.828z M468.95,342.518c-20.928,0-27.752,7.961-27.752,24.566v68.696c0,16.604,6.824,24.565,27.752,24.565
					c20.926,0,27.753-7.962,27.753-24.565v-68.696C496.701,350.479,489.875,342.518,468.95,342.518z"/>
			</g>
			<g id="_x32_9_1_" display="none">
				<path display="inline" fill="#FFFFFF" d="M306.764,457.39c16.833-19.106,21.154-24.11,39.126-45.267
					c23.201-27.522,24.793-33.439,24.793-44.129v-6.599c0-14.329-3.867-18.65-26.843-18.65c-10.69,0-25.021,2.502-33.665,5.004
					l-2.729-16.379c9.781-2.957,24.793-5.687,37.988-5.687c35.031,0,44.357,12.283,44.357,35.485c0,0.908,0,4.094,0,5.003
					c0,17.971-3.185,25.705-25.931,52.773c-16.379,19.563-18.653,22.52-33.438,39.125h60.734v16.832h-84.394V457.39z"/>
				<path display="inline" fill="#FFFFFF" d="M487.601,406.891c-7.507,2.73-20.245,5.232-30.255,5.232
					c-28.888,0-38.896-12.056-38.896-36.168v-7.279c0-26.613,7.96-42.99,43.674-42.99c32.757,0,44.358,14.33,44.358,35.714v64.373
					c0,37.762-16.833,51.408-59.598,51.408c-7.052,0-17.743-0.908-25.023-2.729l1.82-15.926c5.459,1.138,14.786,2.049,20.245,2.049
					c35.257,0,43.675-7.507,43.675-35.032V406.891z M487.601,389.377v-25.933c0-16.151-8.188-20.927-25.477-20.927
					c-19.562,0-24.794,5.914-24.794,20.927v12.509c0,13.877,5.233,19.564,21.837,19.564
					C469.176,395.518,480.093,392.563,487.601,389.377z"/>
			</g>
			<g id="_x32_8_1_" display="none">
				<g display="inline" enable-background="new    ">
					<path fill="#F5F6F6" d="M304.603,457.355c16.319-18.953,20.512-23.918,37.937-44.902
						c22.499-27.301,24.042-33.168,24.042-43.774v-6.544c0-14.214-3.749-18.502-26.026-18.502c-10.367,0-24.263,2.483-32.643,4.963
						l-2.648-16.245c9.484-2.933,24.042-5.642,36.834-5.642c33.966,0,43.009,12.186,43.009,35.2c0,0.903,0,4.062,0,4.966
						c0,17.824-3.087,25.497-25.146,52.346c-15.88,19.405-18.086,22.342-32.422,38.813h58.891v16.697h-81.829v-17.375H304.603z"/>
					<path fill="#F5F6F6" d="M479.729,400.27c20.071,9.477,26.688,18.955,26.688,34.298v6.543c0,25.273-13.236,35.878-45.657,35.878
						c-32.643,0-45.657-10.604-45.657-35.878v-6.543c0-15.343,6.397-24.821,26.028-34.298c-17.646-8.8-22.278-18.051-22.278-32.268
						v-5.865c0-20.533,9.925-35.426,41.91-35.426c31.761,0,41.907,14.893,41.907,35.426v5.865
						C502.667,382.219,497.815,391.47,479.729,400.27z M460.759,408.844c-22.276,9.249-27.569,13.539-27.569,26.398v5.191
						c0,15.344,7.057,20.306,27.569,20.306c20.292,0,27.57-4.962,27.57-20.306v-5.191
						C488.33,422.383,482.816,418.093,460.759,408.844z M460.759,392.598c18.967-7.896,23.82-12.635,23.82-24.141v-7.221
						c0-11.734-5.513-18.505-23.82-18.505c-18.527,0-23.821,6.771-23.821,18.505v7.221
						C436.938,379.963,441.792,384.701,460.759,392.598z"/>
				</g>
			</g>
			<g id="_x32_7_1_" display="none">
				<g display="inline" enable-background="new    ">
					<path fill="#F5F6F6" d="M310.118,457.355c16.32-18.953,20.511-23.918,37.936-44.902c22.499-27.301,24.042-33.168,24.042-43.774
						v-6.544c0-14.214-3.749-18.502-26.026-18.502c-10.367,0-24.263,2.483-32.643,4.963l-2.647-16.245
						c9.484-2.933,24.042-5.642,36.835-5.642c33.966,0,43.008,12.186,43.008,35.2c0,0.903,0,4.062,0,4.966
						c0,17.824-3.087,25.497-25.145,52.346c-15.881,19.405-18.086,22.342-32.422,38.813h58.89v16.697h-81.829v-17.375H310.118z"/>
					<path fill="#F5F6F6" d="M413.336,328.967h87.567v16.023L442.23,474.734h-18.747l58.446-129.068h-68.595v-16.699H413.336z"/>
				</g>
			</g>
			<g id="_x32_6_1_" display="none">
				<g display="inline" enable-background="new    ">
					<path fill="#F5F6F6" d="M307.029,457.355c16.319-18.953,20.512-23.918,37.937-44.902
						c22.499-27.301,24.042-33.168,24.042-43.774v-6.544c0-14.214-3.75-18.502-26.026-18.502c-10.367,0-24.263,2.483-32.643,4.963
						l-2.648-16.245c9.484-2.933,24.042-5.642,36.834-5.642c33.966,0,43.01,12.186,43.01,35.2c0,0.903,0,4.062,0,4.966
						c0,17.824-3.088,25.497-25.147,52.346c-15.88,19.405-18.086,22.342-32.422,38.813h58.891v16.697h-81.829v-17.375H307.029z"/>
					<path fill="#F5F6F6" d="M436.938,396.434c7.279-2.708,19.63-5.189,29.334-5.189c28.013,0,37.717,11.959,37.717,35.878v7.222
						c0,26.396-7.057,42.646-42.348,42.646c-31.762,0-43.01-13.54-43.01-34.751v-64.534c0-37.455,16.32-50.994,57.785-50.994
						c6.84,0,17.208,0.902,24.263,2.709l-1.986,15.793c-5.293-1.129-14.117-2.031-19.407-2.031c-34.187,0-42.35,7.447-42.35,34.748
						V396.434z M436.938,413.808v25.723c0,16.024,7.94,20.762,24.704,20.762c18.967,0,24.042-5.866,24.042-20.762v-12.408
						c0-13.767-5.073-19.405-21.177-19.405C454.803,407.717,444.219,410.65,436.938,413.808z"/>
				</g>
			</g>
			<g id="_x32_5_1_" display="none">
				<g display="inline" enable-background="new    ">
					<path fill="#F5F6F6" d="M309.896,457.355c16.322-18.953,20.513-23.918,37.939-44.902
						c22.495-27.301,24.039-33.168,24.039-43.774v-6.544c0-14.214-3.749-18.502-26.026-18.502c-10.367,0-24.262,2.483-32.643,4.963
						l-2.647-16.245c9.484-2.933,24.042-5.642,36.834-5.642c33.97,0,43.01,12.186,43.01,35.2c0,0.903,0,4.062,0,4.966
						c0,17.824-3.088,25.497-25.145,52.346c-15.879,19.405-18.088,22.342-32.424,38.813h58.892v16.697h-81.832L309.896,457.355
						L309.896,457.355z"/>
					<path fill="#F5F6F6" d="M424.367,328.967h74.993v16.698h-56.467v46.257c9.266,0.227,13.675,0.227,23.603,0.676
						c26.247,1.128,34.626,14.215,34.626,33.846v13.089c0,23.918-10.146,37.458-45.215,37.458c-11.028,0-25.806-1.353-37.052-5.19
						l1.984-15.343c11.027,2.71,24.262,3.837,34.849,3.837c22.059,0,26.912-5.867,26.912-21.889v-9.927
						c0-13.539-4.414-19.18-22.719-19.633c-14.778-0.449-24.482-0.449-35.511-0.676L424.367,328.967L424.367,328.967z"/>
				</g>
			</g>
			<g id="_x32_4_1_" display="none">
				<g display="inline" enable-background="new    ">
					<path fill="#F5F6F6" d="M305.152,457.355c16.323-18.953,20.513-23.918,37.937-44.902
						c22.498-27.301,24.042-33.168,24.042-43.774v-6.544c0-14.214-3.75-18.502-26.026-18.502c-10.367,0-24.263,2.483-32.643,4.963
						l-2.648-16.245c9.484-2.933,24.042-5.642,36.834-5.642c33.967,0,43.01,12.186,43.01,35.2c0,0.903,0,4.062,0,4.966
						c0,17.824-3.088,25.497-25.145,52.346c-15.88,19.405-18.089,22.342-32.425,38.813h58.889v16.697H305.15L305.152,457.355
						L305.152,457.355z"/>
					<path fill="#F5F6F6" d="M485.354,438.854v35.879h-18.527v-35.879h-67.932v-18.727l61.534-91.16h24.924v93.643h20.512v16.244
						H485.354z M466.827,422.609v-74.462l-49.625,74.462H466.827z"/>
				</g>
			</g>
			<g id="_x32_3_1_" display="none">
				<g display="inline" enable-background="new    ">
					<path fill="#F5F6F6" d="M310.889,457.355c16.32-18.953,20.512-23.918,37.937-44.902c22.498-27.301,24.042-33.168,24.042-43.774
						v-6.544c0-14.214-3.75-18.502-26.025-18.502c-10.367,0-24.263,2.483-32.643,4.963l-2.648-16.245
						c9.484-2.933,24.042-5.642,36.834-5.642c33.967,0,43.011,12.186,43.011,35.2c0,0.903,0,4.062,0,4.966
						c0,17.824-3.087,25.497-25.147,52.346c-15.879,19.405-18.086,22.342-32.423,38.813h58.891v16.697h-81.829v-17.375H310.889z"/>
					<path fill="#F5F6F6" d="M421.168,456.681c10.584,2.482,21.396,3.611,32.199,3.611c20.732,0,28.232-4.965,28.232-19.405v-11.281
						c0-14.668-7.939-19.633-22.275-19.633h-30.218v-16.696h27.791c17.202,0,22.055-6.771,22.055-18.728v-13.086
						c0-13.539-6.176-18.053-23.82-18.053c-9.925,0-20.953,1.354-31.099,3.385l-1.987-16.02c9.266-2.258,22.06-4.063,33.525-4.063
						c31.101,0,41.91,11.058,41.91,32.042v13.313c0,13.765-3.087,22.34-16.762,29.106c12.131,3.612,19.41,10.606,19.41,26.851
						v14.668c0,23.466-13.676,34.299-46.763,34.299c-10.587,0-24.924-1.354-34.187-4.514L421.168,456.681z"/>
				</g>
			</g>
			<g id="_x32_2_1_" display="none">
				<g display="inline" enable-background="new    ">
					<path fill="#F5F6F6" d="M311,457.355c16.318-18.953,20.511-23.918,37.937-44.902c22.498-27.301,24.042-33.168,24.042-43.774
						v-6.544c0-14.214-3.75-18.502-26.026-18.502c-10.367,0-24.263,2.483-32.643,4.963l-2.647-16.245
						c9.483-2.933,24.042-5.642,36.834-5.642c33.966,0,43.009,12.186,43.009,35.2c0,0.903,0,4.062,0,4.966
						c0,17.824-3.087,25.497-25.147,52.346c-15.879,19.405-18.085,22.342-32.423,38.813h58.891v16.697h-81.829L311,457.355
						L311,457.355z"/>
					<path fill="#F5F6F6" d="M418.19,457.355c16.321-18.953,20.515-23.918,37.939-44.902c22.499-27.301,24.042-33.168,24.042-43.774
						v-6.544c0-14.214-3.752-18.502-26.028-18.502c-10.367,0-24.26,2.483-32.643,4.963l-2.646-16.245
						c9.486-2.933,24.042-5.642,36.833-5.642c33.969,0,43.009,12.186,43.009,35.2c0,0.903,0,4.062,0,4.966
						c0,17.824-3.088,25.497-25.144,52.346c-15.88,19.405-18.086,22.342-32.423,38.813h58.891v16.697h-81.832L418.19,457.355
						L418.19,457.355z"/>
				</g>
			</g>
			<g id="_x32_1_1_" display="none">
				<g display="inline" enable-background="new    ">
					<path fill="#F5F6F6" d="M328.753,457.355c16.323-18.953,20.514-23.918,37.939-44.902
						c22.498-27.301,24.042-33.168,24.042-43.774v-6.544c0-14.214-3.752-18.502-26.029-18.502c-10.367,0-24.26,2.483-32.643,4.963
						l-2.645-16.245c9.484-2.933,24.04-5.642,36.832-5.642c33.97,0,43.012,12.186,43.012,35.2c0,0.903,0,4.062,0,4.966
						c0,17.824-3.09,25.497-25.147,52.346c-15.879,19.405-18.085,22.342-32.422,38.813h58.89v16.697h-81.832v-17.377h0.004V457.355z
						"/>
					<path fill="#F5F6F6" d="M435.284,366.876l-8.161-15.117l38.599-22.79h16.542v145.766h-18.527V350.631L435.284,366.876z"/>
				</g>
			</g>
			<g id="_x32_0_1_" display="none">
				<g display="inline" enable-background="new    ">
					<path fill="#F5F6F6" d="M304.272,457.355c16.321-18.953,20.513-23.918,37.939-44.902c22.496-27.301,24.04-33.168,24.04-43.774
						v-6.544c0-14.214-3.75-18.502-26.026-18.502c-10.366,0-24.26,2.483-32.643,4.963l-2.647-16.245
						c9.483-2.933,24.042-5.642,36.833-5.642c33.969,0,43.01,12.186,43.01,35.2c0,0.903,0,4.062,0,4.966
						c0,17.824-3.088,25.497-25.145,52.346c-15.879,19.405-18.089,22.342-32.426,38.813h58.894v16.697H304.27L304.272,457.355
						L304.272,457.355z"/>
					<path fill="#F5F6F6" d="M506.748,437.952c0,22.565-11.249,39.036-45.437,39.036c-34.187,0-45.437-16.471-45.437-39.036v-72.206
						c0-22.564,11.25-39.037,45.437-39.037c34.188,0,45.437,16.473,45.437,39.037V437.952z M461.311,343.408
						c-20.289,0-26.909,7.897-26.909,24.371v68.142c0,16.473,6.617,24.373,26.909,24.373c20.293,0,26.912-7.897,26.912-24.373
						v-68.142C488.221,351.306,481.603,343.408,461.311,343.408z"/>
				</g>
			</g>
			<g id="_x31_9_1_" display="none">
				<g display="inline" enable-background="new    ">
					<path fill="#F5F6F6" d="M327.432,366.876l-8.162-15.117l38.598-22.79h16.542v145.766h-18.527V350.631L327.432,366.876z"/>
					<path fill="#F5F6F6" d="M473.442,407.266c-7.279,2.706-19.63,5.188-29.335,5.188c-28.011,0-37.716-11.961-37.716-35.875v-7.222
						c0-26.4,7.719-42.647,42.349-42.647c31.762,0,43.01,14.217,43.01,35.426v63.858c0,37.457-16.32,50.995-57.786,50.995
						c-6.839,0-17.207-0.905-24.263-2.709l1.765-15.795c5.292,1.129,14.336,2.034,19.63,2.034c34.186,0,42.348-7.448,42.348-34.749
						v-18.504H473.442z M473.442,389.893v-25.728c0-16.021-7.94-20.757-24.703-20.757c-18.969,0-24.042,5.865-24.042,20.757v12.411
						c0,13.764,5.073,19.402,21.176,19.402C455.576,395.982,466.163,393.049,473.442,389.893z"/>
				</g>
			</g>
			<g id="_x31_8_1_" display="none">
				<g display="inline" enable-background="new    ">
					<path fill="#F5F6F6" d="M323.351,366.876l-8.158-15.117l38.596-22.79h16.542v145.766h-18.527V350.631L323.351,366.876z"/>
					<path fill="#F5F6F6" d="M469.141,400.27c20.071,9.477,26.688,18.955,26.688,34.298v6.543c0,25.273-13.234,35.878-45.657,35.878
						c-32.643,0-45.657-10.604-45.657-35.878v-6.543c0-15.343,6.398-24.821,26.029-34.298c-17.646-8.8-22.277-18.051-22.277-32.268
						v-5.865c0-20.533,9.923-35.426,41.907-35.426c31.762,0,41.909,14.893,41.909,35.426v5.865
						C492.081,382.219,487.229,391.47,469.141,400.27z M450.173,408.844c-22.277,9.249-27.57,13.539-27.57,26.398v5.191
						c0,15.344,7.057,20.306,27.57,20.306c20.292,0,27.573-4.962,27.573-20.306v-5.191
						C477.744,422.383,472.23,418.093,450.173,408.844z M450.173,392.598c18.968-7.896,23.82-12.635,23.82-24.141v-7.221
						c0-11.734-5.513-18.505-23.82-18.505c-18.527,0-23.822,6.771-23.822,18.505v7.221
						C426.352,379.963,431.205,384.701,450.173,392.598z"/>
				</g>
			</g>
			<g id="_x31_7_1_" display="none">
				<g display="inline" enable-background="new    ">
					<path fill="#F5F6F6" d="M327.981,366.876l-8.158-15.117l38.596-22.79h16.545v145.766h-18.528V350.631L327.981,366.876z"/>
					<path fill="#F5F6F6" d="M403.633,328.967h87.564v16.023l-58.673,129.744h-18.748l58.448-129.068h-68.595L403.633,328.967
						L403.633,328.967z"/>
				</g>
			</g>
			<g id="_x31_6_1_" display="none">
				<g display="inline" enable-background="new    ">
					<path fill="#F5F6F6" d="M325.776,366.876l-8.16-15.117l38.599-22.79h16.542v145.766h-18.525V350.631L325.776,366.876z"/>
					<path fill="#F5F6F6" d="M426.352,396.434c7.28-2.708,19.63-5.189,29.335-5.189c28.011,0,37.717,11.959,37.717,35.878v7.222
						c0,26.396-7.058,42.646-42.348,42.646c-31.761,0-43.01-13.54-43.01-34.751v-64.534c0-37.455,16.321-50.994,57.789-50.994
						c6.837,0,17.203,0.902,24.26,2.709l-1.984,15.793c-5.295-1.129-14.118-2.031-19.411-2.031
						c-34.186,0-42.348,7.447-42.348,34.748L426.352,396.434L426.352,396.434z M426.352,413.808v25.723
						c0,16.024,7.94,20.762,24.704,20.762c18.967,0,24.042-5.866,24.042-20.762v-12.408c0-13.767-5.073-19.405-21.174-19.405
						C444.219,407.717,433.63,410.65,426.352,413.808z"/>
				</g>
			</g>
			<g id="_x31_5_1_" display="none">
				<g display="inline" enable-background="new    ">
					<path fill="#F5F6F6" d="M328.645,366.876l-8.161-15.117l38.596-22.79h16.544v145.766h-18.527V350.631L328.645,366.876z"/>
					<path fill="#F5F6F6" d="M413.779,328.967h74.992v16.698h-56.464v46.257c9.263,0.227,13.673,0.227,23.601,0.676
						c26.247,1.128,34.628,14.215,34.628,33.846v13.089c0,23.918-10.149,37.458-45.219,37.458c-11.027,0-25.804-1.353-37.052-5.19
						l1.984-15.343c11.027,2.71,24.263,3.837,34.852,3.837c22.055,0,26.907-5.867,26.907-21.889v-9.927
						c0-13.539-4.414-19.18-22.717-19.633c-14.777-0.449-24.482-0.449-35.511-0.676V328.967L413.779,328.967z"/>
				</g>
			</g>
			<g id="_x31_4_1_" display="none">
				<g display="inline" enable-background="new    ">
					<path fill="#F5F6F6" d="M320.263,366.876l-8.161-15.117l38.599-22.79h16.542v145.766h-18.527V350.631L320.263,366.876z"/>
					<path fill="#F5F6F6" d="M478.405,438.854v35.879h-18.527v-35.879h-67.935v-18.727l61.539-91.16h24.923v93.643h20.512v16.244
						H478.405z M459.878,422.609v-74.462l-49.628,74.462H459.878z"/>
				</g>
			</g>
			<g id="_x31_3_1_" display="none">
				<g display="inline" enable-background="new    ">
					<path fill="#F5F6F6" d="M330.188,366.876l-8.16-15.117l38.599-22.79h16.542v145.766h-18.527V350.631L330.188,366.876z"/>
					<path fill="#F5F6F6" d="M410.031,456.681c10.584,2.482,21.394,3.611,32.2,3.611c20.732,0,28.232-4.965,28.232-19.405v-11.281
						c0-14.668-7.94-19.633-22.275-19.633h-30.218v-16.696h27.791c17.203,0,22.056-6.771,22.056-18.728v-13.086
						c0-13.539-6.175-18.053-23.821-18.053c-9.925,0-20.954,1.354-31.099,3.385l-1.986-16.02c9.266-2.258,22.058-4.063,33.526-4.063
						c31.099,0,41.91,11.058,41.91,32.042v13.313c0,13.765-3.087,22.34-16.763,29.106c12.131,3.612,19.41,10.606,19.41,26.851
						v14.668c0,23.466-13.675,34.299-46.762,34.299c-10.588,0-24.923-1.354-34.187-4.514L410.031,456.681z"/>
				</g>
			</g>
			<g id="_x31_2_1_" display="none">
				<g display="inline" enable-background="new    ">
					<path fill="#F5F6F6" d="M329.747,366.876l-8.161-15.117l38.599-22.79h16.542v145.766h-18.525V350.631L329.747,366.876z"/>
					<path fill="#F5F6F6" d="M407.604,457.355c16.32-18.953,20.513-23.918,37.937-44.902c22.498-27.301,24.042-33.168,24.042-43.774
						v-6.544c0-14.214-3.749-18.502-26.026-18.502c-10.367,0-24.261,2.483-32.646,4.963l-2.644-16.245
						c9.483-2.933,24.042-5.642,36.834-5.642c33.966,0,43.009,12.186,43.009,35.2c0,0.903,0,4.062,0,4.966
						c0,17.824-3.088,25.497-25.147,52.346c-15.879,19.405-18.086,22.342-32.422,38.813h58.891v16.697h-81.828V457.355z"/>
				</g>
			</g>
			<g id="_x31_1_1_" display="none">
				<g display="inline" enable-background="new    ">
					<path fill="#F5F6F6" d="M339.156,366.876l-8.161-15.117l38.599-22.79h16.542v145.766h-18.528V350.631L339.156,366.876z"/>
					<path fill="#F5F6F6" d="M416.35,366.876l-8.16-15.117l38.599-22.79h16.542v145.766h-18.525V350.631L416.35,366.876z"/>
				</g>
			</g>
			<g id="_x31_0_1_" display="none">
				<g display="inline" enable-background="new    ">
					<path fill="#F5F6F6" d="M323.02,366.876l-8.162-15.117l38.596-22.79h16.544v145.766h-18.527V350.631L323.02,366.876z"/>
					<path fill="#F5F6F6" d="M496.161,437.952c0,22.565-11.249,39.036-45.435,39.036c-34.189,0-45.437-16.471-45.437-39.036v-72.206
						c0-22.564,11.247-39.037,45.437-39.037c34.187,0,45.435,16.473,45.435,39.037V437.952z M450.725,343.408
						c-20.292,0-26.912,7.897-26.912,24.371v68.142c0,16.473,6.617,24.373,26.912,24.373c20.289,0,26.907-7.897,26.907-24.373
						v-68.142C477.632,351.306,471.015,343.408,450.725,343.408z"/>
				</g>
			</g>
			<g id="_x39__1_" display="none">
				<g display="inline" enable-background="new    ">
					<path fill="#F5F6F6" d="M429.882,407.266c-7.279,2.706-19.632,5.188-29.337,5.188c-28.008,0-37.714-11.961-37.714-35.875
						v-7.222c0-26.4,7.719-42.647,42.349-42.647c31.761,0,43.01,14.217,43.01,35.426v63.858c0,37.457-16.322,50.995-57.787,50.995
						c-6.838,0-17.205-0.905-24.261-2.709l1.762-15.795c5.297,1.129,14.336,2.034,19.633,2.034c34.186,0,42.349-7.448,42.349-34.749
						L429.882,407.266L429.882,407.266z M429.882,389.893v-25.728c0-16.021-7.939-20.757-24.702-20.757
						c-18.972,0-24.042,5.865-24.042,20.757v12.411c0,13.764,5.07,19.402,21.173,19.402
						C412.017,395.982,422.604,393.049,429.882,389.893z"/>
				</g>
			</g>
			<g id="_x38__1_" display="none">
				<g display="inline" enable-background="new    ">
					<path fill="#F5F6F6" d="M424.478,400.27c20.071,9.477,26.688,18.955,26.688,34.298v6.543c0,25.273-13.234,35.878-45.657,35.878
						c-32.643,0-45.657-10.604-45.657-35.878v-6.543c0-15.343,6.397-24.821,26.028-34.298c-17.646-8.8-22.275-18.051-22.275-32.268
						v-5.865c0-20.533,9.922-35.426,41.907-35.426c31.761,0,41.91,14.893,41.91,35.426v5.865
						C447.417,382.219,442.564,391.47,424.478,400.27z M405.51,408.844c-22.277,9.249-27.571,13.539-27.571,26.398v5.191
						c0,15.344,7.058,20.306,27.571,20.306c20.292,0,27.573-4.962,27.573-20.306v-5.191
						C433.08,422.383,427.567,418.093,405.51,408.844z M405.51,392.598c18.968-7.896,23.82-12.635,23.82-24.141v-7.221
						c0-11.734-5.515-18.505-23.82-18.505c-18.527,0-23.821,6.771-23.821,18.505v7.221
						C381.689,379.963,386.541,384.701,405.51,392.598z"/>
				</g>
			</g>
			<g id="_x37__1_" display="none">
				<g display="inline" enable-background="new    ">
					<path fill="#F5F6F6" d="M361.728,328.967h87.563v16.023l-58.67,129.744h-18.75l58.45-129.068h-68.596L361.728,328.967
						L361.728,328.967z"/>
				</g>
			</g>
			<g id="_x36__1_" display="none">
				<g display="inline" enable-background="new    ">
					<path fill="#F5F6F6" d="M381.138,396.434c7.279-2.708,19.63-5.189,29.334-5.189c28.011,0,37.716,11.959,37.716,35.878v7.222
						c0,26.396-7.057,42.646-42.349,42.646c-31.761,0-43.009-13.54-43.009-34.751v-64.534c0-37.455,16.32-50.994,57.785-50.994
						c6.84,0,17.208,0.902,24.263,2.709l-1.985,15.793c-5.294-1.129-14.115-2.031-19.408-2.031
						c-34.187,0-42.349,7.447-42.349,34.748L381.138,396.434L381.138,396.434z M381.138,413.808v25.723
						c0,16.024,7.939,20.762,24.703,20.762c18.968,0,24.042-5.866,24.042-20.762v-12.408c0-13.767-5.073-19.405-21.176-19.405
						C399.001,407.717,388.417,410.65,381.138,413.808z"/>
				</g>
			</g>
			<g id="_x35__1_" display="none">
				<g display="inline" enable-background="new    ">
					<path fill="#F5F6F6" d="M369.888,328.967h74.991v16.698h-56.463v46.257c9.262,0.227,13.675,0.227,23.601,0.676
						c26.247,1.128,34.627,14.215,34.627,33.846v13.089c0,23.918-10.149,37.458-45.218,37.458c-11.028,0-25.804-1.353-37.052-5.19
						l1.984-15.343c11.027,2.71,24.263,3.837,34.851,3.837c22.056,0,26.908-5.867,26.908-21.889v-9.927
						c0-13.539-4.414-19.18-22.717-19.633c-14.778-0.449-24.482-0.449-35.511-0.676V328.967L369.888,328.967z"/>
				</g>
			</g>
			<g id="_x34__1_" display="none">
				<g display="inline" enable-background="new    ">
					<path fill="#F5F6F6" d="M438.483,438.854v35.879h-18.528v-35.879h-67.934v-18.727l61.539-91.16h24.923v93.643h20.513v16.244
						H438.483z M419.956,422.609v-74.462l-49.626,74.462H419.956z"/>
				</g>
			</g>
			<g id="_x33__1_" display="none">
				<g display="inline" enable-background="new    ">
					<path fill="#F5F6F6" d="M367.02,456.681c10.587,2.482,21.397,3.611,32.203,3.611c20.732,0,28.232-4.965,28.232-19.405v-11.281
						c0-14.668-7.94-19.633-22.276-19.633h-30.216v-16.696h27.791c17.203,0,22.056-6.771,22.056-18.728v-13.086
						c0-13.539-6.176-18.053-23.82-18.053c-9.925,0-20.954,1.354-31.099,3.385l-1.986-16.02c9.266-2.258,22.06-4.063,33.526-4.063
						c31.099,0,41.91,11.058,41.91,32.042v13.313c0,13.765-3.088,22.34-16.763,29.106c12.131,3.612,19.411,10.606,19.411,26.851
						v14.668c0,23.466-13.676,34.299-46.763,34.299c-10.587,0-24.923-1.354-34.187-4.514L367.02,456.681z"/>
				</g>
			</g>
			<g id="_x32__1_" display="none">
				<g display="inline" enable-background="new    ">
					<path fill="#F5F6F6" d="M364.596,457.355c16.32-18.953,20.513-23.918,37.937-44.902c22.498-27.301,24.042-33.168,24.042-43.774
						v-6.544c0-14.214-3.748-18.502-26.029-18.502c-10.367,0-24.26,2.483-32.643,4.963l-2.644-16.245
						c9.484-2.933,24.042-5.642,36.834-5.642c33.965,0,43.009,12.186,43.009,35.2c0,0.903,0,4.062,0,4.966
						c0,17.824-3.087,25.497-25.147,52.346c-15.879,19.405-18.085,22.342-32.421,38.813h58.891v16.697h-81.829V457.355
						L364.596,457.355z"/>
				</g>
			</g>
			<g id="_x31__1_" display="none">
				<g display="inline" enable-background="new    ">
					<path fill="#F5F6F6" d="M369.409,366.876l-8.162-15.117l38.598-22.79h16.542v145.766H397.86V350.631L369.409,366.876z"/>
				</g>
			</g>
			<g id="_x30__1_" display="none">
				<path display="inline" fill="#F5F6F6" d="M452.872,439.078c0,22.747-11.601,39.354-46.858,39.354
					c-35.258,0-46.859-16.605-46.859-39.354v-72.791c0-22.746,11.601-39.353,46.859-39.353c35.257,0,46.858,16.604,46.858,39.353
					V439.078z M406.013,343.768c-20.928,0-27.753,7.96-27.753,24.566v68.694c0,16.604,6.824,24.567,27.753,24.567
					c20.928,0,27.752-7.963,27.752-24.567v-68.694C433.765,351.728,426.939,343.768,406.013,343.768z"/>
			</g>
	</g>

	<g id="pacchi"/>

	<g id="carrello_1_">
		<g>
			<linearGradient id="sfumatura_2_" gradientUnits="userSpaceOnUse" x1="217.5781" y1="449.3164" x2="217.5781" y2="763.1543" gradientTransform="matrix(1 0 0 1 182.2002 173.8008)">
				<stop  offset="0" style="stop-color:#FFFFFF;stop-opacity:0"/>
				<stop  offset="0.0118" style="stop-color:#FEFEFE;stop-opacity:0.0406"/>
				<stop  offset="0.1453" style="stop-color:#F3F3F3;stop-opacity:0.4976"/>
				<stop  offset="0.2921" style="stop-color:#F0EFEF"/>
			</linearGradient>
			<polygon id="sfumatura_1_" fill="url(#sfumatura_2_)" points="183.668,654.101 615.889,623.117 527.534,936.955 
					255.422,936.955 				"/>
			<g opacity="0.53">
				<image overflow="visible" enable-background="new    " width="546" height="174" xlink:href="../../138 svg/EE12B3E8.png"  transform="matrix(0.7392 0 0 0.7335 193.9263 807.1865)"/>
			</g>

			<g>
				<linearGradient id="SVGID_1_" gradientUnits="userSpaceOnUse" x1="2091.6255" y1="-6974.46" x2="2091.6255" y2="-6927.8906" gradientTransform="matrix(-1 0 0 -1 2558.1904 -6101.7188)">
					<stop  offset="0" style="stop-color:#0F0F0F"/>
					<stop  offset="0.0531" style="stop-color:#131313"/>
					<stop  offset="0.3335" style="stop-color:#212121"/>
					<stop  offset="0.5517" style="stop-color:#272626"/>
				</linearGradient>
				<path fill="url(#SVGID_1_)" d="M443.28,849.456c0,12.866,10.425,23.285,23.287,23.285c12.86,0,23.282-10.425,23.282-23.285
						s-10.422-23.284-23.282-23.284C453.703,826.17,443.28,836.593,443.28,849.456z"/>
					
				<linearGradient id="SVGID_2_" gradientUnits="userSpaceOnUse" x1="2091.6177" y1="-6974.46" x2="2091.6177" y2="-6946.334" gradientTransform="matrix(-1 0 0 -1 2558.1904 -6101.7188)">
					<stop  offset="0.5813" style="stop-color:#010101"/>
					<stop  offset="1" style="stop-color:#272626"/>
				</linearGradient>
				<path fill="url(#SVGID_2_)" d="M447.593,844.615c-0.397,1.552-0.629,3.175-0.629,4.841c0,10.825,8.778,19.602,19.603,19.602
						c10.826,0,19.602-8.774,19.602-19.602c0-1.673-0.232-3.289-0.626-4.841h3.808c0.327,1.564,0.508,3.184,0.508,4.841
						c0,12.866-10.427,23.285-23.284,23.285c-12.866,0-23.287-10.425-23.287-23.285c0-1.657,0.18-3.281,0.508-4.841H447.593z"/>
					
				<linearGradient id="SVGID_3_" gradientUnits="userSpaceOnUse" x1="2091.6216" y1="-6960.416" x2="2091.6216" y2="-6919.5273" gradientTransform="matrix(-1 0 0 -1 2558.1904 -6101.7188)">
					<stop  offset="0.4877" style="stop-color:#8B8A8A"/>
					<stop  offset="1" style="stop-color:#B3B3B3"/>
				</linearGradient>
				<path fill="url(#SVGID_3_)" d="M455.835,855.797c0,1.6,1.303,2.9,2.898,2.9h15.671c1.599,0,2.896-1.301,2.896-2.9v-35.09
						c0-1.593-1.298-2.898-2.896-2.898h-15.671c-1.595,0-2.898,1.306-2.898,2.898V855.797L455.835,855.797z"/>
				<linearGradient id="SVGID_4_" gradientUnits="userSpaceOnUse" x1="2091.6216" y1="-6959.2256" x2="2091.6216" y2="-6918.3359" gradientTransform="matrix(-1 0 0 -1 2558.1904 -6101.7188)">
					<stop  offset="0.2365" style="stop-color:#F1F0F0"/>
					<stop  offset="1" style="stop-color:#B3B3B3"/>
				</linearGradient>
				<path fill="url(#SVGID_4_)" d="M455.835,854.602c0,1.603,1.303,2.905,2.898,2.905h15.671c1.599,0,2.896-1.303,2.896-2.905
						v-35.085c0-1.601-1.298-2.899-2.896-2.899h-15.671c-1.595,0-2.898,1.299-2.898,2.899V854.602L455.835,854.602z"/>
				<path fill="#6F6F6F" d="M458.73,816.617h15.671c1.599,0,2.896,1.298,2.896,2.899v5.437h-21.467v-5.437
						C455.835,817.914,457.135,816.617,458.73,816.617z"/>
				<linearGradient id="SVGID_5_" gradientUnits="userSpaceOnUse" x1="2091.6216" y1="-6956.4111" x2="2091.6216" y2="-6945.9434" gradientTransform="matrix(-1 0 0 -1 2558.1904 -6101.7188)">
					<stop  offset="0.0887" style="stop-color:#010101"/>
					<stop  offset="1" style="stop-color:#4E4E4E"/>
				</linearGradient>
				<path fill="url(#SVGID_5_)" d="M461.337,849.456c0,2.896,2.341,5.236,5.231,5.236c2.886,0,5.231-2.341,5.231-5.236
						c0-2.887-2.343-5.231-5.231-5.231C463.679,844.225,461.337,846.569,461.337,849.456z"/>
					
				<linearGradient id="SVGID_6_" gradientUnits="userSpaceOnUse" x1="2091.6235" y1="-6955.5176" x2="2091.6235" y2="-6946.8281" gradientTransform="matrix(-1 0 0 -1 2558.1904 -6101.7188)">
					<stop  offset="0.0887" style="stop-color:#B3B3B3"/>
					<stop  offset="1" style="stop-color:#FFFFFF"/>
				</linearGradient>
				<circle fill="url(#SVGID_6_)" cx="466.567" cy="849.454" r="4.345"/>
			</g>
			<g>
					
						<linearGradient id="SVGID_7_" gradientUnits="userSpaceOnUse" x1="2247.436" y1="-6974.4609" x2="2247.436" y2="-6927.8848" gradientTransform="matrix(-1 0 0 -1 2558.1904 -6101.7188)">
						<stop  offset="0" style="stop-color:#0F0F0F"/>
						<stop  offset="0.0531" style="stop-color:#131313"/>
						<stop  offset="0.3335" style="stop-color:#212121"/>
						<stop  offset="0.5517" style="stop-color:#272626"/>
					</linearGradient>
					<circle fill="url(#SVGID_7_)" cx="310.754" cy="849.454" r="23.288"/>
					
						<linearGradient id="SVGID_8_" gradientUnits="userSpaceOnUse" x1="2247.4341" y1="-6974.46" x2="2247.4341" y2="-6946.334" gradientTransform="matrix(-1 0 0 -1 2558.1904 -6101.7188)">
						<stop  offset="0.5813" style="stop-color:#010101"/>
						<stop  offset="1" style="stop-color:#272626"/>
					</linearGradient>
					<path fill="url(#SVGID_8_)" d="M291.782,844.615c-0.399,1.552-0.629,3.175-0.629,4.841c0,10.825,8.774,19.602,19.603,19.602
						s19.601-8.774,19.601-19.602c0-1.673-0.232-3.289-0.627-4.841h3.805c0.335,1.564,0.508,3.184,0.508,4.841
						c0,12.866-10.427,23.285-23.285,23.285c-12.862,0-23.288-10.425-23.288-23.285c0-1.657,0.183-3.281,0.515-4.841H291.782z"/>
					
						<linearGradient id="SVGID_9_" gradientUnits="userSpaceOnUse" x1="2247.4341" y1="-6960.416" x2="2247.4341" y2="-6919.5273" gradientTransform="matrix(-1 0 0 -1 2558.1904 -6101.7188)">
						<stop  offset="0.4877" style="stop-color:#8B8A8A"/>
						<stop  offset="1" style="stop-color:#B3B3B3"/>
					</linearGradient>
					<path fill="url(#SVGID_9_)" d="M300.022,855.797c0,1.6,1.302,2.9,2.903,2.9h15.668c1.602,0,2.896-1.301,2.896-2.9v-35.09
						c0-1.593-1.294-2.898-2.896-2.898h-15.668c-1.601,0-2.903,1.306-2.903,2.898V855.797z"/>
					
						<linearGradient id="SVGID_10_" gradientUnits="userSpaceOnUse" x1="2247.4341" y1="-6959.2256" x2="2247.4341" y2="-6918.3359" gradientTransform="matrix(-1 0 0 -1 2558.1904 -6101.7188)">
						<stop  offset="0.2365" style="stop-color:#F1F0F0"/>
						<stop  offset="1" style="stop-color:#B3B3B3"/>
					</linearGradient>
					<path fill="url(#SVGID_10_)" d="M300.022,854.602c0,1.603,1.302,2.905,2.903,2.905h15.668c1.602,0,2.896-1.303,2.896-2.905
						v-35.085c0-1.601-1.294-2.899-2.896-2.899h-15.668c-1.601,0-2.903,1.299-2.903,2.899V854.602z"/>
					<path fill="#6F6F6F" d="M302.924,816.617h15.668c1.601,0,2.896,1.298,2.896,2.899v5.437h-21.465v-5.437
						C300.022,817.914,301.321,816.617,302.924,816.617z"/>
					
						<linearGradient id="SVGID_11_" gradientUnits="userSpaceOnUse" x1="2247.4331" y1="-6956.4111" x2="2247.4331" y2="-6945.9434" gradientTransform="matrix(-1 0 0 -1 2558.1904 -6101.7188)">
						<stop  offset="0.0887" style="stop-color:#010101"/>
						<stop  offset="1" style="stop-color:#4E4E4E"/>
					</linearGradient>
					<path fill="url(#SVGID_11_)" d="M305.521,849.456c0,2.896,2.342,5.236,5.235,5.236c2.89,0,5.235-2.341,5.235-5.236
						c0-2.887-2.345-5.231-5.235-5.231C307.864,844.225,305.521,846.569,305.521,849.456z"/>
					
						<linearGradient id="SVGID_12_" gradientUnits="userSpaceOnUse" x1="2247.4341" y1="-6955.5176" x2="2247.4341" y2="-6946.8281" gradientTransform="matrix(-1 0 0 -1 2558.1904 -6101.7188)">
						<stop  offset="0.0887" style="stop-color:#B3B3B3"/>
						<stop  offset="1" style="stop-color:#FFFFFF"/>
					</linearGradient>
					<circle fill="url(#SVGID_12_)" cx="310.757" cy="849.454" r="4.345"/>
				</g>
				<path fill="#929497" d="M487.243,777.242l68.742-166.164l32.787-11.821c-1.107,3.939-3.92,7.366-7.984,9.075l-19.441,8.188
					L491.98,788.615L487.243,777.242z"/>
				<path fill="#818181" d="M500.132,637.074l6.617,6.625l-11.601,11.598l-11.602-11.598l5.545-5.545l-28.315,2.761l2.789,2.782
					l-11.602,11.601l-11.601-11.601l0.873-0.879l-22.145,2.163l-10.316,10.31l-8.475-8.479l-29.072,2.845l-5.631,5.635l-4.639-4.632
					l-37.58,3.663l-0.97,0.969l-0.79-0.799l-18.212,1.781l9.008,9.016l-11.6,11.594l-11.601-11.599l8.453-8.454l-33.608,3.281
					l5.169,5.174l-7.349,7.343l5.492,33.973l1.857,1.862l-1.345,1.348l2.785,17.203l8.553-8.561l11.604,11.602l-11.604,11.602
					l-7.385-7.389l3.707,22.982l12.057,6.267l31.575,1.361l3.228-3.23l3.521,3.521l34.656,1.491l5.011-5.012l5.46,5.46l30.936,1.334
					l6.788-6.794l7.396,7.399l27.221,1.169l8.567-8.567l7.597,7.6l13.798-6.191l-11.402-11.4l11.602-11.6l11.601,11.6
					l-11.073,11.083l8.962-4.028l7.114-22.044l-6.604-6.604l11.602-11.602l0.666,0.669l10.162-31.489L495.15,698.47l-11.602-11.599
					l11.602-11.602l11.204,11.205l4.878-15.11l-6.088-6.084l11.602-11.603l0.145,0.146l6.135-19L500.132,637.074z M473.556,720.072
					l-11.602-11.601l11.602-11.601l11.6,11.601L473.556,720.072z M440.364,730.063l11.601-11.601l11.602,11.601l-11.602,11.601
					L440.364,730.063z M430.367,720.072l-11.596-11.601l11.596-11.601l11.602,11.601L430.367,720.072z M418.774,751.66
					l11.594-11.602l11.602,11.602l-11.602,11.599L418.774,751.66z M397.177,730.063l11.6-11.601l11.602,11.601l-11.602,11.601
					L397.177,730.063z M387.188,720.072l-11.602-11.601l11.602-11.601l11.601,11.601L387.188,720.072z M375.588,751.66
					l11.602-11.602l11.593,11.602l-11.593,11.599L375.588,751.66z M353.992,730.063l11.602-11.601l11.599,11.601l-11.599,11.597
					L353.992,730.063z M344.002,720.072l-11.604-11.601l11.604-11.601l11.596,11.601L344.002,720.072z M332.398,751.66
					l11.604-11.602l11.596,11.602l-11.596,11.602L332.398,751.66z M310.811,730.066l11.597-11.601l11.602,11.601l-11.602,11.603
					L310.811,730.066z M300.813,740.059l11.6,11.602l-11.6,11.601l-11.597-11.601L300.813,740.059z M290.823,686.881l-11.604,11.599
					l-11.597-11.599l11.597-11.603L290.823,686.881z M300.813,696.872l11.6,11.601l-11.6,11.6l-11.597-11.6L300.813,696.872z
					 M334.003,686.881l-11.6,11.599l-11.597-11.599l11.597-11.603L334.003,686.881z M355.599,665.291l-11.596,11.598l-11.604-11.598
					l11.604-11.602L355.599,665.291z M377.191,686.881l-11.599,11.599l-11.602-11.599l11.602-11.603L377.191,686.881z
					 M398.785,665.287l-11.601,11.602l-11.602-11.598l11.602-11.602L398.785,665.287z M408.777,675.281l11.602,11.602l-11.602,11.6
					l-11.6-11.6L408.777,675.281z M441.973,665.291l-11.602,11.6l-11.594-11.6l11.594-11.602L441.973,665.291z M451.963,675.281
					l11.602,11.602l-11.602,11.6l-11.601-11.6L451.963,675.281z M485.154,665.291l-11.599,11.6l-11.602-11.6l11.602-11.602
					L485.154,665.291z"/>
				
					<linearGradient id="SVGID_13_" gradientUnits="userSpaceOnUse" x1="2035.1636" y1="-6800.5889" x2="2296.3159" y2="-6800.5889" gradientTransform="matrix(-1 0 0 -1 2558.1904 -6101.7188)">
					<stop  offset="0" style="stop-color:#9E9E9E"/>
					<stop  offset="0.4877" style="stop-color:#D9D9D8"/>
					<stop  offset="1" style="stop-color:#8C8C8C"/>
				</linearGradient>
				<path fill="url(#SVGID_13_)" d="M500.132,633.424l6.617,6.626l-11.601,11.6l-11.602-11.6l5.545-5.546l-28.315,2.767l2.789,2.778
					l-11.602,11.603l-11.601-11.603l0.873-0.878l-22.145,2.163l-10.316,10.309l-8.475-8.475l-29.072,2.84l-5.631,5.635l-4.639-4.633
					l-37.58,3.666l-0.97,0.969l-0.79-0.79l-18.212,1.781l9.008,9.005l-11.6,11.603l-11.601-11.603l8.453-8.453l-33.608,3.281
					l5.169,5.171l-7.349,7.351l5.492,33.966l1.857,1.865l-1.345,1.345l2.785,17.209l8.553-8.562l11.604,11.6l-11.604,11.6
					l-7.385-7.387l3.707,22.976l12.057,6.272l31.575,1.356l3.228-3.229l3.521,3.519l34.656,1.489l5.011-5.008l5.46,5.459
					l30.936,1.331l6.788-6.79l7.396,7.398l27.221,1.164l8.567-8.563l7.597,7.596l13.798-6.188l-11.402-11.4l11.602-11.603
					l11.601,11.603l-11.073,11.076l8.962-4.021l7.114-22.05l-6.604-6.602l11.602-11.603l0.666,0.669l10.162-31.489l-10.828,10.83
					l-11.602-11.597l11.602-11.601l11.204,11.206l4.878-15.114l-6.088-6.089l11.602-11.601l0.145,0.152l6.135-19.002
					L500.132,633.424z M473.556,716.428l-11.602-11.603l11.602-11.601l11.6,11.601L473.556,716.428z M440.364,726.419l11.601-11.602
					l11.602,11.602l-11.602,11.601L440.364,726.419z M430.367,716.428l-11.596-11.603l11.596-11.601l11.602,11.601L430.367,716.428z
					 M418.774,748.018l11.594-11.602l11.602,11.602l-11.602,11.596L418.774,748.018z M397.177,726.419l11.6-11.596l11.602,11.596
					l-11.602,11.601L397.177,726.419z M387.188,716.428l-11.602-11.603l11.602-11.601l11.601,11.601L387.188,716.428z
					 M375.588,748.018l11.602-11.602l11.593,11.602l-11.593,11.596L375.588,748.018z M353.992,726.419l11.602-11.596l11.599,11.601
					l-11.599,11.598L353.992,726.419z M344.002,716.428l-11.604-11.603l11.604-11.601l11.596,11.601L344.002,716.428z
					 M332.398,748.018l11.604-11.602l11.596,11.602l-11.596,11.596L332.398,748.018z M310.811,726.422l11.597-11.602l11.602,11.597
					l-11.602,11.601L310.811,726.422z M300.813,736.415l11.6,11.602l-11.6,11.596l-11.597-11.596L300.813,736.415z M290.823,683.235
					l-11.604,11.601l-11.597-11.601l11.597-11.601L290.823,683.235z M300.813,693.229l11.6,11.601l-11.6,11.602l-11.597-11.602
					L300.813,693.229z M334.003,683.235l-11.6,11.601l-11.597-11.601l11.597-11.601L334.003,683.235z M355.599,661.64
					l-11.596,11.603l-11.604-11.603l11.604-11.601L355.599,661.64z M377.191,683.235l-11.599,11.601l-11.602-11.601l11.602-11.601
					L377.191,683.235z M398.785,661.64l-11.601,11.603l-11.602-11.603l11.602-11.601L398.785,661.64z M408.777,671.638
					l11.602,11.601l-11.602,11.602l-11.6-11.602L408.777,671.638z M441.973,661.64l-11.602,11.603l-11.594-11.603l11.594-11.601
					L441.973,661.64z M451.963,671.638l11.602,11.601l-11.602,11.602l-11.601-11.602L451.963,671.638z M485.154,661.64
					l-11.599,11.603l-11.602-11.603l11.602-11.601L485.154,661.64z"/>
				<path fill="#E6E6E5" d="M460.239,775.789c-1.125,0.674-2.43,1.033-3.749,1.033l0,0c-0.096,0-0.196-0.001-0.296-0.004
					l-169.59-7.29l0,0c-1.06-0.039-2.104-0.319-3.045-0.812l-16.563-8.613l0,0c-2.042-1.067-3.452-3.011-3.813-5.291
					l-17.228-106.656l0,0c-0.326-2.026,0.21-4.079,1.48-5.682l0,0c1.272-1.605,3.16-2.589,5.203-2.727l277.867-18.621l0,0
					c2.493-0.167,4.898,0.959,6.367,2.982l0,0c1.466,2.029,1.792,4.666,0.86,6.984l-6.742-2.72l6.742,2.72l-51.286,127.266l0,0
					c-0.6,1.466-1.644,2.695-3.01,3.512L460.239,775.789L460.239,775.789z M473.868,750.666l46.055-114.267l-258.354,17.313
					l15.371,95.179l11.892,6.184l165.807,7.124L473.868,750.666L473.868,750.666z"/>
				<polygon fill="#929497" points="527.534,643.781 526.889,634.117 251.563,652.563 252.205,662.229 				"/>
				
					<linearGradient id="SVGID_14_" gradientUnits="userSpaceOnUse" x1="2019.9341" y1="-6804.3213" x2="2312.3296" y2="-6804.3213" gradientTransform="matrix(-1 0 0 -1 2558.1904 -6101.7188)">
					<stop  offset="0" style="stop-color:#B3B3B3"/>
					<stop  offset="0.4877" style="stop-color:#D9D9D8"/>
					<stop  offset="1" style="stop-color:#B3B3B3"/>
				</linearGradient>
				<path fill="url(#SVGID_14_)" d="M460.239,779.424c-1.125,0.676-2.43,1.035-3.749,1.035l0,0c-0.096,0-0.196-0.004-0.296-0.008
					l-169.59-7.289l0,0c-1.06-0.039-2.104-0.317-3.045-0.811l-16.563-8.609l0,0c-2.042-1.072-3.452-3.015-3.813-5.289
					l-17.228-106.66l0,0c-0.326-2.025,0.21-4.08,1.48-5.682l0,0c1.272-1.604,3.16-2.586,5.203-2.728l277.867-18.621l0,0
					c2.493-0.165,4.898,0.957,6.367,2.983l0,0c1.466,2.03,1.792,4.662,0.86,6.983l-6.742-2.717l6.742,2.717l-51.286,127.267l0,0
					c-0.6,1.468-1.644,2.697-3.01,3.511L460.239,779.424L460.239,779.424z M473.868,754.303l46.055-114.268l-258.354,17.313
					l15.371,95.179l11.892,6.184l165.807,7.125L473.868,754.303L473.868,754.303z"/>
				
					<linearGradient id="SVGID_15_" gradientUnits="userSpaceOnUse" x1="2127.4146" y1="-6924.9697" x2="2127.4146" y2="-6692.7866" gradientTransform="matrix(-1 0 0 -1 2558.1904 -6101.7188)">
					<stop  offset="0" style="stop-color:#838383"/>
					<stop  offset="0.0246" style="stop-color:#B3B3B3"/>
					<stop  offset="0.1232" style="stop-color:#B3B3B3"/>
					<stop  offset="0.2456" style="stop-color:#C8C8C8"/>
					<stop  offset="0.3866" style="stop-color:#DBDADA"/>
					<stop  offset="0.4877" style="stop-color:#E0E1E0"/>
					<stop  offset="1" style="stop-color:#B3B3B3"/>
				</linearGradient>
				<path fill="url(#SVGID_15_)" d="M506.761,823.242c2.588,0,4.959-1.387,6.234-3.635l0,0c1.265-2.242,1.232-4.992-0.094-7.205l0,0
					l-19.692-32.823l66.698-165.481l22.042-9.279l0,0c3.642-1.535,5.345-5.731,3.815-9.367l0,0c-1.53-3.648-5.732-5.356-9.37-3.817
					l0,0l-24.784,10.434c-1.761,0.741-3.146,2.152-3.864,3.921l0,0l-69.14,171.548c-0.836,2.084-0.656,4.429,0.506,6.359l0,0
					l15.019,25.04h-211.75c-3.954,0-7.159,3.204-7.159,7.156l0,0c0,3.951,3.206,7.159,7.159,7.159l0,0h224.375L506.761,823.242
					L506.761,823.242z"/>
				
					<linearGradient id="SVGID_16_" gradientUnits="userSpaceOnUse" x1="1950.6353" y1="-6699.0615" x2="1999.4722" y2="-6699.0615" gradientTransform="matrix(-1 0 0 -1 2558.1904 -6101.7188)">
					<stop  offset="0.2611" style="stop-color:#25A86B"/>
					<stop  offset="0.3654" style="stop-color:#21A268"/>
					<stop  offset="0.735" style="stop-color:#1C905B"/>
					<stop  offset="1" style="stop-color:#198957"/>
				</linearGradient>
				<path fill="url(#SVGID_16_)" d="M558.718,598.574l21.999-9.26c1.802-5.504,6.968-9.479,13.077-9.479
					c7.602,0,13.761,6.159,13.761,13.76c0,7.599-6.161,13.762-13.761,13.762c-2.18,0-4.239-0.519-6.069-1.422l-21.164,8.914
					L558.718,598.574z"/>
				
					<linearGradient id="SVGID_17_" gradientUnits="userSpaceOnUse" x1="1970.4673" y1="-6711.2246" x2="1992.7993" y2="-6711.2246" gradientTransform="matrix(-1 0 0 -1 2558.1904 -6101.7188)">
					<stop  offset="0.2611" style="stop-color:#1B8E59"/>
					<stop  offset="0.3858" style="stop-color:#177C4C"/>
					<stop  offset="0.634" style="stop-color:#0B5F38"/>
					<stop  offset="0.8474" style="stop-color:#054C2B"/>
					<stop  offset="1" style="stop-color:#034626"/>
				</linearGradient>
				<path fill="url(#SVGID_17_)" d="M584.986,604.165c0.829,0.7,1.756,1.284,2.736,1.769l-21.164,8.913l-1.167-2.425
					L584.986,604.165z"/>
				
					<linearGradient id="SVGID_18_" gradientUnits="userSpaceOnUse" x1="1977.4712" y1="-6696.6934" x2="1999.4692" y2="-6696.6934" gradientTransform="matrix(-1 0 0 -1 2558.1904 -6101.7188)">
					<stop  offset="0.2611" style="stop-color:#29B574"/>
					<stop  offset="0.5017" style="stop-color:#1F9F66"/>
					<stop  offset="0.7776" style="stop-color:#188D5A"/>
					<stop  offset="0.9754" style="stop-color:#148756"/>
				</linearGradient>
				<path fill="url(#SVGID_18_)" d="M580.715,589.313l0.005-0.011c-0.292,0.881-0.495,1.799-0.6,2.75l-20.404,8.594l-0.995-2.07
					L580.715,589.313z"/>
				
					<linearGradient id="SVGID_19_" gradientUnits="userSpaceOnUse" x1="1964.3979" y1="-6704.5381" x2="1964.3979" y2="-6686.0869" gradientTransform="matrix(-1 0 0 -1 2558.1904 -6101.7188)">
					<stop  offset="0" style="stop-color:#29B574"/>
					<stop  offset="1" style="stop-color:#1C905B"/>
				</linearGradient>
				<circle fill="url(#SVGID_19_)" cx="593.792" cy="593.594" r="9.226"/>
				
					<linearGradient id="SVGID_20_" gradientUnits="userSpaceOnUse" x1="1957.8579" y1="-6695.3125" x2="1970.9399" y2="-6695.3125" gradientTransform="matrix(-1 0 0 -1 2558.1904 -6101.7188)">
					<stop  offset="0.2611" style="stop-color:#29B574"/>
					<stop  offset="0.5917" style="stop-color:#26AB6C"/>
					<stop  offset="1" style="stop-color:#25A468"/>
				</linearGradient>
				<circle fill="url(#SVGID_20_)" cx="593.791" cy="593.594" r="6.541"/>
				
					<linearGradient id="SVGID_21_" gradientUnits="userSpaceOnUse" x1="2042.8442" y1="-6885.8418" x2="2042.8442" y2="-6703.3672" gradientTransform="matrix(-1 0 0 -1 2558.1904 -6101.7188)">
					<stop  offset="0" style="stop-color:#CDCCCC"/>
					<stop  offset="0.399" style="stop-color:#E0E1E0"/>
					<stop  offset="1" style="stop-color:#E6E6E5"/>
				</linearGradient>
				<path fill="url(#SVGID_21_)" d="M479.109,783.893l0.134,0.23c0.09-0.517,0.227-1.025,0.425-1.52l72.938-180.955l-1,0.416
					c-1.761,0.742-3.146,2.154-3.865,3.922l-69.138,171.548C477.767,779.619,477.952,781.964,479.109,783.893z"/>
				
					<linearGradient id="SVGID_22_" gradientUnits="userSpaceOnUse" x1="2062.688" y1="-6911.7974" x2="2281.0493" y2="-6911.7974" gradientTransform="matrix(-1 0 0 -1 2558.1904 -6101.7188)">
					<stop  offset="0" style="stop-color:#B3B3B3"/>
					<stop  offset="0.4877" style="stop-color:#D9D9D8"/>
					<stop  offset="1" style="stop-color:#B3B3B3"/>
				</linearGradient>
				<path fill="url(#SVGID_22_)" d="M495.503,811.227H277.141c1.308-1.406,3.174-2.296,5.244-2.296h211.747L495.503,811.227z"/>
			</g>
		</g>

		<g id="menu">
			<g>
				<g>
					
						<image overflow="visible" opacity="0.4" width="531" height="531" xlink:href="87CA75F4.png"  transform="matrix(0.24 0 0 0.24 174.2949 945.0195)">
					</image>
					<g>
						<circle fill="#28B34B" cx="231.908" cy="1002.632" r="33.613"/>
					</g>
				</g>
				<g>
					<path fill="#231F20" d="M199.608,1053.41v-7.26h4.567v1.449h-2.933v1.33h2.703v1.45h-2.703v1.58h2.933v1.45H199.608z"/>
					<path fill="#231F20" d="M207.555,1053.52c-0.84,0-1.723-0.187-2.344-0.47l0.272-1.264c0.665,0.207,1.34,0.349,2.093,0.349
						c0.839,0,1.003-0.163,1.003-0.774c0-0.654-0.033-0.729-1.221-0.991c-1.756-0.381-2.018-0.73-2.018-2.3
						c0-1.45,0.513-2.027,2.508-2.027c0.632,0,1.396,0.064,2.201,0.239l-0.163,1.374c-0.828-0.143-1.362-0.207-2.017-0.207
						c-0.73,0-0.894,0.13-0.894,0.664c0,0.698,0.032,0.709,1.177,0.981c1.963,0.468,2.061,0.85,2.061,2.278
						C210.214,1052.811,209.745,1053.52,207.555,1053.52z"/>
					<path fill="#231F20" d="M217.32,1053.41h-1.701l-0.392-1.417h-2.431l-0.393,1.417h-1.7l2.212-7.26h2.181L217.32,1053.41z
						 M213.167,1050.631h1.668l-0.829-3.042L213.167,1050.631z"/>
					<path fill="#231F20" d="M221.015,1051.208h-1.242v2.202h-1.636v-7.26h2.965c1.767,0,2.42,0.698,2.42,2.06v0.949
						C223.521,1050.521,222.78,1051.208,221.015,1051.208z M221.887,1048.363c0-0.522-0.186-0.764-0.872-0.764h-1.242v2.191h1.242
						c0.72,0,0.872-0.272,0.872-0.796V1048.363z"/>
					<path fill="#231F20" d="M230.028,1053.41h-1.7l-0.393-1.417h-2.431l-0.393,1.417h-1.7l2.213-7.26h2.18L230.028,1053.41z
						 M225.876,1050.631h1.667l-0.828-3.042L225.876,1050.631z"/>
					<path fill="#231F20" d="M232.208,1051.034c0,0.632,0.207,1.002,1.014,1.002c0.523,0,1.242-0.064,1.875-0.174l0.229,1.428
						c-0.719,0.152-1.373,0.229-2.104,0.229c-1.831,0-2.648-0.905-2.648-2.224v-3.031c0-1.318,0.817-2.223,2.648-2.223
						c0.73,0,1.385,0.076,2.104,0.229l-0.229,1.428c-0.633-0.109-1.352-0.175-1.875-0.175c-0.807,0-1.014,0.371-1.014,1.003
						V1051.034z"/>
					<path fill="#231F20" d="M236.415,1046.15h1.635v7.26h-1.635V1046.15z M238.257,1049.704l1.962-3.554h1.843l-2.039,3.554
						l2.191,3.706h-1.842L238.257,1049.704z"/>
					<path fill="#231F20" d="M251.663,1046.794l-2.114,5.679h-0.992l-2.114-5.679l-0.153,6.616h-0.643l0.218-7.26h0.938l2.257,5.93
						l2.245-5.93h0.938l0.218,7.26h-0.643L251.663,1046.794z"/>
					<path fill="#231F20" d="M255.063,1053.41h-0.644v-7.26h0.644V1053.41z"/>
					<path fill="#231F20" d="M259.478,1046.15c1.766,0,2.268,0.916,2.268,2.147v2.965c0,1.231-0.502,2.147-2.268,2.147h-2.397v-7.26
						H259.478z M257.723,1052.832h1.766c1.221,0,1.613-0.501,1.613-1.536v-3.031c0-1.035-0.393-1.536-1.613-1.536h-1.766V1052.832z"
						/>
					<path fill="#231F20" d="M264.208,1053.41h-0.644v-7.26h0.644V1053.41z"/>
				</g>
				<text transform="matrix(1 0 0 1 216.6821 1012.2393)" fill="#FFFFFF" font-family="'Klavika-Regular'" font-size="32.9565">37</text>
			</g>
			<g opacity="0.3">
				<g>
					
						<image overflow="visible" opacity="0.4" width="531" height="531" xlink:href="87CA75FE.png"  transform="matrix(0.24 0 0 0.24 513.7393 943.8389)">
					</image>
					<g>
						<circle fill="#28B34B" cx="571.352" cy="1001.452" r="33.612"/>
					</g>
				</g>
				<g>
					<path fill="#231F20" d="M532.741,1052.596v-7.259h4.566v1.449h-2.932v1.33h2.703v1.449h-2.703v1.582h2.932v1.448H532.741z"/>
					<path fill="#231F20" d="M540.687,1052.705c-0.84,0-1.723-0.186-2.344-0.469l0.273-1.265c0.664,0.208,1.34,0.35,2.092,0.35
						c0.84,0,1.004-0.164,1.004-0.774c0-0.653-0.033-0.729-1.222-0.991c-1.755-0.382-2.017-0.73-2.017-2.301
						c0-1.449,0.513-2.027,2.508-2.027c0.632,0,1.395,0.066,2.201,0.24l-0.163,1.373c-0.829-0.142-1.362-0.207-2.017-0.207
						c-0.73,0-0.894,0.131-0.894,0.665c0,0.698,0.032,0.708,1.177,0.981c1.962,0.468,2.061,0.85,2.061,2.277
						C543.347,1051.997,542.878,1052.705,540.687,1052.705z"/>
					<path fill="#231F20" d="M550.452,1052.596h-1.699l-0.393-1.416h-2.432l-0.392,1.416h-1.7l2.212-7.259h2.181L550.452,1052.596z
						 M546.3,1049.817h1.668l-0.829-3.042L546.3,1049.817z"/>
					<path fill="#231F20" d="M554.147,1050.394h-1.242v2.202h-1.636v-7.259h2.966c1.766,0,2.419,0.697,2.419,2.061v0.948
						C556.654,1049.708,555.913,1050.394,554.147,1050.394z M555.019,1047.55c0-0.523-0.184-0.764-0.871-0.764h-1.242v2.191h1.242
						c0.719,0,0.871-0.271,0.871-0.796V1047.55z"/>
					<path fill="#231F20" d="M563.161,1052.596h-1.7l-0.393-1.416h-2.431l-0.393,1.416h-1.701l2.213-7.259h2.182L563.161,1052.596z
						 M559.009,1049.817h1.668l-0.829-3.042L559.009,1049.817z"/>
					<path fill="#231F20" d="M565.341,1050.22c0,0.633,0.207,1.003,1.014,1.003c0.523,0,1.242-0.065,1.875-0.175l0.229,1.429
						c-0.72,0.152-1.373,0.229-2.104,0.229c-1.832,0-2.648-0.904-2.648-2.224v-3.029c0-1.319,0.816-2.225,2.648-2.225
						c0.73,0,1.384,0.076,2.104,0.229l-0.229,1.428c-0.633-0.108-1.352-0.174-1.875-0.174c-0.807,0-1.014,0.371-1.014,1.004V1050.22
						z"/>
					<path fill="#231F20" d="M569.548,1045.337h1.635v7.259h-1.635V1045.337z M571.39,1048.891l1.963-3.554h1.842l-2.039,3.554
						l2.191,3.705h-1.842L571.39,1048.891z"/>
					<path fill="#231F20" d="M579.476,1045.337v7.194c0,0.904-0.064,0.959-1.307,2.169l-0.426-0.458
						c1.068-1.046,1.09-1.091,1.09-1.646v-7.259H579.476z"/>
					<path fill="#231F20" d="M586.344,1045.337v5.199c0,1.232-0.741,2.169-2.507,2.169s-2.508-0.937-2.508-2.169v-5.199h0.643v5.199
						c0,1.014,0.645,1.592,1.865,1.592s1.863-0.578,1.863-1.592v-5.199H586.344z"/>
					<path fill="#231F20" d="M588.86,1045.97v6.626h-0.609v-7.259h0.938l3.443,6.639v-6.639h0.611v7.259h-0.938L588.86,1045.97z"/>
					<path fill="#231F20" d="M595.901,1052.596h-0.644v-7.259h0.644V1052.596z"/>
					<path fill="#231F20" d="M600.294,1052.705c-1.863,0-2.54-0.915-2.54-2.158v-3.161c0-1.242,0.677-2.158,2.54-2.158
						s2.539,0.916,2.539,2.158v3.161C602.833,1051.79,602.157,1052.705,600.294,1052.705z M602.19,1050.525v-3.118
						c0-1.035-0.502-1.602-1.896-1.602c-1.396,0-1.896,0.566-1.896,1.602v3.118c0,1.036,0.501,1.603,1.896,1.603
						C601.688,1052.128,602.19,1051.562,602.19,1050.525z"/>
					<path fill="#231F20" d="M607.346,1049.806h-0.142h-1.93v2.79h-0.643v-7.259h2.572c1.461,0,1.994,0.665,1.994,1.679v1.111
						c0,0.796-0.326,1.385-1.177,1.592l1.94,2.877h-0.73L607.346,1049.806z M607.215,1045.915h-1.94v3.313h1.94
						c0.915,0,1.341-0.305,1.341-1.101v-1.111C608.556,1046.22,608.13,1045.915,607.215,1045.915z"/>
				</g>
				<text transform="matrix(1 0 0 1 555.3184 1011.0576)" fill="#FFFFFF" font-family="'Klavika-Regular'" font-size="32.9565">32</text>
			</g>
			<g>
				<g>
					
						<image overflow="visible" opacity="0.4" width="531" height="531" xlink:href="87CA75F9.png"  transform="matrix(0.24 0 0 0.24 344.0176 944.7451)">
					</image>
					<g>
						<circle fill="#28B34B" cx="401.63" cy="1002.358" r="33.612"/>
					</g>
				</g>
				<text transform="matrix(1 0 0 1 384.6577 1011.9639)" fill="#FFFFFF" font-family="'Klavika-Regular'" font-size="32.9565">28</text>
				<g>
					<path fill="#231F20" d="M366.965,1053.685v-7.331h4.612v1.464h-2.961v1.343h2.729v1.464h-2.729v1.597h2.961v1.464H366.965z"/>
					<path fill="#231F20" d="M374.988,1053.795c-0.848,0-1.739-0.188-2.366-0.474l0.275-1.277c0.671,0.21,1.354,0.353,2.113,0.353
						c0.848,0,1.013-0.165,1.013-0.781c0-0.661-0.033-0.737-1.232-1.002c-1.772-0.386-2.037-0.737-2.037-2.322
						c0-1.464,0.518-2.048,2.532-2.048c0.639,0,1.409,0.066,2.223,0.242l-0.164,1.387c-0.837-0.143-1.376-0.208-2.037-0.208
						c-0.737,0-0.902,0.131-0.902,0.672c0,0.703,0.033,0.714,1.188,0.989c1.981,0.474,2.081,0.858,2.081,2.301
						C377.675,1053.079,377.201,1053.795,374.988,1053.795z"/>
					<path fill="#231F20" d="M384.851,1053.685h-1.717l-0.396-1.431h-2.454l-0.396,1.431h-1.717l2.233-7.331h2.202L384.851,1053.685
						z M380.657,1050.878h1.685l-0.837-3.072L380.657,1050.878z"/>
					<path fill="#231F20" d="M388.582,1051.461h-1.255v2.224h-1.651v-7.331h2.994c1.783,0,2.444,0.704,2.444,2.081v0.957
						C391.114,1050.767,390.365,1051.461,388.582,1051.461z M389.462,1048.588c0-0.528-0.187-0.771-0.88-0.771h-1.255v2.213h1.255
						c0.727,0,0.88-0.275,0.88-0.804V1048.588z"/>
					<path fill="#231F20" d="M397.685,1053.685h-1.717l-0.396-1.431h-2.455l-0.396,1.431h-1.717l2.234-7.331h2.202L397.685,1053.685
						z M393.491,1050.878h1.684l-0.837-3.072L393.491,1050.878z"/>
					<path fill="#231F20" d="M399.886,1051.285c0,0.639,0.209,1.013,1.023,1.013c0.528,0,1.255-0.066,1.894-0.177l0.231,1.442
						c-0.727,0.154-1.388,0.231-2.125,0.231c-1.85,0-2.675-0.914-2.675-2.246v-3.06c0-1.332,0.825-2.246,2.675-2.246
						c0.737,0,1.398,0.077,2.125,0.231l-0.231,1.442c-0.639-0.111-1.365-0.177-1.894-0.177c-0.814,0-1.023,0.374-1.023,1.013
						V1051.285z"/>
					<path fill="#231F20" d="M404.135,1046.354h1.65v7.331h-1.65V1046.354z M405.994,1049.942l1.982-3.589h1.859l-2.059,3.589
						l2.213,3.742h-1.86L405.994,1049.942z"/>
					<path fill="#231F20" d="M419.533,1047.003l-2.136,5.735h-1.002l-2.136-5.735l-0.154,6.682h-0.649l0.221-7.331h0.946
						l2.279,5.987l2.268-5.987h0.945l0.221,7.331h-0.648L419.533,1047.003z"/>
					<path fill="#231F20" d="M426.412,1051.758h-3.413l-0.683,1.927h-0.639l2.555-7.331h0.957l2.554,7.331h-0.638L426.412,1051.758z
						 M423.197,1051.196h3.016l-1.508-4.469L423.197,1051.196z"/>
					<path fill="#231F20" d="M431.056,1049.964l-2.378-3.61h0.705l2.025,3.093l2.025-3.093h0.705l-2.379,3.61l2.455,3.721h-0.705
						l-2.102-3.203l-2.103,3.203h-0.704L431.056,1049.964z"/>
					<path fill="#231F20" d="M436.295,1053.685h-0.649v-7.331h0.649V1053.685z"/>
				</g>
			</g>
		</g>
		<g id="indicatore_138">
			<g id="colori">
				<rect id="colore_x5F_8_1_" x="1747.614" y="75.686" fill="#6FD813" width="58.482" height="50.814"/>
				<rect id="colore_x5F_7_1_" x="1747.614" y="128.189" fill="#A6EF20" width="58.482" height="50.814"/>
				<rect id="colore_x5F_6_1_" x="1747.614" y="180.694" fill="#D0EE31" width="58.482" height="50.814"/>
				<rect id="colore_x5F_5" x="1747.614" y="233.198" fill="#F9F167" width="58.482" height="50.814"/>
				<rect id="colore_x5F_4" x="1747.614" y="285.702" fill="#E2D134" width="58.482" height="50.814"/>
				<rect id="colore_x5F_3" x="1747.614" y="338.206" fill="#E8A531" width="58.482" height="50.814"/>
				<rect id="colore_x5F_2" x="1747.614" y="390.71" fill="#D5421E" width="58.482" height="50.814"/>
				<rect id="colore_x5F_1_2_" x="1747.614" y="442.71" fill="#C80011" width="58.482" height="50.814"/>
			</g>
			<g id="cornice_indicatore_138">
				<path fill="#9B9A9A" d="M1812.469,59.623h-70.379c-1.963,0-3.555,2.761-3.555,6.166v435.992c0,3.403,1.592,6.165,3.555,6.165
					h70.379c1.965,0,3.555-2.762,3.555-6.165V65.789C1816.024,62.384,1814.434,59.623,1812.469,59.623z M1806.071,487.125
					c0,3.405-1.59,6.165-3.553,6.165h-50.475c-1.963,0-3.555-2.76-3.555-6.165V82.043c0-3.405,1.592-6.166,3.555-6.166h50.475
					c1.963,0,3.553,2.761,3.553,6.166V487.125z"/>
				<rect x="1747.903" y="126.273" fill="#9B9A9A" width="58.781" height="3.826"/>
				<rect x="1747.903" y="178.539" fill="#9B9A9A" width="58.781" height="3.825"/>
				<rect x="1747.903" y="230.804" fill="#9B9A9A" width="58.781" height="3.826"/>
				<rect x="1747.903" y="283.069" fill="#9B9A9A" width="58.781" height="3.826"/>
				<rect x="1747.903" y="387.601" fill="#9B9A9A" width="58.781" height="3.826"/>
				<rect x="1747.903" y="440.601" fill="#9B9A9A" width="58.781" height="3.826"/>
				<rect x="1747.903" y="335.335" fill="#9B9A9A" width="58.781" height="3.826"/>
				<polygon id="freccia_indicatore_1_" fill="#535354" points="1792.25,77.391 1809.829,54.161 1833,54.161 1833,98.671 
					1809.829,98.671 				"/>
			</g>
		</g>
		<g id="titolo">
			<path fill="#231F20" d="M198.345,126.051H179.91v17.163h20.625v5.156h-26.84v-47.604h25.779v5.156H179.91v15.044h18.435V126.051z
				"/>
			<path fill="#231F20" d="M207.74,140.884c2.753,1.766,6.71,3.108,10.948,3.108c6.285,0,9.958-3.32,9.958-8.124
				c0-4.378-2.543-6.991-8.971-9.393c-7.769-2.825-12.571-6.922-12.571-13.561c0-7.417,6.144-12.925,15.397-12.925
				c4.803,0,8.404,1.129,10.452,2.33l-1.694,5.014c-1.483-0.918-4.662-2.259-8.971-2.259c-6.497,0-8.97,3.884-8.97,7.133
				c0,4.449,2.896,6.64,9.465,9.183c8.051,3.106,12.077,6.991,12.077,13.983c0,7.347-5.368,13.772-16.598,13.772
				c-4.591,0-9.606-1.412-12.148-3.106L207.74,140.884z"/>
			<path fill="#231F20" d="M251.038,133.397l-4.944,14.973h-6.356l16.244-47.604h7.346l16.245,47.604h-6.568l-5.087-14.973H251.038z
				 M266.718,128.595l-4.733-13.703c-1.059-3.108-1.765-5.933-2.471-8.687h-0.142c-0.707,2.754-1.414,5.721-2.401,8.615
				l-4.661,13.774H266.718z"/>
			<path fill="#231F20" d="M286.565,101.331c2.968-0.494,6.853-0.919,11.796-0.919c6.074,0,10.523,1.413,13.35,3.956
				c2.543,2.261,4.166,5.721,4.166,9.959c0,4.309-1.271,7.698-3.673,10.17c-3.319,3.462-8.545,5.228-14.548,5.228
				c-1.837,0-3.533-0.071-4.943-0.425v19.07h-6.147V101.331z M292.713,124.285c1.341,0.354,3.035,0.494,5.083,0.494
				c7.417,0,11.938-3.673,11.938-10.1c0-6.356-4.521-9.394-11.23-9.394c-2.684,0-4.731,0.212-5.79,0.494V124.285z"/>
			<path fill="#231F20" d="M325.908,133.397l-4.943,14.973h-6.356l16.245-47.604h7.346l16.244,47.604h-6.568l-5.085-14.973H325.908z
				 M341.588,128.595l-4.73-13.703c-1.06-3.108-1.767-5.933-2.474-8.687h-0.14c-0.706,2.754-1.413,5.721-2.401,8.615l-4.663,13.774
				H341.588z"/>
			<path fill="#231F20" d="M393.575,146.887c-2.19,1.13-6.781,2.26-12.573,2.26c-13.419,0-23.449-8.475-23.449-24.154
				c0-14.975,10.1-25.002,24.861-25.002c5.862,0,9.678,1.27,11.301,2.118l-1.554,5.015c-2.26-1.13-5.579-1.979-9.534-1.979
				c-11.159,0-18.575,7.135-18.575,19.635c0,11.725,6.709,19.142,18.222,19.142c3.813,0,7.628-0.778,10.1-1.979L393.575,146.887z"/>
			<path fill="#231F20" d="M401.345,100.766h6.146v22.955h0.212c1.271-1.836,2.543-3.531,3.742-5.085l14.55-17.87h7.629
				l-17.234,20.2l18.577,27.404h-7.275l-15.608-23.378l-4.592,5.226v18.152h-6.146V100.766z"/>
			<path fill="#231F20" d="M463.218,100.766h10.736v30.088c0,13.562-6.498,18.293-16.881,18.293c-2.542,0-5.791-0.423-7.911-1.13
				l1.202-8.687c1.482,0.493,3.389,0.847,5.509,0.847c4.52,0,7.345-2.048,7.345-9.394V100.766z"/>
			<path fill="#231F20" d="M493.66,100.766V128.1c0,8.264,3.18,12.431,8.618,12.431c5.649,0,8.758-3.956,8.758-12.431v-27.334
				h10.735v26.697c0,14.692-7.417,21.684-19.847,21.684c-12.007,0-18.999-6.709-18.999-21.824v-26.557H493.66z"/>
			<path fill="#231F20" d="M531.098,148.37v-47.604h12.571l9.889,17.445c2.824,5.015,5.579,10.948,7.77,16.316h0.141
				c-0.636-6.286-0.848-12.714-0.848-19.918v-13.844h9.888v47.604h-11.3l-10.172-18.363c-2.824-5.085-6.002-11.23-8.263-16.81
				h-0.282c0.354,6.356,0.494,13.065,0.494,20.836v14.337H531.098z"/>
			<path fill="#231F20" d="M590.639,100.766v47.604h-10.735v-47.604H590.639z"/>
			<path fill="#231F20" d="M643.54,124.074c0,15.68-9.394,25.072-23.377,25.072c-14.057,0-22.391-10.664-22.391-24.296
				c0-14.268,9.183-24.932,23.168-24.932C635.56,99.919,643.54,110.865,643.54,124.074z M609.146,124.639
				c0,9.395,4.378,15.963,11.582,15.963c7.275,0,11.442-6.922,11.442-16.176c0-8.615-4.025-15.962-11.442-15.962
				C613.383,108.464,609.146,115.386,609.146,124.639z"/>
			<path fill="#231F20" d="M650.606,101.402c3.46-0.565,8.547-0.99,14.337-0.99c7.064,0,12.007,1.061,15.399,3.744
				c2.895,2.26,4.449,5.65,4.449,10.029c0,6.004-4.309,10.171-8.406,11.654v0.211c3.319,1.343,5.156,4.449,6.358,8.829
				c1.482,5.438,2.895,11.653,3.812,13.49H675.54c-0.707-1.412-1.909-5.228-3.25-11.089c-1.342-6.003-3.39-7.557-7.84-7.628h-3.18
				v18.717h-10.664V101.402z M661.271,121.885h4.238c5.369,0,8.547-2.685,8.547-6.852c0-4.309-2.967-6.569-7.91-6.569
				c-2.614,0-4.097,0.142-4.875,0.354V121.885z"/>
		</g>
</svg>
