<?xml version="1.0" encoding="utf-8"?>
<!-- Generator: Adobe Illustrator 15.0.0, SVG Export Plug-In . SVG Version: 6.00 Build 0)  -->
<!DOCTYPE svg PUBLIC "-//W3C//DTD SVG 1.1//EN" "http://www.w3.org/Graphics/SVG/1.1/DTD/svg11.dtd">
<svg version="1.1" id="Layer_1" xmlns="http://www.w3.org/2000/svg" xmlns:xlink="http://www.w3.org/1999/xlink" x="0px" y="0px"
	 width="1920px" height="1080px" viewBox="0 0 1920 1080" enable-background="new 0 0 1920 1080" xml:space="preserve">
<g opacity="0.5">
	<rect id="bg_1_" x="0" y="1.979" fill="#F0EFEF" width="1920" height="1078.021"/>
</g>
<image overflow="visible" opacity="0.7" width="1920" height="1080" xlink:href="../bg_03.png"  transform="matrix(0.9999 0 0 0.9999 0.1226 1.0566)">
</image>
<g>
	<path fill="none" stroke="#231F20" stroke-width="3" stroke-miterlimit="10" d="M1086.968,542.528h92.429V352.396
		c0-17.56-14.237-31.795-31.795-31.795H772.399c-17.56,0-31.798,14.235-31.798,31.795v375.206c0,17.563,14.238,31.799,31.798,31.799
		h297.83l128.147-136.488v-286.74c0-19.083-15.472-34.546-34.551-34.546H756.171c-19.079,0-34.547,15.463-34.547,34.546V743.83
		c0,19.08,15.468,34.545,34.547,34.545h323.589l136.069-149.392V321.248c0-20.478-16.6-37.076-37.076-37.076H741.246
		c-20.477,0-37.077,16.599-37.077,37.076v437.506c0,20.476,16.601,37.075,37.077,37.075h347.283l144.989-160.691V306.121
		c0-21.893-17.749-39.64-39.641-39.64H726.123c-21.894,0-39.642,17.748-39.642,39.64V773.88c0,21.892,17.748,39.64,39.642,39.64
		h371.294l154.293-172.054V290.564c0-23.35-18.933-42.277-42.273-42.277H710.564c-23.349,0-42.276,18.927-42.276,42.277v498.874
		c0,23.349,18.928,42.275,42.276,42.275h395.992l161.84-184.445v-370.97c0-24.688-20.014-44.696-44.692-44.696H696.3
		c-24.686,0-44.696,20.009-44.696,44.696v527.407c0,24.684,20.011,44.693,44.696,44.693h418.639"/>
	<path fill="#231F20" d="M1090.062,645.397c0,12.385-10.038,22.424-22.424,22.424H852.362c-12.387,0-22.427-10.039-22.427-22.424
		V434.603c0-12.383,10.04-22.423,22.427-22.423h215.275c12.386,0,22.424,10.041,22.424,22.423V645.397z"/>
	<g>
		<path fill="#F0EFEF" d="M898.031,550.711h-7.482v17.596h-12.751v-56.612h23.548c13.77,0,18.87,5.439,18.87,16.064v6.971
			c0,7.058-2.549,11.817-8.247,14.196l13.688,19.381h-15.132L898.031,550.711z M907.466,528.95c0-4.25-1.615-5.949-6.801-5.949
			h-10.116v16.661h10.116c5.44,0,6.801-1.956,6.801-6.208V528.95z"/>
		<path fill="#F0EFEF" d="M932.456,568.307v-56.612h35.958V523h-23.205v12.07h21.42v11.305h-21.42v21.932H932.456z"/>
		<path fill="#F0EFEF" d="M976.918,568.307v-56.612h12.748v56.612H976.918z"/>
		<path fill="#F0EFEF" d="M1023.075,568.307h-21.934v-56.612h21.934c13.939,0,19.126,7.056,19.126,14.704V553.6
			C1042.201,561.164,1037.015,568.307,1023.075,568.307z M1029.453,529.886c0-4.421-1.537-6.885-7.91-6.885h-7.65v34h7.65
			c6.373,0,7.91-2.466,7.91-6.886V529.886z"/>
	</g>
	<g>
		<path fill="none" stroke="#F0EFEF" stroke-width="1.5" stroke-miterlimit="10" d="M916.279,468.625
			c11.648-8.391,26.956-13.483,43.723-13.483s32.073,5.091,43.721,13.482"/>
		<path fill="none" stroke="#F0EFEF" stroke-width="1.5" stroke-miterlimit="10" d="M920.9,477.107
			c10.007-8.157,23.832-13.201,39.102-13.201c15.173,0,28.918,4.98,38.909,13.047"/>
		<path fill="none" stroke="#F0EFEF" stroke-width="1.5" stroke-miterlimit="10" d="M926.744,486.749
			c7.888-7.833,19.856-12.827,33.258-12.827c13.402,0,25.372,4.997,33.26,12.831"/>
	</g>
	<g>
		<path fill="none" stroke="#F0EFEF" stroke-width="1.5" stroke-miterlimit="10" d="M916.279,616.338
			c11.648,8.391,26.956,13.483,43.723,13.483s32.073-5.092,43.721-13.482"/>
		<path fill="none" stroke="#F0EFEF" stroke-width="1.5" stroke-miterlimit="10" d="M920.9,607.855
			c10.007,8.155,23.832,13.2,39.102,13.2c15.173,0,28.918-4.98,38.909-13.046"/>
		<path fill="none" stroke="#F0EFEF" stroke-width="1.5" stroke-miterlimit="10" d="M926.744,598.214
			c7.888,7.831,19.856,12.826,33.258,12.826c13.402,0,25.372-4.996,33.26-12.829"/>
	</g>
</g>
</svg>
