<?xml version="1.0" encoding="utf-8"?>
<!--
<!DOCTYPE svg PUBLIC "-//W3C//DTD SVG 1.1//EN" "http://www.w3.org/Graphics/SVG/1.1/DTD/svg11.dtd">
<svg version="1.1" id="Layer_1" xmlns="http://www.w3.org/2000/svg" xmlns:xlink="http://www.w3.org/1999/xlink" x="0px" y="0px"
	 width="1024px" height="768px" viewBox="0 0 1024 768" enable-background="new 0 0 1024 768" xml:space="preserve">
 viewBox="-448 -156 1920 1080"
-->
<svg version="1.1" id="Layer_1" xmlns="http://www.w3.org/2000/svg" xmlns:xlink="http://www.w3.org/1999/xlink" x="0px" y="0px"
	 width="1920px" viewBox="-448 -156 1920 1080" height="1080px" enable-background="new -448 -156 1920 1080" xml:space="preserve">
  <defs>

    <image id="pacco138" overflow="visible" width="207" height="113" xlink:href="pacco138.png"/>

    <!-- Numeri -->

	<g id="numero_32">
		<path display="inline" fill="#FFFFFF" d="M106.94,338.7c7.68,1.76,15.52,2.56,23.36,2.56c15.041,0,20.48-3.52,20.48-13.76v-8
			c0-10.4-5.76-13.92-16.16-13.92H112.7v-11.84h20.161c12.48,0,16-4.8,16-13.28v-9.28c0-9.6-4.48-12.8-17.281-12.8
			c-7.2,0-15.2,0.96-22.56,2.4l-1.44-11.36c6.72-1.6,16-2.88,24.321-2.88c22.561,0,30.4,7.84,30.4,22.721v9.44
			c0,9.76-2.24,15.84-12.16,20.641c8.8,2.56,14.081,7.52,14.081,19.041v10.4c0,16.641-9.92,24.321-33.921,24.321
			c-7.68,0-18.081-0.96-24.801-3.2L106.94,338.7z"/>
		<path display="inline" fill="#FFFFFF" d="M183.42,339.18c11.84-13.44,14.88-16.96,27.521-31.841
			c16.32-19.36,17.44-23.521,17.44-31.041v-4.64c0-10.08-2.72-13.12-18.881-13.12c-7.52,0-17.6,1.76-23.68,3.52l-1.92-11.521
			c6.88-2.08,17.44-4,26.721-4c24.641,0,31.201,8.64,31.201,24.96c0,0.64,0,2.88,0,3.52c0,12.641-2.24,18.081-18.24,37.121
			c-11.521,13.76-13.12,15.84-23.521,27.521h42.721v11.84H183.42V339.18z"/>
	</g>
	<g id="numero_31">
		<path display="inline" fill="#FFFFFF" d="M106.94,338.7c7.68,1.76,15.52,2.56,23.36,2.56c15.041,0,20.48-3.52,20.48-13.76v-8
			c0-10.4-5.76-13.92-16.16-13.92H112.7v-11.84h20.161c12.48,0,16-4.8,16-13.28v-9.28c0-9.6-4.48-12.8-17.281-12.8
			c-7.2,0-15.2,0.96-22.56,2.4l-1.44-11.36c6.72-1.6,16-2.88,24.321-2.88c22.561,0,30.4,7.84,30.4,22.721v9.44
			c0,9.76-2.24,15.84-12.16,20.641c8.8,2.56,14.081,7.52,14.081,19.041v10.4c0,16.641-9.92,24.321-33.921,24.321
			c-7.68,0-18.081-0.96-24.801-3.2L106.94,338.7z"/>
		<path display="inline" fill="#FFFFFF" d="M181.66,275.018l-5.92-10.72l28-16.16h12V351.5h-13.44v-88.002L181.66,275.018z"/>
	</g>
	<g id="numero_30">
		<path display="inline" fill="#FFFFFF" d="M106.94,338.7c7.68,1.76,15.52,2.56,23.36,2.56c15.041,0,20.48-3.52,20.48-13.76v-8
			c0-10.4-5.76-13.92-16.16-13.92H112.7v-11.84h20.161c12.48,0,16-4.8,16-13.28v-9.28c0-9.6-4.48-12.8-17.281-12.8
			c-7.2,0-15.2,0.96-22.56,2.4l-1.44-11.36c6.72-1.6,16-2.88,24.321-2.88c22.561,0,30.4,7.84,30.4,22.721v9.44
			c0,9.76-2.24,15.84-12.16,20.641c8.8,2.56,14.081,7.52,14.081,19.041v10.4c0,16.641-9.92,24.321-33.921,24.321
			c-7.68,0-18.081-0.96-24.801-3.2L106.94,338.7z"/>
		<path display="inline" fill="#FFFFFF" d="M252.541,325.42c0,16-8.16,27.681-32.96,27.681c-24.801,0-32.961-11.68-32.961-27.681
			v-51.201c0-16,8.16-27.681,32.961-27.681c24.8,0,32.96,11.68,32.96,27.681V325.42z M219.581,258.378
			c-14.721,0-19.521,5.6-19.521,17.28v48.321c0,11.68,4.8,17.28,19.521,17.28c14.72,0,19.521-5.6,19.521-17.28v-48.321
			C239.101,263.978,234.301,258.378,219.581,258.378z"/>
	</g>
	<g id="numero_29">
		<path display="inline" fill="#FFFFFF" d="M105.5,339.18c11.84-13.44,14.88-16.96,27.521-31.841
			c16.32-19.36,17.44-23.521,17.44-31.041v-4.64c0-10.08-2.72-13.12-18.881-13.12c-7.52,0-17.6,1.76-23.68,3.52l-1.92-11.521
			c6.88-2.08,17.44-4,26.721-4c24.641,0,31.201,8.64,31.201,24.96c0,0.64,0,2.88,0,3.52c0,12.641-2.24,18.081-18.24,37.121
			c-11.521,13.76-13.12,15.84-23.521,27.521h42.721v11.84H105.5V339.18z"/>
		<path display="inline" fill="#FFFFFF" d="M232.7,303.659c-5.28,1.92-14.24,3.68-21.281,3.68c-20.32,0-27.36-8.48-27.36-25.44
			v-5.12c0-18.721,5.6-30.241,30.721-30.241c23.041,0,31.201,10.08,31.201,25.121v45.281c0,26.561-11.84,36.161-41.921,36.161
			c-4.96,0-12.48-0.64-17.601-1.92l1.28-11.201c3.84,0.8,10.4,1.44,14.24,1.44c24.8,0,30.721-5.28,30.721-24.641V303.659z
			 M232.7,291.339v-18.241c0-11.36-5.76-14.72-17.92-14.72c-13.76,0-17.44,4.16-17.44,14.72v8.8c0,9.76,3.68,13.76,15.36,13.76
			C219.74,295.659,227.42,293.579,232.7,291.339z"/>
	</g>

		<g id="numero_28" display="inline" enable-background="new    ">
			<path fill="#F5F6F6" d="M102.979,339.157c11.48-13.332,14.428-16.824,26.685-31.584c15.825-19.205,16.911-23.332,16.911-30.791
				v-4.603c0-9.999-2.637-13.015-18.307-13.015c-7.292,0-17.066,1.746-22.961,3.492l-1.862-11.427
				c6.671-2.063,16.911-3.968,25.909-3.968c23.892,0,30.253,8.571,30.253,24.76c0,0.635,0,2.856,0,3.492
				c0,12.538-2.172,17.935-17.687,36.822c-11.17,13.649-12.722,15.713-22.806,27.299h41.424v11.745h-57.559V339.157z"/>

			<path fill="#F5F6F6" d="M226.163,299.001c14.118,6.666,18.772,13.333,18.772,24.125v4.603c0,17.776-9.309,25.236-32.115,25.236
				c-22.961,0-32.115-7.46-32.115-25.236v-4.603c0-10.792,4.5-17.459,18.307-24.125c-12.412-6.189-15.669-12.697-15.669-22.696
				v-4.126c0-14.443,6.981-24.919,29.478-24.919c22.341,0,29.478,10.476,29.478,24.919v4.126
				C242.298,286.304,238.885,292.812,226.163,299.001z M212.82,305.033c-15.669,6.507-19.393,9.523-19.393,18.57v3.651
				c0,10.792,4.964,14.284,19.393,14.284c14.273,0,19.393-3.492,19.393-14.284v-3.651
				C232.213,314.556,228.335,311.54,212.82,305.033z M212.82,293.605c13.342-5.555,16.755-8.888,16.755-16.982v-5.079
				c0-8.254-3.878-13.015-16.755-13.015c-13.032,0-16.756,4.761-16.756,13.015v5.079C196.064,284.717,199.478,288.05,212.82,293.605
				z"/>
		</g>
		<g id="numero_27" display="inline" enable-background="new    ">
			<path fill="#F5F6F6" d="M106.858,339.157c11.481-13.332,14.428-16.824,26.685-31.584c15.825-19.205,16.911-23.332,16.911-30.791
				v-4.603c0-9.999-2.637-13.015-18.307-13.015c-7.292,0-17.066,1.746-22.961,3.492l-1.862-11.427
				c6.671-2.063,16.911-3.968,25.91-3.968c23.892,0,30.252,8.571,30.252,24.76c0,0.635,0,2.856,0,3.492
				c0,12.538-2.172,17.935-17.686,36.822c-11.171,13.649-12.722,15.713-22.806,27.299h41.423v11.745h-57.559V339.157z"/>
			<path fill="#F5F6F6" d="M179.463,248.847h61.593v11.269l-41.269,91.262H186.6l41.113-90.786h-48.25V248.847z"/>

		</g>
		<g id="numero_26" display="inline" enable-background="new    ">
			<path fill="#F5F6F6" d="M104.686,339.157c11.48-13.332,14.428-16.824,26.685-31.584c15.825-19.205,16.911-23.332,16.911-30.791
				v-4.603c0-9.999-2.638-13.015-18.307-13.015c-7.292,0-17.066,1.746-22.961,3.492l-1.862-11.427
				c6.671-2.063,16.911-3.968,25.909-3.968c23.892,0,30.253,8.571,30.253,24.76c0,0.635,0,2.856,0,3.492
				c0,12.538-2.172,17.935-17.687,36.822c-11.17,13.649-12.722,15.713-22.806,27.299h41.424v11.745h-57.559V339.157z"/>

			<path fill="#F5F6F6" d="M196.064,296.303c5.12-1.904,13.808-3.65,20.634-3.65c19.704,0,26.53,8.412,26.53,25.236v5.079
				c0,18.57-4.964,29.998-29.788,29.998c-22.341,0-30.253-9.523-30.253-24.443V283.13c0-26.347,11.481-35.87,40.648-35.87
				c4.81,0,12.102,0.635,17.066,1.905l-1.396,11.11c-3.724-0.794-9.93-1.429-13.653-1.429c-24.047,0-29.788,5.238-29.788,24.442
				V296.303z M196.064,308.524v18.094c0,11.269,5.585,14.602,17.376,14.602c13.342,0,16.911-4.126,16.911-14.602v-8.729
				c0-9.682-3.568-13.65-14.894-13.65C208.631,304.239,201.185,306.303,196.064,308.524z"/>
		</g>
		<g id="numero_25" display="inline" enable-background="new    ">
			<path fill="#F5F6F6" d="M106.703,339.157c11.481-13.332,14.429-16.824,26.685-31.584c15.825-19.205,16.911-23.332,16.911-30.791
				v-4.603c0-9.999-2.637-13.015-18.307-13.015c-7.292,0-17.066,1.746-22.961,3.492l-1.862-11.427
				c6.671-2.063,16.911-3.968,25.909-3.968c23.893,0,30.253,8.571,30.253,24.76c0,0.635,0,2.856,0,3.492
				c0,12.538-2.172,17.935-17.687,36.822c-11.17,13.649-12.722,15.713-22.806,27.299h41.423v11.745h-57.559V339.157z"/>
			<path fill="#F5F6F6" d="M187.221,248.847h52.75v11.745h-39.717v32.537c6.516,0.159,9.619,0.159,16.601,0.476
				c18.462,0.794,24.358,9.999,24.358,23.808v9.206c0,16.824-7.137,26.347-31.805,26.347c-7.757,0-18.152-0.952-26.064-3.651
				l1.396-10.792c7.757,1.905,17.066,2.698,24.513,2.698c15.515,0,18.928-4.126,18.928-15.396v-6.984
				c0-9.523-3.103-13.491-15.98-13.808c-10.395-0.317-17.221-0.317-24.979-0.476V248.847z"/>
		</g>
		<g id="numero_24" display="inline" enable-background="new    ">
			<path fill="#F5F6F6" d="M103.366,339.157c11.481-13.332,14.429-16.824,26.685-31.584c15.825-19.205,16.911-23.332,16.911-30.791
				v-4.603c0-9.999-2.638-13.015-18.307-13.015c-7.292,0-17.066,1.746-22.961,3.492l-1.862-11.427
				c6.671-2.063,16.911-3.968,25.909-3.968c23.893,0,30.253,8.571,30.253,24.76c0,0.635,0,2.856,0,3.492
				c0,12.538-2.172,17.935-17.687,36.822c-11.17,13.649-12.722,15.713-22.806,27.299h41.423v11.745h-57.559V339.157z"/>
			<path fill="#F5F6F6" d="M230.12,326.142v25.236h-13.032v-25.236h-47.785v-13.173l43.285-64.122h17.531v65.867h14.429v11.428
				H230.12z M217.088,314.714v-52.376l-34.908,52.376H217.088z"/>

		</g>
		<g id="numero_23" display="inline" enable-background="new    ">
			<path fill="#F5F6F6" d="M107.401,339.157c11.481-13.332,14.429-16.824,26.685-31.584c15.825-19.205,16.911-23.332,16.911-30.791
				v-4.603c0-9.999-2.638-13.015-18.307-13.015c-7.292,0-17.066,1.746-22.961,3.492l-1.862-11.427
				c6.671-2.063,16.911-3.968,25.909-3.968c23.893,0,30.254,8.571,30.254,24.76c0,0.635,0,2.856,0,3.492
				c0,12.538-2.172,17.935-17.687,36.822c-11.17,13.649-12.722,15.713-22.807,27.299h41.424v11.745h-57.559V339.157z"/>
			<path fill="#F5F6F6" d="M184.971,338.681c7.447,1.746,15.05,2.54,22.651,2.54c14.583,0,19.858-3.492,19.858-13.649v-7.936
				c0-10.317-5.585-13.808-15.669-13.808h-21.255v-11.746h19.548c12.101,0,15.514-4.761,15.514-13.173v-9.205
				c0-9.523-4.344-12.698-16.755-12.698c-6.981,0-14.738,0.953-21.875,2.381l-1.397-11.269c6.516-1.587,15.515-2.857,23.582-2.857
				c21.876,0,29.478,7.777,29.478,22.538v9.364c0,9.682-2.172,15.713-11.791,20.474c8.533,2.54,13.653,7.46,13.653,18.887v10.317
				c0,16.506-9.619,24.125-32.891,24.125c-7.447,0-17.531-0.952-24.047-3.175L184.971,338.681z"/>
		</g>
		<g id="numero_22" display="inline" enable-background="new    ">
			<path fill="#F5F6F6" d="M107.479,339.157c11.48-13.332,14.428-16.824,26.685-31.584c15.825-19.205,16.911-23.332,16.911-30.791
				v-4.603c0-9.999-2.638-13.015-18.307-13.015c-7.292,0-17.066,1.746-22.961,3.492l-1.862-11.427
				c6.671-2.063,16.911-3.968,25.909-3.968c23.892,0,30.253,8.571,30.253,24.76c0,0.635,0,2.856,0,3.492
				c0,12.538-2.172,17.935-17.687,36.822c-11.17,13.649-12.722,15.713-22.807,27.299h41.424v11.745h-57.559V339.157z"/>
			<path fill="#F5F6F6" d="M182.877,339.157c11.48-13.332,14.428-16.824,26.685-31.584c15.825-19.205,16.911-23.332,16.911-30.791
				v-4.603c0-9.999-2.638-13.015-18.307-13.015c-7.292,0-17.066,1.746-22.961,3.492l-1.862-11.427
				c6.671-2.063,16.911-3.968,25.909-3.968c23.892,0,30.253,8.571,30.253,24.76c0,0.635,0,2.856,0,3.492
				c0,12.538-2.172,17.935-17.687,36.822c-11.17,13.649-12.722,15.713-22.807,27.299h41.424v11.745h-57.559V339.157z"/>
		</g>
		<g id="numero_21" display="inline" enable-background="new    ">

			<path fill="#F5F6F6" d="M119.967,339.157c11.481-13.332,14.428-16.824,26.685-31.584c15.825-19.205,16.91-23.332,16.91-30.791
				v-4.603c0-9.999-2.637-13.015-18.307-13.015c-7.292,0-17.066,1.746-22.961,3.492l-1.862-11.427
				c6.671-2.063,16.911-3.968,25.909-3.968c23.893,0,30.253,8.571,30.253,24.76c0,0.635,0,2.856,0,3.492
				c0,12.538-2.172,17.935-17.687,36.822c-11.17,13.649-12.722,15.713-22.806,27.299h41.423v11.745h-57.559V339.157z"/>
			<path fill="#F5F6F6" d="M194.9,275.512l-5.74-10.634l27.15-16.03h11.636v102.531h-13.032v-87.294L194.9,275.512z"/>
		</g>
		<g id="numero_20" display="inline" enable-background="new    ">
			<path fill="#F5F6F6" d="M102.747,339.157c11.48-13.332,14.429-16.824,26.685-31.584c15.825-19.205,16.911-23.332,16.911-30.791
				v-4.603c0-9.999-2.638-13.015-18.307-13.015c-7.292,0-17.066,1.746-22.961,3.492l-1.862-11.427
				c6.671-2.063,16.911-3.968,25.909-3.968c23.892,0,30.253,8.571,30.253,24.76c0,0.635,0,2.856,0,3.492
				c0,12.538-2.172,17.935-17.687,36.822c-11.17,13.649-12.722,15.713-22.807,27.299h41.424v11.745h-57.559V339.157z"/>
			<path fill="#F5F6F6" d="M245.168,325.507c0,15.872-7.912,27.458-31.96,27.458c-24.047,0-31.96-11.586-31.96-27.458v-50.79
				c0-15.872,7.913-27.458,31.96-27.458c24.048,0,31.96,11.586,31.96,27.458V325.507z M213.208,259.005
				c-14.273,0-18.928,5.555-18.928,17.142v47.932c0,11.586,4.654,17.142,18.928,17.142s18.928-5.555,18.928-17.142v-47.932
				C232.136,264.56,227.481,259.005,213.208,259.005z"/>
		</g>
		<g id="numero_19" display="inline" enable-background="new    ">
			<path fill="#F5F6F6" d="M119.037,275.512l-5.741-10.634l27.15-16.03h11.636v102.531H139.05v-87.294L119.037,275.512z"/>
			<path fill="#F5F6F6" d="M221.741,303.922c-5.12,1.905-13.808,3.65-20.635,3.65c-19.703,0-26.529-8.412-26.529-25.236v-5.079
				c0-18.57,5.43-29.998,29.788-29.998c22.341,0,30.253,10,30.253,24.919v44.917c0,26.347-11.481,35.87-40.648,35.87
				c-4.809,0-12.102-0.635-17.066-1.905l1.241-11.11c3.723,0.794,10.084,1.429,13.808,1.429c24.047,0,29.788-5.238,29.788-24.442
				V303.922z M221.741,291.701v-18.094c0-11.269-5.585-14.602-17.376-14.602c-13.343,0-16.911,4.126-16.911,14.602v8.729
				c0,9.682,3.568,13.649,14.894,13.649C209.174,295.986,216.621,293.922,221.741,291.701z"/>
		</g>
		<g id="numero_18" display="inline" enable-background="new    ">
			<path fill="#F5F6F6" d="M116.167,275.512l-5.74-10.634l27.15-16.03h11.636v102.531H136.18v-87.294L116.167,275.512z"/>
			<path fill="#F5F6F6" d="M218.716,299.001c14.118,6.666,18.772,13.333,18.772,24.125v4.603c0,17.776-9.309,25.236-32.115,25.236
				c-22.961,0-32.115-7.46-32.115-25.236v-4.603c0-10.792,4.5-17.459,18.307-24.125c-12.412-6.189-15.669-12.697-15.669-22.696
				v-4.126c0-14.443,6.981-24.919,29.478-24.919c22.341,0,29.477,10.476,29.477,24.919v4.126
				C234.851,286.304,231.438,292.812,218.716,299.001z M205.374,305.033c-15.67,6.507-19.393,9.523-19.393,18.57v3.651
				c0,10.792,4.964,14.284,19.393,14.284c14.273,0,19.393-3.492,19.393-14.284v-3.651
				C224.767,314.556,220.888,311.54,205.374,305.033z M205.374,293.605c13.342-5.555,16.755-8.888,16.755-16.982v-5.079
				c0-8.254-3.878-13.015-16.755-13.015c-13.032,0-16.756,4.761-16.756,13.015v5.079
				C188.618,284.717,192.031,288.05,205.374,293.605z"/>
		</g>
		<g id="numero_17" display="inline" enable-background="new    ">
			<path fill="#F5F6F6" d="M119.424,275.512l-5.74-10.634l27.15-16.03h11.636v102.531h-13.032v-87.294L119.424,275.512z"/>
			<path fill="#F5F6F6" d="M172.637,248.847h61.593v11.269l-41.269,91.262h-13.188l41.113-90.786h-48.25V248.847z"/>
		</g>
		<g id="numero_16" display="inline" enable-background="new    ">
			<path fill="#F5F6F6" d="M117.873,275.512l-5.74-10.634l27.15-16.03h11.636v102.531h-13.032v-87.294L117.873,275.512z"/>
			<path fill="#F5F6F6" d="M188.618,296.303c5.12-1.904,13.808-3.65,20.634-3.65c19.703,0,26.53,8.412,26.53,25.236v5.079
				c0,18.57-4.965,29.998-29.788,29.998c-22.341,0-30.253-9.523-30.253-24.443V283.13c0-26.347,11.48-35.87,40.648-35.87
				c4.81,0,12.101,0.635,17.066,1.905l-1.396,11.11c-3.723-0.794-9.929-1.429-13.653-1.429c-24.047,0-29.788,5.238-29.788,24.442
				V296.303z M188.618,308.524v18.094c0,11.269,5.585,14.602,17.376,14.602c13.342,0,16.911-4.126,16.911-14.602v-8.729
				c0-9.682-3.568-13.65-14.894-13.65C201.185,304.239,193.737,306.303,188.618,308.524z"/>
		</g>
		<g id="numero_15" display="inline" enable-background="new    ">
			<path fill="#F5F6F6" d="M119.89,275.512l-5.74-10.634l27.15-16.03h11.636v102.531h-13.032v-87.294L119.89,275.512z"/>
			<path fill="#F5F6F6" d="M179.774,248.847h52.749v11.745h-39.717v32.537c6.516,0.159,9.619,0.159,16.601,0.476
				c18.462,0.794,24.357,9.999,24.357,23.808v9.206c0,16.824-7.137,26.347-31.805,26.347c-7.757,0-18.152-0.952-26.064-3.651
				l1.396-10.792c7.757,1.905,17.066,2.698,24.513,2.698c15.514,0,18.927-4.126,18.927-15.396v-6.984
				c0-9.523-3.103-13.491-15.979-13.808c-10.395-0.317-17.221-0.317-24.979-0.476V248.847z"/>
		</g>
		<g id="numero_14" display="inline" enable-background="new    ">
			<path fill="#F5F6F6" d="M113.995,275.512l-5.74-10.634l27.15-16.03h11.636v102.531h-13.032v-87.294L113.995,275.512z"/>
			<path fill="#F5F6F6" d="M225.232,326.142v25.236H212.2v-25.236h-47.785v-13.173l43.286-64.122h17.531v65.867h14.428v11.428
				H225.232z M212.2,314.714v-52.376l-34.908,52.376H212.2z"/>
		</g>
		<g id="numero_13" display="inline" enable-background="new    ">
			<path fill="#F5F6F6" d="M120.976,275.512l-5.74-10.634l27.15-16.03h11.636v102.531H140.99v-87.294L120.976,275.512z"/>
			<path fill="#F5F6F6" d="M177.137,338.681c7.447,1.746,15.049,2.54,22.651,2.54c14.583,0,19.858-3.492,19.858-13.649v-7.936
				c0-10.317-5.585-13.808-15.669-13.808h-21.255v-11.746h19.548c12.101,0,15.515-4.761,15.515-13.173v-9.205
				c0-9.523-4.344-12.698-16.756-12.698c-6.981,0-14.739,0.953-21.875,2.381l-1.396-11.269c6.516-1.587,15.514-2.857,23.582-2.857
				c21.875,0,29.478,7.777,29.478,22.538v9.364c0,9.682-2.172,15.713-11.791,20.474c8.533,2.54,13.653,7.46,13.653,18.887v10.317
				c0,16.506-9.619,24.125-32.891,24.125c-7.447,0-17.531-0.952-24.047-3.175L177.137,338.681z"/>
		</g>
		<g id="numero_12" display="inline" enable-background="new    ">
			<path fill="#F5F6F6" d="M120.666,275.512l-5.74-10.634l27.15-16.03h11.636v102.531h-13.032v-87.294L120.666,275.512z"/>
			<path fill="#F5F6F6" d="M175.43,339.157c11.481-13.332,14.429-16.824,26.685-31.584c15.825-19.205,16.911-23.332,16.911-30.791
				v-4.603c0-9.999-2.637-13.015-18.307-13.015c-7.292,0-17.065,1.746-22.961,3.492l-1.862-11.427
				c6.671-2.063,16.911-3.968,25.909-3.968c23.892,0,30.253,8.571,30.253,24.76c0,0.635,0,2.856,0,3.492
				c0,12.538-2.172,17.935-17.687,36.822c-11.17,13.649-12.722,15.713-22.806,27.299h41.424v11.745H175.43V339.157z"/>
		</g>
		<g id="numero_11" display="inline" enable-background="new    ">
			<path fill="#F5F6F6" d="M127.284,275.512l-5.74-10.634l27.15-16.03h11.636v102.531h-13.032v-87.294L127.284,275.512z"/>
			<path fill="#F5F6F6" d="M181.583,275.512l-5.74-10.634l27.15-16.03h11.636v102.531h-13.032v-87.294L181.583,275.512z"/>
		</g>
		<g id="numero_10" display="inline" enable-background="new    ">
			<path fill="#F5F6F6" d="M115.934,275.512l-5.741-10.634l27.15-16.03h11.636v102.531h-13.032v-87.294L115.934,275.512z"/>
			<path fill="#F5F6F6" d="M237.721,325.507c0,15.872-7.912,27.458-31.959,27.458s-31.96-11.586-31.96-27.458v-50.79
				c0-15.872,7.913-27.458,31.96-27.458s31.959,11.586,31.959,27.458V325.507z M205.761,259.005
				c-14.273,0-18.928,5.555-18.928,17.142v47.932c0,11.586,4.654,17.142,18.928,17.142c14.273,0,18.927-5.555,18.927-17.142v-47.932
				C224.688,264.56,220.034,259.005,205.761,259.005z"/>
		</g>
		<g id="numero_9" display="inline" enable-background="new    ">
			<path fill="#F5F6F6" d="M191.101,303.922c-5.12,1.905-13.808,3.65-20.634,3.65c-19.703,0-26.53-8.412-26.53-25.236v-5.079
				c0-18.57,5.43-29.998,29.788-29.998c22.341,0,30.253,10,30.253,24.919v44.917c0,26.347-11.48,35.87-40.647,35.87
				c-4.81,0-12.102-0.635-17.066-1.905l1.241-11.11c3.724,0.794,10.084,1.429,13.808,1.429c24.047,0,29.788-5.238,29.788-24.442
				V303.922z M191.101,291.701v-18.094c0-11.269-5.585-14.602-17.376-14.602c-13.343,0-16.911,4.126-16.911,14.602v8.729
				c0,9.682,3.568,13.649,14.894,13.649C178.534,295.986,185.981,293.922,191.101,291.701z"/>
		</g>
		<g id="numero_8" display="inline" enable-background="new    ">
			<path fill="#F5F6F6" d="M187.3,299.001c14.118,6.666,18.772,13.333,18.772,24.125v4.603c0,17.776-9.309,25.236-32.115,25.236
				c-22.961,0-32.115-7.46-32.115-25.236v-4.603c0-10.792,4.5-17.459,18.307-24.125c-12.412-6.189-15.669-12.697-15.669-22.696
				v-4.126c0-14.443,6.981-24.919,29.478-24.919c22.341,0,29.478,10.476,29.478,24.919v4.126
				C203.435,286.304,200.021,292.812,187.3,299.001z M173.958,305.033c-15.67,6.507-19.394,9.523-19.394,18.57v3.651
				c0,10.792,4.965,14.284,19.394,14.284c14.273,0,19.393-3.492,19.393-14.284v-3.651
				C193.35,314.556,189.472,311.54,173.958,305.033z M173.958,293.605c13.342-5.555,16.755-8.888,16.755-16.982v-5.079
				c0-8.254-3.879-13.015-16.755-13.015c-13.032,0-16.756,4.761-16.756,13.015v5.079
				C157.202,284.717,160.615,288.05,173.958,293.605z"/>
		</g>
		<g id="numero_7" display="inline" enable-background="new    ">
			<path fill="#F5F6F6" d="M143.161,248.847h61.592v11.269l-41.269,91.262h-13.187l41.113-90.786h-48.25V248.847z"/>
		</g>
		<g id="numero_6" display="inline" enable-background="new    ">
			<path fill="#F5F6F6" d="M156.814,296.303c5.12-1.904,13.808-3.65,20.634-3.65c19.703,0,26.529,8.412,26.529,25.236v5.079
				c0,18.57-4.964,29.998-29.788,29.998c-22.341,0-30.253-9.523-30.253-24.443V283.13c0-26.347,11.481-35.87,40.648-35.87
				c4.81,0,12.102,0.635,17.066,1.905l-1.396,11.11c-3.724-0.794-9.929-1.429-13.653-1.429c-24.047,0-29.788,5.238-29.788,24.442
				V296.303z M156.814,308.524v18.094c0,11.269,5.585,14.602,17.376,14.602c13.342,0,16.911-4.126,16.911-14.602v-8.729
				c0-9.682-3.568-13.65-14.894-13.65C169.38,304.239,161.934,306.303,156.814,308.524z"/>
		</g>
		<g id="numero_5" display="inline" enable-background="new    ">
			<path fill="#F5F6F6" d="M148.901,248.847h52.749v11.745h-39.717v32.537c6.516,0.159,9.619,0.159,16.601,0.476
				c18.462,0.794,24.357,9.999,24.357,23.808v9.206c0,16.824-7.137,26.347-31.805,26.347c-7.757,0-18.152-0.952-26.064-3.651
				l1.396-10.792c7.757,1.905,17.066,2.698,24.513,2.698c15.514,0,18.927-4.126,18.927-15.396v-6.984
				c0-9.523-3.103-13.491-15.979-13.808c-10.395-0.317-17.221-0.317-24.979-0.476V248.847z"/>
		</g>
		<g id="numero_4" display="inline" enable-background="new    ">
			<path fill="#F5F6F6" d="M197.151,326.142v25.236h-13.032v-25.236h-47.785v-13.173l43.286-64.122h17.531v65.867h14.429v11.428
                                H197.151z M184.119,314.714v-52.376l-34.907,52.376H184.119z"/>
		</g>
		<g id="numero_3" display="inline" enable-background="new    ">
			<path fill="#F5F6F6" d="M146.884,338.681c7.447,1.746,15.049,2.54,22.651,2.54c14.583,0,19.858-3.492,19.858-13.649v-7.936
				c0-10.317-5.585-13.808-15.669-13.808H152.47v-11.746h19.548c12.101,0,15.514-4.761,15.514-13.173v-9.205
				c0-9.523-4.344-12.698-16.755-12.698c-6.981,0-14.739,0.953-21.875,2.381l-1.396-11.269c6.516-1.587,15.515-2.857,23.582-2.857
				c21.875,0,29.478,7.777,29.478,22.538v9.364c0,9.682-2.172,15.713-11.791,20.474c8.533,2.54,13.653,7.46,13.653,18.887v10.317
				c0,16.506-9.619,24.125-32.891,24.125c-7.447,0-17.531-0.952-24.047-3.175L146.884,338.681z"/>
		</g>
		<g id="numero_2" display="inline" enable-background="new    ">
			<path fill="#F5F6F6" d="M145.178,339.157c11.481-13.332,14.429-16.824,26.685-31.584c15.825-19.205,16.911-23.332,16.911-30.791
				v-4.603c0-9.999-2.637-13.015-18.307-13.015c-7.292,0-17.066,1.746-22.961,3.492l-1.861-11.427
				c6.671-2.063,16.911-3.968,25.909-3.968c23.892,0,30.253,8.571,30.253,24.76c0,0.635,0,2.856,0,3.492
				c0,12.538-2.172,17.935-17.687,36.822c-11.17,13.649-12.722,15.713-22.806,27.299h41.424v11.745h-57.559V339.157z"/>
		</g>
		<g id="numero_1" enable-background="new    ">
			<path fill="#F5F6F6" d="M148.564,275.512l-5.741-10.634l27.15-16.03h11.636v102.531h-13.032v-87.294L148.564,275.512z"/>
		</g>
	<g id="numero_0" display="inline">
		<path fill="#F5F6F6" d="M208.272,326.299c0,16-8.16,27.681-32.96,27.681c-24.801,0-32.961-11.68-32.961-27.681v-51.201
			c0-16,8.16-27.681,32.961-27.681c24.8,0,32.96,11.68,32.96,27.681V326.299z M175.311,259.257c-14.72,0-19.521,5.6-19.521,17.28
			v48.321c0,11.68,4.8,17.28,19.521,17.28s19.521-5.6,19.521-17.28v-48.321C194.832,264.857,190.031,259.257,175.311,259.257z"/>
	</g>
    <!-- Fine Numeri -->

    <!-- Indicatore -->

<g id="indicatore">
<!--
-->
	<polygon id="freccia_indicatore" fill="#535354" points="646.159,752.814 682.875,715.785 731.276,715.785 731.276,786.736 
		682.875,786.736 	"/>
</g>
<!--
    <g id="indicatore">
      <image overflow="visible" opacity="0.63" enable-background="new" width="96" height="65" xlink:href="EE12B3E9.png"  transform="matrix(0.7723 0 0 0.7723 458.043 652)"/>
      <linearGradient id="SVGID_7_" gradientUnits="userSpaceOnUse" x1="1005.4414" y1="-70.2495" x2="1068.5625" y2="-70.2495" gradientTransform="matrix(1 0 0 1 -541.8008 173.8008)">
        <stop  offset="0" style="stop-color:#A8AAAD"/>
        <stop  offset="0.1623" style="stop-color:#A1A2A5"/>
        <stop  offset="0.3804" style="stop-color:#919395"/>
        <stop  offset="0.6301" style="stop-color:#77777A"/>
        <stop  offset="0.9013" style="stop-color:#515153"/>
        <stop  offset="1" style="stop-color:#424143"/>
      </linearGradient>
      <polygon fill="url(#SVGID_7_)" points="463.641,678 490.343,658 526.763,658 526.763,698 491.436,698"/>
      <polygon fill="none" stroke="#191919" stroke-width="0.5" stroke-miterlimit="10"
               points="463.641,678 490.343,658 526.763,658 526.763,698 491.436,698"/>
    </g>
-->

<!-- Fine Indicatore -->

<!-- Colori Cerchio -->
<!--
  <ellipse id="cerchio_numero_col_0" fill="#E9E7D6" cx="173.853" cy="300.474" rx="107.481" ry="112.807"/>
  <ellipse id="cerchio_numero_col_1" fill="#EC2227" cx="173.853" cy="300.474" rx="107.481" ry="112.807"/>
  <ellipse id="cerchio_numero_col_2" fill="#F15B2B" cx="173.853" cy="300.474" rx="107.481" ry="112.807"/>
  <ellipse id="cerchio_numero_col_3" fill="#FBB041" cx="173.853" cy="300.474" rx="107.481" ry="112.807"/>
  <ellipse id="cerchio_numero_col_4" fill="#FFDE11" cx="173.853" cy="300.474" rx="107.481" ry="112.807"/>
  <ellipse id="cerchio_numero_col_5" fill="#BDD631" cx="173.853" cy="300.474" rx="107.481" ry="112.807"/>
  <ellipse id="cerchio_numero_col_6" fill="#8EC641" cx="173.853" cy="300.474" rx="107.481" ry="112.807"/>
  <ellipse id="cerchio_numero_col_7" fill="#28B34B" cx="173.853" cy="300.474" rx="107.481" ry="112.807"/>
  <ellipse id="cerchio_numero_col_8" fill="#15703B" cx="173.853" cy="300.474" rx="107.481" ry="112.807"/>
-->
  <ellipse id="cerchio_numero_col_0" fill="#E9E7D6" cx="173.853" cy="300.474" rx="107.481" ry="112.807"/>
  <ellipse id="cerchio_numero_col_1" fill="#C80011" cx="173.853" cy="300.474" rx="107.481" ry="112.807"/>
  <ellipse id="cerchio_numero_col_2" fill="#D5421E" cx="173.853" cy="300.474" rx="107.481" ry="112.807"/>
  <ellipse id="cerchio_numero_col_3" fill="#E8A531" cx="173.853" cy="300.474" rx="107.481" ry="112.807"/>
  <ellipse id="cerchio_numero_col_4" fill="#F9F167" cx="173.853" cy="300.474" rx="107.481" ry="112.807"/>
  <ellipse id="cerchio_numero_col_5" fill="#E4EE39" cx="173.853" cy="300.474" rx="107.481" ry="112.807"/>
  <ellipse id="cerchio_numero_col_6" fill="#D0EE31" cx="173.853" cy="300.474" rx="107.481" ry="112.807"/>
  <ellipse id="cerchio_numero_col_7" fill="#A6EF20" cx="173.853" cy="300.474" rx="107.481" ry="112.807"/>
  <ellipse id="cerchio_numero_col_8" fill="#6FD813" cx="173.853" cy="300.474" rx="107.481" ry="112.807"/>
<!-- Fine Colori Cerchio -->


<!-- Colori Tacche -->

	<rect id="colore_8" x="552.922" y="86.402" fill="#6FD813" width="122.156" height="81"/>
	<rect id="colore_7" x="552.922" y="170.095" fill="#A6EF20" width="122.156" height="81"/>
	<rect id="colore_6" x="552.922" y="253.789" fill="#D0EE31" width="122.156" height="81"/>
	<rect id="colore_5" x="552.922" y="337.483" fill="#E4EE39" width="122.156" height="81.001"/>
	<rect id="colore_4" x="552.922" y="421.177" fill="#F9F167" width="122.156" height="81"/>
	<rect id="colore_3" x="552.922" y="504.87" fill="#E8A531" width="122.156" height="81"/>
	<rect id="colore_2" x="552.922" y="588.565" fill="#D5421E" width="122.156" height="81"/>
	<rect id="colore_1" x="552.922" y="672.258" fill="#C80011" width="122.156" height="81"/>
<!--
		<path fill="none" stroke="#010101" stroke-width="0.5" stroke-miterlimit="10" d="M469,174h-43v-50.5
			c0-11.925,9.666-21.5,21.5-21.5c11.923,0,21.5,9.665,21.5,21.5V174L469,174z"/>
			<rect x="426" y="174" fill="none" stroke="#010101" stroke-width="0.5" stroke-miterlimit="10" width="43" height="72"/>
			<rect x="426" y="246" fill="none" stroke="#010101" stroke-width="0.5" stroke-miterlimit="10" width="43" height="72"/>
			<rect x="426" y="318" fill="none" stroke="#010101" stroke-width="0.5" stroke-miterlimit="10" width="43" height="72"/>
			<rect x="426" y="390" fill="none" stroke="#010101" stroke-width="0.5" stroke-miterlimit="10" width="43" height="72"/>
			<rect x="426" y="462" fill="none" stroke="#010101" stroke-width="0.5" stroke-miterlimit="10" width="43" height="72"/>
			<rect x="426" y="534" fill="none" stroke="#010101" stroke-width="0.5" stroke-miterlimit="10" width="43" height="72"/>
		<path fill="none" stroke="#010101" stroke-width="0.5" stroke-miterlimit="10" d="M426,656.5v-50.5h43v50.5
			c0,11.924-9.665,21.5-21.5,21.5c-11.925,0-21.5-9.666-21.5-21.5z"/>
 d="M426.569,651.043v-48.768h43.18v48.768v1.469c0,11.924-9.665,21.59-21.589,21.59
							c-11.925,0-21.591-9.666-21.591-21.59V651.043z"
 d="M469.592,126.228v48.765h-43.18v-48.765v-1.469c0-11.925,9.666-21.59,21.591-21.59
							c11.923,0,21.589,9.665,21.589,21.59V126.228L469.592,126.228z"

	<g id="colore_1">
					<defs>
						<path id="SVGID_1_"
                                                     d="M426,656.5v-50.5h43v50.5c0,11.924-9.665,21.5-21.5,21.5c-11.925,0-21.5-9.666-21.5-21.5z"/>
					</defs>
					<clipPath id="SVGID_2_">
						<use xlink:href="#SVGID_1_" 
                                                     overflow="visible"/>
					</clipPath>
					<rect x="426" y="606" clip-path="url(#SVGID_2_)" fill="#EC2227" width="43" height="72"/>
	</g>
	<rect id="colore_2" x="426" y="534" fill="#F15B2B" width="43" height="72"/>
	<rect id="colore_3" x="426" y="462" fill="#FBB041" width="43" height="72"/>
	<rect id="colore_4" x="426" y="390" fill="#FFDE11" width="43" height="72"/>
	<rect id="colore_5" x="426" y="318" fill="#BDD631" width="43" height="72"/>
	<rect id="colore_6" x="426" y="246" fill="#8EC641" width="43" height="72"/>
	<rect id="colore_7" x="426" y="174" fill="#28B34B" width="43" height="72"/>
	<g id="colore_8">
					<defs>
						<path id="SVGID_3_" d="M469,174h-43v-50.5
			c0-11.925,9.666-21.5,21.5-21.5c11.923,0,21.5,9.665,21.5,21.5V174L469,174z"/>
					</defs>
					<clipPath id="SVGID_4_">
						<use xlink:href="#SVGID_3_"  overflow="visible"/>
					</clipPath>
					<rect x="426" y="102" clip-path="url(#SVGID_4_)" fill="#15703B" width="43" height="72"/>
	</g>
-->

<!-- Fine Colori Tacche -->


<!-- Titolo -->

<g id="titolo_138">
	<path fill="#231F20" d="M-40.432,78.793V30.206h30.566v9.703H-29.49v8.899h18.093v9.704H-29.49v10.582h19.624v9.701H-40.432z"/>
	<path fill="#231F20" d="M12.748,79.523c-5.621,0-11.528-1.241-15.688-3.138l1.824-8.462c4.451,1.388,8.977,2.336,14.008,2.336
		c5.618,0,6.712-1.095,6.712-5.181c0-4.378-0.219-4.89-8.172-6.64C-0.311,55.887-2.064,53.554-2.064,43.046
		c0-9.7,3.428-13.57,16.78-13.57c4.232,0,9.335,0.44,14.737,1.606l-1.095,9.194c-5.542-0.95-9.12-1.385-13.496-1.385
		c-4.888,0-5.982,0.871-5.982,4.445c0,4.671,0.219,4.742,7.879,6.568c13.131,3.135,13.789,5.687,13.789,15.247
		C30.548,74.78,27.41,79.523,12.748,79.523z"/>
	<path fill="#231F20" d="M78.108,78.793H66.73L64.1,69.312H47.834l-2.626,9.481H33.826l14.81-48.587h14.59L78.108,78.793z
		 M50.314,60.189h11.161l-5.545-20.352L50.314,60.189z"/>
	<path fill="#231F20" d="M102.836,64.053h-8.318v14.74H83.576V30.206h19.843c11.818,0,16.194,4.668,16.194,13.789v6.348
		C119.614,59.461,114.652,64.053,102.836,64.053z M108.672,45.017c0-3.504-1.238-5.108-5.836-5.108h-8.318v14.663h8.318
		c4.813,0,5.836-1.819,5.836-5.324V45.017z"/>
	<path fill="#231F20" d="M163.164,78.793h-11.381l-2.626-9.481h-16.269l-2.626,9.481h-11.384l14.812-48.587h14.593L163.164,78.793z
		 M135.368,60.189h11.163l-5.545-20.352L135.368,60.189z"/>
	<path fill="#231F20" d="M177.75,62.889c0,4.232,1.388,6.709,6.784,6.709c3.502,0,8.318-0.434,12.548-1.167l1.534,9.559
		c-4.818,1.021-9.194,1.532-14.082,1.532c-12.255,0-17.728-6.054-17.728-14.881V44.36c0-8.828,5.473-14.884,17.728-14.884
		c4.887,0,9.264,0.509,14.082,1.534l-1.534,9.555c-4.229-0.727-9.045-1.167-12.548-1.167c-5.396,0-6.784,2.48-6.784,6.712V62.889z"
		/>
	<path fill="#231F20" d="M205.908,30.206h10.942v48.587h-10.942V30.206z M218.236,53.988l13.133-23.782h12.33l-13.645,23.782
		l14.665,24.805h-12.329L218.236,53.988z"/>
	<path fill="#231F20" d="M272.358,30.206v48.15c0,6.055-0.437,6.419-8.752,14.517l-2.845-3.065c7.148-7,7.295-7.296,7.295-11.014
		V30.206H272.358z"/>
	<path fill="#231F20" d="M318.32,30.206v34.801c0,8.241-4.963,14.517-16.781,14.517s-16.78-6.275-16.78-14.517V30.206h4.304v34.801
		c0,6.782,4.307,10.652,12.476,10.652c8.172,0,12.476-3.87,12.476-10.652V30.206H318.32z"/>
	<path fill="#231F20" d="M335.167,34.438v44.355h-4.086V30.206h6.275l23.052,44.43v-44.43h4.086v48.587h-6.272L335.167,34.438z"/>
	<path fill="#231F20" d="M382.289,78.793h-4.307V30.206h4.307V78.793z"/>
	<path fill="#231F20" d="M411.687,79.523c-12.474,0-16.999-6.129-16.999-14.444V43.922c0-8.317,4.525-14.446,16.999-14.446
		c12.473,0,16.999,6.129,16.999,14.446v21.157C428.685,73.394,424.159,79.523,411.687,79.523z M424.381,64.932V44.067
		c0-6.934-3.356-10.721-12.694-10.721c-9.339,0-12.695,3.787-12.695,10.721v20.866c0,6.93,3.356,10.726,12.695,10.726
		C421.025,75.658,424.381,71.863,424.381,64.932z"/>
	<path fill="#231F20" d="M458.884,60.117h-0.95h-12.913v18.676h-4.305V30.206h17.217c9.778,0,13.352,4.453,13.352,11.237v7.437
		c0,5.327-2.188,9.269-7.878,10.654l12.985,19.26h-4.888L458.884,60.117z M458.008,34.073h-12.987v22.179h12.987
		c6.129,0,8.974-2.046,8.974-7.373v-7.437C466.981,36.116,464.136,34.073,458.008,34.073z"/>
</g>

<!--
<g id="titolo_138">
	<g enable-background="new    ">
		<path fill="#231F20" d="M49.397,63.741V27.563h22.761v7.225H57.545v6.627h13.472v7.225H57.545v7.877h14.612v7.225H49.397z"/>
		<path fill="#231F20" d="M89,64.284c-4.183,0-8.583-0.923-11.679-2.336l1.358-6.301c3.313,1.032,6.681,1.738,10.43,1.738
			c4.183,0,4.997-0.814,4.997-3.857c0-3.259-0.163-3.639-6.084-4.942c-8.746-1.901-10.049-3.64-10.049-11.462
			c0-7.225,2.553-10.104,12.494-10.104c3.15,0,6.953,0.325,10.973,1.194l-0.815,6.845c-4.128-0.706-6.79-1.032-10.049-1.032
			c-3.639,0-4.454,0.652-4.454,3.313c0,3.477,0.163,3.531,5.867,4.889c9.778,2.336,10.267,4.237,10.267,11.354
			C102.254,60.753,99.918,64.284,89,64.284z"/>
		<path fill="#231F20" d="M137.673,63.741h-8.474l-1.956-7.062H115.13l-1.955,7.062H104.7l11.027-36.178h10.864L137.673,63.741z
			 M116.977,49.889h8.311l-4.128-15.156L116.977,49.889z"/>
		<path fill="#231F20" d="M156.091,52.768h-6.192v10.973h-8.148V27.563h14.775c8.8,0,12.06,3.477,12.06,10.267v4.726
			C168.585,49.345,164.891,52.768,156.091,52.768z M160.437,38.59c0-2.607-0.923-3.803-4.346-3.803h-6.192v10.918h6.192
			c3.585,0,4.346-1.357,4.346-3.965V38.59z"/>
		<path fill="#231F20" d="M201.017,63.741h-8.474l-1.956-7.062h-12.113l-1.956,7.062h-8.474l11.027-36.178h10.864L201.017,63.741z
			 M180.32,49.889h8.311l-4.128-15.156L180.32,49.889z"/>
		<path fill="#231F20" d="M211.884,51.899c0,3.15,1.032,4.997,5.052,4.997c2.607,0,6.192-0.325,9.344-0.869l1.141,7.116
			c-3.585,0.761-6.845,1.141-10.484,1.141c-9.126,0-13.2-4.509-13.2-11.081V38.101c0-6.573,4.074-11.081,13.2-11.081
			c3.64,0,6.899,0.38,10.484,1.141l-1.141,7.115c-3.151-0.543-6.736-0.869-9.344-0.869c-4.02,0-5.052,1.848-5.052,4.998V51.899z"/>
		<path fill="#231F20" d="M232.854,27.563h8.147v36.178h-8.147V27.563z M242.034,45.272l9.778-17.709h9.18l-10.157,17.709
			l10.918,18.469h-9.18L242.034,45.272z"/>
	</g>
	<g enable-background="new    ">

		<path fill="#231F20" d="M281.941,36.12l-0.706,29.334h-4.509l1.249-36.178h5.921l10.43,27.976l10.43-27.976h5.922l1.249,36.178
			h-4.509l-0.706-29.334l-9.235,24.662h-6.301L281.941,36.12z"/>
		<path fill="#231F20" d="M348.541,65.454h-4.726l-2.987-8.691h-15.373l-2.934,8.691h-4.727l12.223-36.178h6.301L348.541,65.454z
			 M333.168,32.644l-6.464,20.045h12.929L333.168,32.644z"/>
		<path fill="#231F20" d="M363.698,47.094l-11.353-17.817h4.997l8.963,14.123l9.018-14.123h4.997l-11.407,17.817l11.788,18.36
			h-4.998l-9.397-14.667l-9.343,14.667h-4.998L363.698,47.094z"/>
		<path fill="#231F20" d="M391.893,65.454h-4.671V29.276h4.671V65.454z"/>
	</g>
</g>
-->

<!-- Fine Titolo -->


</defs>

<g>
	<rect id="bg" x="-448" y="-154.021" fill="#F0EFEF" width="1920" height="1078.021"/>
	<linearGradient id="SVGID_1_" gradientUnits="userSpaceOnUse" x1="-447.9998" y1="382.6423" x2="-102.0327" y2="382.6423">
		<stop  offset="0.982" style="stop-color:#E5E5E5"/>
		<stop  offset="0.9825" style="stop-color:#E4E4E4"/>
		<stop  offset="0.9907" style="stop-color:#D9D9D9"/>
		<stop  offset="1" style="stop-color:#D6D6D6"/>
	</linearGradient>
	<rect x="-448" y="-77.015" fill="url(#SVGID_1_)" width="344.5" height="919.315"/>
	<rect id="sfondo_titolo" x="-448.001" y="-156" fill="#BBBBBB" width="1920.001" height="75"/>
	
		<linearGradient id="bordo_verde_titolo_1_" gradientUnits="userSpaceOnUse" x1="-88.4006" y1="-426.7917" x2="1831.6003" y2="-426.7917" gradientTransform="matrix(1 0 0 1 -359.6006 347.6016)">
		<stop  offset="0" style="stop-color:#29B574"/>
		<stop  offset="1" style="stop-color:#1C905B"/>
	</linearGradient>
	<rect id="bordo_verde_titolo" x="-448.001" y="-81.365" fill="url(#bordo_verde_titolo_1_)" width="1920.001" height="4.349"/>
	<rect id="sfondo_footer" x="-448.001" y="849" fill="#BBBBBB" width="1920.001" height="75"/>
	
		<linearGradient id="bordo_verde_footer_1_" gradientUnits="userSpaceOnUse" x1="182.5002" y1="-93.3684" x2="2102.5017" y2="-93.3684" gradientTransform="matrix(1 0 0 -1 -630.502 752.2817)">
		<stop  offset="0" style="stop-color:#29B574"/>
		<stop  offset="1" style="stop-color:#1C905B"/>
	</linearGradient>
	<rect id="bordo_verde_footer" x="-448.001" y="842.3" fill="url(#bordo_verde_footer_1_)" width="1920.001" height="6.7"/>
</g>
	<g id="pallet">
		<g>
			<polygon fill="#C2B2A0" points="1358.863,711.401 1358.863,718.422 1192.399,794.001 1160.539,808.467 1160.539,801.436 
				1192.399,786.972 1216.026,776.247 1247.884,761.781 1271.494,751.063 1271.509,751.063 1271.509,751.055 1303.373,736.59 
				1327,725.865 			"/>
			<polygon fill="#A2927C" points="1358.863,683.644 1358.863,711.401 1327,725.865 1327,725.856 1327,698.11 			"/>
			<polygon fill="#ADA08B" points="1358.863,683.636 1358.863,683.644 1327,698.11 1303.373,708.833 1271.509,723.3 
				1247.884,734.026 1216.026,748.49 1192.399,759.215 1160.539,773.681 1160.539,766.657 1192.399,752.198 1247.891,727.003 
				1280.097,712.372 1303.373,701.812 1303.373,701.805 1326.347,691.373 1326.347,691.08 1327,691.08 1358.863,676.613 			"/>
			<polygon fill="#ADA08B" points="1358.863,669.581 1358.863,676.613 1327,691.08 1327,684.047 			"/>
			<polygon fill="#C2B2A0" points="1358.863,669.581 1327,684.047 941.252,684.047 973.113,669.581 			"/>
			<polygon fill="#C2B2A0" points="1327,725.856 1327,725.865 1303.373,736.59 1303.373,725.856 			"/>
			<polygon fill="#796955" points="1327,698.11 1327,725.856 1303.373,725.856 1303.373,708.842 1303.373,708.833 			"/>
			<polygon fill="#CFC5B2" points="1327,684.047 1327,691.08 1326.347,691.08 1275.669,691.08 1191.652,691.08 1175.267,691.08 
				1159.791,691.08 1108.46,691.08 1024.344,691.08 1008.056,691.08 992.581,691.08 941.252,691.08 941.252,684.047 			"/>
			<polygon fill="#C2B2A0" points="1326.347,691.08 1326.347,691.373 1303.373,701.805 1303.373,694.781 1267.529,694.781 
				1275.669,691.08 			"/>
			<polygon fill="#A2927C" points="1303.373,725.856 1303.373,736.59 1271.509,751.055 1271.509,723.3 1303.373,708.833 
				1303.373,708.842 			"/>
			<polygon fill="#ADA08B" points="1303.373,694.781 1303.373,701.805 1303.373,701.812 1280.097,712.372 1271.509,716.27 
				1271.509,709.245 			"/>
			<polygon fill="#C2B2A0" points="1303.373,694.781 1271.509,709.245 885.76,709.245 917.624,694.781 933.106,694.781 
				984.437,694.781 999.913,694.781 1024.344,694.781 1100.318,694.781 1151.649,694.781 1167.125,694.781 1191.652,694.781 
				1267.529,694.781 			"/>
			<polygon fill="#C2B2A0" points="1280.097,712.372 1247.891,727.003 1247.884,726.992 1247.884,719.972 1212.039,719.972 
				1220.187,716.27 1271.509,716.27 			"/>
			<polygon fill="#796955" points="1271.509,751.055 1271.509,751.063 1271.494,751.063 			"/>
			<polygon fill="#796955" points="1271.509,723.3 1271.509,751.055 1271.494,751.063 1247.891,751.063 1247.884,751.063 
				1247.884,734.026 			"/>
			<polygon fill="#CFC5B2" points="1159.791,716.27 1136.162,716.27 1119.785,716.27 1104.3,716.27 1052.97,716.27 1013.603,716.27 
				992.48,716.27 968.851,716.27 952.574,716.27 937.098,716.27 885.76,716.27 885.76,709.245 1271.509,709.245 1271.509,716.27 
				1220.187,716.27 1180.912,716.27 			"/>
			<polygon fill="#C2B2A0" points="1271.494,751.063 1247.884,761.781 1247.884,751.063 1247.891,751.063 			"/>
			<polygon fill="#C2B2A0" points="1247.891,727.003 1192.399,752.198 1192.399,745.162 1156.546,745.162 1164.7,741.459 
				1216.026,741.459 1247.884,726.992 			"/>
			<polygon fill="#A2927C" points="1247.884,751.063 1247.884,761.781 1216.026,776.247 1216.026,748.49 1247.884,734.026 			"/>
			<polygon fill="#ADA08B" points="1247.884,719.972 1247.884,726.992 1216.026,741.459 1216.026,734.438 			"/>
			<polygon fill="#C2B2A0" points="1247.884,719.972 1216.026,734.438 830.276,734.438 862.141,719.972 877.617,719.972 
				928.946,719.972 944.426,719.972 968.851,719.972 992.48,719.972 1005.458,719.972 1044.828,719.972 1096.157,719.972 
				1111.633,719.972 1136.162,719.972 1159.791,719.972 1172.769,719.972 1212.039,719.972 			"/>
			<polygon fill="#C2B2A0" points="1220.187,716.27 1212.039,719.972 1172.769,719.972 1180.912,716.27 			"/>
			<polygon fill="#796955" points="1216.026,748.49 1216.026,776.247 1192.399,776.247 1192.399,759.215 			"/>
			<polygon fill="#CFC5B2" points="1104.3,741.459 1080.672,741.459 1064.293,741.459 1048.816,741.459 997.488,741.459 
				958.119,741.459 936.988,741.459 913.369,741.459 897.086,741.459 881.606,741.459 830.276,741.459 830.276,734.438 
				1216.026,734.438 1216.026,741.459 1164.7,741.459 1125.429,741.459 			"/>
			<polygon fill="#C2B2A0" points="1216.026,776.247 1192.399,786.972 1192.399,776.247 			"/>
			<polygon fill="#A2927C" points="1192.399,776.247 1192.399,786.972 1160.539,801.436 1160.539,773.681 1192.399,759.215 			"/>
			<polygon fill="#ADA08B" points="1192.399,745.162 1192.399,752.198 1160.539,766.657 1160.539,759.626 			"/>
			<polygon fill="#C2B2A0" points="1192.399,745.162 1160.539,759.626 774.789,759.626 806.649,745.162 822.129,745.162 
				873.457,745.162 888.942,745.162 913.369,745.162 936.988,745.162 949.969,745.162 989.337,745.162 1040.668,745.162 
				1056.143,745.162 1080.672,745.162 1104.3,745.162 1117.281,745.162 1156.546,745.162 			"/>
			<polygon fill="#796955" points="1191.652,691.08 1191.652,694.781 1167.125,694.781 1175.267,691.08 			"/>
			<polygon fill="#796955" points="1180.912,716.27 1172.769,719.972 1159.791,719.972 1159.791,716.27 			"/>
			<polygon fill="#A2927C" points="1175.267,691.08 1167.125,694.781 1151.649,694.781 1159.791,691.08 			"/>
			<polygon fill="#C2B2A0" points="1164.7,741.459 1156.546,745.162 1117.281,745.162 1125.429,741.459 			"/>
			<polygon fill="#CFC5B2" points="1160.539,801.436 1160.539,808.467 774.789,808.467 774.789,801.436 826.117,801.436 
				941.996,801.436 993.327,801.436 1109.207,801.436 			"/>
			<polygon fill="#B8A694" points="1160.539,773.681 1160.539,801.436 1109.207,801.436 1109.207,786.972 1109.207,783.276 
				1109.207,776.247 1109.207,773.681 			"/>
			<rect x="1109.207" y="766.657" fill="#CFC5B2" width="51.332" height="7.023"/>
			<polygon fill="#CFC5B2" points="1048.816,766.657 1025.191,766.657 1008.802,766.657 993.327,766.657 941.996,766.657 
				902.629,766.657 881.506,766.657 857.98,766.657 841.593,766.657 826.117,766.657 774.789,766.657 774.789,759.626 
				1160.539,759.626 1160.539,766.657 1109.207,766.657 1069.94,766.657 			"/>
			<rect x="1136.162" y="716.27" fill="#ADA08B" width="23.627" height="3.702"/>
			<polygon fill="#C2B2A0" points="1159.791,691.08 1151.649,694.781 1100.318,694.781 1108.46,691.08 			"/>
			<polygon fill="#796955" points="1136.162,716.27 1136.162,719.972 1111.633,719.972 1119.785,716.27 			"/>
			<polygon fill="#796955" points="1125.429,741.459 1117.281,745.162 1104.3,745.162 1104.3,741.459 			"/>
			<polygon fill="#A2927C" points="1119.785,716.27 1111.633,719.972 1096.157,719.972 1104.3,716.27 			"/>
			<polygon fill="#C2B2A0" points="1109.207,786.972 1109.207,801.436 993.327,801.436 1025.191,786.972 			"/>
			<polygon fill="#CFC5B2" points="1109.207,776.247 1109.207,783.276 1025.191,783.276 1025.191,776.247 1048.816,776.247 			"/>
			<polygon fill="#C2B2A0" points="1109.207,773.681 1109.207,776.247 1048.816,776.247 1069.94,766.657 1109.207,766.657 			"/>
			<rect x="1080.672" y="741.459" fill="#ADA08B" width="23.626" height="3.703"/>
			<polygon fill="#C2B2A0" points="1104.3,716.27 1096.157,719.972 1044.828,719.972 1052.97,716.27 			"/>
			<polygon fill="#796955" points="1080.672,741.459 1080.672,745.162 1056.143,745.162 1064.293,741.459 			"/>
			<polygon fill="#796955" points="1069.94,766.657 1048.816,776.247 1048.816,766.657 			"/>
			<polygon fill="#A2927C" points="1064.293,741.459 1056.143,745.162 1040.668,745.162 1048.816,741.459 			"/>
			<polygon fill="#C2B2A0" points="1052.97,716.27 1044.828,719.972 1005.458,719.972 1013.603,716.27 			"/>
			<rect x="1025.191" y="766.657" fill="#ADA08B" width="23.625" height="9.589"/>
			<polygon fill="#C2B2A0" points="1048.816,741.459 1040.668,745.162 989.337,745.162 997.488,741.459 			"/>
			<polygon fill="#796955" points="1025.191,783.276 1025.191,786.972 993.327,801.436 993.327,773.681 1008.802,766.657 
				1025.191,766.657 1025.191,776.247 			"/>
			<polygon fill="#796955" points="1024.344,691.08 1024.344,694.781 999.913,694.781 1008.056,691.08 			"/>
			<polygon fill="#796955" points="1013.603,716.27 1005.458,719.972 992.48,719.972 992.48,716.27 			"/>
			<polygon fill="#A2927C" points="1008.802,766.657 993.327,773.681 993.327,766.657 			"/>
			<polygon fill="#A2927C" points="1008.056,691.08 999.913,694.781 984.437,694.781 992.581,691.08 			"/>
			<polygon fill="#C2B2A0" points="997.488,741.459 989.337,745.162 949.969,745.162 958.119,741.459 			"/>
			<polygon fill="#B8A694" points="993.327,773.681 993.327,801.436 941.996,801.436 941.996,786.972 941.996,783.276 
				941.996,776.247 941.996,773.681 			"/>
			<rect x="941.996" y="766.657" fill="#CFC5B2" width="51.332" height="7.023"/>
			<polygon fill="#C2B2A0" points="992.581,691.08 984.437,694.781 933.106,694.781 941.033,691.18 941.252,691.08 			"/>
			<rect x="968.851" y="716.27" fill="#ADA08B" width="23.628" height="3.702"/>
			<polygon fill="#796955" points="968.851,716.27 968.851,719.972 944.426,719.972 952.574,716.27 			"/>
			<polygon fill="#796955" points="958.119,741.459 949.969,745.162 936.988,745.162 936.988,741.459 			"/>
			<polygon fill="#A2927C" points="952.574,716.27 944.426,719.972 928.946,719.972 937.098,716.27 			"/>
			<polygon fill="#C2B2A0" points="941.996,786.972 941.996,801.436 826.117,801.436 857.98,786.972 			"/>
			<polygon fill="#CFC5B2" points="941.996,776.247 941.996,783.276 857.98,783.276 857.98,776.247 881.506,776.247 			"/>
			<polygon fill="#C2B2A0" points="941.996,773.681 941.996,776.247 881.506,776.247 902.629,766.657 941.996,766.657 			"/>
			<polygon fill="#C2B2A0" points="937.098,716.27 928.946,719.972 877.617,719.972 885.544,716.37 885.76,716.27 			"/>
			<rect x="913.369" y="741.459" fill="#ADA08B" width="23.619" height="3.703"/>
			<polygon fill="#796955" points="913.369,741.459 913.369,745.162 888.942,745.162 897.086,741.459 			"/>
			<polygon fill="#796955" points="902.629,766.657 881.506,776.247 881.506,766.657 			"/>
			<polygon fill="#A2927C" points="897.086,741.459 888.942,745.162 873.457,745.162 881.606,741.459 			"/>
			<polygon fill="#C2B2A0" points="881.606,741.459 873.457,745.162 822.129,745.162 830.052,741.569 830.276,741.459 			"/>
			<rect x="857.98" y="766.657" fill="#ADA08B" width="23.526" height="9.589"/>
			<polygon fill="#796955" points="857.98,776.247 857.98,783.276 857.98,786.972 826.117,801.436 826.117,773.681 841.593,766.657 
				857.98,766.657 			"/>
			<polygon fill="#A2927C" points="841.593,766.657 826.117,773.681 826.117,766.657 			"/>
			<rect x="774.789" y="773.681" fill="#B8A694" width="51.33" height="27.757"/>
			<rect x="774.789" y="766.657" fill="#CFC5B2" width="51.33" height="7.023"/>
		</g>
		<g>
			<line fill="none" stroke="#A38978" stroke-width="0.5" x1="1160.539" y1="759.626" x2="774.789" y2="759.626"/>
			<line fill="none" stroke="#A38978" stroke-width="0.5" x1="774.789" y1="808.467" x2="1160.539" y2="808.467"/>
			<line fill="none" stroke="#A38978" stroke-width="0.5" x1="774.789" y1="801.436" x2="774.789" y2="808.467"/>
			<line fill="none" stroke="#A38978" stroke-width="0.5" x1="774.789" y1="773.681" x2="774.789" y2="801.436"/>
			<line fill="none" stroke="#A38978" stroke-width="0.5" x1="774.789" y1="766.657" x2="774.789" y2="773.681"/>
			<line fill="none" stroke="#A38978" stroke-width="0.5" x1="774.789" y1="759.626" x2="774.789" y2="766.657"/>
			<polyline fill="none" stroke="#A38978" stroke-width="0.5" points="1109.207,766.657 1109.207,773.681 1109.207,776.247 
				1109.207,783.276 1109.207,786.972 1109.207,801.436 			"/>
			<polyline fill="none" stroke="#A38978" stroke-width="0.5" points="774.789,766.657 826.117,766.657 841.593,766.657 
				857.98,766.657 881.506,766.657 902.629,766.657 941.996,766.657 993.327,766.657 1008.802,766.657 1025.191,766.657 
				1048.816,766.657 1069.94,766.657 1109.207,766.657 1160.539,766.657 			"/>
			<polyline fill="none" stroke="#A38978" stroke-width="0.5" points="774.789,801.436 826.117,801.436 941.996,801.436 
				993.327,801.436 1109.207,801.436 1160.539,801.436 			"/>
			<line fill="none" stroke="#A38978" stroke-width="0.5" x1="857.98" y1="783.276" x2="941.996" y2="783.276"/>
			<line fill="none" stroke="#A38978" stroke-width="0.5" x1="1025.191" y1="783.276" x2="1109.207" y2="783.276"/>
			<line fill="none" stroke="#A38978" stroke-width="0.5" x1="774.789" y1="773.681" x2="826.117" y2="773.681"/>
			<polyline fill="none" stroke="#A38978" stroke-width="0.5" points="993.327,766.657 993.327,773.681 993.327,801.436 			"/>
			<polyline fill="none" stroke="#A38978" stroke-width="0.5" points="941.996,766.657 941.996,773.681 941.996,776.247 
				941.996,783.276 941.996,786.972 941.996,801.436 			"/>
			<line fill="none" stroke="#A38978" stroke-width="0.5" x1="941.996" y1="773.681" x2="993.327" y2="773.681"/>
			<polyline fill="none" stroke="#A38978" stroke-width="0.5" points="826.117,766.657 826.117,773.681 826.117,801.436 			"/>
			<line fill="none" stroke="#A38978" stroke-width="0.5" x1="1109.207" y1="773.681" x2="1160.539" y2="773.681"/>
			<line fill="none" stroke="#A38978" stroke-width="0.5" x1="1303.373" y1="701.805" x2="1326.347" y2="691.373"/>
			<polyline fill="none" stroke="#A38978" stroke-width="0.5" points="1192.399,752.198 1247.891,727.003 1280.097,712.372 			"/>
			<line fill="none" stroke="#A38978" stroke-width="0.5" x1="1160.539" y1="766.657" x2="1192.399" y2="752.198"/>
			<polyline fill="none" stroke="#A38978" stroke-width="0.5" points="774.789,759.626 806.649,745.162 822.129,745.162 
				873.457,745.162 888.942,745.162 913.369,745.162 936.988,745.162 949.969,745.162 989.337,745.162 1040.668,745.162 
				1056.143,745.162 1080.672,745.162 1104.3,745.162 1117.281,745.162 1156.546,745.162 1192.399,745.162 1160.539,759.626 			"/>
			<line fill="none" stroke="#A38978" stroke-width="0.5" x1="1192.399" y1="794.001" x2="1160.539" y2="808.467"/>
			<line fill="none" stroke="#A38978" stroke-width="0.5" x1="1160.539" y1="801.436" x2="1192.399" y2="786.972"/>
			<line fill="none" stroke="#A38978" stroke-width="0.5" x1="1192.399" y1="745.162" x2="1192.399" y2="752.198"/>
			<line fill="none" stroke="#A38978" stroke-width="0.5" x1="1160.539" y1="801.436" x2="1160.539" y2="808.467"/>
			<line fill="none" stroke="#A38978" stroke-width="0.5" x1="1160.539" y1="773.681" x2="1160.539" y2="801.436"/>
			<line fill="none" stroke="#A38978" stroke-width="0.5" x1="1160.539" y1="766.657" x2="1160.539" y2="773.681"/>
			<line fill="none" stroke="#A38978" stroke-width="0.5" x1="1160.539" y1="759.626" x2="1160.539" y2="766.657"/>
			<polyline fill="none" stroke="#A38978" stroke-width="0.5" points="1192.399,759.215 1192.399,776.247 1192.399,786.972 			"/>
			<line fill="none" stroke="#A38978" stroke-width="0.5" x1="993.327" y1="801.436" x2="1025.191" y2="786.972"/>
			<polyline fill="none" stroke="#A38978" stroke-width="0.5" points="1025.191,766.657 1025.191,776.247 1025.191,783.276 
				1025.191,786.972 			"/>
			<line fill="none" stroke="#A38978" stroke-width="0.5" x1="1025.191" y1="786.972" x2="1109.207" y2="786.972"/>
			<line fill="none" stroke="#A38978" stroke-width="0.5" x1="857.98" y1="786.972" x2="941.996" y2="786.972"/>
			<line fill="none" stroke="#A38978" stroke-width="0.5" x1="826.117" y1="801.436" x2="857.98" y2="786.972"/>
			<polyline fill="none" stroke="#A38978" stroke-width="0.5" points="857.98,766.657 857.98,776.247 857.98,783.276 
				857.98,786.972 			"/>
			<line fill="none" stroke="#A38978" stroke-width="0.5" x1="993.327" y1="773.681" x2="1008.802" y2="766.657"/>
			<line fill="none" stroke="#A38978" stroke-width="0.5" x1="1216.026" y1="734.438" x2="830.276" y2="734.438"/>
			<line fill="none" stroke="#A38978" stroke-width="0.5" x1="830.276" y1="734.438" x2="830.276" y2="741.459"/>
			<polyline fill="none" stroke="#A38978" stroke-width="0.5" points="830.276,741.459 881.606,741.459 897.086,741.459 
				913.369,741.459 936.988,741.459 958.119,741.459 997.488,741.459 1048.816,741.459 1064.293,741.459 1080.672,741.459 
				1104.3,741.459 1125.429,741.459 1164.7,741.459 1216.026,741.459 			"/>
			<line fill="none" stroke="#A38978" stroke-width="0.5" x1="1216.026" y1="741.459" x2="1247.884" y2="726.992"/>
			<polyline fill="none" stroke="#A38978" stroke-width="0.5" points="830.276,734.438 862.141,719.972 877.617,719.972 
				928.946,719.972 944.426,719.972 968.851,719.972 992.48,719.972 1005.458,719.972 1044.828,719.972 1096.157,719.972 
				1111.633,719.972 1136.162,719.972 1159.791,719.972 1172.769,719.972 1212.039,719.972 1247.884,719.972 1216.026,734.438 			
				"/>
			<line fill="none" stroke="#A38978" stroke-width="0.5" x1="1247.884" y1="719.972" x2="1247.884" y2="726.992"/>
			<line fill="none" stroke="#A38978" stroke-width="0.5" x1="1216.026" y1="734.438" x2="1216.026" y2="741.459"/>
			<line fill="none" stroke="#A38978" stroke-width="0.5" x1="1156.546" y1="745.162" x2="1164.7" y2="741.459"/>
			<line fill="none" stroke="#A38978" stroke-width="0.5" x1="1064.293" y1="741.459" x2="1056.143" y2="745.162"/>
			<line fill="none" stroke="#A38978" stroke-width="0.5" x1="1040.668" y1="745.162" x2="1048.816" y2="741.459"/>
			<line fill="none" stroke="#A38978" stroke-width="0.5" x1="989.337" y1="745.162" x2="997.488" y2="741.459"/>
			<line fill="none" stroke="#A38978" stroke-width="0.5" x1="888.942" y1="745.162" x2="897.086" y2="741.459"/>
			<line fill="none" stroke="#A38978" stroke-width="0.5" x1="873.457" y1="745.162" x2="881.606" y2="741.459"/>
			<line fill="none" stroke="#A38978" stroke-width="0.5" x1="822.129" y1="745.162" x2="830.052" y2="741.569"/>
			<line fill="none" stroke="#A38978" stroke-width="0.5" x1="1327" y1="684.047" x2="941.252" y2="684.047"/>
			<line fill="none" stroke="#A38978" stroke-width="0.5" x1="941.252" y1="684.047" x2="941.252" y2="691.08"/>
			<polyline fill="none" stroke="#A38978" stroke-width="0.5" points="941.252,691.08 992.581,691.08 1008.056,691.08 
				1024.344,691.08 1108.46,691.08 1159.791,691.08 1175.267,691.08 1191.652,691.08 1275.669,691.08 1326.347,691.08 1327,691.08 
							"/>
			<line fill="none" stroke="#A38978" stroke-width="0.5" x1="1327" y1="691.08" x2="1358.863" y2="676.613"/>
			<polyline fill="none" stroke="#A38978" stroke-width="0.5" points="941.252,684.047 973.113,669.581 1358.863,669.581 
				1327,684.047 			"/>
			<line fill="none" stroke="#A38978" stroke-width="0.5" x1="1358.863" y1="669.581" x2="1358.863" y2="676.613"/>
			<line fill="none" stroke="#A38978" stroke-width="0.5" x1="1327" y1="684.047" x2="1327" y2="691.08"/>
			<line fill="none" stroke="#A38978" stroke-width="0.5" x1="1267.529" y1="694.781" x2="1275.669" y2="691.08"/>
			<line fill="none" stroke="#A38978" stroke-width="0.5" x1="1167.125" y1="694.781" x2="1175.267" y2="691.08"/>
			<line fill="none" stroke="#A38978" stroke-width="0.5" x1="1151.649" y1="694.781" x2="1159.791" y2="691.08"/>
			<line fill="none" stroke="#A38978" stroke-width="0.5" x1="1100.318" y1="694.781" x2="1108.46" y2="691.08"/>
			<line fill="none" stroke="#A38978" stroke-width="0.5" x1="999.913" y1="694.781" x2="1008.056" y2="691.08"/>
			<line fill="none" stroke="#A38978" stroke-width="0.5" x1="984.437" y1="694.781" x2="992.581" y2="691.08"/>
			<line fill="none" stroke="#A38978" stroke-width="0.5" x1="933.106" y1="694.781" x2="941.033" y2="691.18"/>
			<line fill="none" stroke="#A38978" stroke-width="0.5" x1="1271.509" y1="709.245" x2="885.76" y2="709.245"/>
			<line fill="none" stroke="#A38978" stroke-width="0.5" x1="885.76" y1="709.245" x2="885.76" y2="716.27"/>
			<polyline fill="none" stroke="#A38978" stroke-width="0.5" points="885.76,716.27 937.098,716.27 952.574,716.27 968.851,716.27 
				992.48,716.27 1013.603,716.27 1052.97,716.27 1104.3,716.27 1119.785,716.27 1136.162,716.27 1159.791,716.27 1180.912,716.27 
				1220.187,716.27 1271.509,716.27 			"/>
			<polyline fill="none" stroke="#A38978" stroke-width="0.5" points="1271.509,716.27 1280.097,712.372 1303.373,701.812 			"/>
			<polyline fill="none" stroke="#A38978" stroke-width="0.5" points="885.76,709.245 917.624,694.781 933.106,694.781 
				984.437,694.781 999.913,694.781 1024.344,694.781 1100.318,694.781 1151.649,694.781 1167.125,694.781 1191.652,694.781 
				1267.529,694.781 1303.373,694.781 1271.509,709.245 			"/>
			<polyline fill="none" stroke="#A38978" stroke-width="0.5" points="1303.373,694.781 1303.373,701.805 1303.373,701.812 			"/>
			<line fill="none" stroke="#A38978" stroke-width="0.5" x1="1271.509" y1="709.245" x2="1271.509" y2="716.27"/>
			<line fill="none" stroke="#A38978" stroke-width="0.5" x1="1212.039" y1="719.972" x2="1220.187" y2="716.27"/>
			<line fill="none" stroke="#A38978" stroke-width="0.5" x1="1111.633" y1="719.972" x2="1119.785" y2="716.27"/>
			<line fill="none" stroke="#A38978" stroke-width="0.5" x1="1096.157" y1="719.972" x2="1104.3" y2="716.27"/>
			<line fill="none" stroke="#A38978" stroke-width="0.5" x1="1044.828" y1="719.972" x2="1052.97" y2="716.27"/>
			<line fill="none" stroke="#A38978" stroke-width="0.5" x1="944.426" y1="719.972" x2="952.574" y2="716.27"/>
			<line fill="none" stroke="#A38978" stroke-width="0.5" x1="928.946" y1="719.972" x2="937.098" y2="716.27"/>
			<line fill="none" stroke="#A38978" stroke-width="0.5" x1="877.617" y1="719.972" x2="885.544" y2="716.37"/>
			<line fill="none" stroke="#A38978" stroke-width="0.5" x1="826.117" y1="773.681" x2="841.593" y2="766.657"/>
			<polyline fill="none" stroke="#A38978" stroke-width="0.5" points="1216.026,748.49 1216.026,776.247 1192.399,776.247 			"/>
			<polyline fill="none" stroke="#A38978" stroke-width="0.5" points="1247.884,734.026 1247.884,751.063 1247.884,761.781 			"/>
			<polyline fill="none" stroke="#A38978" stroke-width="0.5" points="1271.509,723.3 1271.509,751.055 1271.509,751.063 
				1271.494,751.063 1247.891,751.063 			"/>
			<polyline fill="none" stroke="#A38978" stroke-width="0.5" points="1303.373,708.842 1303.373,725.856 1303.373,736.59 			"/>
			<polyline fill="none" stroke="#A38978" stroke-width="0.5" points="1327,698.11 1327,725.856 1303.373,725.856 			"/>
			<line fill="none" stroke="#A38978" stroke-width="0.5" x1="1358.863" y1="683.644" x2="1358.863" y2="711.401"/>
			<polyline fill="none" stroke="#A38978" stroke-width="0.5" points="1160.539,773.681 1192.399,759.215 1216.026,748.49 
				1247.884,734.026 1271.509,723.3 1303.373,708.833 1327,698.11 1358.863,683.644 			"/>
			<polyline fill="none" stroke="#A38978" stroke-width="0.5" points="1192.399,786.972 1216.026,776.247 1247.884,761.781 
				1271.494,751.063 1271.509,751.055 1303.373,736.59 1327,725.865 1358.863,711.401 			"/>
			<line fill="none" stroke="#A38978" stroke-width="0.5" x1="1192.399" y1="794.001" x2="1358.863" y2="718.422"/>
			<line fill="none" stroke="#A38978" stroke-width="0.5" x1="1358.863" y1="676.613" x2="1358.863" y2="683.636"/>
			<line fill="none" stroke="#A38978" stroke-width="0.5" x1="1358.863" y1="711.401" x2="1358.863" y2="718.422"/>
			<polyline fill="none" stroke="#A38978" stroke-width="0.5" points="1048.816,766.409 1048.816,766.657 1048.816,776.247 
				1025.191,776.247 			"/>
			<line fill="none" stroke="#A38978" stroke-width="0.5" x1="1080.672" y1="741.459" x2="1080.672" y2="745.162"/>
			<polyline fill="none" stroke="#A38978" stroke-width="0.5" points="1069.94,766.657 1048.816,776.247 1109.207,776.247 			"/>
			<polyline fill="none" stroke="#A38978" stroke-width="0.5" points="881.506,766.409 881.506,766.657 881.506,776.247 
				857.98,776.247 857.881,776.247 			"/>
			<line fill="none" stroke="#A38978" stroke-width="0.5" x1="913.369" y1="741.459" x2="913.369" y2="745.162"/>
			<polyline fill="none" stroke="#A38978" stroke-width="0.5" points="902.629,766.657 881.506,776.247 941.996,776.247 			"/>
			<polyline fill="none" stroke="#A38978" stroke-width="0.5" points="936.988,741.218 936.988,741.459 936.988,745.162 			"/>
			<line fill="none" stroke="#A38978" stroke-width="0.5" x1="968.851" y1="716.27" x2="968.851" y2="719.972"/>
			<line fill="none" stroke="#A38978" stroke-width="0.5" x1="949.969" y1="745.162" x2="958.119" y2="741.459"/>
			<polyline fill="none" stroke="#A38978" stroke-width="0.5" points="1104.3,741.218 1104.3,741.459 1104.3,745.162 			"/>
			<line fill="none" stroke="#A38978" stroke-width="0.5" x1="1136.162" y1="716.27" x2="1136.162" y2="719.972"/>
			<line fill="none" stroke="#A38978" stroke-width="0.5" x1="1117.281" y1="745.162" x2="1125.429" y2="741.459"/>
			<polyline fill="none" stroke="#A38978" stroke-width="0.5" points="992.48,716.019 992.48,716.27 992.48,719.972 			"/>
			<line fill="none" stroke="#A38978" stroke-width="0.5" x1="1024.344" y1="691.08" x2="1024.344" y2="694.781"/>
			<line fill="none" stroke="#A38978" stroke-width="0.5" x1="1005.458" y1="719.972" x2="1013.603" y2="716.27"/>
			<polyline fill="none" stroke="#A38978" stroke-width="0.5" points="1159.791,716.019 1159.791,716.27 1159.791,719.972 			"/>
			<line fill="none" stroke="#A38978" stroke-width="0.5" x1="1191.652" y1="691.08" x2="1191.652" y2="694.781"/>
			<line fill="none" stroke="#A38978" stroke-width="0.5" x1="1172.769" y1="719.972" x2="1180.912" y2="716.27"/>
		</g>
	</g>

<g id="cerchio_numero">
	<g id="cerchio">
		<image overflow="visible" opacity="0.63" enable-background="new    " width="572" height="598" xlink:href="ombra_cerchio_grande.png"  transform="matrix(0.4251 0 0 0.4252 52.3804 173.4741)"/>
		<use id="cerchio_numero_colore" xlink:href="#cerchio_numero_col_0"/>
	</g>
</g>
<g id="layer_numero">
    <use id="numero"/>
</g>
	<g id="carrello">
		<g>
			
				<linearGradient id="sfumatura_1_" gradientUnits="userSpaceOnUse" x1="17.6125" y1="367.0852" x2="17.6125" y2="616.1619" gradientTransform="matrix(1 0 0 1 182.2002 173.8008)">
				<stop  offset="0" style="stop-color:#FFFFFF;stop-opacity:0"/>
				<stop  offset="0.0118" style="stop-color:#FEFEFE;stop-opacity:0.0406"/>
				<stop  offset="0.1453" style="stop-color:#F3F3F3;stop-opacity:0.4976"/>
				<stop  offset="0.2921" style="stop-color:#F0EFEF"/>
			</linearGradient>
			<polygon id="sfumatura" fill="url(#sfumatura_1_)" points="92.841,556.497 306.281,540.886 306.784,789.962 94.211,789.962 			
				"/>
			<g opacity="0.53">
				
					<image overflow="visible" enable-background="new    " width="546" height="174" xlink:href="ombra_carrello.png"  transform="matrix(0.5775 0 0 0.573 46.1877 676.1067)"/>
			</g>
			<g>
				
					<linearGradient id="SVGID_2_" gradientUnits="userSpaceOnUse" x1="1401.822" y1="24.9827" x2="1401.822" y2="61.3625" gradientTransform="matrix(-1 0 0 -1 1660.978 752.2817)">
					<stop  offset="0" style="stop-color:#0F0F0F"/>
					<stop  offset="0.0531" style="stop-color:#131313"/>
					<stop  offset="0.3335" style="stop-color:#212121"/>
					<stop  offset="0.5517" style="stop-color:#272626"/>
				</linearGradient>
				<path fill="url(#SVGID_2_)" d="M240.966,709.109c0,10.051,8.144,18.19,18.191,18.19c10.046,0,18.188-8.144,18.188-18.19
					s-8.142-18.189-18.188-18.189C249.108,690.917,240.966,699.06,240.966,709.109z"/>
				
					<linearGradient id="SVGID_3_" gradientUnits="userSpaceOnUse" x1="1401.8162" y1="24.9827" x2="1401.8162" y2="46.9543" gradientTransform="matrix(-1 0 0 -1 1660.978 752.2817)">
					<stop  offset="0.5813" style="stop-color:#010101"/>
					<stop  offset="1" style="stop-color:#272626"/>
				</linearGradient>
				<path fill="url(#SVGID_3_)" d="M244.335,705.327c-0.311,1.212-0.491,2.479-0.491,3.781c0,8.457,6.857,15.313,15.313,15.313
					c8.457,0,15.313-6.854,15.313-15.313c0-1.307-0.182-2.569-0.489-3.781h2.975c0.255,1.222,0.396,2.486,0.396,3.781
					c0,10.051-8.146,18.19-18.189,18.19c-10.051,0-18.191-8.144-18.191-18.19c0-1.295,0.141-2.563,0.396-3.781H244.335z"/>
				
					<linearGradient id="SVGID_4_" gradientUnits="userSpaceOnUse" x1="1401.8201" y1="35.9543" x2="1401.8201" y2="67.8958" gradientTransform="matrix(-1 0 0 -1 1660.978 752.2817)">
					<stop  offset="0.4877" style="stop-color:#8B8A8A"/>
					<stop  offset="1" style="stop-color:#B3B3B3"/>
				</linearGradient>
				<path fill="url(#SVGID_4_)" d="M250.774,714.062c0,1.25,1.018,2.266,2.264,2.266h12.242c1.249,0,2.263-1.016,2.263-2.266V686.65
					c0-1.244-1.014-2.264-2.263-2.264h-12.242c-1.246,0-2.264,1.02-2.264,2.264V714.062L250.774,714.062z"/>
				
					<linearGradient id="SVGID_5_" gradientUnits="userSpaceOnUse" x1="1401.8201" y1="36.884" x2="1401.8201" y2="68.8264" gradientTransform="matrix(-1 0 0 -1 1660.978 752.2817)">
					<stop  offset="0.2365" style="stop-color:#F1F0F0"/>
					<stop  offset="1" style="stop-color:#B3B3B3"/>
				</linearGradient>
				<path fill="url(#SVGID_5_)" d="M250.774,713.128c0,1.252,1.018,2.27,2.264,2.27h12.242c1.249,0,2.263-1.018,2.263-2.27V685.72
					c0-1.25-1.014-2.265-2.263-2.265h-12.242c-1.246,0-2.264,1.015-2.264,2.265V713.128L250.774,713.128z"/>
				<path fill="#6F6F6F" d="M253.035,683.455h12.242c1.249,0,2.263,1.014,2.263,2.265v4.247h-16.77v-4.247
					C250.774,684.468,251.789,683.455,253.035,683.455z"/>
				
					<linearGradient id="SVGID_6_" gradientUnits="userSpaceOnUse" x1="1401.8191" y1="39.0823" x2="1401.8191" y2="47.26" gradientTransform="matrix(-1 0 0 -1 1660.978 752.2817)">
					<stop  offset="0.0887" style="stop-color:#010101"/>
					<stop  offset="1" style="stop-color:#4E4E4E"/>
				</linearGradient>
				<path fill="url(#SVGID_6_)" d="M255.072,709.109c0,2.262,1.829,4.091,4.087,4.091c2.255,0,4.087-1.829,4.087-4.091
					c0-2.255-1.83-4.087-4.087-4.087S255.072,706.854,255.072,709.109z"/>
				
					<linearGradient id="SVGID_7_" gradientUnits="userSpaceOnUse" x1="1401.8201" y1="39.7805" x2="1401.8201" y2="46.5686" gradientTransform="matrix(-1 0 0 -1 1660.978 752.2817)">
					<stop  offset="0.0887" style="stop-color:#B3B3B3"/>
					<stop  offset="1" style="stop-color:#FFFFFF"/>
				</linearGradient>
				<circle fill="url(#SVGID_7_)" cx="259.157" cy="709.107" r="3.394"/>
			</g>
			<g>
				
					<linearGradient id="SVGID_8_" gradientUnits="userSpaceOnUse" x1="1523.5408" y1="24.9817" x2="1523.5408" y2="61.3674" gradientTransform="matrix(-1 0 0 -1 1660.978 752.2817)">
					<stop  offset="0" style="stop-color:#0F0F0F"/>
					<stop  offset="0.0531" style="stop-color:#131313"/>
					<stop  offset="0.3335" style="stop-color:#212121"/>
					<stop  offset="0.5517" style="stop-color:#272626"/>
				</linearGradient>
				<circle fill="url(#SVGID_8_)" cx="137.437" cy="709.107" r="18.193"/>
				
					<linearGradient id="SVGID_9_" gradientUnits="userSpaceOnUse" x1="1523.5398" y1="24.9827" x2="1523.5398" y2="46.9543" gradientTransform="matrix(-1 0 0 -1 1660.978 752.2817)">
					<stop  offset="0.5813" style="stop-color:#010101"/>
					<stop  offset="1" style="stop-color:#272626"/>
				</linearGradient>
				<path fill="url(#SVGID_9_)" d="M122.615,705.327c-0.312,1.212-0.491,2.479-0.491,3.781c0,8.457,6.854,15.313,15.313,15.313
					s15.313-6.854,15.313-15.313c0-1.307-0.182-2.569-0.49-3.781h2.973c0.262,1.222,0.396,2.486,0.396,3.781
					c0,10.051-8.146,18.19-18.19,18.19c-10.048,0-18.192-8.144-18.192-18.19c0-1.295,0.143-2.563,0.402-3.781H122.615z"/>
				
					<linearGradient id="SVGID_10_" gradientUnits="userSpaceOnUse" x1="1523.5398" y1="35.9543" x2="1523.5398" y2="67.8958" gradientTransform="matrix(-1 0 0 -1 1660.978 752.2817)">
					<stop  offset="0.4877" style="stop-color:#8B8A8A"/>
					<stop  offset="1" style="stop-color:#B3B3B3"/>
				</linearGradient>
				<path fill="url(#SVGID_10_)" d="M129.053,714.062c0,1.25,1.017,2.266,2.268,2.266h12.24c1.251,0,2.262-1.016,2.262-2.266V686.65
					c0-1.244-1.011-2.264-2.262-2.264h-12.24c-1.251,0-2.268,1.02-2.268,2.264V714.062z"/>
				
					<linearGradient id="SVGID_11_" gradientUnits="userSpaceOnUse" x1="1523.5398" y1="36.884" x2="1523.5398" y2="68.8264" gradientTransform="matrix(-1 0 0 -1 1660.978 752.2817)">
					<stop  offset="0.2365" style="stop-color:#F1F0F0"/>
					<stop  offset="1" style="stop-color:#B3B3B3"/>
				</linearGradient>
				<path fill="url(#SVGID_11_)" d="M129.053,713.128c0,1.252,1.017,2.27,2.268,2.27h12.24c1.251,0,2.262-1.018,2.262-2.27V685.72
					c0-1.25-1.011-2.265-2.262-2.265h-12.24c-1.251,0-2.268,1.015-2.268,2.265V713.128z"/>
				<path fill="#6F6F6F" d="M131.32,683.455h12.24c1.251,0,2.263,1.014,2.263,2.265v4.247h-16.769v-4.247
					C129.053,684.468,130.068,683.455,131.32,683.455z"/>
				
					<linearGradient id="SVGID_12_" gradientUnits="userSpaceOnUse" x1="1523.5388" y1="39.0823" x2="1523.5388" y2="47.26" gradientTransform="matrix(-1 0 0 -1 1660.978 752.2817)">
					<stop  offset="0.0887" style="stop-color:#010101"/>
					<stop  offset="1" style="stop-color:#4E4E4E"/>
				</linearGradient>
				<path fill="url(#SVGID_12_)" d="M133.349,709.109c0,2.262,1.83,4.091,4.09,4.091c2.258,0,4.09-1.829,4.09-4.091
					c0-2.255-1.832-4.087-4.09-4.087C135.179,705.022,133.349,706.854,133.349,709.109z"/>
				
					<linearGradient id="SVGID_13_" gradientUnits="userSpaceOnUse" x1="1523.5388" y1="39.7805" x2="1523.5388" y2="46.5686" gradientTransform="matrix(-1 0 0 -1 1660.978 752.2817)">
					<stop  offset="0.0887" style="stop-color:#B3B3B3"/>
					<stop  offset="1" style="stop-color:#FFFFFF"/>
				</linearGradient>
				<circle fill="url(#SVGID_13_)" cx="137.439" cy="709.107" r="3.394"/>
			</g>
			<path fill="#929497" d="M275.31,652.696l53.701-129.808l25.613-9.234c-0.865,3.077-3.063,5.754-6.237,7.09l-15.188,6.396
				L279.01,661.58L275.31,652.696z"/>
			<path fill="#818181" d="M285.378,543.197l5.169,5.175l-9.063,9.061l-9.063-9.061l4.332-4.331l-22.12,2.156l2.179,2.174
				l-9.063,9.063l-9.063-9.063l0.682-0.687l-17.3,1.689l-8.059,8.054l-6.621-6.624l-22.711,2.223l-4.399,4.401l-3.624-3.618
				l-29.357,2.861l-0.758,0.757l-0.617-0.624l-14.228,1.392l7.037,7.043l-9.062,9.058l-9.063-9.062l6.604-6.604l-26.255,2.563
				l4.038,4.042l-5.741,5.736l4.29,26.539l1.451,1.455l-1.051,1.053l2.176,13.439l6.682-6.688l9.064,9.063l-9.064,9.063l-5.77-5.772
				l2.896,17.954l9.419,4.896l24.666,1.063l2.521-2.523l2.751,2.75l27.073,1.165l3.915-3.915l4.266,4.265l24.167,1.043l5.303-5.308
				l5.777,5.78l21.265,0.913l6.692-6.692l5.935,5.937l10.779-4.837l-8.907-8.906l9.063-9.062l9.063,9.062l-8.65,8.658l7.001-3.146
				l5.558-17.221l-5.159-5.16l9.063-9.063l0.521,0.522l7.938-24.6l-8.459,8.46l-9.063-9.061l9.063-9.063l8.753,8.753l3.811-11.804
				l-4.756-4.753l9.063-9.063l0.113,0.113l4.793-14.843L285.378,543.197z M264.617,608.034l-9.063-9.063l9.063-9.063l9.062,9.063
				L264.617,608.034z M238.688,615.839l9.063-9.063l9.063,9.063l-9.063,9.063L238.688,615.839z M230.878,608.034l-9.059-9.063
				l9.059-9.063l9.063,9.063L230.878,608.034z M221.822,632.71l9.058-9.063l9.063,9.063l-9.063,9.062L221.822,632.71z
				 M204.95,615.839l9.062-9.063l9.063,9.063l-9.063,9.063L204.95,615.839z M197.147,608.034l-9.063-9.063l9.063-9.063l9.063,9.063
				L197.147,608.034z M188.085,632.71l9.063-9.063l9.057,9.063l-9.057,9.062L188.085,632.71z M171.214,615.839l9.063-9.063
				l9.062,9.063l-9.062,9.06L171.214,615.839z M163.41,608.034l-9.065-9.063l9.065-9.063l9.059,9.063L163.41,608.034z
				 M154.345,632.71l9.065-9.063l9.059,9.063l-9.059,9.063L154.345,632.71z M137.481,615.842l9.06-9.063l9.063,9.063l-9.063,9.063
				L137.481,615.842z M129.671,623.648l9.062,9.063l-9.062,9.063l-9.06-9.063L129.671,623.648z M121.866,582.105l-9.065,9.062
				l-9.06-9.062l9.06-9.063L121.866,582.105z M129.671,589.91l9.062,9.063l-9.062,9.062l-9.06-9.062L129.671,589.91z
				 M155.599,582.105l-9.062,9.062l-9.06-9.062l9.06-9.063L155.599,582.105z M172.469,565.24l-9.059,9.06l-9.065-9.06l9.065-9.063
				L172.469,565.24z M189.337,582.105l-9.062,9.062l-9.063-9.062l9.063-9.063L189.337,582.105z M206.206,565.237l-9.063,9.063
				l-9.063-9.06l9.063-9.063L206.206,565.237z M214.012,573.043l9.063,9.063l-9.063,9.062l-9.062-9.062L214.012,573.043z
				 M239.945,565.24l-9.063,9.062l-9.057-9.062l9.057-9.063L239.945,565.24z M247.749,573.043l9.063,9.063l-9.063,9.062
				l-9.063-9.062L247.749,573.043z M273.678,565.24l-9.062,9.062l-9.063-9.062l9.063-9.063L273.678,565.24z"/>
			
				<linearGradient id="SVGID_14_" gradientUnits="userSpaceOnUse" x1="1357.7146" y1="160.8108" x2="1561.7263" y2="160.8108" gradientTransform="matrix(-1 0 0 -1 1660.978 752.2817)">
				<stop  offset="0" style="stop-color:#9E9E9E"/>
				<stop  offset="0.4877" style="stop-color:#D9D9D8"/>
				<stop  offset="1" style="stop-color:#8C8C8C"/>
			</linearGradient>
			<path fill="url(#SVGID_14_)" d="M285.378,540.345l5.169,5.176l-9.063,9.062l-9.063-9.062l4.332-4.332l-22.12,2.161l2.179,2.17
				l-9.063,9.064l-9.063-9.064l0.682-0.686l-17.3,1.689l-8.059,8.054l-6.621-6.621l-22.711,2.219l-4.399,4.402l-3.624-3.619
				l-29.357,2.863l-0.758,0.757l-0.617-0.617l-14.228,1.392l7.037,7.035l-9.062,9.063l-9.063-9.063l6.604-6.604l-26.255,2.563
				l4.038,4.04l-5.741,5.742l4.29,26.534l1.451,1.457l-1.051,1.051l2.176,13.443l6.682-6.688l9.064,9.062l-9.064,9.062l-5.77-5.771
				l2.896,17.948l9.419,4.9l24.666,1.06l2.521-2.521l2.751,2.748l27.073,1.164l3.915-3.912l4.266,4.264l24.167,1.04l5.303-5.304
				l5.777,5.779l21.265,0.909l6.692-6.688l5.935,5.934l10.779-4.834l-8.907-8.906l9.063-9.063l9.063,9.063l-8.65,8.653l7.001-3.142
				l5.558-17.226l-5.159-5.157l9.063-9.063l0.521,0.522l7.938-24.6l-8.459,8.461l-9.063-9.06l9.063-9.063l8.753,8.754l3.811-11.807
				l-4.756-4.757l9.063-9.063l0.113,0.119l4.793-14.845L285.378,540.345z M264.617,605.187l-9.063-9.063l9.063-9.063l9.062,9.063
				L264.617,605.187z M238.688,612.992l9.063-9.063l9.063,9.063l-9.063,9.063L238.688,612.992z M230.878,605.187l-9.059-9.063
				l9.059-9.063l9.063,9.063L230.878,605.187z M221.822,629.865l9.058-9.063l9.063,9.063l-9.063,9.059L221.822,629.865z
				 M204.95,612.992l9.062-9.059l9.063,9.059l-9.063,9.063L204.95,612.992z M197.147,605.187l-9.063-9.063l9.063-9.063l9.063,9.063
				L197.147,605.187z M188.085,629.865l9.063-9.063l9.057,9.063l-9.057,9.059L188.085,629.865z M171.214,612.992l9.063-9.059
				l9.062,9.063l-9.062,9.06L171.214,612.992z M163.41,605.187l-9.065-9.063l9.065-9.063l9.059,9.063L163.41,605.187z
				 M154.345,629.865l9.065-9.063l9.059,9.063l-9.059,9.059L154.345,629.865z M137.481,612.994l9.06-9.063l9.063,9.059l-9.063,9.063
				L137.481,612.994z M129.671,620.801l9.062,9.063l-9.062,9.059l-9.06-9.059L129.671,620.801z M121.866,579.257l-9.065,9.063
				l-9.06-9.063l9.06-9.063L121.866,579.257z M129.671,587.064l9.062,9.063l-9.062,9.063l-9.06-9.063L129.671,587.064z
				 M155.599,579.257l-9.062,9.063l-9.06-9.063l9.06-9.063L155.599,579.257z M172.469,562.387l-9.059,9.063l-9.065-9.063
				l9.065-9.063L172.469,562.387z M189.337,579.257l-9.062,9.063l-9.063-9.063l9.063-9.063L189.337,579.257z M206.206,562.387
				l-9.063,9.063l-9.063-9.063l9.063-9.063L206.206,562.387z M214.012,570.198l9.063,9.063l-9.063,9.063l-9.062-9.063
				L214.012,570.198z M239.945,562.387l-9.063,9.063l-9.057-9.063l9.057-9.063L239.945,562.387z M247.749,570.198l9.063,9.063
				l-9.063,9.063l-9.063-9.063L247.749,570.198z M273.678,562.387l-9.062,9.063l-9.063-9.063l9.063-9.063L273.678,562.387z"/>
			<path fill="#E6E6E5" d="M254.214,651.56c-0.879,0.526-1.898,0.808-2.929,0.808l0,0c-0.075,0-0.153-0.001-0.231-0.003
				l-132.483-5.695l0,0c-0.828-0.03-1.644-0.249-2.379-0.634l-12.939-6.729l0,0c-1.595-0.834-2.696-2.353-2.979-4.134
				l-13.458-83.319l0,0c-0.255-1.583,0.164-3.187,1.156-4.438l0,0c0.994-1.254,2.469-2.022,4.064-2.13l217.069-14.547l0,0
				c1.947-0.131,3.826,0.749,4.974,2.33l0,0c1.146,1.585,1.4,3.645,0.672,5.456l-5.267-2.125l5.267,2.125l-40.064,99.419l0,0
				c-0.469,1.146-1.284,2.106-2.352,2.744L254.214,651.56L254.214,651.56z M264.861,631.934l35.979-89.265L99.013,556.195
				l12.008,74.354l9.29,4.83l129.528,5.565L264.861,631.934L264.861,631.934z"/>
			<polygon fill="#929497" points="306.784,548.436 306.281,540.886 91.197,555.296 91.698,562.847 			"/>
			
				<linearGradient id="SVGID_15_" gradientUnits="userSpaceOnUse" x1="1345.8171" y1="157.8948" x2="1574.2351" y2="157.8948" gradientTransform="matrix(-1 0 0 -1 1660.978 752.2817)">
				<stop  offset="0" style="stop-color:#B3B3B3"/>
				<stop  offset="0.4877" style="stop-color:#D9D9D8"/>
				<stop  offset="1" style="stop-color:#B3B3B3"/>
			</linearGradient>
			<path fill="url(#SVGID_15_)" d="M254.214,654.4c-0.879,0.527-1.898,0.809-2.929,0.809l0,0c-0.075,0-0.153-0.003-0.231-0.006
				l-132.483-5.694l0,0c-0.828-0.03-1.644-0.248-2.379-0.634l-12.939-6.726l0,0c-1.595-0.837-2.696-2.354-2.979-4.132
				l-13.458-83.322l0,0c-0.255-1.582,0.164-3.188,1.156-4.438l0,0c0.994-1.253,2.469-2.021,4.064-2.131l217.069-14.547l0,0
				c1.947-0.129,3.826,0.748,4.974,2.331l0,0c1.146,1.586,1.4,3.642,0.672,5.455l-5.267-2.122l5.267,2.122l-40.064,99.421l0,0
				c-0.469,1.146-1.284,2.106-2.352,2.742L254.214,654.4L254.214,654.4z M264.861,634.775l35.979-89.266L99.013,559.034
				l12.008,74.354l9.29,4.831l129.528,5.565L264.861,634.775L264.861,634.775z"/>
			
				<linearGradient id="SVGID_16_" gradientUnits="userSpaceOnUse" x1="1429.781" y1="63.6448" x2="1429.781" y2="245.0251" gradientTransform="matrix(-1 0 0 -1 1660.978 752.2817)">
				<stop  offset="0" style="stop-color:#838383"/>
				<stop  offset="0.0246" style="stop-color:#B3B3B3"/>
				<stop  offset="0.1232" style="stop-color:#B3B3B3"/>
				<stop  offset="0.2456" style="stop-color:#C8C8C8"/>
				<stop  offset="0.3866" style="stop-color:#DBDADA"/>
				<stop  offset="0.4877" style="stop-color:#E0E1E0"/>
				<stop  offset="1" style="stop-color:#B3B3B3"/>
			</linearGradient>
			<path fill="url(#SVGID_16_)" d="M290.557,688.63c2.021,0,3.874-1.083,4.87-2.839l0,0c0.988-1.752,0.963-3.9-0.073-5.629l0,0
				l-15.384-25.642l52.104-129.273l17.22-7.249l0,0c2.845-1.199,4.176-4.478,2.98-7.317l0,0c-1.195-2.851-4.478-4.185-7.319-2.982
				l0,0l-19.361,8.15c-1.376,0.579-2.458,1.682-3.019,3.063l0,0l-54.012,134.013c-0.653,1.628-0.513,3.46,0.396,4.968l0,0
				l11.732,19.562H115.274c-3.089,0-5.593,2.503-5.593,5.59l0,0c0,3.087,2.504,5.593,5.593,5.593l0,0h175.281L290.557,688.63
				L290.557,688.63z"/>
			
				<linearGradient id="SVGID_17_" gradientUnits="userSpaceOnUse" x1="1291.6814" y1="240.1238" x2="1329.8318" y2="240.1238" gradientTransform="matrix(-1 0 0 -1 1660.978 752.2817)">
				<stop  offset="0.2611" style="stop-color:#25A86B"/>
				<stop  offset="0.3654" style="stop-color:#21A268"/>
				<stop  offset="0.735" style="stop-color:#1C905B"/>
				<stop  offset="1" style="stop-color:#198957"/>
			</linearGradient>
			<path fill="url(#SVGID_17_)" d="M331.146,513.12l17.186-7.233c1.408-4.3,5.443-7.405,10.216-7.405
				c5.938,0,10.75,4.812,10.75,10.749c0,5.937-4.813,10.751-10.75,10.751c-1.703,0-3.312-0.405-4.741-1.11l-16.533,6.963
				L331.146,513.12z"/>
			
				<linearGradient id="SVGID_18_" gradientUnits="userSpaceOnUse" x1="1307.1736" y1="230.6218" x2="1324.6189" y2="230.6218" gradientTransform="matrix(-1 0 0 -1 1660.978 752.2817)">
				<stop  offset="0.2611" style="stop-color:#1B8E59"/>
				<stop  offset="0.3858" style="stop-color:#177C4C"/>
				<stop  offset="0.634" style="stop-color:#0B5F38"/>
				<stop  offset="0.8474" style="stop-color:#054C2B"/>
				<stop  offset="1" style="stop-color:#034626"/>
			</linearGradient>
			<path fill="url(#SVGID_18_)" d="M351.666,517.488c0.647,0.547,1.372,1.003,2.138,1.382l-16.533,6.963l-0.912-1.895
				L351.666,517.488z"/>
			
				<linearGradient id="SVGID_19_" gradientUnits="userSpaceOnUse" x1="1312.6443" y1="241.9734" x2="1329.8298" y2="241.9734" gradientTransform="matrix(-1 0 0 -1 1660.978 752.2817)">
				<stop  offset="0.2611" style="stop-color:#29B574"/>
				<stop  offset="0.5017" style="stop-color:#1F9F66"/>
				<stop  offset="0.7776" style="stop-color:#188D5A"/>
				<stop  offset="0.9754" style="stop-color:#148756"/>
			</linearGradient>
			<path fill="url(#SVGID_19_)" d="M348.329,505.886c0-0.005,0.004-0.005,0.004-0.009c-0.229,0.688-0.387,1.405-0.469,2.148
				l-15.939,6.714l-0.777-1.618L348.329,505.886z"/>
			
				<linearGradient id="SVGID_20_" gradientUnits="userSpaceOnUse" x1="1302.4324" y1="235.845" x2="1302.4324" y2="250.259" gradientTransform="matrix(-1 0 0 -1 1660.978 752.2817)">
				<stop  offset="0" style="stop-color:#29B574"/>
				<stop  offset="1" style="stop-color:#1C905B"/>
			</linearGradient>
			<circle fill="url(#SVGID_20_)" cx="358.545" cy="509.23" r="7.207"/>
			
				<linearGradient id="SVGID_21_" gradientUnits="userSpaceOnUse" x1="1297.324" y1="243.0525" x2="1307.5427" y2="243.0525" gradientTransform="matrix(-1 0 0 -1 1660.978 752.2817)">
				<stop  offset="0.2611" style="stop-color:#29B574"/>
				<stop  offset="0.5917" style="stop-color:#26AB6C"/>
				<stop  offset="1" style="stop-color:#25A468"/>
			</linearGradient>
			<circle fill="url(#SVGID_21_)" cx="358.544" cy="509.229" r="5.11"/>
			
				<linearGradient id="SVGID_22_" gradientUnits="userSpaceOnUse" x1="1363.7146" y1="94.2112" x2="1363.7146" y2="236.76" gradientTransform="matrix(-1 0 0 -1 1660.978 752.2817)">
				<stop  offset="0" style="stop-color:#CDCCCC"/>
				<stop  offset="0.399" style="stop-color:#E0E1E0"/>
				<stop  offset="1" style="stop-color:#E6E6E5"/>
			</linearGradient>
			<path fill="url(#SVGID_22_)" d="M268.955,657.891l0.104,0.18c0.07-0.403,0.177-0.801,0.332-1.188l56.979-141.361l-0.781,0.325
				c-1.376,0.58-2.458,1.683-3.02,3.063l-54.011,134.013C267.906,654.552,268.051,656.384,268.955,657.891z"/>
			
				<linearGradient id="SVGID_23_" gradientUnits="userSpaceOnUse" x1="1379.2166" y1="73.9348" x2="1549.8005" y2="73.9348" gradientTransform="matrix(-1 0 0 -1 1660.978 752.2817)">
				<stop  offset="0" style="stop-color:#B3B3B3"/>
				<stop  offset="0.4877" style="stop-color:#D9D9D8"/>
				<stop  offset="1" style="stop-color:#B3B3B3"/>
			</linearGradient>
			<path fill="url(#SVGID_23_)" d="M281.762,679.243H111.178c1.021-1.099,2.479-1.793,4.097-1.793h165.416L281.762,679.243z"/>
		</g>
	</g>

  <g id="layer_pacchi"/>

<!--
  <image overflow="visible"
         enable-background="new    "
         width="656" height="359" xlink:href="138 lato con n5.png"
         transform="matrix(0.3159 0 0 0.3159 1003.9919 56.0056)"/>
-->

<g>
	<g>
		
			<image overflow="visible" opacity="0.4" width="226" height="226" xlink:href="ombra_cerchio_piccolo.png"  transform="matrix(1 0 0 1 -384.5002 -31.4998)">
		</image>
		<g>
			<circle id="cerchio_150" fill="#D0EE31" cx="-277.962" cy="75.517" r="82.482"/>
		</g>
	</g>
	<g>
		<path fill="#231F20" d="M-357.222,200.121v-17.814h11.208v3.557h-7.195v3.263h6.633v3.558h-6.633v3.879h7.195v3.557H-357.222z"/>
		<path fill="#231F20" d="M-337.723,200.389c-2.06,0-4.227-0.456-5.751-1.15l0.669-3.103c1.632,0.508,3.29,0.856,5.135,0.856
			c2.06,0,2.461-0.402,2.461-1.899c0-1.605-0.081-1.792-2.996-2.434c-4.307-0.936-4.949-1.792-4.949-5.645
			c0-3.557,1.257-4.975,6.152-4.975c1.551,0,3.424,0.161,5.403,0.588l-0.401,3.371c-2.033-0.348-3.344-0.508-4.949-0.508
			c-1.792,0-2.193,0.32-2.193,1.631c0,1.712,0.08,1.739,2.888,2.408c4.815,1.15,5.056,2.086,5.056,5.59
			C-331.198,198.65-332.347,200.389-337.723,200.389z"/>
		<path fill="#231F20" d="M-313.759,200.121h-4.173l-0.963-3.477h-5.965l-0.962,3.477h-4.173l5.43-17.814h5.35L-313.759,200.121z
			 M-323.95,193.3h4.092l-2.033-7.462L-323.95,193.3z"/>
		<path fill="#231F20" d="M-304.693,194.718h-3.049v5.403h-4.012v-17.814h7.275c4.333,0,5.938,1.711,5.938,5.055v2.328
			C-298.541,193.032-300.36,194.718-304.693,194.718z M-302.553,187.737c0-1.284-0.455-1.873-2.14-1.873h-3.049v5.377h3.049
			c1.766,0,2.14-0.669,2.14-1.953V187.737z"/>
		<path fill="#231F20" d="M-282.574,200.121h-4.172l-0.963-3.477h-5.965l-0.963,3.477h-4.172l5.43-17.814h5.35L-282.574,200.121z
			 M-292.765,193.3h4.093l-2.033-7.462L-292.765,193.3z"/>
		<path fill="#231F20" d="M-277.226,194.29c0,1.551,0.508,2.46,2.488,2.46c1.283,0,3.048-0.161,4.6-0.428l0.562,3.504
			c-1.765,0.375-3.37,0.563-5.162,0.563c-4.495,0-6.5-2.22-6.5-5.457v-7.437c0-3.236,2.005-5.457,6.5-5.457
			c1.792,0,3.396,0.188,5.162,0.563l-0.562,3.503c-1.552-0.267-3.317-0.428-4.6-0.428c-1.98,0-2.488,0.909-2.488,2.46V194.29z"/>
		<path fill="#231F20" d="M-266.903,182.307h4.013v17.814h-4.013V182.307z M-262.382,191.027l4.814-8.72h4.521l-5.002,8.72
			l5.376,9.094h-4.52L-262.382,191.027z"/>
		<path fill="#231F20" d="M-229.485,183.885l-5.189,13.937h-2.434l-5.189-13.937l-0.375,16.236h-1.578l0.535-17.814h2.301
			l5.537,14.551l5.51-14.551h2.3l0.535,17.814h-1.578L-229.485,183.885z"/>
		<path fill="#231F20" d="M-221.141,200.121h-1.579v-17.814h1.579V200.121z"/>
		<path fill="#231F20" d="M-210.309,182.307c4.333,0,5.564,2.247,5.564,5.27v7.275c0,3.022-1.231,5.27-5.564,5.27h-5.885v-17.814
			H-210.309z M-214.616,198.703h4.333c2.996,0,3.958-1.23,3.958-3.771v-7.437c0-2.541-0.963-3.771-3.958-3.771h-4.333V198.703z"/>
		<path fill="#231F20" d="M-198.702,200.121h-1.579v-17.814h1.579V200.121z"/>
	</g>
	<use id="numero_150" transform="matrix(0.6 0 0 0.6 -383 -105)" xlink:href="#numero_24"/>
</g>
<g opacity="0.3">
	<g>
		
			<image overflow="visible" opacity="0.4" width="226" height="226" xlink:href="ombra_cerchio_piccolo.png"  transform="matrix(1 0 0 1 -384.5002 519.5002)">
		</image>
		<g>
			<circle id="cerchio_138" cx="-277.962" cy="626.059" r="82.481"/>
		</g>
	</g>
	<use id="numero_138" transform="matrix(0.6 0 0 0.6 -383 449)"/>
	<g>
		<path fill="#231F20" d="M-372.707,751.561v-17.814h11.207v3.558h-7.195v3.263h6.634v3.558h-6.634v3.88h7.195v3.557H-372.707z"/>
		<path fill="#231F20" d="M-353.209,751.828c-2.061,0-4.227-0.455-5.752-1.15l0.669-3.103c1.632,0.509,3.291,0.856,5.136,0.856
			c2.06,0,2.461-0.401,2.461-1.899c0-1.605-0.08-1.793-2.996-2.435c-4.306-0.936-4.948-1.791-4.948-5.644
			c0-3.557,1.257-4.976,6.152-4.976c1.552,0,3.423,0.161,5.403,0.589l-0.401,3.371c-2.032-0.349-3.344-0.508-4.948-0.508
			c-1.792,0-2.193,0.319-2.193,1.63c0,1.713,0.08,1.738,2.889,2.408c4.814,1.149,5.056,2.085,5.056,5.59
			C-346.683,750.089-347.833,751.828-353.209,751.828z"/>
		<path fill="#231F20" d="M-329.245,751.561h-4.172l-0.964-3.477h-5.964l-0.963,3.477h-4.173l5.43-17.814h5.35L-329.245,751.561z
			 M-339.436,744.74h4.092l-2.033-7.462L-339.436,744.74z"/>
		<path fill="#231F20" d="M-320.179,746.156h-3.05v5.404h-4.012v-17.814h7.275c4.333,0,5.938,1.712,5.938,5.056v2.327
			C-314.028,744.473-315.847,746.156-320.179,746.156z M-318.039,739.177c0-1.285-0.454-1.873-2.14-1.873h-3.05v5.376h3.05
			c1.765,0,2.14-0.667,2.14-1.952V739.177z"/>
		<path fill="#231F20" d="M-298.06,751.561h-4.173l-0.963-3.477h-5.965l-0.963,3.477h-4.174l5.431-17.814h5.351L-298.06,751.561z
			 M-308.251,744.74h4.093l-2.033-7.462L-308.251,744.74z"/>
		<path fill="#231F20" d="M-292.712,745.73c0,1.552,0.509,2.46,2.487,2.46c1.284,0,3.05-0.159,4.601-0.428l0.563,3.505
			c-1.767,0.374-3.371,0.562-5.163,0.562c-4.493,0-6.5-2.22-6.5-5.456v-7.437c0-3.236,2.007-5.457,6.5-5.457
			c1.792,0,3.396,0.187,5.163,0.563l-0.563,3.503c-1.551-0.267-3.316-0.428-4.601-0.428c-1.979,0-2.487,0.909-2.487,2.461V745.73z"
			/>
		<path fill="#231F20" d="M-282.388,733.746h4.012v17.814h-4.012V733.746z M-277.868,742.466l4.815-8.72h4.521l-5.003,8.72
			l5.377,9.095h-4.521L-277.868,742.466z"/>
		<path fill="#231F20" d="M-258.025,733.746v17.654c0,2.22-0.16,2.354-3.209,5.322l-1.043-1.124
			c2.621-2.566,2.675-2.675,2.675-4.038v-17.814H-258.025z"/>
		<path fill="#231F20" d="M-241.173,733.746v12.76c0,3.021-1.819,5.322-6.152,5.322s-6.152-2.301-6.152-5.322v-12.76h1.578v12.76
			c0,2.486,1.579,3.905,4.574,3.905c2.996,0,4.574-1.419,4.574-3.905v-12.76H-241.173z"/>
		<path fill="#231F20" d="M-234.996,735.298v16.263h-1.498v-17.814h2.301l8.452,16.29v-16.29h1.498v17.814h-2.3L-234.996,735.298z"
			/>
		<path fill="#231F20" d="M-217.719,751.561h-1.579v-17.814h1.579V751.561z"/>
		<path fill="#231F20" d="M-206.941,751.828c-4.573,0-6.232-2.247-6.232-5.296v-7.757c0-3.05,1.659-5.297,6.232-5.297
			s6.232,2.247,6.232,5.297v7.757C-200.708,749.581-202.367,751.828-206.941,751.828z M-202.286,746.479v-7.65
			c0-2.542-1.23-3.931-4.654-3.931s-4.654,1.389-4.654,3.931v7.65c0,2.541,1.23,3.933,4.654,3.933S-202.286,749.02-202.286,746.479z
			"/>
		<path fill="#231F20" d="M-189.636,744.713h-0.349h-4.734v6.848h-1.578v-17.814h6.313c3.585,0,4.896,1.633,4.896,4.12v2.727
			c0,1.953-0.803,3.398-2.889,3.906l4.761,7.062h-1.792L-189.636,744.713z M-189.957,735.164h-4.762v8.132h4.762
			c2.247,0,3.29-0.75,3.29-2.703v-2.727C-186.667,735.913-187.71,735.164-189.957,735.164z"/>
	</g>
</g>
<g>
	<g>
		
			<image overflow="visible" opacity="0.4" width="226" height="226" xlink:href="ombra_cerchio_piccolo.png"  transform="matrix(1 0 0 1 -384.5002 244.5002)">
		</image>
		<g>
			<circle id="cerchio_162" fill="#F9F167" cx="-277.962" cy="351.563" r="82.481"/>
		</g>
	</g>
	<use id="numero_162" transform="matrix(0.6 0 0 0.6 -383 172)" xlink:href="#numero_13"/>
	<g>
		<path fill="#231F20" d="M-363.026,477.512v-17.99h11.318v3.592h-7.267v3.295h6.699v3.594h-6.699v3.916h7.267v3.594H-363.026z"/>
		<path fill="#231F20" d="M-343.336,477.781c-2.08,0-4.268-0.459-5.808-1.162l0.676-3.133c1.647,0.514,3.322,0.864,5.187,0.864
			c2.079,0,2.484-0.405,2.484-1.917c0-1.622-0.081-1.811-3.025-2.459c-4.349-0.945-4.997-1.81-4.997-5.699
			c0-3.592,1.27-5.024,6.213-5.024c1.566,0,3.458,0.162,5.456,0.595l-0.404,3.403c-2.054-0.352-3.377-0.513-4.998-0.513
			c-1.81,0-2.215,0.323-2.215,1.646c0,1.729,0.081,1.756,2.917,2.432c4.862,1.161,5.105,2.106,5.105,5.645
			C-336.745,476.026-337.906,477.781-343.336,477.781z"/>
		<path fill="#231F20" d="M-319.135,477.512h-4.214l-0.973-3.512h-6.023l-0.972,3.512h-4.214l5.482-17.99h5.403L-319.135,477.512z
			 M-329.426,470.623h4.133l-2.054-7.536L-329.426,470.623z"/>
		<path fill="#231F20" d="M-309.98,472.055h-3.079v5.457h-4.052v-17.99h7.347c4.376,0,5.997,1.729,5.997,5.105v2.35
			C-303.767,470.353-305.604,472.055-309.98,472.055z M-307.82,465.005c0-1.296-0.458-1.892-2.16-1.892h-3.079v5.43h3.079
			c1.782,0,2.16-0.675,2.16-1.972V465.005z"/>
		<path fill="#231F20" d="M-287.643,477.512h-4.214l-0.973-3.512h-6.023l-0.973,3.512h-4.213l5.483-17.99h5.402L-287.643,477.512z
			 M-297.934,470.623h4.133l-2.054-7.536L-297.934,470.623z"/>
		<path fill="#231F20" d="M-282.241,471.623c0,1.566,0.513,2.484,2.512,2.484c1.296,0,3.079-0.162,4.646-0.433l0.567,3.539
			c-1.782,0.378-3.403,0.567-5.213,0.567c-4.538,0-6.563-2.242-6.563-5.51v-7.51c0-3.269,2.025-5.511,6.563-5.511
			c1.81,0,3.431,0.189,5.213,0.567l-0.567,3.539c-1.566-0.271-3.35-0.433-4.646-0.433c-1.999,0-2.512,0.918-2.512,2.485V471.623z"/>
		<path fill="#231F20" d="M-271.817,459.522h4.051v17.99h-4.051V459.522z M-267.252,468.327l4.862-8.806h4.564l-5.051,8.806
			l5.43,9.185h-4.565L-267.252,468.327z"/>
		<path fill="#231F20" d="M-234.031,461.115l-5.24,14.072h-2.458l-5.24-14.072l-0.378,16.396h-1.595l0.541-17.99h2.322l5.592,14.693
			l5.564-14.693h2.322l0.541,17.99h-1.594L-234.031,461.115z"/>
		<path fill="#231F20" d="M-217.151,472.783h-8.374l-1.675,4.729h-1.566l6.267-17.99h2.35l6.267,17.99h-1.566L-217.151,472.783z
			 M-225.038,471.406h7.401l-3.701-10.967L-225.038,471.406z"/>
		<path fill="#231F20" d="M-205.754,468.381l-5.835-8.859h1.729l4.97,7.59l4.971-7.59h1.729l-5.835,8.859l6.023,9.131h-1.729
			l-5.159-7.861l-5.159,7.861h-1.729L-205.754,468.381z"/>
		<path fill="#231F20" d="M-192.899,477.512h-1.594v-17.99h1.594V477.512z"/>
	</g>
</g>
<g id="layer_colori"/>
<g id="layer_scala">
	<path fill="#9B9A9A" d="M688.392,60.492h-147.01c-4.101,0-7.425,4.4-7.425,9.828v696.099c0,5.426,3.324,9.828,7.425,9.828h147.01
		c4.102,0,7.425-4.402,7.425-9.828V70.321C695.817,64.892,692.494,60.492,688.392,60.492z M675.027,743.057
		c0,5.428-3.323,9.827-7.424,9.827H562.172c-4.1,0-7.426-4.399-7.426-9.827V96.23c0-5.428,3.326-9.828,7.426-9.828h105.432
		c4.101,0,7.424,4.4,7.424,9.828V743.057z"/>
	<rect x="553.524" y="250.736" fill="#9B9A9A" width="122.783" height="6.098"/>
	<rect x="553.524" y="165.486" fill="#9B9A9A" width="122.783" height="6.098"/>
	<rect x="553.524" y="334.049" fill="#9B9A9A" width="122.783" height="6.098"/>
	<rect x="553.524" y="417.362" fill="#9B9A9A" width="122.783" height="6.099"/>
	<rect x="553.524" y="500.675" fill="#9B9A9A" width="122.783" height="6.099"/>
	<rect x="553.524" y="667.301" fill="#9B9A9A" width="122.783" height="6.099"/>
	<rect x="553.524" y="583.988" fill="#9B9A9A" width="122.783" height="6.099"/>
</g>
<g id="layer_indicatore">
<use id="posizione_indicatore" xlink:href="#indicatore"/>
</g>
<use xlink:href="#titolo_138"/>
<!--
-->
</svg>
