<?xml version="1.0" encoding="utf-8"?>
<!-- Generator: Adobe Illustrator 15.0.0, SVG Export Plug-In . SVG Version: 6.00 Build 0)  -->
<!DOCTYPE svg PUBLIC "-//W3C//DTD SVG 1.1//EN" "http://www.w3.org/Graphics/SVG/1.1/DTD/svg11.dtd">
<svg version="1.1" id="Layer_1" xmlns="http://www.w3.org/2000/svg" xmlns:xlink="http://www.w3.org/1999/xlink" x="0px" y="0px"
	 width="1920px" height="1080px" viewBox="-448 -156 1920 1080" enable-background="new -448 -156 1920 1080" xml:space="preserve">
<g>
	<rect id="bg" x="-448" y="-154.021" fill="#F0EFEF" width="1920" height="1078.021"/>
	<linearGradient id="SVGID_1_" gradientUnits="userSpaceOnUse" x1="-447.9998" y1="382.6423" x2="-102.0327" y2="382.6423">
		<stop  offset="0.982" style="stop-color:#E5E5E5"/>
		<stop  offset="0.9825" style="stop-color:#E4E4E4"/>
		<stop  offset="0.9907" style="stop-color:#D9D9D9"/>
		<stop  offset="1" style="stop-color:#D6D6D6"/>
	</linearGradient>
	<rect x="-448" y="-77.015" fill="url(#SVGID_1_)" width="344.5" height="919.315"/>
	<rect id="sfondo_titolo" x="-448.001" y="-156" fill="#BBBBBB" width="1920.001" height="75"/>
	
		<linearGradient id="bordo_verde_titolo_1_" gradientUnits="userSpaceOnUse" x1="-88.4006" y1="-426.7917" x2="1831.6003" y2="-426.7917" gradientTransform="matrix(1 0 0 1 -359.6006 347.6016)">
		<stop  offset="0" style="stop-color:#29B574"/>
		<stop  offset="1" style="stop-color:#1C905B"/>
	</linearGradient>
	<rect id="bordo_verde_titolo" x="-448.001" y="-81.365" fill="url(#bordo_verde_titolo_1_)" width="1920.001" height="4.349"/>
	<rect id="sfondo_footer" x="-448.001" y="849" fill="#BBBBBB" width="1920.001" height="75"/>
	
		<linearGradient id="bordo_verde_footer_1_" gradientUnits="userSpaceOnUse" x1="182.5002" y1="-93.3684" x2="2102.5017" y2="-93.3684" gradientTransform="matrix(1 0 0 -1 -630.502 752.2817)">
		<stop  offset="0" style="stop-color:#29B574"/>
		<stop  offset="1" style="stop-color:#1C905B"/>
	</linearGradient>
	<rect id="bordo_verde_footer" x="-448.001" y="842.3" fill="url(#bordo_verde_footer_1_)" width="1920.001" height="6.7"/>
</g>
<g>
	<g id="XMLID_1_">
		<g>
			<polygon fill="#C2B2A0" points="1358.863,711.401 1358.863,718.422 1192.399,794.001 1160.539,808.467 1160.539,801.436 
				1192.399,786.972 1216.026,776.247 1247.884,761.781 1271.494,751.063 1271.509,751.063 1271.509,751.055 1303.373,736.59 
				1327,725.865 			"/>
			<polygon fill="#A2927C" points="1358.863,683.644 1358.863,711.401 1327,725.865 1327,725.856 1327,698.11 			"/>
			<polygon fill="#ADA08B" points="1358.863,683.636 1358.863,683.644 1327,698.11 1303.373,708.833 1271.509,723.3 
				1247.884,734.026 1216.026,748.49 1192.399,759.215 1160.539,773.681 1160.539,766.657 1192.399,752.198 1247.891,727.003 
				1280.097,712.372 1303.373,701.812 1303.373,701.805 1326.347,691.373 1326.347,691.08 1327,691.08 1358.863,676.613 			"/>
			<polygon fill="#ADA08B" points="1358.863,669.581 1358.863,676.613 1327,691.08 1327,684.047 			"/>
			<polygon fill="#C2B2A0" points="1358.863,669.581 1327,684.047 941.252,684.047 973.113,669.581 			"/>
			<polygon fill="#C2B2A0" points="1327,725.856 1327,725.865 1303.373,736.59 1303.373,725.856 			"/>
			<polygon fill="#796955" points="1327,698.11 1327,725.856 1303.373,725.856 1303.373,708.842 1303.373,708.833 			"/>
			<polygon fill="#CFC5B2" points="1327,684.047 1327,691.08 1326.347,691.08 1275.669,691.08 1191.652,691.08 1175.267,691.08 
				1159.791,691.08 1108.46,691.08 1024.344,691.08 1008.056,691.08 992.581,691.08 941.252,691.08 941.252,684.047 			"/>
			<polygon fill="#C2B2A0" points="1326.347,691.08 1326.347,691.373 1303.373,701.805 1303.373,694.781 1267.529,694.781 
				1275.669,691.08 			"/>
			<polygon fill="#A2927C" points="1303.373,725.856 1303.373,736.59 1271.509,751.055 1271.509,723.3 1303.373,708.833 
				1303.373,708.842 			"/>
			<polygon fill="#ADA08B" points="1303.373,694.781 1303.373,701.805 1303.373,701.812 1280.097,712.372 1271.509,716.27 
				1271.509,709.245 			"/>
			<polygon fill="#C2B2A0" points="1303.373,694.781 1271.509,709.245 885.76,709.245 917.624,694.781 933.106,694.781 
				984.437,694.781 999.913,694.781 1024.344,694.781 1100.318,694.781 1151.649,694.781 1167.125,694.781 1191.652,694.781 
				1267.529,694.781 			"/>
			<polygon fill="#C2B2A0" points="1280.097,712.372 1247.891,727.003 1247.884,726.992 1247.884,719.972 1212.039,719.972 
				1220.187,716.27 1271.509,716.27 			"/>
			<polygon fill="#796955" points="1271.509,751.055 1271.509,751.063 1271.494,751.063 			"/>
			<polygon fill="#796955" points="1271.509,723.3 1271.509,751.055 1271.494,751.063 1247.891,751.063 1247.884,751.063 
				1247.884,734.026 			"/>
			<polygon fill="#CFC5B2" points="1159.791,716.27 1136.162,716.27 1119.785,716.27 1104.3,716.27 1052.97,716.27 1013.603,716.27 
				992.48,716.27 968.851,716.27 952.574,716.27 937.098,716.27 885.76,716.27 885.76,709.245 1271.509,709.245 1271.509,716.27 
				1220.187,716.27 1180.912,716.27 			"/>
			<polygon fill="#C2B2A0" points="1271.494,751.063 1247.884,761.781 1247.884,751.063 1247.891,751.063 			"/>
			<polygon fill="#C2B2A0" points="1247.891,727.003 1192.399,752.198 1192.399,745.162 1156.546,745.162 1164.7,741.459 
				1216.026,741.459 1247.884,726.992 			"/>
			<polygon fill="#A2927C" points="1247.884,751.063 1247.884,761.781 1216.026,776.247 1216.026,748.49 1247.884,734.026 			"/>
			<polygon fill="#ADA08B" points="1247.884,719.972 1247.884,726.992 1216.026,741.459 1216.026,734.438 			"/>
			<polygon fill="#C2B2A0" points="1247.884,719.972 1216.026,734.438 830.276,734.438 862.141,719.972 877.617,719.972 
				928.946,719.972 944.426,719.972 968.851,719.972 992.48,719.972 1005.458,719.972 1044.828,719.972 1096.157,719.972 
				1111.633,719.972 1136.162,719.972 1159.791,719.972 1172.769,719.972 1212.039,719.972 			"/>
			<polygon fill="#C2B2A0" points="1220.187,716.27 1212.039,719.972 1172.769,719.972 1180.912,716.27 			"/>
			<polygon fill="#796955" points="1216.026,748.49 1216.026,776.247 1192.399,776.247 1192.399,759.215 			"/>
			<polygon fill="#CFC5B2" points="1104.3,741.459 1080.672,741.459 1064.293,741.459 1048.816,741.459 997.488,741.459 
				958.119,741.459 936.988,741.459 913.369,741.459 897.086,741.459 881.606,741.459 830.276,741.459 830.276,734.438 
				1216.026,734.438 1216.026,741.459 1164.7,741.459 1125.429,741.459 			"/>
			<polygon fill="#C2B2A0" points="1216.026,776.247 1192.399,786.972 1192.399,776.247 			"/>
			<polygon fill="#A2927C" points="1192.399,776.247 1192.399,786.972 1160.539,801.436 1160.539,773.681 1192.399,759.215 			"/>
			<polygon fill="#ADA08B" points="1192.399,745.162 1192.399,752.198 1160.539,766.657 1160.539,759.626 			"/>
			<polygon fill="#C2B2A0" points="1192.399,745.162 1160.539,759.626 774.789,759.626 806.649,745.162 822.129,745.162 
				873.457,745.162 888.942,745.162 913.369,745.162 936.988,745.162 949.969,745.162 989.337,745.162 1040.668,745.162 
				1056.143,745.162 1080.672,745.162 1104.3,745.162 1117.281,745.162 1156.546,745.162 			"/>
			<polygon fill="#796955" points="1191.652,691.08 1191.652,694.781 1167.125,694.781 1175.267,691.08 			"/>
			<polygon fill="#796955" points="1180.912,716.27 1172.769,719.972 1159.791,719.972 1159.791,716.27 			"/>
			<polygon fill="#A2927C" points="1175.267,691.08 1167.125,694.781 1151.649,694.781 1159.791,691.08 			"/>
			<polygon fill="#C2B2A0" points="1164.7,741.459 1156.546,745.162 1117.281,745.162 1125.429,741.459 			"/>
			<polygon fill="#CFC5B2" points="1160.539,801.436 1160.539,808.467 774.789,808.467 774.789,801.436 826.117,801.436 
				941.996,801.436 993.327,801.436 1109.207,801.436 			"/>
			<polygon fill="#B8A694" points="1160.539,773.681 1160.539,801.436 1109.207,801.436 1109.207,786.972 1109.207,783.276 
				1109.207,776.247 1109.207,773.681 			"/>
			<rect x="1109.207" y="766.657" fill="#CFC5B2" width="51.332" height="7.023"/>
			<polygon fill="#CFC5B2" points="1048.816,766.657 1025.191,766.657 1008.802,766.657 993.327,766.657 941.996,766.657 
				902.629,766.657 881.506,766.657 857.98,766.657 841.593,766.657 826.117,766.657 774.789,766.657 774.789,759.626 
				1160.539,759.626 1160.539,766.657 1109.207,766.657 1069.94,766.657 			"/>
			<rect x="1136.162" y="716.27" fill="#ADA08B" width="23.627" height="3.702"/>
			<polygon fill="#C2B2A0" points="1159.791,691.08 1151.649,694.781 1100.318,694.781 1108.46,691.08 			"/>
			<polygon fill="#796955" points="1136.162,716.27 1136.162,719.972 1111.633,719.972 1119.785,716.27 			"/>
			<polygon fill="#796955" points="1125.429,741.459 1117.281,745.162 1104.3,745.162 1104.3,741.459 			"/>
			<polygon fill="#A2927C" points="1119.785,716.27 1111.633,719.972 1096.157,719.972 1104.3,716.27 			"/>
			<polygon fill="#C2B2A0" points="1109.207,786.972 1109.207,801.436 993.327,801.436 1025.191,786.972 			"/>
			<polygon fill="#CFC5B2" points="1109.207,776.247 1109.207,783.276 1025.191,783.276 1025.191,776.247 1048.816,776.247 			"/>
			<polygon fill="#C2B2A0" points="1109.207,773.681 1109.207,776.247 1048.816,776.247 1069.94,766.657 1109.207,766.657 			"/>
			<rect x="1080.672" y="741.459" fill="#ADA08B" width="23.626" height="3.703"/>
			<polygon fill="#C2B2A0" points="1104.3,716.27 1096.157,719.972 1044.828,719.972 1052.97,716.27 			"/>
			<polygon fill="#796955" points="1080.672,741.459 1080.672,745.162 1056.143,745.162 1064.293,741.459 			"/>
			<polygon fill="#796955" points="1069.94,766.657 1048.816,776.247 1048.816,766.657 			"/>
			<polygon fill="#A2927C" points="1064.293,741.459 1056.143,745.162 1040.668,745.162 1048.816,741.459 			"/>
			<polygon fill="#C2B2A0" points="1052.97,716.27 1044.828,719.972 1005.458,719.972 1013.603,716.27 			"/>
			<rect x="1025.191" y="766.657" fill="#ADA08B" width="23.625" height="9.589"/>
			<polygon fill="#C2B2A0" points="1048.816,741.459 1040.668,745.162 989.337,745.162 997.488,741.459 			"/>
			<polygon fill="#796955" points="1025.191,783.276 1025.191,786.972 993.327,801.436 993.327,773.681 1008.802,766.657 
				1025.191,766.657 1025.191,776.247 			"/>
			<polygon fill="#796955" points="1024.344,691.08 1024.344,694.781 999.913,694.781 1008.056,691.08 			"/>
			<polygon fill="#796955" points="1013.603,716.27 1005.458,719.972 992.48,719.972 992.48,716.27 			"/>
			<polygon fill="#A2927C" points="1008.802,766.657 993.327,773.681 993.327,766.657 			"/>
			<polygon fill="#A2927C" points="1008.056,691.08 999.913,694.781 984.437,694.781 992.581,691.08 			"/>
			<polygon fill="#C2B2A0" points="997.488,741.459 989.337,745.162 949.969,745.162 958.119,741.459 			"/>
			<polygon fill="#B8A694" points="993.327,773.681 993.327,801.436 941.996,801.436 941.996,786.972 941.996,783.276 
				941.996,776.247 941.996,773.681 			"/>
			<rect x="941.996" y="766.657" fill="#CFC5B2" width="51.332" height="7.023"/>
			<polygon fill="#C2B2A0" points="992.581,691.08 984.437,694.781 933.106,694.781 941.033,691.18 941.252,691.08 			"/>
			<rect x="968.851" y="716.27" fill="#ADA08B" width="23.628" height="3.702"/>
			<polygon fill="#796955" points="968.851,716.27 968.851,719.972 944.426,719.972 952.574,716.27 			"/>
			<polygon fill="#796955" points="958.119,741.459 949.969,745.162 936.988,745.162 936.988,741.459 			"/>
			<polygon fill="#A2927C" points="952.574,716.27 944.426,719.972 928.946,719.972 937.098,716.27 			"/>
			<polygon fill="#C2B2A0" points="941.996,786.972 941.996,801.436 826.117,801.436 857.98,786.972 			"/>
			<polygon fill="#CFC5B2" points="941.996,776.247 941.996,783.276 857.98,783.276 857.98,776.247 881.506,776.247 			"/>
			<polygon fill="#C2B2A0" points="941.996,773.681 941.996,776.247 881.506,776.247 902.629,766.657 941.996,766.657 			"/>
			<polygon fill="#C2B2A0" points="937.098,716.27 928.946,719.972 877.617,719.972 885.544,716.37 885.76,716.27 			"/>
			<rect x="913.369" y="741.459" fill="#ADA08B" width="23.619" height="3.703"/>
			<polygon fill="#796955" points="913.369,741.459 913.369,745.162 888.942,745.162 897.086,741.459 			"/>
			<polygon fill="#796955" points="902.629,766.657 881.506,776.247 881.506,766.657 			"/>
			<polygon fill="#A2927C" points="897.086,741.459 888.942,745.162 873.457,745.162 881.606,741.459 			"/>
			<polygon fill="#C2B2A0" points="881.606,741.459 873.457,745.162 822.129,745.162 830.052,741.569 830.276,741.459 			"/>
			<rect x="857.98" y="766.657" fill="#ADA08B" width="23.526" height="9.589"/>
			<polygon fill="#796955" points="857.98,776.247 857.98,783.276 857.98,786.972 826.117,801.436 826.117,773.681 841.593,766.657 
				857.98,766.657 			"/>
			<polygon fill="#A2927C" points="841.593,766.657 826.117,773.681 826.117,766.657 			"/>
			<rect x="774.789" y="773.681" fill="#B8A694" width="51.33" height="27.757"/>
			<rect x="774.789" y="766.657" fill="#CFC5B2" width="51.33" height="7.023"/>
		</g>
		<g>
			<line fill="none" stroke="#A38978" stroke-width="0.5" x1="1160.539" y1="759.626" x2="774.789" y2="759.626"/>
			<line fill="none" stroke="#A38978" stroke-width="0.5" x1="774.789" y1="808.467" x2="1160.539" y2="808.467"/>
			<line fill="none" stroke="#A38978" stroke-width="0.5" x1="774.789" y1="801.436" x2="774.789" y2="808.467"/>
			<line fill="none" stroke="#A38978" stroke-width="0.5" x1="774.789" y1="773.681" x2="774.789" y2="801.436"/>
			<line fill="none" stroke="#A38978" stroke-width="0.5" x1="774.789" y1="766.657" x2="774.789" y2="773.681"/>
			<line fill="none" stroke="#A38978" stroke-width="0.5" x1="774.789" y1="759.626" x2="774.789" y2="766.657"/>
			<polyline fill="none" stroke="#A38978" stroke-width="0.5" points="1109.207,766.657 1109.207,773.681 1109.207,776.247 
				1109.207,783.276 1109.207,786.972 1109.207,801.436 			"/>
			<polyline fill="none" stroke="#A38978" stroke-width="0.5" points="774.789,766.657 826.117,766.657 841.593,766.657 
				857.98,766.657 881.506,766.657 902.629,766.657 941.996,766.657 993.327,766.657 1008.802,766.657 1025.191,766.657 
				1048.816,766.657 1069.94,766.657 1109.207,766.657 1160.539,766.657 			"/>
			<polyline fill="none" stroke="#A38978" stroke-width="0.5" points="774.789,801.436 826.117,801.436 941.996,801.436 
				993.327,801.436 1109.207,801.436 1160.539,801.436 			"/>
			<line fill="none" stroke="#A38978" stroke-width="0.5" x1="857.98" y1="783.276" x2="941.996" y2="783.276"/>
			<line fill="none" stroke="#A38978" stroke-width="0.5" x1="1025.191" y1="783.276" x2="1109.207" y2="783.276"/>
			<line fill="none" stroke="#A38978" stroke-width="0.5" x1="774.789" y1="773.681" x2="826.117" y2="773.681"/>
			<polyline fill="none" stroke="#A38978" stroke-width="0.5" points="993.327,766.657 993.327,773.681 993.327,801.436 			"/>
			<polyline fill="none" stroke="#A38978" stroke-width="0.5" points="941.996,766.657 941.996,773.681 941.996,776.247 
				941.996,783.276 941.996,786.972 941.996,801.436 			"/>
			<line fill="none" stroke="#A38978" stroke-width="0.5" x1="941.996" y1="773.681" x2="993.327" y2="773.681"/>
			<polyline fill="none" stroke="#A38978" stroke-width="0.5" points="826.117,766.657 826.117,773.681 826.117,801.436 			"/>
			<line fill="none" stroke="#A38978" stroke-width="0.5" x1="1109.207" y1="773.681" x2="1160.539" y2="773.681"/>
			<line fill="none" stroke="#A38978" stroke-width="0.5" x1="1303.373" y1="701.805" x2="1326.347" y2="691.373"/>
			<polyline fill="none" stroke="#A38978" stroke-width="0.5" points="1192.399,752.198 1247.891,727.003 1280.097,712.372 			"/>
			<line fill="none" stroke="#A38978" stroke-width="0.5" x1="1160.539" y1="766.657" x2="1192.399" y2="752.198"/>
			<polyline fill="none" stroke="#A38978" stroke-width="0.5" points="774.789,759.626 806.649,745.162 822.129,745.162 
				873.457,745.162 888.942,745.162 913.369,745.162 936.988,745.162 949.969,745.162 989.337,745.162 1040.668,745.162 
				1056.143,745.162 1080.672,745.162 1104.3,745.162 1117.281,745.162 1156.546,745.162 1192.399,745.162 1160.539,759.626 			"/>
			<line fill="none" stroke="#A38978" stroke-width="0.5" x1="1192.399" y1="794.001" x2="1160.539" y2="808.467"/>
			<line fill="none" stroke="#A38978" stroke-width="0.5" x1="1160.539" y1="801.436" x2="1192.399" y2="786.972"/>
			<line fill="none" stroke="#A38978" stroke-width="0.5" x1="1192.399" y1="745.162" x2="1192.399" y2="752.198"/>
			<line fill="none" stroke="#A38978" stroke-width="0.5" x1="1160.539" y1="801.436" x2="1160.539" y2="808.467"/>
			<line fill="none" stroke="#A38978" stroke-width="0.5" x1="1160.539" y1="773.681" x2="1160.539" y2="801.436"/>
			<line fill="none" stroke="#A38978" stroke-width="0.5" x1="1160.539" y1="766.657" x2="1160.539" y2="773.681"/>
			<line fill="none" stroke="#A38978" stroke-width="0.5" x1="1160.539" y1="759.626" x2="1160.539" y2="766.657"/>
			<polyline fill="none" stroke="#A38978" stroke-width="0.5" points="1192.399,759.215 1192.399,776.247 1192.399,786.972 			"/>
			<line fill="none" stroke="#A38978" stroke-width="0.5" x1="993.327" y1="801.436" x2="1025.191" y2="786.972"/>
			<polyline fill="none" stroke="#A38978" stroke-width="0.5" points="1025.191,766.657 1025.191,776.247 1025.191,783.276 
				1025.191,786.972 			"/>
			<line fill="none" stroke="#A38978" stroke-width="0.5" x1="1025.191" y1="786.972" x2="1109.207" y2="786.972"/>
			<line fill="none" stroke="#A38978" stroke-width="0.5" x1="857.98" y1="786.972" x2="941.996" y2="786.972"/>
			<line fill="none" stroke="#A38978" stroke-width="0.5" x1="826.117" y1="801.436" x2="857.98" y2="786.972"/>
			<polyline fill="none" stroke="#A38978" stroke-width="0.5" points="857.98,766.657 857.98,776.247 857.98,783.276 
				857.98,786.972 			"/>
			<line fill="none" stroke="#A38978" stroke-width="0.5" x1="993.327" y1="773.681" x2="1008.802" y2="766.657"/>
			<line fill="none" stroke="#A38978" stroke-width="0.5" x1="1216.026" y1="734.438" x2="830.276" y2="734.438"/>
			<line fill="none" stroke="#A38978" stroke-width="0.5" x1="830.276" y1="734.438" x2="830.276" y2="741.459"/>
			<polyline fill="none" stroke="#A38978" stroke-width="0.5" points="830.276,741.459 881.606,741.459 897.086,741.459 
				913.369,741.459 936.988,741.459 958.119,741.459 997.488,741.459 1048.816,741.459 1064.293,741.459 1080.672,741.459 
				1104.3,741.459 1125.429,741.459 1164.7,741.459 1216.026,741.459 			"/>
			<line fill="none" stroke="#A38978" stroke-width="0.5" x1="1216.026" y1="741.459" x2="1247.884" y2="726.992"/>
			<polyline fill="none" stroke="#A38978" stroke-width="0.5" points="830.276,734.438 862.141,719.972 877.617,719.972 
				928.946,719.972 944.426,719.972 968.851,719.972 992.48,719.972 1005.458,719.972 1044.828,719.972 1096.157,719.972 
				1111.633,719.972 1136.162,719.972 1159.791,719.972 1172.769,719.972 1212.039,719.972 1247.884,719.972 1216.026,734.438 			
				"/>
			<line fill="none" stroke="#A38978" stroke-width="0.5" x1="1247.884" y1="719.972" x2="1247.884" y2="726.992"/>
			<line fill="none" stroke="#A38978" stroke-width="0.5" x1="1216.026" y1="734.438" x2="1216.026" y2="741.459"/>
			<line fill="none" stroke="#A38978" stroke-width="0.5" x1="1156.546" y1="745.162" x2="1164.7" y2="741.459"/>
			<line fill="none" stroke="#A38978" stroke-width="0.5" x1="1064.293" y1="741.459" x2="1056.143" y2="745.162"/>
			<line fill="none" stroke="#A38978" stroke-width="0.5" x1="1040.668" y1="745.162" x2="1048.816" y2="741.459"/>
			<line fill="none" stroke="#A38978" stroke-width="0.5" x1="989.337" y1="745.162" x2="997.488" y2="741.459"/>
			<line fill="none" stroke="#A38978" stroke-width="0.5" x1="888.942" y1="745.162" x2="897.086" y2="741.459"/>
			<line fill="none" stroke="#A38978" stroke-width="0.5" x1="873.457" y1="745.162" x2="881.606" y2="741.459"/>
			<line fill="none" stroke="#A38978" stroke-width="0.5" x1="822.129" y1="745.162" x2="830.052" y2="741.569"/>
			<line fill="none" stroke="#A38978" stroke-width="0.5" x1="1327" y1="684.047" x2="941.252" y2="684.047"/>
			<line fill="none" stroke="#A38978" stroke-width="0.5" x1="941.252" y1="684.047" x2="941.252" y2="691.08"/>
			<polyline fill="none" stroke="#A38978" stroke-width="0.5" points="941.252,691.08 992.581,691.08 1008.056,691.08 
				1024.344,691.08 1108.46,691.08 1159.791,691.08 1175.267,691.08 1191.652,691.08 1275.669,691.08 1326.347,691.08 1327,691.08 
							"/>
			<line fill="none" stroke="#A38978" stroke-width="0.5" x1="1327" y1="691.08" x2="1358.863" y2="676.613"/>
			<polyline fill="none" stroke="#A38978" stroke-width="0.5" points="941.252,684.047 973.113,669.581 1358.863,669.581 
				1327,684.047 			"/>
			<line fill="none" stroke="#A38978" stroke-width="0.5" x1="1358.863" y1="669.581" x2="1358.863" y2="676.613"/>
			<line fill="none" stroke="#A38978" stroke-width="0.5" x1="1327" y1="684.047" x2="1327" y2="691.08"/>
			<line fill="none" stroke="#A38978" stroke-width="0.5" x1="1267.529" y1="694.781" x2="1275.669" y2="691.08"/>
			<line fill="none" stroke="#A38978" stroke-width="0.5" x1="1167.125" y1="694.781" x2="1175.267" y2="691.08"/>
			<line fill="none" stroke="#A38978" stroke-width="0.5" x1="1151.649" y1="694.781" x2="1159.791" y2="691.08"/>
			<line fill="none" stroke="#A38978" stroke-width="0.5" x1="1100.318" y1="694.781" x2="1108.46" y2="691.08"/>
			<line fill="none" stroke="#A38978" stroke-width="0.5" x1="999.913" y1="694.781" x2="1008.056" y2="691.08"/>
			<line fill="none" stroke="#A38978" stroke-width="0.5" x1="984.437" y1="694.781" x2="992.581" y2="691.08"/>
			<line fill="none" stroke="#A38978" stroke-width="0.5" x1="933.106" y1="694.781" x2="941.033" y2="691.18"/>
			<line fill="none" stroke="#A38978" stroke-width="0.5" x1="1271.509" y1="709.245" x2="885.76" y2="709.245"/>
			<line fill="none" stroke="#A38978" stroke-width="0.5" x1="885.76" y1="709.245" x2="885.76" y2="716.27"/>
			<polyline fill="none" stroke="#A38978" stroke-width="0.5" points="885.76,716.27 937.098,716.27 952.574,716.27 968.851,716.27 
				992.48,716.27 1013.603,716.27 1052.97,716.27 1104.3,716.27 1119.785,716.27 1136.162,716.27 1159.791,716.27 1180.912,716.27 
				1220.187,716.27 1271.509,716.27 			"/>
			<polyline fill="none" stroke="#A38978" stroke-width="0.5" points="1271.509,716.27 1280.097,712.372 1303.373,701.812 			"/>
			<polyline fill="none" stroke="#A38978" stroke-width="0.5" points="885.76,709.245 917.624,694.781 933.106,694.781 
				984.437,694.781 999.913,694.781 1024.344,694.781 1100.318,694.781 1151.649,694.781 1167.125,694.781 1191.652,694.781 
				1267.529,694.781 1303.373,694.781 1271.509,709.245 			"/>
			<polyline fill="none" stroke="#A38978" stroke-width="0.5" points="1303.373,694.781 1303.373,701.805 1303.373,701.812 			"/>
			<line fill="none" stroke="#A38978" stroke-width="0.5" x1="1271.509" y1="709.245" x2="1271.509" y2="716.27"/>
			<line fill="none" stroke="#A38978" stroke-width="0.5" x1="1212.039" y1="719.972" x2="1220.187" y2="716.27"/>
			<line fill="none" stroke="#A38978" stroke-width="0.5" x1="1111.633" y1="719.972" x2="1119.785" y2="716.27"/>
			<line fill="none" stroke="#A38978" stroke-width="0.5" x1="1096.157" y1="719.972" x2="1104.3" y2="716.27"/>
			<line fill="none" stroke="#A38978" stroke-width="0.5" x1="1044.828" y1="719.972" x2="1052.97" y2="716.27"/>
			<line fill="none" stroke="#A38978" stroke-width="0.5" x1="944.426" y1="719.972" x2="952.574" y2="716.27"/>
			<line fill="none" stroke="#A38978" stroke-width="0.5" x1="928.946" y1="719.972" x2="937.098" y2="716.27"/>
			<line fill="none" stroke="#A38978" stroke-width="0.5" x1="877.617" y1="719.972" x2="885.544" y2="716.37"/>
			<line fill="none" stroke="#A38978" stroke-width="0.5" x1="826.117" y1="773.681" x2="841.593" y2="766.657"/>
			<polyline fill="none" stroke="#A38978" stroke-width="0.5" points="1216.026,748.49 1216.026,776.247 1192.399,776.247 			"/>
			<polyline fill="none" stroke="#A38978" stroke-width="0.5" points="1247.884,734.026 1247.884,751.063 1247.884,761.781 			"/>
			<polyline fill="none" stroke="#A38978" stroke-width="0.5" points="1271.509,723.3 1271.509,751.055 1271.509,751.063 
				1271.494,751.063 1247.891,751.063 			"/>
			<polyline fill="none" stroke="#A38978" stroke-width="0.5" points="1303.373,708.842 1303.373,725.856 1303.373,736.59 			"/>
			<polyline fill="none" stroke="#A38978" stroke-width="0.5" points="1327,698.11 1327,725.856 1303.373,725.856 			"/>
			<line fill="none" stroke="#A38978" stroke-width="0.5" x1="1358.863" y1="683.644" x2="1358.863" y2="711.401"/>
			<polyline fill="none" stroke="#A38978" stroke-width="0.5" points="1160.539,773.681 1192.399,759.215 1216.026,748.49 
				1247.884,734.026 1271.509,723.3 1303.373,708.833 1327,698.11 1358.863,683.644 			"/>
			<polyline fill="none" stroke="#A38978" stroke-width="0.5" points="1192.399,786.972 1216.026,776.247 1247.884,761.781 
				1271.494,751.063 1271.509,751.055 1303.373,736.59 1327,725.865 1358.863,711.401 			"/>
			<line fill="none" stroke="#A38978" stroke-width="0.5" x1="1192.399" y1="794.001" x2="1358.863" y2="718.422"/>
			<line fill="none" stroke="#A38978" stroke-width="0.5" x1="1358.863" y1="676.613" x2="1358.863" y2="683.636"/>
			<line fill="none" stroke="#A38978" stroke-width="0.5" x1="1358.863" y1="711.401" x2="1358.863" y2="718.422"/>
			<polyline fill="none" stroke="#A38978" stroke-width="0.5" points="1048.816,766.409 1048.816,766.657 1048.816,776.247 
				1025.191,776.247 			"/>
			<line fill="none" stroke="#A38978" stroke-width="0.5" x1="1080.672" y1="741.459" x2="1080.672" y2="745.162"/>
			<polyline fill="none" stroke="#A38978" stroke-width="0.5" points="1069.94,766.657 1048.816,776.247 1109.207,776.247 			"/>
			<polyline fill="none" stroke="#A38978" stroke-width="0.5" points="881.506,766.409 881.506,766.657 881.506,776.247 
				857.98,776.247 857.881,776.247 			"/>
			<line fill="none" stroke="#A38978" stroke-width="0.5" x1="913.369" y1="741.459" x2="913.369" y2="745.162"/>
			<polyline fill="none" stroke="#A38978" stroke-width="0.5" points="902.629,766.657 881.506,776.247 941.996,776.247 			"/>
			<polyline fill="none" stroke="#A38978" stroke-width="0.5" points="936.988,741.218 936.988,741.459 936.988,745.162 			"/>
			<line fill="none" stroke="#A38978" stroke-width="0.5" x1="968.851" y1="716.27" x2="968.851" y2="719.972"/>
			<line fill="none" stroke="#A38978" stroke-width="0.5" x1="949.969" y1="745.162" x2="958.119" y2="741.459"/>
			<polyline fill="none" stroke="#A38978" stroke-width="0.5" points="1104.3,741.218 1104.3,741.459 1104.3,745.162 			"/>
			<line fill="none" stroke="#A38978" stroke-width="0.5" x1="1136.162" y1="716.27" x2="1136.162" y2="719.972"/>
			<line fill="none" stroke="#A38978" stroke-width="0.5" x1="1117.281" y1="745.162" x2="1125.429" y2="741.459"/>
			<polyline fill="none" stroke="#A38978" stroke-width="0.5" points="992.48,716.019 992.48,716.27 992.48,719.972 			"/>
			<line fill="none" stroke="#A38978" stroke-width="0.5" x1="1024.344" y1="691.08" x2="1024.344" y2="694.781"/>
			<line fill="none" stroke="#A38978" stroke-width="0.5" x1="1005.458" y1="719.972" x2="1013.603" y2="716.27"/>
			<polyline fill="none" stroke="#A38978" stroke-width="0.5" points="1159.791,716.019 1159.791,716.27 1159.791,719.972 			"/>
			<line fill="none" stroke="#A38978" stroke-width="0.5" x1="1191.652" y1="691.08" x2="1191.652" y2="694.781"/>
			<line fill="none" stroke="#A38978" stroke-width="0.5" x1="1172.769" y1="719.972" x2="1180.912" y2="716.27"/>
		</g>
	</g>
</g>
<g id="titolo">
	<g enable-background="new    ">
		<path fill="#231F20" d="M-22.014,78.307V29.768H8.523v9.695h-19.605v8.891H6.993v9.693h-18.076v10.568H8.521v9.696L-22.014,78.307
			L-22.014,78.307z"/>
		<path fill="#231F20" d="M31.118,79.036c-5.611,0-11.516-1.241-15.669-3.137l1.822-8.454c4.444,1.385,8.964,2.332,13.993,2.332
			c5.611,0,6.704-1.092,6.704-5.175c0-4.373-0.219-4.882-8.162-6.628c-11.734-2.551-13.482-4.886-13.482-15.378
			c0-9.695,3.425-13.557,16.761-13.557c4.227,0,9.328,0.436,14.724,1.603l-1.095,9.183c-5.537-0.947-9.109-1.385-13.481-1.385
			c-4.882,0-5.976,0.875-5.976,4.445c0,4.664,0.219,4.738,7.871,6.559c13.119,3.134,13.774,5.685,13.774,15.234
			C48.9,74.298,45.767,79.036,31.118,79.036z"/>
		<path fill="#231F20" d="M96.419,78.307H85.051l-2.624-9.477H66.175l-2.623,9.477H52.183l14.794-48.541H81.55L96.419,78.307z
			 M68.654,59.722h11.15l-5.538-20.334L68.654,59.722z"/>
		<path fill="#231F20" d="M121.13,63.585h-8.305v14.724h-10.934V29.768h19.824c11.807,0,16.18,4.667,16.18,13.777v6.34
			C137.893,58.992,132.938,63.585,121.13,63.585z M126.962,44.563c0-3.499-1.238-5.102-5.833-5.102h-8.306v14.648h8.306
			c4.81,0,5.833-1.821,5.833-5.322V44.563z"/>
		<path fill="#231F20" d="M181.406,78.307h-11.371l-2.624-9.477h-16.249l-2.625,9.477h-11.371l14.795-48.541h14.576L181.406,78.307z
			 M153.638,59.722h11.149l-5.538-20.334L153.638,59.722z"/>
		<path fill="#231F20" d="M195.985,62.418c0,4.227,1.385,6.705,6.78,6.705c3.496,0,8.305-0.437,12.536-1.166l1.53,9.547
			c-4.81,1.021-9.184,1.533-14.064,1.533c-12.243,0-17.709-6.052-17.709-14.867V43.906c0-8.819,5.466-14.867,17.709-14.867
			c4.884,0,9.255,0.51,14.064,1.533l-1.53,9.544c-4.228-0.729-9.038-1.167-12.536-1.167c-5.396,0-6.78,2.482-6.78,6.706V62.418z"/>
		<path fill="#231F20" d="M224.12,29.768h10.928v48.541H224.12V29.768z M236.436,53.528l13.119-23.759h12.315l-13.627,23.759
			l14.648,24.778h-12.316L236.436,53.528z"/>
	</g>
	<g enable-background="new    ">
		<path fill="#231F20" d="M289.978,41.25l-0.947,39.355h-6.05l1.676-48.54h7.944l13.992,37.536l13.993-37.536h7.947l1.673,48.54
			h-6.049L323.21,41.25l-12.388,33.085h-8.456L289.978,41.25z"/>
		<path fill="#231F20" d="M379.33,80.605h-6.34l-4.008-11.661h-20.626l-3.936,11.661h-6.344l16.4-48.54h8.454L379.33,80.605z
			 M358.704,36.585l-8.672,26.893h17.346L358.704,36.585z"/>
		<path fill="#231F20" d="M399.666,55.972l-15.231-23.905h6.701l12.028,18.948l12.098-18.948h6.705l-15.305,23.905l15.815,24.633
			h-6.706l-12.605-19.678l-12.537,19.678h-6.705L399.666,55.972z"/>
		<path fill="#231F20" d="M437.494,80.605h-6.268V32.066h6.268V80.605z"/>
	</g>
</g>
<g>
	<g id="cerchio_1_">
		<g id="cerchio">
			
				<image overflow="visible" opacity="0.63" enable-background="new    " width="572" height="598" xlink:href="../../138 svg/EE12B3EA.png"  transform="matrix(0.6044 0 0 0.6045 38.2742 147.6404)">
			</image>
			<g>
				<ellipse fill="#28B34B" cx="210.929" cy="328.188" rx="152.8" ry="160.373"/>
			</g>
		</g>
	</g>
	<g>
		<g id="_x33_2" display="none">
			<path display="inline" fill="#FFFFFF" d="M115.802,382.531c10.918,2.503,22.064,3.642,33.209,3.642
				c21.383,0,29.116-5.007,29.116-19.563v-11.374c0-14.786-8.188-19.791-22.974-19.791H123.99v-16.832h28.662
				c17.742,0,22.747-6.825,22.747-18.879v-13.194c0-13.647-6.37-18.196-24.569-18.196c-10.236,0-21.609,1.364-32.072,3.411
				l-2.048-16.149c9.553-2.275,22.746-4.094,34.576-4.094c32.074,0,43.218,11.146,43.218,32.301v13.422
				c0,13.875-3.183,22.519-17.286,29.344c12.511,3.639,20.019,10.69,20.019,27.07v14.783c0,23.659-14.104,34.577-48.225,34.577
				c-10.918,0-25.704-1.365-35.259-4.549L115.802,382.531z"/>
			<path display="inline" fill="#FFFFFF" d="M224.53,383.214c16.833-19.106,21.154-24.111,39.126-45.266
				c23.201-27.523,24.792-33.44,24.792-44.13v-6.598c0-14.329-3.866-18.65-26.842-18.65c-10.69,0-25.021,2.502-33.665,5.004
				l-2.73-16.379c9.781-2.957,24.793-5.687,37.988-5.687c35.032,0,44.357,12.283,44.357,35.485c0,0.908,0,4.094,0,5.003
				c0,17.97-3.185,25.705-25.932,52.773c-16.378,19.563-18.652,22.52-33.438,39.125h60.734v16.832H224.53V383.214z"/>
		</g>
		<g id="_x33_1" display="none">
			<path display="inline" fill="#FFFFFF" d="M115.802,382.531c10.918,2.503,22.064,3.642,33.209,3.642
				c21.383,0,29.116-5.007,29.116-19.563v-11.374c0-14.786-8.188-19.791-22.974-19.791H123.99v-16.832h28.662
				c17.742,0,22.747-6.825,22.747-18.879v-13.194c0-13.647-6.37-18.196-24.569-18.196c-10.236,0-21.609,1.364-32.072,3.411
				l-2.048-16.149c9.553-2.275,22.746-4.094,34.576-4.094c32.074,0,43.218,11.146,43.218,32.301v13.422
				c0,13.875-3.183,22.519-17.286,29.344c12.511,3.639,20.019,10.69,20.019,27.07v14.783c0,23.659-14.104,34.577-48.225,34.577
				c-10.918,0-25.704-1.365-35.259-4.549L115.802,382.531z"/>
			<path display="inline" fill="#FFFFFF" d="M222.028,291.998l-8.416-15.24l39.807-22.974h17.06V400.73H251.37V275.621
				L222.028,291.998z"/>
		</g>
		<g id="_x33_0" display="none">
			<path display="inline" fill="#FFFFFF" d="M115.802,382.531c10.918,2.503,22.064,3.642,33.209,3.642
				c21.383,0,29.116-5.007,29.116-19.563v-11.374c0-14.786-8.188-19.791-22.974-19.791H123.99v-16.832h28.662
				c17.742,0,22.747-6.825,22.747-18.879v-13.194c0-13.647-6.37-18.196-24.569-18.196c-10.236,0-21.609,1.364-32.072,3.411
				l-2.048-16.149c9.553-2.275,22.746-4.094,34.576-4.094c32.074,0,43.218,11.146,43.218,32.301v13.422
				c0,13.875-3.183,22.519-17.286,29.344c12.511,3.639,20.019,10.69,20.019,27.07v14.783c0,23.659-14.104,34.577-48.225,34.577
				c-10.918,0-25.704-1.365-35.259-4.549L115.802,382.531z"/>
			<path display="inline" fill="#FFFFFF" d="M322.797,363.653c0,22.747-11.601,39.352-46.857,39.352
				c-35.259,0-46.86-16.604-46.86-39.352v-72.791c0-22.747,11.601-39.353,46.86-39.353c35.257,0,46.857,16.605,46.857,39.353
				V363.653L322.797,363.653z M275.939,268.342c-20.928,0-27.752,7.961-27.752,24.566v68.696c0,16.604,6.824,24.565,27.752,24.565
				c20.926,0,27.753-7.962,27.753-24.565v-68.696C303.69,276.303,296.865,268.342,275.939,268.342z"/>
		</g>
		<g id="_x32_9" display="none">
			<path display="inline" fill="#FFFFFF" d="M113.754,383.214c16.833-19.106,21.154-24.111,39.126-45.266
				c23.201-27.523,24.793-33.44,24.793-44.13v-6.598c0-14.329-3.867-18.65-26.843-18.65c-10.69,0-25.021,2.502-33.665,5.004
				l-2.729-16.379c9.781-2.957,24.793-5.687,37.988-5.687c35.031,0,44.357,12.283,44.357,35.485c0,0.908,0,4.094,0,5.003
				c0,17.97-3.185,25.705-25.931,52.773c-16.379,19.563-18.653,22.52-33.438,39.125h60.734v16.832h-84.394V383.214z"/>
			<path display="inline" fill="#FFFFFF" d="M294.59,332.715c-7.507,2.73-20.245,5.233-30.255,5.233
				c-28.888,0-38.896-12.056-38.896-36.168v-7.279c0-26.614,7.96-42.991,43.674-42.991c32.757,0,44.358,14.331,44.358,35.714v64.373
				c0,37.762-16.833,51.408-59.598,51.408c-7.052,0-17.743-0.908-25.023-2.729l1.82-15.926c5.459,1.138,14.786,2.049,20.245,2.049
				c35.257,0,43.675-7.506,43.675-35.032V332.715z M294.59,315.201v-25.933c0-16.151-8.188-20.927-25.477-20.927
				c-19.562,0-24.794,5.914-24.794,20.927v12.509c0,13.877,5.233,19.565,21.837,19.565
				C276.165,321.343,287.083,318.387,294.59,315.201z"/>
		</g>
		<g id="_x32_8">
			<g enable-background="new    ">
				<path fill="#F5F6F6" d="M111.592,383.18c16.319-18.954,20.512-23.918,37.937-44.903c22.499-27.3,24.042-33.167,24.042-43.774
					v-6.543c0-14.214-3.749-18.502-26.026-18.502c-10.367,0-24.263,2.483-32.643,4.962l-2.648-16.245
					c9.484-2.932,24.042-5.641,36.834-5.641c33.966,0,43.009,12.186,43.009,35.2c0,0.903,0,4.062,0,4.966
					c0,17.824-3.087,25.497-25.146,52.345c-15.88,19.406-18.086,22.342-32.422,38.813h58.891v16.697h-81.829V383.18H111.592z"/>
				<path fill="#F5F6F6" d="M286.718,326.094c20.071,9.477,26.688,18.956,26.688,34.298v6.543c0,25.273-13.236,35.878-45.657,35.878
					c-32.643,0-45.657-10.604-45.657-35.878v-6.543c0-15.342,6.397-24.822,26.028-34.298c-17.646-8.799-22.278-18.05-22.278-32.267
					v-5.865c0-20.533,9.925-35.426,41.91-35.426c31.761,0,41.907,14.893,41.907,35.426v5.865
					C309.656,308.044,304.805,317.294,286.718,326.094z M267.749,334.668c-22.276,9.25-27.569,13.539-27.569,26.399v5.191
					c0,15.343,7.057,20.305,27.569,20.305c20.292,0,27.57-4.962,27.57-20.305v-5.191
					C295.319,348.207,289.806,343.917,267.749,334.668z M267.749,318.423c18.967-7.897,23.82-12.636,23.82-24.141v-7.221
					c0-11.734-5.513-18.504-23.82-18.504c-18.527,0-23.821,6.771-23.821,18.504v7.221
					C243.927,305.787,248.781,310.525,267.749,318.423z"/>
			</g>
		</g>
		<g id="_x32_7" display="none">
			<g display="inline" enable-background="new    ">
				<path fill="#F5F6F6" d="M117.107,383.18c16.32-18.954,20.511-23.918,37.936-44.903c22.499-27.3,24.042-33.167,24.042-43.774
					v-6.543c0-14.214-3.749-18.502-26.026-18.502c-10.367,0-24.263,2.483-32.643,4.962l-2.647-16.245
					c9.484-2.932,24.042-5.641,36.835-5.641c33.966,0,43.008,12.186,43.008,35.2c0,0.903,0,4.062,0,4.966
					c0,17.824-3.087,25.497-25.145,52.345c-15.881,19.406-18.086,22.342-32.422,38.813h58.89v16.697h-81.829V383.18H117.107z"/>
				<path fill="#F5F6F6" d="M220.326,254.792h87.567v16.022L249.22,400.559h-18.747L288.92,271.49h-68.595v-16.699H220.326z"/>
			</g>
		</g>
		<g id="_x32_6" display="none">
			<g display="inline" enable-background="new    ">
				<path fill="#F5F6F6" d="M114.019,383.18c16.319-18.954,20.512-23.918,37.937-44.903c22.499-27.3,24.042-33.167,24.042-43.774
					v-6.543c0-14.214-3.75-18.502-26.026-18.502c-10.367,0-24.263,2.483-32.643,4.962l-2.648-16.245
					c9.484-2.932,24.042-5.641,36.834-5.641c33.966,0,43.01,12.186,43.01,35.2c0,0.903,0,4.062,0,4.966
					c0,17.824-3.088,25.497-25.147,52.345c-15.88,19.406-18.086,22.342-32.422,38.813h58.891v16.697h-81.829V383.18H114.019z"/>
				<path fill="#F5F6F6" d="M243.927,322.258c7.279-2.708,19.63-5.189,29.334-5.189c28.013,0,37.717,11.958,37.717,35.878v7.221
					c0,26.396-7.057,42.647-42.348,42.647c-31.762,0-43.01-13.54-43.01-34.751V303.53c0-37.456,16.32-50.995,57.785-50.995
					c6.84,0,17.208,0.902,24.263,2.709l-1.986,15.792c-5.293-1.129-14.117-2.031-19.407-2.031c-34.187,0-42.35,7.448-42.35,34.748
					V322.258z M243.927,339.632v25.723c0,16.024,7.94,20.762,24.704,20.762c18.967,0,24.042-5.866,24.042-20.762v-12.408
					c0-13.767-5.073-19.406-21.177-19.406C261.793,333.541,251.208,336.474,243.927,339.632z"/>
			</g>
		</g>
		<g id="_x32_5" display="none">
			<g display="inline" enable-background="new    ">
				<path fill="#F5F6F6" d="M116.886,383.18c16.322-18.954,20.513-23.918,37.939-44.903c22.495-27.3,24.039-33.167,24.039-43.774
					v-6.543c0-14.214-3.749-18.502-26.026-18.502c-10.367,0-24.262,2.483-32.643,4.962l-2.647-16.245
					c9.484-2.932,24.042-5.641,36.834-5.641c33.97,0,43.01,12.186,43.01,35.2c0,0.903,0,4.062,0,4.966
					c0,17.824-3.088,25.497-25.145,52.345c-15.879,19.406-18.088,22.342-32.424,38.813h58.892v16.697h-81.832L116.886,383.18
					L116.886,383.18z"/>
				<path fill="#F5F6F6" d="M231.356,254.792h74.993v16.698h-56.467v46.257c9.266,0.226,13.675,0.226,23.603,0.676
					c26.247,1.127,34.626,14.215,34.626,33.846v13.088c0,23.918-10.146,37.458-45.215,37.458c-11.028,0-25.806-1.353-37.052-5.19
					l1.984-15.343c11.027,2.71,24.262,3.837,34.849,3.837c22.059,0,26.912-5.867,26.912-21.889v-9.927
					c0-13.539-4.414-19.18-22.719-19.632c-14.778-0.45-24.482-0.45-35.511-0.677L231.356,254.792L231.356,254.792z"/>
			</g>
		</g>
		<g id="_x32_4" display="none">
			<g display="inline" enable-background="new    ">
				<path fill="#F5F6F6" d="M112.142,383.18c16.323-18.954,20.513-23.918,37.937-44.903c22.498-27.3,24.042-33.167,24.042-43.774
					v-6.543c0-14.214-3.75-18.502-26.026-18.502c-10.367,0-24.263,2.483-32.643,4.962l-2.648-16.245
					c9.484-2.932,24.042-5.641,36.834-5.641c33.967,0,43.01,12.186,43.01,35.2c0,0.903,0,4.062,0,4.966
					c0,17.824-3.088,25.497-25.145,52.345c-15.88,19.406-18.089,22.342-32.425,38.813h58.889v16.697h-81.829L112.142,383.18
					L112.142,383.18z"/>
				<path fill="#F5F6F6" d="M292.343,364.678v35.878h-18.527v-35.878h-67.932v-18.727l61.534-91.16h24.924v93.642h20.512v16.245
					H292.343z M273.816,348.433v-74.461l-49.625,74.461H273.816z"/>
			</g>
		</g>
		<g id="_x32_3" display="none">
			<g display="inline" enable-background="new    ">
				<path fill="#F5F6F6" d="M117.879,383.18c16.32-18.954,20.512-23.918,37.937-44.903c22.498-27.3,24.042-33.167,24.042-43.774
					v-6.543c0-14.214-3.75-18.502-26.025-18.502c-10.367,0-24.263,2.483-32.643,4.962l-2.648-16.245
					c9.484-2.932,24.042-5.641,36.834-5.641c33.967,0,43.011,12.186,43.011,35.2c0,0.903,0,4.062,0,4.966
					c0,17.824-3.087,25.497-25.147,52.345c-15.879,19.406-18.086,22.342-32.423,38.813h58.891v16.697h-81.829V383.18H117.879z"/>
				<path fill="#F5F6F6" d="M228.158,382.505c10.584,2.482,21.396,3.611,32.199,3.611c20.732,0,28.232-4.965,28.232-19.405V355.43
					c0-14.668-7.939-19.632-22.275-19.632h-30.218v-16.697h27.791c17.202,0,22.055-6.771,22.055-18.727v-13.086
					c0-13.539-6.176-18.053-23.82-18.053c-9.925,0-20.953,1.355-31.099,3.386l-1.987-16.021c9.266-2.257,22.06-4.063,33.525-4.063
					c31.101,0,41.91,11.057,41.91,32.042v13.313c0,13.765-3.087,22.34-16.762,29.106c12.131,3.612,19.41,10.606,19.41,26.851v14.668
					c0,23.465-13.676,34.298-46.763,34.298c-10.587,0-24.924-1.354-34.187-4.514L228.158,382.505z"/>
			</g>
		</g>
		<g id="_x32_2" display="none">
			<g display="inline" enable-background="new    ">
				<path fill="#F5F6F6" d="M117.99,383.18c16.318-18.954,20.511-23.918,37.937-44.903c22.498-27.3,24.042-33.167,24.042-43.774
					v-6.543c0-14.214-3.75-18.502-26.026-18.502c-10.367,0-24.263,2.483-32.643,4.962l-2.647-16.245
					c9.483-2.932,24.042-5.641,36.834-5.641c33.966,0,43.009,12.186,43.009,35.2c0,0.903,0,4.062,0,4.966
					c0,17.824-3.087,25.497-25.147,52.345c-15.879,19.406-18.085,22.342-32.423,38.813h58.891v16.697h-81.829L117.99,383.18
					L117.99,383.18z"/>
				<path fill="#F5F6F6" d="M225.179,383.18c16.321-18.954,20.515-23.918,37.939-44.903c22.499-27.3,24.042-33.167,24.042-43.774
					v-6.543c0-14.214-3.752-18.502-26.028-18.502c-10.367,0-24.26,2.483-32.643,4.962l-2.646-16.245
					c9.486-2.932,24.042-5.641,36.833-5.641c33.969,0,43.009,12.186,43.009,35.2c0,0.903,0,4.062,0,4.966
					c0,17.824-3.088,25.497-25.144,52.345c-15.88,19.406-18.086,22.342-32.423,38.813h58.891v16.697h-81.832L225.179,383.18
					L225.179,383.18z"/>
			</g>
		</g>
		<g id="_x32_1" display="none">
			<g display="inline" enable-background="new    ">
				<path fill="#F5F6F6" d="M135.742,383.18c16.323-18.954,20.514-23.918,37.939-44.903c22.498-27.3,24.042-33.167,24.042-43.774
					v-6.543c0-14.214-3.752-18.502-26.029-18.502c-10.367,0-24.26,2.483-32.643,4.962l-2.645-16.245
					c9.484-2.932,24.04-5.641,36.832-5.641c33.97,0,43.012,12.186,43.012,35.2c0,0.903,0,4.062,0,4.966
					c0,17.824-3.09,25.497-25.147,52.345c-15.879,19.406-18.085,22.342-32.422,38.813h58.89v16.697h-81.832v-17.377h0.004V383.18z"
					/>
				<path fill="#F5F6F6" d="M242.273,292.7l-8.161-15.117l38.599-22.791h16.542v145.766h-18.527V276.456L242.273,292.7z"/>
			</g>
		</g>
		<g id="_x32_0" display="none">
			<g display="inline" enable-background="new    ">
				<path fill="#F5F6F6" d="M111.262,383.18c16.321-18.954,20.513-23.918,37.939-44.903c22.496-27.3,24.04-33.167,24.04-43.774
					v-6.543c0-14.214-3.75-18.502-26.026-18.502c-10.366,0-24.26,2.483-32.643,4.962l-2.647-16.245
					c9.483-2.932,24.042-5.641,36.833-5.641c33.969,0,43.01,12.186,43.01,35.2c0,0.903,0,4.062,0,4.966
					c0,17.824-3.088,25.497-25.145,52.345c-15.879,19.406-18.089,22.342-32.426,38.813h58.894v16.697h-81.832L111.262,383.18
					L111.262,383.18z"/>
				<path fill="#F5F6F6" d="M313.737,363.777c0,22.565-11.249,39.036-45.437,39.036c-34.187,0-45.437-16.471-45.437-39.036v-72.206
					c0-22.565,11.25-39.037,45.437-39.037c34.188,0,45.437,16.472,45.437,39.037V363.777z M268.3,269.233
					c-20.289,0-26.909,7.897-26.909,24.37v68.142c0,16.473,6.617,24.373,26.909,24.373c20.293,0,26.912-7.898,26.912-24.373v-68.142
					C295.21,277.13,288.593,269.233,268.3,269.233z"/>
			</g>
		</g>
		<g id="_x31_9" display="none">
			<g display="inline" enable-background="new    ">
				<path fill="#F5F6F6" d="M134.421,292.7l-8.162-15.117l38.598-22.791H181.4v145.766h-18.527V276.456L134.421,292.7z"/>
				<path fill="#F5F6F6" d="M280.431,333.09c-7.279,2.706-19.63,5.187-29.335,5.187c-28.011,0-37.716-11.96-37.716-35.875v-7.222
					c0-26.4,7.719-42.647,42.349-42.647c31.762,0,43.01,14.217,43.01,35.426v63.858c0,37.457-16.32,50.995-57.786,50.995
					c-6.839,0-17.207-0.905-24.263-2.709l1.765-15.795c5.292,1.129,14.336,2.035,19.63,2.035c34.186,0,42.348-7.448,42.348-34.749
					V333.09H280.431z M280.431,315.717V289.99c0-16.02-7.94-20.757-24.703-20.757c-18.969,0-24.042,5.865-24.042,20.757V302.4
					c0,13.764,5.073,19.402,21.176,19.402C262.565,321.807,273.152,318.873,280.431,315.717z"/>
			</g>
		</g>
		<g id="_x31_8" display="none">
			<g display="inline" enable-background="new    ">
				<path fill="#F5F6F6" d="M130.341,292.7l-8.158-15.117l38.596-22.791h16.542v145.766h-18.527V276.456L130.341,292.7z"/>
				<path fill="#F5F6F6" d="M276.131,326.094c20.071,9.477,26.688,18.956,26.688,34.298v6.543c0,25.273-13.234,35.878-45.657,35.878
					c-32.643,0-45.657-10.604-45.657-35.878v-6.543c0-15.342,6.398-24.822,26.029-34.298c-17.646-8.799-22.277-18.05-22.277-32.267
					v-5.865c0-20.533,9.923-35.426,41.907-35.426c31.762,0,41.909,14.893,41.909,35.426v5.865
					C299.07,308.044,294.218,317.294,276.131,326.094z M257.163,334.668c-22.277,9.25-27.57,13.539-27.57,26.399v5.191
					c0,15.343,7.057,20.305,27.57,20.305c20.292,0,27.573-4.962,27.573-20.305v-5.191
					C284.734,348.207,279.219,343.917,257.163,334.668z M257.163,318.423c18.968-7.897,23.82-12.636,23.82-24.141v-7.221
					c0-11.734-5.513-18.504-23.82-18.504c-18.527,0-23.822,6.771-23.822,18.504v7.221
					C233.341,305.787,238.194,310.525,257.163,318.423z"/>
			</g>
		</g>
		<g id="_x31_7" display="none">
			<g display="inline" enable-background="new    ">
				<path fill="#F5F6F6" d="M134.97,292.7l-8.158-15.117l38.596-22.791h16.545v145.766h-18.528V276.456L134.97,292.7z"/>
				<path fill="#F5F6F6" d="M210.623,254.792h87.564v16.022l-58.673,129.745h-18.748l58.448-129.068h-68.595L210.623,254.792
					L210.623,254.792z"/>
			</g>
		</g>
		<g id="_x31_6" display="none">
			<g display="inline" enable-background="new    ">
				<path fill="#F5F6F6" d="M132.765,292.7l-8.16-15.117l38.599-22.791h16.542v145.766h-18.525V276.456L132.765,292.7z"/>
				<path fill="#F5F6F6" d="M233.341,322.258c7.28-2.708,19.63-5.189,29.335-5.189c28.011,0,37.717,11.958,37.717,35.878v7.221
					c0,26.396-7.058,42.647-42.348,42.647c-31.761,0-43.01-13.54-43.01-34.751V303.53c0-37.456,16.321-50.995,57.789-50.995
					c6.837,0,17.203,0.902,24.26,2.709l-1.984,15.792c-5.295-1.129-14.118-2.031-19.411-2.031c-34.186,0-42.348,7.448-42.348,34.748
					L233.341,322.258L233.341,322.258z M233.341,339.632v25.723c0,16.024,7.94,20.762,24.704,20.762
					c18.967,0,24.042-5.866,24.042-20.762v-12.408c0-13.767-5.073-19.406-21.174-19.406
					C251.208,333.541,240.619,336.474,233.341,339.632z"/>
			</g>
		</g>
		<g id="_x31_5" display="none">
			<g display="inline" enable-background="new    ">
				<path fill="#F5F6F6" d="M135.635,292.7l-8.161-15.117l38.596-22.791h16.544v145.766h-18.527V276.456L135.635,292.7z"/>
				<path fill="#F5F6F6" d="M220.769,254.792h74.992v16.698h-56.464v46.257c9.263,0.226,13.673,0.226,23.601,0.676
					c26.247,1.127,34.628,14.215,34.628,33.846v13.088c0,23.918-10.149,37.458-45.219,37.458c-11.027,0-25.804-1.353-37.052-5.19
					l1.984-15.343c11.027,2.71,24.263,3.837,34.852,3.837c22.055,0,26.907-5.867,26.907-21.889v-9.927
					c0-13.539-4.414-19.18-22.717-19.632c-14.777-0.45-24.482-0.45-35.511-0.677V254.792L220.769,254.792z"/>
			</g>
		</g>
		<g id="_x31_4" display="none">
			<g display="inline" enable-background="new    ">
				<path fill="#F5F6F6" d="M127.253,292.7l-8.161-15.117l38.599-22.791h16.542v145.766h-18.527V276.456L127.253,292.7z"/>
				<path fill="#F5F6F6" d="M285.395,364.678v35.878h-18.527v-35.878h-67.935v-18.727l61.539-91.16h24.923v93.642h20.512v16.245
					H285.395z M266.867,348.433v-74.461l-49.628,74.461H266.867z"/>
			</g>
		</g>
		<g id="_x31_3" display="none">
			<g display="inline" enable-background="new    ">
				<path fill="#F5F6F6" d="M137.177,292.7l-8.16-15.117l38.599-22.791h16.542v145.766h-18.527V276.456L137.177,292.7z"/>
				<path fill="#F5F6F6" d="M217.02,382.505c10.584,2.482,21.394,3.611,32.2,3.611c20.732,0,28.232-4.965,28.232-19.405V355.43
					c0-14.668-7.94-19.632-22.275-19.632h-30.218v-16.697h27.791c17.203,0,22.056-6.771,22.056-18.727v-13.086
					c0-13.539-6.175-18.053-23.821-18.053c-9.925,0-20.954,1.355-31.099,3.386l-1.986-16.021c9.266-2.257,22.058-4.063,33.526-4.063
					c31.099,0,41.91,11.057,41.91,32.042v13.313c0,13.765-3.087,22.34-16.763,29.106c12.131,3.612,19.41,10.606,19.41,26.851v14.668
					c0,23.465-13.675,34.298-46.762,34.298c-10.588,0-24.923-1.354-34.187-4.514L217.02,382.505z"/>
			</g>
		</g>
		<g id="_x31_2" display="none">
			<g display="inline" enable-background="new    ">
				<path fill="#F5F6F6" d="M136.737,292.7l-8.161-15.117l38.599-22.791h16.542v145.766h-18.525V276.456L136.737,292.7z"/>
				<path fill="#F5F6F6" d="M214.594,383.18c16.32-18.954,20.513-23.918,37.937-44.903c22.498-27.3,24.042-33.167,24.042-43.774
					v-6.543c0-14.214-3.749-18.502-26.026-18.502c-10.367,0-24.261,2.483-32.646,4.962l-2.644-16.245
					c9.483-2.932,24.042-5.641,36.834-5.641c33.966,0,43.009,12.186,43.009,35.2c0,0.903,0,4.062,0,4.966
					c0,17.824-3.088,25.497-25.147,52.345c-15.879,19.406-18.086,22.342-32.422,38.813h58.891v16.697h-81.828V383.18z"/>
			</g>
		</g>
		<g id="_x31_1" display="none">
			<g display="inline" enable-background="new    ">
				<path fill="#F5F6F6" d="M146.145,292.7l-8.161-15.117l38.599-22.791h16.542v145.766h-18.528V276.456L146.145,292.7z"/>
				<path fill="#F5F6F6" d="M223.34,292.7l-8.16-15.117l38.599-22.791h16.542v145.766h-18.525V276.456L223.34,292.7z"/>
			</g>
		</g>
		<g id="_x31_0" display="none">
			<g display="inline" enable-background="new    ">
				<path fill="#F5F6F6" d="M130.01,292.7l-8.162-15.117l38.596-22.791h16.544v145.766h-18.527V276.456L130.01,292.7z"/>
				<path fill="#F5F6F6" d="M303.151,363.777c0,22.565-11.249,39.036-45.435,39.036c-34.189,0-45.437-16.471-45.437-39.036v-72.206
					c0-22.565,11.247-39.037,45.437-39.037c34.187,0,45.435,16.472,45.435,39.037V363.777z M257.714,269.233
					c-20.292,0-26.912,7.897-26.912,24.37v68.142c0,16.473,6.617,24.373,26.912,24.373c20.289,0,26.907-7.898,26.907-24.373v-68.142
					C284.621,277.13,278.005,269.233,257.714,269.233z"/>
			</g>
		</g>
		<g id="_x39_" display="none">
			<g display="inline" enable-background="new    ">
				<path fill="#F5F6F6" d="M236.872,333.09c-7.279,2.706-19.632,5.187-29.337,5.187c-28.008,0-37.714-11.96-37.714-35.875v-7.222
					c0-26.4,7.719-42.647,42.349-42.647c31.761,0,43.01,14.217,43.01,35.426v63.858c0,37.457-16.322,50.995-57.787,50.995
					c-6.838,0-17.205-0.905-24.261-2.709l1.762-15.795c5.297,1.129,14.336,2.035,19.633,2.035c34.186,0,42.349-7.448,42.349-34.749
					L236.872,333.09L236.872,333.09z M236.872,315.717V289.99c0-16.02-7.939-20.757-24.702-20.757
					c-18.972,0-24.042,5.865-24.042,20.757V302.4c0,13.764,5.07,19.402,21.173,19.402
					C219.006,321.807,229.593,318.873,236.872,315.717z"/>
			</g>
		</g>
		<g id="_x38_" display="none">
			<g display="inline" enable-background="new    ">
				<path fill="#F5F6F6" d="M231.468,326.094c20.071,9.477,26.688,18.956,26.688,34.298v6.543c0,25.273-13.234,35.878-45.657,35.878
					c-32.643,0-45.657-10.604-45.657-35.878v-6.543c0-15.342,6.397-24.822,26.028-34.298c-17.646-8.799-22.275-18.05-22.275-32.267
					v-5.865c0-20.533,9.922-35.426,41.907-35.426c31.761,0,41.91,14.893,41.91,35.426v5.865
					C254.407,308.044,249.553,317.294,231.468,326.094z M212.5,334.668c-22.277,9.25-27.571,13.539-27.571,26.399v5.191
					c0,15.343,7.058,20.305,27.571,20.305c20.292,0,27.573-4.962,27.573-20.305v-5.191
					C240.07,348.207,234.556,343.917,212.5,334.668z M212.5,318.423c18.968-7.897,23.82-12.636,23.82-24.141v-7.221
					c0-11.734-5.515-18.504-23.82-18.504c-18.527,0-23.821,6.771-23.821,18.504v7.221
					C188.679,305.787,193.531,310.525,212.5,318.423z"/>
			</g>
		</g>
		<g id="_x37_" display="none">
			<g display="inline" enable-background="new    ">
				<path fill="#F5F6F6" d="M168.717,254.792h87.563v16.022l-58.67,129.745h-18.75l58.45-129.068h-68.596L168.717,254.792
					L168.717,254.792z"/>
			</g>
		</g>
		<g id="_x36_" display="none">
			<g display="inline" enable-background="new    ">
				<path fill="#F5F6F6" d="M188.128,322.258c7.279-2.708,19.63-5.189,29.334-5.189c28.011,0,37.716,11.958,37.716,35.878v7.221
					c0,26.396-7.057,42.647-42.349,42.647c-31.761,0-43.009-13.54-43.009-34.751V303.53c0-37.456,16.32-50.995,57.785-50.995
					c6.84,0,17.208,0.902,24.263,2.709l-1.985,15.792c-5.294-1.129-14.115-2.031-19.408-2.031c-34.187,0-42.349,7.448-42.349,34.748
					L188.128,322.258L188.128,322.258z M188.128,339.632v25.723c0,16.024,7.939,20.762,24.703,20.762
					c18.968,0,24.042-5.866,24.042-20.762v-12.408c0-13.767-5.073-19.406-21.176-19.406
					C205.991,333.541,195.406,336.474,188.128,339.632z"/>
			</g>
		</g>
		<g id="_x35_" display="none">
			<g display="inline" enable-background="new    ">
				<path fill="#F5F6F6" d="M176.878,254.792h74.991v16.698h-56.463v46.257c9.262,0.226,13.675,0.226,23.601,0.676
					c26.247,1.127,34.627,14.215,34.627,33.846v13.088c0,23.918-10.149,37.458-45.218,37.458c-11.028,0-25.804-1.353-37.052-5.19
					l1.984-15.343c11.027,2.71,24.263,3.837,34.851,3.837c22.056,0,26.908-5.867,26.908-21.889v-9.927
					c0-13.539-4.414-19.18-22.717-19.632c-14.778-0.45-24.482-0.45-35.511-0.677V254.792L176.878,254.792z"/>
			</g>
		</g>
		<g id="_x34_" display="none">
			<g display="inline" enable-background="new    ">
				<path fill="#F5F6F6" d="M245.473,364.678v35.878h-18.528v-35.878h-67.934v-18.727l61.539-91.16h24.923v93.642h20.513v16.245
					H245.473z M226.945,348.433v-74.461l-49.626,74.461H226.945z"/>
			</g>
		</g>
		<g id="_x33_" display="none">
			<g display="inline" enable-background="new    ">
				<path fill="#F5F6F6" d="M174.01,382.505c10.587,2.482,21.397,3.611,32.203,3.611c20.732,0,28.232-4.965,28.232-19.405V355.43
					c0-14.668-7.94-19.632-22.276-19.632h-30.216v-16.697h27.791c17.203,0,22.056-6.771,22.056-18.727v-13.086
					c0-13.539-6.176-18.053-23.82-18.053c-9.925,0-20.954,1.355-31.099,3.386l-1.986-16.021c9.266-2.257,22.06-4.063,33.526-4.063
					c31.099,0,41.91,11.057,41.91,32.042v13.313c0,13.765-3.088,22.34-16.763,29.106c12.131,3.612,19.411,10.606,19.411,26.851
					v14.668c0,23.465-13.676,34.298-46.763,34.298c-10.587,0-24.923-1.354-34.187-4.514L174.01,382.505z"/>
			</g>
		</g>
		<g id="_x32_" display="none">
			<g display="inline" enable-background="new    ">
				<path fill="#F5F6F6" d="M171.585,383.18c16.32-18.954,20.513-23.918,37.937-44.903c22.498-27.3,24.042-33.167,24.042-43.774
					v-6.543c0-14.214-3.748-18.502-26.029-18.502c-10.367,0-24.26,2.483-32.643,4.962l-2.644-16.245
					c9.484-2.932,24.042-5.641,36.834-5.641c33.965,0,43.009,12.186,43.009,35.2c0,0.903,0,4.062,0,4.966
					c0,17.824-3.087,25.497-25.147,52.345c-15.879,19.406-18.085,22.342-32.421,38.813h58.891v16.697h-81.829V383.18L171.585,383.18
					z"/>
			</g>
		</g>
		<g id="_x31_" display="none">
			<g display="inline" enable-background="new    ">
				<path fill="#F5F6F6" d="M176.399,292.7l-8.162-15.117l38.598-22.791h16.542v145.766H204.85V276.456L176.399,292.7z"/>
			</g>
		</g>
		<g id="_x30_" display="none">
			<path display="inline" fill="#F5F6F6" d="M259.862,364.903c0,22.747-11.601,39.353-46.858,39.353
				c-35.258,0-46.859-16.605-46.859-39.353v-72.792c0-22.746,11.601-39.352,46.859-39.352c35.257,0,46.858,16.604,46.858,39.352
				V364.903z M213.002,269.592c-20.928,0-27.753,7.96-27.753,24.567v68.694c0,16.604,6.824,24.567,27.753,24.567
				c20.928,0,27.752-7.963,27.752-24.567v-68.694C240.754,277.552,233.929,269.592,213.002,269.592z"/>
		</g>
	</g>
	<g id="carrello">
		<g>
			
				<linearGradient id="sfumatura_1_" gradientUnits="userSpaceOnUse" x1="17.6125" y1="367.0852" x2="17.6125" y2="616.1619" gradientTransform="matrix(1 0 0 1 182.2002 173.8008)">
				<stop  offset="0" style="stop-color:#FFFFFF;stop-opacity:0"/>
				<stop  offset="0.0118" style="stop-color:#FEFEFE;stop-opacity:0.0406"/>
				<stop  offset="0.1453" style="stop-color:#F3F3F3;stop-opacity:0.4976"/>
				<stop  offset="0.2921" style="stop-color:#F0EFEF"/>
			</linearGradient>
			<polygon id="sfumatura" fill="url(#sfumatura_1_)" points="92.841,556.497 306.281,540.886 306.784,789.962 94.211,789.962 			
				"/>
			<g opacity="0.53">
				
					<image overflow="visible" enable-background="new    " width="546" height="174" xlink:href="../../138 svg/EE12B3E8.png"  transform="matrix(0.5775 0 0 0.573 46.1931 676.1145)">
				</image>
			</g>
			<g>
				
					<linearGradient id="SVGID_2_" gradientUnits="userSpaceOnUse" x1="1401.822" y1="24.9827" x2="1401.822" y2="61.3625" gradientTransform="matrix(-1 0 0 -1 1660.978 752.2817)">
					<stop  offset="0" style="stop-color:#0F0F0F"/>
					<stop  offset="0.0531" style="stop-color:#131313"/>
					<stop  offset="0.3335" style="stop-color:#212121"/>
					<stop  offset="0.5517" style="stop-color:#272626"/>
				</linearGradient>
				<path fill="url(#SVGID_2_)" d="M240.966,709.109c0,10.051,8.144,18.19,18.191,18.19c10.046,0,18.188-8.144,18.188-18.19
					s-8.142-18.189-18.188-18.189C249.108,690.917,240.966,699.06,240.966,709.109z"/>
				
					<linearGradient id="SVGID_3_" gradientUnits="userSpaceOnUse" x1="1401.8162" y1="24.9827" x2="1401.8162" y2="46.9543" gradientTransform="matrix(-1 0 0 -1 1660.978 752.2817)">
					<stop  offset="0.5813" style="stop-color:#010101"/>
					<stop  offset="1" style="stop-color:#272626"/>
				</linearGradient>
				<path fill="url(#SVGID_3_)" d="M244.335,705.327c-0.311,1.212-0.491,2.479-0.491,3.781c0,8.457,6.857,15.313,15.313,15.313
					c8.457,0,15.313-6.854,15.313-15.313c0-1.307-0.182-2.569-0.489-3.781h2.975c0.255,1.222,0.396,2.486,0.396,3.781
					c0,10.051-8.146,18.19-18.189,18.19c-10.051,0-18.191-8.144-18.191-18.19c0-1.295,0.141-2.563,0.396-3.781H244.335z"/>
				
					<linearGradient id="SVGID_4_" gradientUnits="userSpaceOnUse" x1="1401.8201" y1="35.9543" x2="1401.8201" y2="67.8958" gradientTransform="matrix(-1 0 0 -1 1660.978 752.2817)">
					<stop  offset="0.4877" style="stop-color:#8B8A8A"/>
					<stop  offset="1" style="stop-color:#B3B3B3"/>
				</linearGradient>
				<path fill="url(#SVGID_4_)" d="M250.774,714.062c0,1.25,1.018,2.266,2.264,2.266h12.242c1.249,0,2.263-1.016,2.263-2.266V686.65
					c0-1.244-1.014-2.264-2.263-2.264h-12.242c-1.246,0-2.264,1.02-2.264,2.264V714.062L250.774,714.062z"/>
				
					<linearGradient id="SVGID_5_" gradientUnits="userSpaceOnUse" x1="1401.8201" y1="36.884" x2="1401.8201" y2="68.8264" gradientTransform="matrix(-1 0 0 -1 1660.978 752.2817)">
					<stop  offset="0.2365" style="stop-color:#F1F0F0"/>
					<stop  offset="1" style="stop-color:#B3B3B3"/>
				</linearGradient>
				<path fill="url(#SVGID_5_)" d="M250.774,713.128c0,1.252,1.018,2.27,2.264,2.27h12.242c1.249,0,2.263-1.018,2.263-2.27V685.72
					c0-1.25-1.014-2.265-2.263-2.265h-12.242c-1.246,0-2.264,1.015-2.264,2.265V713.128L250.774,713.128z"/>
				<path fill="#6F6F6F" d="M253.035,683.455h12.242c1.249,0,2.263,1.014,2.263,2.265v4.247h-16.77v-4.247
					C250.774,684.468,251.789,683.455,253.035,683.455z"/>
				
					<linearGradient id="SVGID_6_" gradientUnits="userSpaceOnUse" x1="1401.8191" y1="39.0823" x2="1401.8191" y2="47.26" gradientTransform="matrix(-1 0 0 -1 1660.978 752.2817)">
					<stop  offset="0.0887" style="stop-color:#010101"/>
					<stop  offset="1" style="stop-color:#4E4E4E"/>
				</linearGradient>
				<path fill="url(#SVGID_6_)" d="M255.072,709.109c0,2.262,1.829,4.091,4.087,4.091c2.255,0,4.087-1.829,4.087-4.091
					c0-2.255-1.83-4.087-4.087-4.087S255.072,706.854,255.072,709.109z"/>
				
					<linearGradient id="SVGID_7_" gradientUnits="userSpaceOnUse" x1="1401.8201" y1="39.7805" x2="1401.8201" y2="46.5686" gradientTransform="matrix(-1 0 0 -1 1660.978 752.2817)">
					<stop  offset="0.0887" style="stop-color:#B3B3B3"/>
					<stop  offset="1" style="stop-color:#FFFFFF"/>
				</linearGradient>
				<circle fill="url(#SVGID_7_)" cx="259.157" cy="709.107" r="3.394"/>
			</g>
			<g>
				
					<linearGradient id="SVGID_8_" gradientUnits="userSpaceOnUse" x1="1523.5408" y1="24.9817" x2="1523.5408" y2="61.3674" gradientTransform="matrix(-1 0 0 -1 1660.978 752.2817)">
					<stop  offset="0" style="stop-color:#0F0F0F"/>
					<stop  offset="0.0531" style="stop-color:#131313"/>
					<stop  offset="0.3335" style="stop-color:#212121"/>
					<stop  offset="0.5517" style="stop-color:#272626"/>
				</linearGradient>
				<circle fill="url(#SVGID_8_)" cx="137.437" cy="709.107" r="18.193"/>
				
					<linearGradient id="SVGID_9_" gradientUnits="userSpaceOnUse" x1="1523.5398" y1="24.9827" x2="1523.5398" y2="46.9543" gradientTransform="matrix(-1 0 0 -1 1660.978 752.2817)">
					<stop  offset="0.5813" style="stop-color:#010101"/>
					<stop  offset="1" style="stop-color:#272626"/>
				</linearGradient>
				<path fill="url(#SVGID_9_)" d="M122.615,705.327c-0.312,1.212-0.491,2.479-0.491,3.781c0,8.457,6.854,15.313,15.313,15.313
					s15.313-6.854,15.313-15.313c0-1.307-0.182-2.569-0.49-3.781h2.973c0.262,1.222,0.396,2.486,0.396,3.781
					c0,10.051-8.146,18.19-18.19,18.19c-10.048,0-18.192-8.144-18.192-18.19c0-1.295,0.143-2.563,0.402-3.781H122.615z"/>
				
					<linearGradient id="SVGID_10_" gradientUnits="userSpaceOnUse" x1="1523.5398" y1="35.9543" x2="1523.5398" y2="67.8958" gradientTransform="matrix(-1 0 0 -1 1660.978 752.2817)">
					<stop  offset="0.4877" style="stop-color:#8B8A8A"/>
					<stop  offset="1" style="stop-color:#B3B3B3"/>
				</linearGradient>
				<path fill="url(#SVGID_10_)" d="M129.053,714.062c0,1.25,1.017,2.266,2.268,2.266h12.24c1.251,0,2.262-1.016,2.262-2.266V686.65
					c0-1.244-1.011-2.264-2.262-2.264h-12.24c-1.251,0-2.268,1.02-2.268,2.264V714.062z"/>
				
					<linearGradient id="SVGID_11_" gradientUnits="userSpaceOnUse" x1="1523.5398" y1="36.884" x2="1523.5398" y2="68.8264" gradientTransform="matrix(-1 0 0 -1 1660.978 752.2817)">
					<stop  offset="0.2365" style="stop-color:#F1F0F0"/>
					<stop  offset="1" style="stop-color:#B3B3B3"/>
				</linearGradient>
				<path fill="url(#SVGID_11_)" d="M129.053,713.128c0,1.252,1.017,2.27,2.268,2.27h12.24c1.251,0,2.262-1.018,2.262-2.27V685.72
					c0-1.25-1.011-2.265-2.262-2.265h-12.24c-1.251,0-2.268,1.015-2.268,2.265V713.128z"/>
				<path fill="#6F6F6F" d="M131.32,683.455h12.24c1.251,0,2.263,1.014,2.263,2.265v4.247h-16.769v-4.247
					C129.053,684.468,130.068,683.455,131.32,683.455z"/>
				
					<linearGradient id="SVGID_12_" gradientUnits="userSpaceOnUse" x1="1523.5388" y1="39.0823" x2="1523.5388" y2="47.26" gradientTransform="matrix(-1 0 0 -1 1660.978 752.2817)">
					<stop  offset="0.0887" style="stop-color:#010101"/>
					<stop  offset="1" style="stop-color:#4E4E4E"/>
				</linearGradient>
				<path fill="url(#SVGID_12_)" d="M133.349,709.109c0,2.262,1.83,4.091,4.09,4.091c2.258,0,4.09-1.829,4.09-4.091
					c0-2.255-1.832-4.087-4.09-4.087C135.179,705.022,133.349,706.854,133.349,709.109z"/>
				
					<linearGradient id="SVGID_13_" gradientUnits="userSpaceOnUse" x1="1523.5388" y1="39.7805" x2="1523.5388" y2="46.5686" gradientTransform="matrix(-1 0 0 -1 1660.978 752.2817)">
					<stop  offset="0.0887" style="stop-color:#B3B3B3"/>
					<stop  offset="1" style="stop-color:#FFFFFF"/>
				</linearGradient>
				<circle fill="url(#SVGID_13_)" cx="137.439" cy="709.107" r="3.394"/>
			</g>
			<path fill="#929497" d="M275.31,652.696l53.701-129.808l25.613-9.234c-0.865,3.077-3.063,5.754-6.237,7.09l-15.188,6.396
				L279.01,661.58L275.31,652.696z"/>
			<path fill="#818181" d="M285.378,543.197l5.169,5.175l-9.063,9.061l-9.063-9.061l4.332-4.331l-22.12,2.156l2.179,2.174
				l-9.063,9.063l-9.063-9.063l0.682-0.687l-17.3,1.689l-8.059,8.054l-6.621-6.624l-22.711,2.223l-4.399,4.401l-3.624-3.618
				l-29.357,2.861l-0.758,0.757l-0.617-0.624l-14.228,1.392l7.037,7.043l-9.062,9.058l-9.063-9.062l6.604-6.604l-26.255,2.563
				l4.038,4.042l-5.741,5.736l4.29,26.539l1.451,1.455l-1.051,1.053l2.176,13.439l6.682-6.688l9.064,9.063l-9.064,9.063l-5.77-5.772
				l2.896,17.954l9.419,4.896l24.666,1.063l2.521-2.523l2.751,2.75l27.073,1.165l3.915-3.915l4.266,4.265l24.167,1.043l5.303-5.308
				l5.777,5.78l21.265,0.913l6.692-6.692l5.935,5.937l10.779-4.837l-8.907-8.906l9.063-9.062l9.063,9.062l-8.65,8.658l7.001-3.146
				l5.558-17.221l-5.159-5.16l9.063-9.063l0.521,0.522l7.938-24.6l-8.459,8.46l-9.063-9.061l9.063-9.063l8.753,8.753l3.811-11.804
				l-4.756-4.753l9.063-9.063l0.113,0.113l4.793-14.843L285.378,543.197z M264.617,608.034l-9.063-9.063l9.063-9.063l9.062,9.063
				L264.617,608.034z M238.688,615.839l9.063-9.063l9.063,9.063l-9.063,9.063L238.688,615.839z M230.878,608.034l-9.059-9.063
				l9.059-9.063l9.063,9.063L230.878,608.034z M221.822,632.71l9.058-9.063l9.063,9.063l-9.063,9.062L221.822,632.71z
				 M204.95,615.839l9.062-9.063l9.063,9.063l-9.063,9.063L204.95,615.839z M197.147,608.034l-9.063-9.063l9.063-9.063l9.063,9.063
				L197.147,608.034z M188.085,632.71l9.063-9.063l9.057,9.063l-9.057,9.062L188.085,632.71z M171.214,615.839l9.063-9.063
				l9.062,9.063l-9.062,9.06L171.214,615.839z M163.41,608.034l-9.065-9.063l9.065-9.063l9.059,9.063L163.41,608.034z
				 M154.345,632.71l9.065-9.063l9.059,9.063l-9.059,9.063L154.345,632.71z M137.481,615.842l9.06-9.063l9.063,9.063l-9.063,9.063
				L137.481,615.842z M129.671,623.648l9.062,9.063l-9.062,9.063l-9.06-9.063L129.671,623.648z M121.866,582.105l-9.065,9.062
				l-9.06-9.062l9.06-9.063L121.866,582.105z M129.671,589.91l9.062,9.063l-9.062,9.062l-9.06-9.062L129.671,589.91z
				 M155.599,582.105l-9.062,9.062l-9.06-9.062l9.06-9.063L155.599,582.105z M172.469,565.24l-9.059,9.06l-9.065-9.06l9.065-9.063
				L172.469,565.24z M189.337,582.105l-9.062,9.062l-9.063-9.062l9.063-9.063L189.337,582.105z M206.206,565.237l-9.063,9.063
				l-9.063-9.06l9.063-9.063L206.206,565.237z M214.012,573.043l9.063,9.063l-9.063,9.062l-9.062-9.062L214.012,573.043z
				 M239.945,565.24l-9.063,9.062l-9.057-9.062l9.057-9.063L239.945,565.24z M247.749,573.043l9.063,9.063l-9.063,9.062
				l-9.063-9.062L247.749,573.043z M273.678,565.24l-9.062,9.062l-9.063-9.062l9.063-9.063L273.678,565.24z"/>
			
				<linearGradient id="SVGID_14_" gradientUnits="userSpaceOnUse" x1="1357.7146" y1="160.8108" x2="1561.7263" y2="160.8108" gradientTransform="matrix(-1 0 0 -1 1660.978 752.2817)">
				<stop  offset="0" style="stop-color:#9E9E9E"/>
				<stop  offset="0.4877" style="stop-color:#D9D9D8"/>
				<stop  offset="1" style="stop-color:#8C8C8C"/>
			</linearGradient>
			<path fill="url(#SVGID_14_)" d="M285.378,540.345l5.169,5.176l-9.063,9.062l-9.063-9.062l4.332-4.332l-22.12,2.161l2.179,2.17
				l-9.063,9.064l-9.063-9.064l0.682-0.686l-17.3,1.689l-8.059,8.054l-6.621-6.621l-22.711,2.219l-4.399,4.402l-3.624-3.619
				l-29.357,2.863l-0.758,0.757l-0.617-0.617l-14.228,1.392l7.037,7.035l-9.062,9.063l-9.063-9.063l6.604-6.604l-26.255,2.563
				l4.038,4.04l-5.741,5.742l4.29,26.534l1.451,1.457l-1.051,1.051l2.176,13.443l6.682-6.688l9.064,9.062l-9.064,9.062l-5.77-5.771
				l2.896,17.948l9.419,4.9l24.666,1.06l2.521-2.521l2.751,2.748l27.073,1.164l3.915-3.912l4.266,4.264l24.167,1.04l5.303-5.304
				l5.777,5.779l21.265,0.909l6.692-6.688l5.935,5.934l10.779-4.834l-8.907-8.906l9.063-9.063l9.063,9.063l-8.65,8.653l7.001-3.142
				l5.558-17.226l-5.159-5.157l9.063-9.063l0.521,0.522l7.938-24.6l-8.459,8.461l-9.063-9.06l9.063-9.063l8.753,8.754l3.811-11.807
				l-4.756-4.757l9.063-9.063l0.113,0.119l4.793-14.845L285.378,540.345z M264.617,605.187l-9.063-9.063l9.063-9.063l9.062,9.063
				L264.617,605.187z M238.688,612.992l9.063-9.063l9.063,9.063l-9.063,9.063L238.688,612.992z M230.878,605.187l-9.059-9.063
				l9.059-9.063l9.063,9.063L230.878,605.187z M221.822,629.865l9.058-9.063l9.063,9.063l-9.063,9.059L221.822,629.865z
				 M204.95,612.992l9.062-9.059l9.063,9.059l-9.063,9.063L204.95,612.992z M197.147,605.187l-9.063-9.063l9.063-9.063l9.063,9.063
				L197.147,605.187z M188.085,629.865l9.063-9.063l9.057,9.063l-9.057,9.059L188.085,629.865z M171.214,612.992l9.063-9.059
				l9.062,9.063l-9.062,9.06L171.214,612.992z M163.41,605.187l-9.065-9.063l9.065-9.063l9.059,9.063L163.41,605.187z
				 M154.345,629.865l9.065-9.063l9.059,9.063l-9.059,9.059L154.345,629.865z M137.481,612.994l9.06-9.063l9.063,9.059l-9.063,9.063
				L137.481,612.994z M129.671,620.801l9.062,9.063l-9.062,9.059l-9.06-9.059L129.671,620.801z M121.866,579.257l-9.065,9.063
				l-9.06-9.063l9.06-9.063L121.866,579.257z M129.671,587.064l9.062,9.063l-9.062,9.063l-9.06-9.063L129.671,587.064z
				 M155.599,579.257l-9.062,9.063l-9.06-9.063l9.06-9.063L155.599,579.257z M172.469,562.387l-9.059,9.063l-9.065-9.063
				l9.065-9.063L172.469,562.387z M189.337,579.257l-9.062,9.063l-9.063-9.063l9.063-9.063L189.337,579.257z M206.206,562.387
				l-9.063,9.063l-9.063-9.063l9.063-9.063L206.206,562.387z M214.012,570.198l9.063,9.063l-9.063,9.063l-9.062-9.063
				L214.012,570.198z M239.945,562.387l-9.063,9.063l-9.057-9.063l9.057-9.063L239.945,562.387z M247.749,570.198l9.063,9.063
				l-9.063,9.063l-9.063-9.063L247.749,570.198z M273.678,562.387l-9.062,9.063l-9.063-9.063l9.063-9.063L273.678,562.387z"/>
			<path fill="#E6E6E5" d="M254.214,651.56c-0.879,0.526-1.898,0.808-2.929,0.808l0,0c-0.075,0-0.153-0.001-0.231-0.003
				l-132.483-5.695l0,0c-0.828-0.03-1.644-0.249-2.379-0.634l-12.939-6.729l0,0c-1.595-0.834-2.696-2.353-2.979-4.134
				l-13.458-83.319l0,0c-0.255-1.583,0.164-3.187,1.156-4.438l0,0c0.994-1.254,2.469-2.022,4.064-2.13l217.069-14.547l0,0
				c1.947-0.131,3.826,0.749,4.974,2.33l0,0c1.146,1.585,1.4,3.645,0.672,5.456l-5.267-2.125l5.267,2.125l-40.064,99.419l0,0
				c-0.469,1.146-1.284,2.106-2.352,2.744L254.214,651.56L254.214,651.56z M264.861,631.934l35.979-89.265L99.013,556.195
				l12.008,74.354l9.29,4.83l129.528,5.565L264.861,631.934L264.861,631.934z"/>
			<polygon fill="#929497" points="306.784,548.436 306.281,540.886 91.197,555.296 91.698,562.847 			"/>
			
				<linearGradient id="SVGID_15_" gradientUnits="userSpaceOnUse" x1="1345.8171" y1="157.8948" x2="1574.2351" y2="157.8948" gradientTransform="matrix(-1 0 0 -1 1660.978 752.2817)">
				<stop  offset="0" style="stop-color:#B3B3B3"/>
				<stop  offset="0.4877" style="stop-color:#D9D9D8"/>
				<stop  offset="1" style="stop-color:#B3B3B3"/>
			</linearGradient>
			<path fill="url(#SVGID_15_)" d="M254.214,654.4c-0.879,0.527-1.898,0.809-2.929,0.809l0,0c-0.075,0-0.153-0.003-0.231-0.006
				l-132.483-5.694l0,0c-0.828-0.03-1.644-0.248-2.379-0.634l-12.939-6.726l0,0c-1.595-0.837-2.696-2.354-2.979-4.132
				l-13.458-83.322l0,0c-0.255-1.582,0.164-3.188,1.156-4.438l0,0c0.994-1.253,2.469-2.021,4.064-2.131l217.069-14.547l0,0
				c1.947-0.129,3.826,0.748,4.974,2.331l0,0c1.146,1.586,1.4,3.642,0.672,5.455l-5.267-2.122l5.267,2.122l-40.064,99.421l0,0
				c-0.469,1.146-1.284,2.106-2.352,2.742L254.214,654.4L254.214,654.4z M264.861,634.775l35.979-89.266L99.013,559.034
				l12.008,74.354l9.29,4.831l129.528,5.565L264.861,634.775L264.861,634.775z"/>
			
				<linearGradient id="SVGID_16_" gradientUnits="userSpaceOnUse" x1="1429.781" y1="63.6448" x2="1429.781" y2="245.0251" gradientTransform="matrix(-1 0 0 -1 1660.978 752.2817)">
				<stop  offset="0" style="stop-color:#838383"/>
				<stop  offset="0.0246" style="stop-color:#B3B3B3"/>
				<stop  offset="0.1232" style="stop-color:#B3B3B3"/>
				<stop  offset="0.2456" style="stop-color:#C8C8C8"/>
				<stop  offset="0.3866" style="stop-color:#DBDADA"/>
				<stop  offset="0.4877" style="stop-color:#E0E1E0"/>
				<stop  offset="1" style="stop-color:#B3B3B3"/>
			</linearGradient>
			<path fill="url(#SVGID_16_)" d="M290.557,688.63c2.021,0,3.874-1.083,4.87-2.839l0,0c0.988-1.752,0.963-3.9-0.073-5.629l0,0
				l-15.384-25.642l52.104-129.273l17.22-7.249l0,0c2.845-1.199,4.176-4.478,2.98-7.317l0,0c-1.195-2.851-4.478-4.185-7.319-2.982
				l0,0l-19.361,8.15c-1.376,0.579-2.458,1.682-3.019,3.063l0,0l-54.012,134.013c-0.653,1.628-0.513,3.46,0.396,4.968l0,0
				l11.732,19.562H115.274c-3.089,0-5.593,2.503-5.593,5.59l0,0c0,3.087,2.504,5.593,5.593,5.593l0,0h175.281L290.557,688.63
				L290.557,688.63z"/>
			
				<linearGradient id="SVGID_17_" gradientUnits="userSpaceOnUse" x1="1291.6814" y1="240.1238" x2="1329.8318" y2="240.1238" gradientTransform="matrix(-1 0 0 -1 1660.978 752.2817)">
				<stop  offset="0.2611" style="stop-color:#25A86B"/>
				<stop  offset="0.3654" style="stop-color:#21A268"/>
				<stop  offset="0.735" style="stop-color:#1C905B"/>
				<stop  offset="1" style="stop-color:#198957"/>
			</linearGradient>
			<path fill="url(#SVGID_17_)" d="M331.146,513.12l17.186-7.233c1.408-4.3,5.443-7.405,10.216-7.405
				c5.938,0,10.75,4.812,10.75,10.749c0,5.937-4.813,10.751-10.75,10.751c-1.703,0-3.312-0.405-4.741-1.11l-16.533,6.963
				L331.146,513.12z"/>
			
				<linearGradient id="SVGID_18_" gradientUnits="userSpaceOnUse" x1="1307.1736" y1="230.6218" x2="1324.6189" y2="230.6218" gradientTransform="matrix(-1 0 0 -1 1660.978 752.2817)">
				<stop  offset="0.2611" style="stop-color:#1B8E59"/>
				<stop  offset="0.3858" style="stop-color:#177C4C"/>
				<stop  offset="0.634" style="stop-color:#0B5F38"/>
				<stop  offset="0.8474" style="stop-color:#054C2B"/>
				<stop  offset="1" style="stop-color:#034626"/>
			</linearGradient>
			<path fill="url(#SVGID_18_)" d="M351.666,517.488c0.647,0.547,1.372,1.003,2.138,1.382l-16.533,6.963l-0.912-1.895
				L351.666,517.488z"/>
			
				<linearGradient id="SVGID_19_" gradientUnits="userSpaceOnUse" x1="1312.6443" y1="241.9734" x2="1329.8298" y2="241.9734" gradientTransform="matrix(-1 0 0 -1 1660.978 752.2817)">
				<stop  offset="0.2611" style="stop-color:#29B574"/>
				<stop  offset="0.5017" style="stop-color:#1F9F66"/>
				<stop  offset="0.7776" style="stop-color:#188D5A"/>
				<stop  offset="0.9754" style="stop-color:#148756"/>
			</linearGradient>
			<path fill="url(#SVGID_19_)" d="M348.329,505.886c0-0.005,0.004-0.005,0.004-0.009c-0.229,0.688-0.387,1.405-0.469,2.148
				l-15.939,6.714l-0.777-1.618L348.329,505.886z"/>
			
				<linearGradient id="SVGID_20_" gradientUnits="userSpaceOnUse" x1="1302.4324" y1="235.845" x2="1302.4324" y2="250.259" gradientTransform="matrix(-1 0 0 -1 1660.978 752.2817)">
				<stop  offset="0" style="stop-color:#29B574"/>
				<stop  offset="1" style="stop-color:#1C905B"/>
			</linearGradient>
			<circle fill="url(#SVGID_20_)" cx="358.545" cy="509.23" r="7.207"/>
			
				<linearGradient id="SVGID_21_" gradientUnits="userSpaceOnUse" x1="1297.324" y1="243.0525" x2="1307.5427" y2="243.0525" gradientTransform="matrix(-1 0 0 -1 1660.978 752.2817)">
				<stop  offset="0.2611" style="stop-color:#29B574"/>
				<stop  offset="0.5917" style="stop-color:#26AB6C"/>
				<stop  offset="1" style="stop-color:#25A468"/>
			</linearGradient>
			<circle fill="url(#SVGID_21_)" cx="358.544" cy="509.229" r="5.11"/>
			
				<linearGradient id="SVGID_22_" gradientUnits="userSpaceOnUse" x1="1363.7146" y1="94.2112" x2="1363.7146" y2="236.76" gradientTransform="matrix(-1 0 0 -1 1660.978 752.2817)">
				<stop  offset="0" style="stop-color:#CDCCCC"/>
				<stop  offset="0.399" style="stop-color:#E0E1E0"/>
				<stop  offset="1" style="stop-color:#E6E6E5"/>
			</linearGradient>
			<path fill="url(#SVGID_22_)" d="M268.955,657.891l0.104,0.18c0.07-0.403,0.177-0.801,0.332-1.188l56.979-141.361l-0.781,0.325
				c-1.376,0.58-2.458,1.683-3.02,3.063l-54.011,134.013C267.906,654.552,268.051,656.384,268.955,657.891z"/>
			
				<linearGradient id="SVGID_23_" gradientUnits="userSpaceOnUse" x1="1379.2166" y1="73.9348" x2="1549.8005" y2="73.9348" gradientTransform="matrix(-1 0 0 -1 1660.978 752.2817)">
				<stop  offset="0" style="stop-color:#B3B3B3"/>
				<stop  offset="0.4877" style="stop-color:#D9D9D8"/>
				<stop  offset="1" style="stop-color:#B3B3B3"/>
			</linearGradient>
			<path fill="url(#SVGID_23_)" d="M281.762,679.243H111.178c1.021-1.099,2.479-1.793,4.097-1.793h165.416L281.762,679.243z"/>
		</g>
	</g>
</g>
<g id="pacchi_1_">
	
		<image overflow="visible" enable-background="new    " width="656" height="360" xlink:href="../162 con lato n4.png"  transform="matrix(0.3157 0 0 0.3157 928.3542 601.4231)">
	</image>
	
		<image overflow="visible" enable-background="new    " width="656" height="360" xlink:href="../162 con lato n4.png"  transform="matrix(0.3157 0 0 0.3157 1086.8826 601.4231)">
	</image>
	
		<image overflow="visible" enable-background="new    " width="656" height="360" xlink:href="../162 con lato n4.png"  transform="matrix(0.3157 0 0 0.3157 845.1296 639.3079)">
	</image>
	
		<image overflow="visible" enable-background="new    " width="656" height="360" xlink:href="../162 con lato n4.png"  transform="matrix(0.3157 0 0 0.3157 1003.6609 639.3079)">
	</image>
</g>
<g id="pacchi_2_">
	
		<image overflow="visible" enable-background="new    " width="656" height="360" xlink:href="../162 con lato n4.png"  transform="matrix(0.3157 0 0 0.3157 928.3542 518.0188)">
	</image>
	
		<image overflow="visible" enable-background="new    " width="656" height="360" xlink:href="../162 con lato n4.png"  transform="matrix(0.3157 0 0 0.3157 1086.8826 518.0188)">
	</image>
	
		<image overflow="visible" enable-background="new    " width="656" height="360" xlink:href="../162 con lato n4.png"  transform="matrix(0.3157 0 0 0.3157 845.1296 555.9036)">
	</image>
	
		<image overflow="visible" enable-background="new    " width="656" height="360" xlink:href="../162 con lato n4.png"  transform="matrix(0.3157 0 0 0.3157 1003.6609 555.9036)">
	</image>
</g>
<g id="pacchi_3_">
	
		<image overflow="visible" enable-background="new    " width="656" height="360" xlink:href="../162 con lato n4.png"  transform="matrix(0.3157 0 0 0.3157 928.3542 434.6145)">
	</image>
	
		<image overflow="visible" enable-background="new    " width="656" height="360" xlink:href="../162 con lato n4.png"  transform="matrix(0.3157 0 0 0.3157 1086.8826 434.6145)">
	</image>
	
		<image overflow="visible" enable-background="new    " width="656" height="360" xlink:href="../162 con lato n4.png"  transform="matrix(0.3157 0 0 0.3157 845.1296 472.4993)">
	</image>
	
		<image overflow="visible" enable-background="new    " width="656" height="360" xlink:href="../162 con lato n4.png"  transform="matrix(0.3157 0 0 0.3157 1003.6609 472.4993)">
	</image>
</g>
<g id="pacchi_4_">
	
		<image overflow="visible" enable-background="new    " width="656" height="360" xlink:href="../162 con lato n4.png"  transform="matrix(0.3157 0 0 0.3157 928.3542 351.2122)">
	</image>
	
		<image overflow="visible" enable-background="new    " width="656" height="360" xlink:href="../162 con lato n4.png"  transform="matrix(0.3157 0 0 0.3157 1086.8826 351.2122)">
	</image>
	
		<image overflow="visible" enable-background="new    " width="656" height="360" xlink:href="../162 con lato n4.png"  transform="matrix(0.3157 0 0 0.3157 845.1296 389.095)">
	</image>
	
		<image overflow="visible" enable-background="new    " width="656" height="360" xlink:href="../162 con lato n4.png"  transform="matrix(0.3157 0 0 0.3157 1003.6609 389.095)">
	</image>
</g>
<g id="pacchi_5_">
	
		<image overflow="visible" enable-background="new    " width="656" height="360" xlink:href="../162 con lato n4.png"  transform="matrix(0.3157 0 0 0.3157 928.3542 267.8079)">
	</image>
	
		<image overflow="visible" enable-background="new    " width="656" height="360" xlink:href="../162 con lato n4.png"  transform="matrix(0.3157 0 0 0.3157 1086.8826 267.8079)">
	</image>
	
		<image overflow="visible" enable-background="new    " width="656" height="360" xlink:href="../162 con lato n4.png"  transform="matrix(0.3157 0 0 0.3157 845.1296 305.6926)">
	</image>
	
		<image overflow="visible" enable-background="new    " width="656" height="360" xlink:href="../162 con lato n4.png"  transform="matrix(0.3157 0 0 0.3157 1003.6609 305.6926)">
	</image>
</g>
<g id="pacchi_7_">
	
		<image overflow="visible" enable-background="new    " width="656" height="360" xlink:href="../162 con lato n4.png"  transform="matrix(0.3157 0 0 0.3157 928.3542 184.4036)">
	</image>
	
		<image overflow="visible" enable-background="new    " width="656" height="360" xlink:href="../162 con lato n4.png"  transform="matrix(0.3157 0 0 0.3157 1086.8826 184.4036)">
	</image>
	
		<image overflow="visible" enable-background="new    " width="656" height="360" xlink:href="../162 con lato n4.png"  transform="matrix(0.3157 0 0 0.3157 845.1296 222.2883)">
	</image>
	
		<image overflow="visible" enable-background="new    " width="656" height="360" xlink:href="../162 con lato n4.png"  transform="matrix(0.3157 0 0 0.3157 1003.6609 222.2883)">
	</image>
</g>
<g id="pacchi_6_">
	
		<image overflow="visible" enable-background="new    " width="656" height="360" xlink:href="../162 con lato n4.png"  transform="matrix(0.3157 0 0 0.3157 928.7517 100.9993)">
	</image>
	
		<image overflow="visible" enable-background="new    " width="656" height="360" xlink:href="../162 con lato n4.png"  transform="matrix(0.3157 0 0 0.3157 1087.281 100.9993)">
	</image>
	
		<image overflow="visible" enable-background="new    " width="656" height="360" xlink:href="../162 con lato n4.png"  transform="matrix(0.3157 0 0 0.3157 845.5281 138.884)">
	</image>
	
		<image overflow="visible" enable-background="new    " width="656" height="360" xlink:href="../162 con lato n4.png"  transform="matrix(0.3157 0 0 0.3157 1004.0583 138.884)">
	</image>
</g>
<g>
	<g>
		
			<image overflow="visible" opacity="0.4" width="226" height="226" xlink:href="BEED0AD.png"  transform="matrix(1 0 0 1 -384.5002 -31.4998)">
		</image>
		<g>
			<circle fill="#28B34B" cx="-277.962" cy="75.517" r="82.482"/>
		</g>
	</g>
	<g>
		<path fill="#231F20" d="M-357.222,200.121v-17.814h11.208v3.557h-7.195v3.263h6.633v3.558h-6.633v3.879h7.195v3.557H-357.222z"/>
		<path fill="#231F20" d="M-337.723,200.389c-2.06,0-4.227-0.456-5.751-1.15l0.669-3.103c1.632,0.508,3.29,0.856,5.135,0.856
			c2.06,0,2.461-0.402,2.461-1.899c0-1.605-0.081-1.792-2.996-2.434c-4.307-0.936-4.949-1.792-4.949-5.645
			c0-3.557,1.257-4.975,6.152-4.975c1.551,0,3.424,0.161,5.403,0.588l-0.401,3.371c-2.033-0.348-3.344-0.508-4.949-0.508
			c-1.792,0-2.193,0.32-2.193,1.631c0,1.712,0.08,1.739,2.888,2.408c4.815,1.15,5.056,2.086,5.056,5.59
			C-331.198,198.65-332.347,200.389-337.723,200.389z"/>
		<path fill="#231F20" d="M-313.759,200.121h-4.173l-0.963-3.477h-5.965l-0.962,3.477h-4.173l5.43-17.814h5.35L-313.759,200.121z
			 M-323.95,193.3h4.092l-2.033-7.462L-323.95,193.3z"/>
		<path fill="#231F20" d="M-304.693,194.718h-3.049v5.403h-4.012v-17.814h7.275c4.333,0,5.938,1.711,5.938,5.055v2.328
			C-298.541,193.032-300.36,194.718-304.693,194.718z M-302.553,187.737c0-1.284-0.455-1.873-2.14-1.873h-3.049v5.377h3.049
			c1.766,0,2.14-0.669,2.14-1.953V187.737z"/>
		<path fill="#231F20" d="M-282.574,200.121h-4.172l-0.963-3.477h-5.965l-0.963,3.477h-4.172l5.43-17.814h5.35L-282.574,200.121z
			 M-292.765,193.3h4.093l-2.033-7.462L-292.765,193.3z"/>
		<path fill="#231F20" d="M-277.226,194.29c0,1.551,0.508,2.46,2.488,2.46c1.283,0,3.048-0.161,4.6-0.428l0.562,3.504
			c-1.765,0.375-3.37,0.563-5.162,0.563c-4.495,0-6.5-2.22-6.5-5.457v-7.437c0-3.236,2.005-5.457,6.5-5.457
			c1.792,0,3.396,0.188,5.162,0.563l-0.562,3.503c-1.552-0.267-3.317-0.428-4.6-0.428c-1.98,0-2.488,0.909-2.488,2.46V194.29z"/>
		<path fill="#231F20" d="M-266.903,182.307h4.013v17.814h-4.013V182.307z M-262.382,191.027l4.814-8.72h4.521l-5.002,8.72
			l5.376,9.094h-4.52L-262.382,191.027z"/>
		<path fill="#231F20" d="M-229.485,183.885l-5.189,13.937h-2.434l-5.189-13.937l-0.375,16.236h-1.578l0.535-17.814h2.301
			l5.537,14.551l5.51-14.551h2.3l0.535,17.814h-1.578L-229.485,183.885z"/>
		<path fill="#231F20" d="M-221.141,200.121h-1.579v-17.814h1.579V200.121z"/>
		<path fill="#231F20" d="M-210.309,182.307c4.333,0,5.564,2.247,5.564,5.27v7.275c0,3.022-1.231,5.27-5.564,5.27h-5.885v-17.814
			H-210.309z M-214.616,198.703h4.333c2.996,0,3.958-1.23,3.958-3.771v-7.437c0-2.541-0.963-3.771-3.958-3.771h-4.333V198.703z"/>
		<path fill="#231F20" d="M-198.702,200.121h-1.579v-17.814h1.579V200.121z"/>
	</g>
	<text transform="matrix(1 0 0 1 -315.325 99.092)" fill="#FFFFFF" font-family="'Klavika-Regular'" font-size="80.8716">37</text>
</g>
<g>
	<g>
		
			<image overflow="visible" opacity="0.4" width="226" height="226" xlink:href="BEED093.png"  transform="matrix(1 0 0 1 -384.5002 519.5002)">
		</image>
		<g>
			<circle fill="#28B34B" cx="-277.962" cy="626.059" r="82.481"/>
		</g>
	</g>
	<g>
		<path fill="#231F20" d="M-372.707,751.561v-17.814h11.207v3.558h-7.195v3.263h6.634v3.558h-6.634v3.88h7.195v3.557H-372.707z"/>
		<path fill="#231F20" d="M-353.209,751.828c-2.061,0-4.227-0.455-5.752-1.15l0.669-3.103c1.632,0.509,3.291,0.856,5.136,0.856
			c2.06,0,2.461-0.401,2.461-1.899c0-1.605-0.08-1.793-2.996-2.435c-4.306-0.936-4.948-1.791-4.948-5.644
			c0-3.557,1.257-4.976,6.152-4.976c1.552,0,3.423,0.161,5.403,0.589l-0.401,3.371c-2.032-0.349-3.344-0.508-4.948-0.508
			c-1.792,0-2.193,0.319-2.193,1.63c0,1.713,0.08,1.738,2.889,2.408c4.814,1.149,5.056,2.085,5.056,5.59
			C-346.683,750.089-347.833,751.828-353.209,751.828z"/>
		<path fill="#231F20" d="M-329.245,751.561h-4.172l-0.964-3.477h-5.964l-0.963,3.477h-4.173l5.43-17.814h5.35L-329.245,751.561z
			 M-339.436,744.74h4.092l-2.033-7.462L-339.436,744.74z"/>
		<path fill="#231F20" d="M-320.179,746.156h-3.05v5.404h-4.012v-17.814h7.275c4.333,0,5.938,1.712,5.938,5.056v2.327
			C-314.028,744.473-315.847,746.156-320.179,746.156z M-318.039,739.177c0-1.285-0.454-1.873-2.14-1.873h-3.05v5.376h3.05
			c1.765,0,2.14-0.667,2.14-1.952V739.177z"/>
		<path fill="#231F20" d="M-298.06,751.561h-4.173l-0.963-3.477h-5.965l-0.963,3.477h-4.174l5.431-17.814h5.351L-298.06,751.561z
			 M-308.251,744.74h4.093l-2.033-7.462L-308.251,744.74z"/>
		<path fill="#231F20" d="M-292.712,745.73c0,1.552,0.509,2.46,2.487,2.46c1.284,0,3.05-0.159,4.601-0.428l0.563,3.505
			c-1.767,0.374-3.371,0.562-5.163,0.562c-4.493,0-6.5-2.22-6.5-5.456v-7.437c0-3.236,2.007-5.457,6.5-5.457
			c1.792,0,3.396,0.187,5.163,0.563l-0.563,3.503c-1.551-0.267-3.316-0.428-4.601-0.428c-1.979,0-2.487,0.909-2.487,2.461V745.73z"
			/>
		<path fill="#231F20" d="M-282.388,733.746h4.012v17.814h-4.012V733.746z M-277.868,742.466l4.815-8.72h4.521l-5.003,8.72
			l5.377,9.095h-4.521L-277.868,742.466z"/>
		<path fill="#231F20" d="M-258.025,733.746v17.654c0,2.22-0.16,2.354-3.209,5.322l-1.043-1.124
			c2.621-2.566,2.675-2.675,2.675-4.038v-17.814H-258.025z"/>
		<path fill="#231F20" d="M-241.173,733.746v12.76c0,3.021-1.819,5.322-6.152,5.322s-6.152-2.301-6.152-5.322v-12.76h1.578v12.76
			c0,2.486,1.579,3.905,4.574,3.905c2.996,0,4.574-1.419,4.574-3.905v-12.76H-241.173z"/>
		<path fill="#231F20" d="M-234.996,735.298v16.263h-1.498v-17.814h2.301l8.452,16.29v-16.29h1.498v17.814h-2.3L-234.996,735.298z"
			/>
		<path fill="#231F20" d="M-217.719,751.561h-1.579v-17.814h1.579V751.561z"/>
		<path fill="#231F20" d="M-206.941,751.828c-4.573,0-6.232-2.247-6.232-5.296v-7.757c0-3.05,1.659-5.297,6.232-5.297
			s6.232,2.247,6.232,5.297v7.757C-200.708,749.581-202.367,751.828-206.941,751.828z M-202.286,746.479v-7.65
			c0-2.542-1.23-3.931-4.654-3.931s-4.654,1.389-4.654,3.931v7.65c0,2.541,1.23,3.933,4.654,3.933S-202.286,749.02-202.286,746.479z
			"/>
		<path fill="#231F20" d="M-189.636,744.713h-0.349h-4.734v6.848h-1.578v-17.814h6.313c3.585,0,4.896,1.633,4.896,4.12v2.727
			c0,1.953-0.803,3.398-2.889,3.906l4.761,7.062h-1.792L-189.636,744.713z M-189.957,735.164h-4.762v8.132h4.762
			c2.247,0,3.29-0.75,3.29-2.703v-2.727C-186.667,735.913-187.71,735.164-189.957,735.164z"/>
	</g>
	<text transform="matrix(1 0 0 1 -317.3054 649.6331)" fill="#FFFFFF" font-family="'Klavika-Regular'" font-size="80.8716">32</text>
</g>
<g opacity="0.3">
	<g>
		
			<image overflow="visible" opacity="0.4" width="226" height="226" xlink:href="BEED095.png"  transform="matrix(1 0 0 1 -384.5002 244.5002)">
		</image>
		<g>
			<circle fill="#28B34B" cx="-277.962" cy="351.563" r="82.481"/>
		</g>
	</g>
	<text transform="matrix(1 0 0 1 -319.6106 375.136)" fill="#FFFFFF" font-family="'Klavika-Regular'" font-size="80.8716">28</text>
	<g>
		<path fill="#231F20" d="M-363.026,477.512v-17.99h11.318v3.592h-7.267v3.295h6.699v3.594h-6.699v3.916h7.267v3.594H-363.026z"/>
		<path fill="#231F20" d="M-343.336,477.781c-2.08,0-4.268-0.459-5.808-1.162l0.676-3.133c1.647,0.514,3.322,0.864,5.187,0.864
			c2.079,0,2.484-0.405,2.484-1.917c0-1.622-0.081-1.811-3.025-2.459c-4.349-0.945-4.997-1.81-4.997-5.699
			c0-3.592,1.27-5.024,6.213-5.024c1.566,0,3.458,0.162,5.456,0.595l-0.404,3.403c-2.054-0.352-3.377-0.513-4.998-0.513
			c-1.81,0-2.215,0.323-2.215,1.646c0,1.729,0.081,1.756,2.917,2.432c4.862,1.161,5.105,2.106,5.105,5.645
			C-336.745,476.026-337.906,477.781-343.336,477.781z"/>
		<path fill="#231F20" d="M-319.135,477.512h-4.214l-0.973-3.512h-6.023l-0.972,3.512h-4.214l5.482-17.99h5.403L-319.135,477.512z
			 M-329.426,470.623h4.133l-2.054-7.536L-329.426,470.623z"/>
		<path fill="#231F20" d="M-309.98,472.055h-3.079v5.457h-4.052v-17.99h7.347c4.376,0,5.997,1.729,5.997,5.105v2.35
			C-303.767,470.353-305.604,472.055-309.98,472.055z M-307.82,465.005c0-1.296-0.458-1.892-2.16-1.892h-3.079v5.43h3.079
			c1.782,0,2.16-0.675,2.16-1.972V465.005z"/>
		<path fill="#231F20" d="M-287.643,477.512h-4.214l-0.973-3.512h-6.023l-0.973,3.512h-4.213l5.483-17.99h5.402L-287.643,477.512z
			 M-297.934,470.623h4.133l-2.054-7.536L-297.934,470.623z"/>
		<path fill="#231F20" d="M-282.241,471.623c0,1.566,0.513,2.484,2.512,2.484c1.296,0,3.079-0.162,4.646-0.433l0.567,3.539
			c-1.782,0.378-3.403,0.567-5.213,0.567c-4.538,0-6.563-2.242-6.563-5.51v-7.51c0-3.269,2.025-5.511,6.563-5.511
			c1.81,0,3.431,0.189,5.213,0.567l-0.567,3.539c-1.566-0.271-3.35-0.433-4.646-0.433c-1.999,0-2.512,0.918-2.512,2.485V471.623z"/>
		<path fill="#231F20" d="M-271.817,459.522h4.051v17.99h-4.051V459.522z M-267.252,468.327l4.862-8.806h4.564l-5.051,8.806
			l5.43,9.185h-4.565L-267.252,468.327z"/>
		<path fill="#231F20" d="M-234.031,461.115l-5.24,14.072h-2.458l-5.24-14.072l-0.378,16.396h-1.595l0.541-17.99h2.322l5.592,14.693
			l5.564-14.693h2.322l0.541,17.99h-1.594L-234.031,461.115z"/>
		<path fill="#231F20" d="M-217.151,472.783h-8.374l-1.675,4.729h-1.566l6.267-17.99h2.35l6.267,17.99h-1.566L-217.151,472.783z
			 M-225.038,471.406h7.401l-3.701-10.967L-225.038,471.406z"/>
		<path fill="#231F20" d="M-205.754,468.381l-5.835-8.859h1.729l4.97,7.59l4.971-7.59h1.729l-5.835,8.859l6.023,9.131h-1.729
			l-5.159-7.861l-5.159,7.861h-1.729L-205.754,468.381z"/>
		<path fill="#231F20" d="M-192.899,477.512h-1.594v-17.99h1.594V477.512z"/>
	</g>
</g>
<g id="colori">
	<linearGradient id="SVGID_24_" gradientUnits="userSpaceOnUse" x1="614.9158" y1="-94.9436" x2="614.9157" y2="767.8707">
		<stop  offset="0" style="stop-color:#69EF08"/>
		<stop  offset="0.1904" style="stop-color:#99EF1B"/>
		<stop  offset="0.4158" style="stop-color:#CBEE2F"/>
		<stop  offset="0.5868" style="stop-color:#EAEE3B"/>
		<stop  offset="0.6819" style="stop-color:#F6EE40"/>
		<stop  offset="0.7037" style="stop-color:#F3E03D"/>
		<stop  offset="0.7451" style="stop-color:#ECBB36"/>
		<stop  offset="0.8018" style="stop-color:#E07E2A"/>
		<stop  offset="0.8707" style="stop-color:#D12C1A"/>
		<stop  offset="0.9056" style="stop-color:#C80011"/>
	</linearGradient>
	<rect x="553.838" y="337.826" fill="url(#SVGID_24_)" width="122.156" height="81"/>
	<linearGradient id="SVGID_25_" gradientUnits="userSpaceOnUse" x1="614.7957" y1="-98.7883" x2="614.7956" y2="764.0155">
		<stop  offset="0" style="stop-color:#69EF08"/>
		<stop  offset="0.1904" style="stop-color:#99EF1B"/>
		<stop  offset="0.4158" style="stop-color:#CBEE2F"/>
		<stop  offset="0.5868" style="stop-color:#EAEE3B"/>
		<stop  offset="0.6819" style="stop-color:#F6EE40"/>
		<stop  offset="0.7037" style="stop-color:#F3E03D"/>
		<stop  offset="0.7451" style="stop-color:#ECBB36"/>
		<stop  offset="0.8018" style="stop-color:#E07E2A"/>
		<stop  offset="0.8707" style="stop-color:#D12C1A"/>
		<stop  offset="0.9056" style="stop-color:#C80011"/>
	</linearGradient>
	<rect x="553.718" y="421.615" fill="url(#SVGID_25_)" width="122.156" height="81"/>
	<linearGradient id="SVGID_26_" gradientUnits="userSpaceOnUse" x1="614.7957" y1="-103.0232" x2="614.7956" y2="759.7806">
		<stop  offset="0" style="stop-color:#69EF08"/>
		<stop  offset="0.1904" style="stop-color:#99EF1B"/>
		<stop  offset="0.4158" style="stop-color:#CBEE2F"/>
		<stop  offset="0.5868" style="stop-color:#EAEE3B"/>
		<stop  offset="0.6819" style="stop-color:#F6EE40"/>
		<stop  offset="0.7037" style="stop-color:#F3E03D"/>
		<stop  offset="0.7451" style="stop-color:#ECBB36"/>
		<stop  offset="0.8018" style="stop-color:#E07E2A"/>
		<stop  offset="0.8707" style="stop-color:#D12C1A"/>
		<stop  offset="0.9056" style="stop-color:#C80011"/>
	</linearGradient>
	<rect x="553.718" y="505.019" fill="url(#SVGID_26_)" width="122.156" height="81"/>
	<linearGradient id="SVGID_27_" gradientUnits="userSpaceOnUse" x1="614.7957" y1="-107.2585" x2="614.7956" y2="755.5453">
		<stop  offset="0" style="stop-color:#69EF08"/>
		<stop  offset="0.1904" style="stop-color:#99EF1B"/>
		<stop  offset="0.4158" style="stop-color:#CBEE2F"/>
		<stop  offset="0.5868" style="stop-color:#EAEE3B"/>
		<stop  offset="0.6819" style="stop-color:#F6EE40"/>
		<stop  offset="0.7037" style="stop-color:#F3E03D"/>
		<stop  offset="0.7451" style="stop-color:#ECBB36"/>
		<stop  offset="0.8018" style="stop-color:#E07E2A"/>
		<stop  offset="0.8707" style="stop-color:#D12C1A"/>
		<stop  offset="0.9056" style="stop-color:#C80011"/>
	</linearGradient>
	<rect x="553.718" y="588.423" fill="url(#SVGID_27_)" width="122.156" height="81"/>
	<linearGradient id="SVGID_28_" gradientUnits="userSpaceOnUse" x1="614.7957" y1="-77.9851" x2="614.7956" y2="747.907">
		<stop  offset="0" style="stop-color:#69EF08"/>
		<stop  offset="0.1904" style="stop-color:#99EF1B"/>
		<stop  offset="0.4158" style="stop-color:#CBEE2F"/>
		<stop  offset="0.5868" style="stop-color:#EAEE3B"/>
		<stop  offset="0.6819" style="stop-color:#F6EE40"/>
		<stop  offset="0.7037" style="stop-color:#F3E03D"/>
		<stop  offset="0.7451" style="stop-color:#ECBB36"/>
		<stop  offset="0.8018" style="stop-color:#E07E2A"/>
		<stop  offset="0.8707" style="stop-color:#D12C1A"/>
		<stop  offset="0.9056" style="stop-color:#C80011"/>
	</linearGradient>
	<rect x="553.718" y="671.826" fill="url(#SVGID_28_)" width="122.156" height="81"/>
	<linearGradient id="SVGID_29_" gradientUnits="userSpaceOnUse" x1="614.7957" y1="89.6589" x2="614.7956" y2="938.547">
		<stop  offset="0" style="stop-color:#69EF08"/>
		<stop  offset="0.1904" style="stop-color:#99EF1B"/>
		<stop  offset="0.4158" style="stop-color:#CBEE2F"/>
		<stop  offset="0.5868" style="stop-color:#EAEE3B"/>
		<stop  offset="0.6819" style="stop-color:#F6EE40"/>
		<stop  offset="0.7037" style="stop-color:#F3E03D"/>
		<stop  offset="0.7451" style="stop-color:#ECBB36"/>
		<stop  offset="0.8018" style="stop-color:#E07E2A"/>
		<stop  offset="0.8707" style="stop-color:#D12C1A"/>
		<stop  offset="0.9056" style="stop-color:#C80011"/>
	</linearGradient>
	<rect x="553.718" y="254.806" fill="url(#SVGID_29_)" width="122.156" height="81"/>
	<linearGradient id="SVGID_30_" gradientUnits="userSpaceOnUse" x1="614.7957" y1="181.0857" x2="614.7956" y2="1009.9101">
		<stop  offset="0" style="stop-color:#69EF08"/>
		<stop  offset="0.1904" style="stop-color:#99EF1B"/>
		<stop  offset="0.4158" style="stop-color:#CBEE2F"/>
		<stop  offset="0.5868" style="stop-color:#EAEE3B"/>
		<stop  offset="0.6819" style="stop-color:#F6EE40"/>
		<stop  offset="0.7037" style="stop-color:#F3E03D"/>
		<stop  offset="0.7451" style="stop-color:#ECBB36"/>
		<stop  offset="0.8018" style="stop-color:#E07E2A"/>
		<stop  offset="0.8707" style="stop-color:#D12C1A"/>
		<stop  offset="0.9056" style="stop-color:#C80011"/>
	</linearGradient>
	<rect x="553.718" y="171.402" fill="url(#SVGID_30_)" width="122.156" height="81"/>
</g>
<g id="indicatore">
	<path fill="#9B9A9A" d="M688.392,145.492h-147.01c-4.101,0-7.425,4.4-7.425,9.828v611.099c0,5.426,3.324,9.828,7.425,9.828h147.01
		c4.102,0,7.425-4.402,7.425-9.828V155.321C695.817,149.892,692.494,145.492,688.392,145.492z M675.027,743.057
		c0,5.428-3.323,9.827-7.424,9.827H562.172c-4.1,0-7.426-4.399-7.426-9.827V181.23c0-5.428,3.326-9.828,7.426-9.828h105.432
		c4.101,0,7.424,4.4,7.424,9.828V743.057z"/>
	<rect x="553.524" y="250.736" fill="#9B9A9A" width="122.783" height="6.098"/>
	<rect x="553.524" y="334.049" fill="#9B9A9A" width="122.783" height="6.098"/>
	<rect x="553.524" y="417.362" fill="#9B9A9A" width="122.783" height="6.099"/>
	<rect x="553.524" y="500.675" fill="#9B9A9A" width="122.783" height="6.099"/>
	<rect x="553.524" y="667.301" fill="#9B9A9A" width="122.783" height="6.099"/>
	<rect x="553.524" y="583.988" fill="#9B9A9A" width="122.783" height="6.099"/>
	<polygon id="freccia_indicatore" fill="#535354" points="646.159,216.814 682.875,179.785 731.276,179.785 731.276,250.736 
		682.875,250.736 	"/>
</g>
</svg>
